<svg xmlns="http://www.w3.org/2000/svg" width="80" height="80" viewBox="0 0 80 80" fill="none"><g clip-path="url(#clip0_384_3904)"><path opacity="0.3" d="M16.6667 26.6667H63.3334V20H16.6667V26.6667Z" fill="#2F3C34"></path><path d="M23.3333 36.6667H30V43.3334H23.3333V36.6667ZM63.3333 13.3334H60V6.66675H53.3333V13.3334H26.6667V6.66675H20V13.3334H16.6667C12.9667 13.3334 10.0333 16.3334 10.0333 20.0001L10 66.6668C10 70.3334 12.9667 73.3334 16.6667 73.3334H63.3333C67 73.3334 70 70.3334 70 66.6668V20.0001C70 16.3334 67 13.3334 63.3333 13.3334ZM63.3333 66.6668H16.6667V33.3334H63.3333V66.6668ZM63.3333 26.6667H16.6667V20.0001H63.3333V26.6667ZM50 36.6667H56.6667V43.3334H50V36.6667ZM36.6667 36.6667H43.3333V43.3334H36.6667V36.6667Z" fill="#2F3C34"></path></g><defs><clipPath id="clip0_384_3904"><rect width="80" height="80" fill="white"></rect></clipPath></defs></svg>