<svg xmlns="http://www.w3.org/2000/svg" width="96" height="96" viewBox="0 0 96 96" fill="none"><g clip-path="url(#clip0_407_4447)"><path d="M25.2812 52.04C29.1212 52.12 32.6813 54.04 35.0813 57.4C38.0013 61.52 42.8412 64 48.0012 64C53.1612 64 58.0013 61.52 60.9212 57.36C63.3213 54 66.8813 52.08 70.7213 52C67.8413 47.12 56.3212 44 48.0012 44C39.7212 44 28.1613 47.12 25.2812 52.04Z" fill="#2F3C34"></path><path d="M16 52C22.64 52 28 46.64 28 40C28 33.36 22.64 28 16 28C9.36 28 4 33.36 4 40C4 46.64 9.36 52 16 52Z" fill="#2F3C34"></path><path d="M80 52C86.64 52 92 46.64 92 40C92 33.36 86.64 28 80 28C73.36 28 68 33.36 68 40C68 46.64 73.36 52 80 52Z" fill="#2F3C34"></path><path d="M48 40C54.64 40 60 34.64 60 28C60 21.36 54.64 16 48 16C41.36 16 36 21.36 36 28C36 34.64 41.36 40 48 40Z" fill="#2F3C34"></path><path d="M84 56H70.92C67.84 56 65.52 57.8 64.2 59.68C64.04 59.92 58.76 68 48 68C42.28 68 35.88 65.44 31.8 59.68C30.24 57.48 27.8 56 25.08 56H12C7.6 56 4 59.6 4 64V80H32V70.96C36.6 74.16 42.16 76 48 76C53.84 76 59.4 74.16 64 70.96V80H92V64C92 59.6 88.4 56 84 56Z" fill="#2F3C34"></path></g><defs><clipPath id="clip0_407_4447"><rect width="96" height="96" fill="white"></rect></clipPath></defs></svg>