<svg xmlns="http://www.w3.org/2000/svg" width="80" height="80" viewBox="0 0 80 80" fill="none"><g clip-path="url(#clip0_410_4381)"><path opacity="0.3" d="M8.33332 59.9C6.73332 60.8333 6.19999 62.8666 7.09999 64.4666C7.99999 66.0666 10.0667 66.6 11.6667 65.7C13.2667 64.7666 13.8 62.7333 12.9 61.1333C12 59.5333 9.93332 58.9666 8.33332 59.9Z" fill="#E6B12E"></path><path opacity="0.3" d="M71.6668 59.9C70.0668 58.9666 68.0335 59.5333 67.1002 61.1333C66.1668 62.7333 66.7335 64.7666 68.3335 65.7C69.9335 66.6333 71.9668 66.0666 72.9002 64.4666C73.8335 62.8666 73.2668 60.8 71.6668 59.9Z" fill="#E6B12E"></path><path opacity="0.3" d="M40.0003 16.6667C41.8413 16.6667 43.3337 15.1743 43.3337 13.3333C43.3337 11.4924 41.8413 10 40.0003 10C38.1594 10 36.667 11.4924 36.667 13.3333C36.667 15.1743 38.1594 16.6667 40.0003 16.6667Z" fill="#E6B12E"></path><path d="M33.667 53L38.4003 48.2666C29.3003 40.1666 23.3337 34.7 23.3337 29.5C23.3337 26 26.0003 23.3333 29.5003 23.3333C33.2003 23.3333 34.6337 25.5 38.4337 30H41.5337C45.267 25.6333 46.6337 23.3333 50.467 23.3333C53.367 23.3333 55.6337 25.1333 56.367 27.7333C57.5337 27.6 58.6337 27.5333 59.7003 27.5333C60.9003 27.5333 62.0337 27.6333 63.1337 27.8C62.3337 21.4333 57.1003 16.6666 50.5003 16.6666C50.1003 16.6666 49.7337 16.7666 49.3337 16.8C49.7337 15.7 50.0003 14.5666 50.0003 13.3333C50.0003 7.79998 45.5337 3.33331 40.0003 3.33331C34.467 3.33331 30.0003 7.79998 30.0003 13.3333C30.0003 14.5666 30.267 15.7 30.667 16.8C30.267 16.7666 29.9003 16.6666 29.5003 16.6666C22.3003 16.6666 16.667 22.3 16.667 29.5C16.667 37.5666 23.467 43.8666 33.667 53ZM40.0003 9.99998C41.8337 9.99998 43.3337 11.5 43.3337 13.3333C43.3337 15.1666 41.8337 16.6666 40.0003 16.6666C38.167 16.6666 36.667 15.1666 36.667 13.3333C36.667 11.5 38.167 9.99998 40.0003 9.99998Z" fill="#E6B12E"></path><path d="M75.0007 54.1333C73.934 53.5333 72.8007 53.1667 71.6673 52.9667C71.9007 52.6333 72.1673 52.3667 72.3673 52.0333C75.9673 45.8 73.9006 38.1 67.6673 34.5C60.7006 30.4667 51.8007 33.2 38.834 37.5L40.5673 43.9667C52.134 40.1667 59.8673 37.7 64.3673 40.3C67.4006 42.0667 68.3673 45.6667 66.634 48.7333C64.7673 51.9333 62.2007 52.0667 56.4007 53.1333L54.834 55.8333C56.7673 61.2333 58.0673 63.6 56.134 66.9C54.3673 69.9333 50.7673 70.9 47.7007 69.1667C47.5007 69.0667 47.334 68.8667 47.134 68.7333C46.134 70.9667 45.0007 72.8667 43.7007 74.5C43.934 74.6333 44.134 74.8 44.3673 74.9667C50.6007 78.5667 58.3007 76.5 61.9007 70.2667C62.1007 69.9333 62.2006 69.5667 62.3673 69.2C63.1006 70.1 63.9673 70.9 65.034 71.5C69.8007 74.2667 75.934 72.6333 78.7007 67.8333C81.4673 63.0333 79.7673 56.8667 75.0007 54.1333ZM72.9007 64.4333C71.9673 66.0333 69.934 66.5667 68.334 65.6667C66.734 64.7333 66.2006 62.7 67.1006 61.1C68.0006 59.5 70.0673 58.9667 71.6673 59.8667C73.2673 60.8 73.8007 62.8667 72.9007 64.4333Z" fill="#E6B12E"></path><path d="M41.067 46.7C38.6004 58.6333 36.8337 66.5333 32.3337 69.1333C29.3004 70.9 25.667 69.9333 23.9004 66.8667C22.0337 63.6667 23.2337 61.3333 25.2004 55.8L23.667 53.1C18.0004 52.0667 15.3337 52 13.4337 48.7C11.667 45.6667 12.6337 42.0333 15.7004 40.2667C16.0004 40.1 16.3337 40 16.667 39.9C15.5004 38.0333 14.5337 36 13.9337 33.7333C13.4004 33.9667 12.867 34.2 12.3337 34.5C6.10037 38.1 4.0337 45.8 7.6337 52.0333C7.8337 52.3667 8.10037 52.6333 8.3337 52.9667C7.20037 53.1667 6.06703 53.5333 5.00037 54.1333C0.233701 56.9 -1.43297 63 1.3337 67.8C4.10037 72.6 10.2004 74.2333 15.0004 71.4667C16.067 70.8667 16.9337 70.0667 17.667 69.1667C17.8337 69.5333 17.9337 69.9 18.1337 70.2333C21.7337 76.4667 29.4337 78.5333 35.667 74.9333C42.6337 70.9 44.7004 61.8333 47.5004 48.4667L41.067 46.7ZM11.667 65.6667C10.067 66.6 8.0337 66.0333 7.10037 64.4333C6.16703 62.8333 6.7337 60.8 8.3337 59.8667C9.9337 58.9333 11.967 59.5 12.9004 61.1C13.8337 62.7 13.267 64.7333 11.667 65.6667Z" fill="#E6B12E"></path></g><defs><clipPath id="clip0_410_4381"><rect width="80" height="80" fill="white"></rect></clipPath></defs></svg>