<svg xmlns="http://www.w3.org/2000/svg" width="48" height="48" viewBox="0 0 48 48" fill="none"><g clip-path="url(#clip0_1564_1799)"><path d="M12.64 26.02C14.56 26.06 16.34 27.02 17.54 28.7C19 30.76 21.42 32 24 32C26.58 32 29 30.76 30.46 28.68C31.66 27 33.44 26.04 35.36 26C33.92 23.56 28.16 22 24 22C19.86 22 14.08 23.56 12.64 26.02Z" fill="#48785D"></path><path d="M8 26C11.32 26 14 23.32 14 20C14 16.68 11.32 14 8 14C4.68 14 2 16.68 2 20C2 23.32 4.68 26 8 26Z" fill="#48785D"></path><path d="M40 26C43.32 26 46 23.32 46 20C46 16.68 43.32 14 40 14C36.68 14 34 16.68 34 20C34 23.32 36.68 26 40 26Z" fill="#48785D"></path><path d="M24 20C27.32 20 30 17.32 30 14C30 10.68 27.32 8 24 8C20.68 8 18 10.68 18 14C18 17.32 20.68 20 24 20Z" fill="#48785D"></path><path d="M42 28H35.46C33.92 28 32.76 28.9 32.1 29.84C32.02 29.96 29.38 34 24 34C21.14 34 17.94 32.72 15.9 29.84C15.12 28.74 13.9 28 12.54 28H6C3.8 28 2 29.8 2 32V40H16V35.48C18.3 37.08 21.08 38 24 38C26.92 38 29.7 37.08 32 35.48V40H46V32C46 29.8 44.2 28 42 28Z" fill="#48785D"></path></g><defs><clipPath id="clip0_1564_1799"><rect width="48" height="48" fill="white"></rect></clipPath></defs></svg>