<svg xmlns="http://www.w3.org/2000/svg" width="96" height="96" viewBox="0 0 96 96" fill="none"><g clip-path="url(#clip0_385_3959)"><path d="M16 64C20.4183 64 24 60.4183 24 56C24 51.5817 20.4183 48 16 48C11.5817 48 8 51.5817 8 56C8 60.4183 11.5817 64 16 64Z" fill="#48785D"></path><path d="M4.88 70.32C1.92 71.6 0 74.48 0 77.72V84H18V77.56C18 74.24 18.92 71.12 20.52 68.4C19.04 68.16 17.56 68 16 68C12.04 68 8.28 68.84 4.88 70.32Z" fill="#48785D"></path><path d="M80 64C84.4183 64 88 60.4183 88 56C88 51.5817 84.4183 48 80 48C75.5817 48 72 51.5817 72 56C72 60.4183 75.5817 64 80 64Z" fill="#2F3C34"></path><path d="M91.12 70.32C87.72 68.84 83.96 68 80 68C78.44 68 76.96 68.16 75.48 68.4C77.08 71.12 78 74.24 78 77.56V84H96V77.72C96 74.48 94.08 71.6 91.12 70.32Z" fill="#2F3C34"></path><path d="M64.96 66.6C60.28 64.52 54.52 63 48 63C41.48 63 35.72 64.56 31.04 66.6C26.72 68.52 24 72.84 24 77.56V84H72V77.56C72 72.84 69.28 68.52 64.96 66.6ZM32.28 76C32.64 75.08 33.36 74.32 34.24 73.92C38.64 71.96 43.28 71 47.96 71C52.68 71 57.28 72 61.68 73.92C62.6 74.32 63.28 75.08 63.64 76H32.28Z" fill="#2F3C34"></path><path d="M36 48C36 54.64 41.36 60 48 60C54.64 60 60 54.64 60 48C60 41.36 54.64 36 48 36C41.36 36 36 41.36 36 48ZM52 48C52 50.2 50.2 52 48 52C45.8 52 44 50.2 44 48C44 45.8 45.8 44 48 44C50.2 44 52 45.8 52 48Z" fill="#2F3C34"></path><path d="M9.92 43.44C8.68 40.4 8 37.44 8 34.4C8 24.08 16.08 16 26.4 16C37.12 16 41.68 22.96 48 30.36C54.28 23.04 58.8 16 69.6 16C79.92 16 88 24.08 88 34.4C88 37.44 87.32 40.4 86.08 43.44C88.68 44.68 90.8 46.72 92.2 49.2C94.6 44.4 96 39.52 96 34.4C96 19.6 84.4 8 69.6 8C61.24 8 53.24 11.88 48 18.04C42.76 11.88 34.76 8 26.4 8C11.6 8 0 19.6 0 34.4C0 39.52 1.4 44.4 3.84 49.2C5.24 46.72 7.36 44.68 9.92 43.44Z" fill="#2F3C34"></path><path opacity="0.3" d="M69.6 16C58.88 16 54.32 22.96 48 30.36C41.76 23 37.2 16 26.4 16C16.08 16 8 24.08 8 34.4C8 37.44 8.68 40.4 9.92 43.44C11.76 42.56 13.8 42 16 42C23.72 42 30 48.28 30 56C30 57.8 29.64 59.48 29.04 61.04C32.92 59.36 36.88 58.28 40.96 57.68C37.96 55.48 36 52 36 48C36 41.36 41.36 36 48 36C54.64 36 60 41.36 60 48C60 52 58.04 55.48 55.04 57.68C59.12 58.28 63.12 59.4 66.96 61.08C66.36 59.52 66 57.8 66 56.04C66 48.32 72.28 42.04 80 42.04C82.2 42.04 84.24 42.6 86.08 43.48C87.32 40.4 88 37.44 88 34.4C88 24.08 79.92 16 69.6 16Z" fill="#2F3C34"></path><path opacity="0.3" d="M32.2798 76.08H63.6798C63.3198 75.16 62.5998 74.4 61.7198 74C57.3198 72.04 52.6798 71.08 47.9998 71.08C43.2798 71.08 38.6798 72.08 34.2798 74C33.3598 74.4 32.6798 75.16 32.2798 76.08Z" fill="#2F3C34"></path><path opacity="0.3" d="M48 52C50.2091 52 52 50.2091 52 48C52 45.7909 50.2091 44 48 44C45.7909 44 44 45.7909 44 48C44 50.2091 45.7909 52 48 52Z" fill="#2F3C34"></path></g><defs><clipPath id="clip0_385_3959"><rect width="96" height="96" fill="white"></rect></clipPath></defs></svg>