<svg xmlns="http://www.w3.org/2000/svg" width="48" height="48" viewBox="0 0 48 48" fill="none"><g clip-path="url(#clip0_1564_1756)"><path opacity="0.3" d="M5.00009 35.94C4.04009 36.5 3.72009 37.72 4.26009 38.68C4.80009 39.64 6.04009 39.96 7.00009 39.42C7.96009 38.86 8.28009 37.64 7.74009 36.68C7.20009 35.72 5.96009 35.38 5.00009 35.94Z" fill="#E6B12E"></path><path opacity="0.3" d="M42.9999 35.94C42.0399 35.38 40.8199 35.72 40.2599 36.68C39.6999 37.64 40.0399 38.86 40.9999 39.42C41.9599 39.98 43.1799 39.64 43.7399 38.68C44.2999 37.72 43.9599 36.48 42.9999 35.94Z" fill="#E6B12E"></path><path opacity="0.3" d="M24 10C25.1046 10 26 9.10457 26 8C26 6.89543 25.1046 6 24 6C22.8954 6 22 6.89543 22 8C22 9.10457 22.8954 10 24 10Z" fill="#E6B12E"></path><path d="M20.2 31.8L23.04 28.96C17.58 24.1 14 20.82 14 17.7C14 15.6 15.6 14 17.7 14C19.92 14 20.78 15.3 23.06 18H24.92C27.16 15.38 27.98 14 30.28 14C32.02 14 33.38 15.08 33.82 16.64C34.52 16.56 35.18 16.52 35.82 16.52C36.54 16.52 37.22 16.58 37.88 16.68C37.4 12.86 34.26 10 30.3 10C30.06 10 29.84 10.06 29.6 10.08C29.84 9.42 30 8.74 30 8C30 4.68 27.32 2 24 2C20.68 2 18 4.68 18 8C18 8.74 18.16 9.42 18.4 10.08C18.16 10.06 17.94 10 17.7 10C13.38 10 10 13.38 10 17.7C10 22.54 14.08 26.32 20.2 31.8ZM24 6C25.1 6 26 6.9 26 8C26 9.1 25.1 10 24 10C22.9 10 22 9.1 22 8C22 6.9 22.9 6 24 6Z" fill="#E6B12E"></path><path d="M45 32.48C44.3601 32.12 43.68 31.9 43 31.78C43.14 31.58 43.3 31.42 43.42 31.22C45.58 27.48 44.34 22.86 40.6 20.7C36.42 18.28 31.08 19.92 23.3 22.5L24.34 26.38C31.28 24.1 35.92 22.62 38.62 24.18C40.44 25.24 41.0201 27.4 39.98 29.24C38.86 31.16 37.32 31.24 33.84 31.88L32.9001 33.5C34.0601 36.74 34.84 38.16 33.68 40.14C32.6201 41.96 30.4601 42.54 28.6201 41.5C28.5001 41.44 28.4001 41.32 28.2801 41.24C27.6801 42.58 27 43.72 26.22 44.7C26.36 44.78 26.4801 44.88 26.6201 44.98C30.3601 47.14 34.98 45.9 37.14 42.16C37.26 41.96 37.32 41.74 37.42 41.52C37.86 42.06 38.38 42.54 39.0201 42.9C41.8801 44.56 45.5601 43.58 47.2201 40.7C48.8801 37.82 47.8601 34.12 45 32.48ZM43.7401 38.66C43.1801 39.62 41.96 39.94 41 39.4C40.0401 38.84 39.72 37.62 40.26 36.66C40.8 35.7 42.0401 35.38 43 35.92C43.96 36.48 44.2801 37.72 43.7401 38.66Z" fill="#E6B12E"></path><path d="M24.64 28.02C23.16 35.18 22.1 39.92 19.4 41.48C17.58 42.54 15.4 41.96 14.34 40.12C13.22 38.2 13.94 36.8 15.12 33.48L14.2 31.86C10.8 31.24 9.19998 31.2 8.05998 29.22C6.99998 27.4 7.57998 25.22 9.41998 24.16C9.59998 24.06 9.79998 24 9.99998 23.94C9.29998 22.82 8.71998 21.6 8.35998 20.24C8.03998 20.38 7.71998 20.52 7.39998 20.7C3.65998 22.86 2.41998 27.48 4.57998 31.22C4.69998 31.42 4.85998 31.58 4.99998 31.78C4.31998 31.9 3.63998 32.12 2.99998 32.48C0.139976 34.14 -0.860024 37.8 0.799976 40.68C2.45998 43.56 6.11998 44.54 8.99998 42.88C9.63998 42.52 10.16 42.04 10.6 41.5C10.7 41.72 10.76 41.94 10.88 42.14C13.04 45.88 17.66 47.12 21.4 44.96C25.58 42.54 26.82 37.1 28.5 29.08L24.64 28.02ZM6.99998 39.4C6.03998 39.96 4.81998 39.62 4.25998 38.66C3.69998 37.7 4.03998 36.48 4.99998 35.92C5.95998 35.36 7.17998 35.7 7.73998 36.66C8.29998 37.62 7.95998 38.84 6.99998 39.4Z" fill="#E6B12E"></path></g><defs><clipPath id="clip0_1564_1756"><rect width="48" height="48" fill="white"></rect></clipPath></defs></svg>