<svg xmlns="http://www.w3.org/2000/svg" width="209" height="222" viewBox="0 0 209 222" fill="none"><g clip-path="url(#clip0_649_5822)"><rect width="209" height="222" rx="8" fill="#48785D"></rect><path d="M147.992 117.638L413.958 279.958L147.967 442.321L-118 280L147.992 117.638Z" fill="#E6B12E"></path><g clip-path="url(#clip1_649_5822)"><path d="M48.5 19.8333L46 17.3333L43.5 19.8333L41 17.3333L38.5 19.8333L36 17.3333L33.5 19.8333L31 17.3333L28.5 19.8333L26 17.3333V40.6667H21V45.6667C21 48.4333 23.2333 50.6667 26 50.6667H46C48.7667 50.6667 51 48.4333 51 45.6667V17.3333L48.5 19.8333ZM41 47.3333H26C25.0833 47.3333 24.3333 46.5833 24.3333 45.6667V44H41V47.3333ZM47.6667 45.6667C47.6667 46.5833 46.9167 47.3333 46 47.3333C45.0833 47.3333 44.3333 46.5833 44.3333 45.6667V40.6667H29.3333V22.3333H47.6667V45.6667Z" fill="#E6B12E"></path><path d="M41 25.6667H31V29H41V25.6667Z" fill="#E6B12E"></path><path d="M46.0013 25.6667H42.668V29H46.0013V25.6667Z" fill="#E6B12E"></path><path d="M41 30.6667H31V34H41V30.6667Z" fill="#E6B12E"></path><path d="M46.0013 30.6667H42.668V34H46.0013V30.6667Z" fill="#E6B12E"></path></g><path d="M21.922 83C25.684 83 28.294 80.624 28.294 77.006C28.294 73.388 25.684 70.994 21.922 70.994H17.188V83H21.922ZM21.922 80.75H19.744V73.244H21.922C24.388 73.244 25.684 74.882 25.684 77.006C25.684 79.04 24.298 80.75 21.922 80.75ZM34.1399 83.216C35.4899 83.216 36.8579 82.802 37.7219 82.01L36.7139 80.534C36.1559 81.074 35.1299 81.398 34.3919 81.398C32.9159 81.398 32.0339 80.48 31.8899 79.382H38.3519V78.878C38.3519 76.034 36.5879 74.09 33.9959 74.09C31.3499 74.09 29.4959 76.124 29.4959 78.644C29.4959 81.434 31.4939 83.216 34.1399 83.216ZM36.1379 77.834H31.8539C31.9619 76.97 32.5739 75.908 33.9959 75.908C35.5079 75.908 36.0839 77.006 36.1379 77.834ZM53.0891 83V76.718C53.0891 74.936 52.1351 74.09 50.5331 74.09C49.2011 74.09 48.0491 74.882 47.5451 75.674C47.2211 74.684 46.4111 74.09 45.1331 74.09C43.8011 74.09 42.6491 74.918 42.2891 75.44V74.306H40.0031V83H42.2891V77.15C42.6311 76.664 43.2971 76.124 44.0891 76.124C45.0251 76.124 45.3851 76.7 45.3851 77.51V83H47.6891V77.132C48.0131 76.664 48.6791 76.124 49.4891 76.124C50.4251 76.124 50.7851 76.7 50.7851 77.51V83H53.0891ZM59.3633 83.216C62.2433 83.216 63.9713 81.128 63.9713 78.644C63.9713 76.178 62.2433 74.09 59.3633 74.09C56.5013 74.09 54.7733 76.178 54.7733 78.644C54.7733 81.128 56.5013 83.216 59.3633 83.216ZM59.3633 81.182C57.9413 81.182 57.1493 80.012 57.1493 78.644C57.1493 77.294 57.9413 76.124 59.3633 76.124C60.7853 76.124 61.5953 77.294 61.5953 78.644C61.5953 80.012 60.7853 81.182 59.3633 81.182ZM73.8212 83V76.862C73.8212 75.17 72.9032 74.09 70.9952 74.09C69.5732 74.09 68.5112 74.774 67.9532 75.44V74.306H65.6672V83H67.9532V77.15C68.3312 76.628 69.0332 76.124 69.9332 76.124C70.9052 76.124 71.5352 76.538 71.5352 77.744V83H73.8212ZM79.223 83.216C81.635 83.216 82.985 82.01 82.985 80.426C82.985 76.916 77.837 77.996 77.837 76.7C77.837 76.214 78.377 75.836 79.205 75.836C80.267 75.836 81.257 76.286 81.779 76.844L82.697 75.278C81.833 74.594 80.663 74.09 79.187 74.09C76.901 74.09 75.623 75.368 75.623 76.826C75.623 80.246 80.789 79.076 80.789 80.516C80.789 81.056 80.321 81.452 79.331 81.452C78.251 81.452 76.955 80.858 76.325 80.264L75.335 81.866C76.253 82.712 77.711 83.216 79.223 83.216ZM87.5852 83.216C88.5392 83.216 89.1512 82.964 89.4932 82.658L89.0072 80.93C88.8812 81.056 88.5572 81.182 88.2152 81.182C87.7112 81.182 87.4232 80.768 87.4232 80.228V76.304H89.1872V74.306H87.4232V71.93H85.1192V74.306H83.6792V76.304H85.1192V80.84C85.1192 82.388 85.9832 83.216 87.5852 83.216ZM93.0372 83V77.258C93.4152 76.7 94.4232 76.268 95.1792 76.268C95.4312 76.268 95.6472 76.286 95.8092 76.322V74.09C94.7292 74.09 93.6492 74.72 93.0372 75.494V74.306H90.7512V83H93.0372ZM104.744 83V77.384C104.744 74.882 102.926 74.09 100.946 74.09C99.5775 74.09 98.2095 74.522 97.1475 75.458L98.0115 76.988C98.7495 76.304 99.6135 75.962 100.55 75.962C101.702 75.962 102.458 76.538 102.458 77.42V78.59C101.882 77.906 100.856 77.528 99.7035 77.528C98.3175 77.528 96.6795 78.302 96.6795 80.336C96.6795 82.28 98.3175 83.216 99.7035 83.216C100.838 83.216 101.864 82.802 102.458 82.1V83H104.744ZM100.622 81.668C99.7215 81.668 98.9835 81.2 98.9835 80.39C98.9835 79.544 99.7215 79.076 100.622 79.076C101.36 79.076 102.08 79.328 102.458 79.832V80.912C102.08 81.416 101.36 81.668 100.622 81.668ZM111.115 86.492C112.195 86.492 113.113 85.916 113.113 84.962C113.113 84.206 112.573 83.702 111.907 83.702C111.673 83.702 111.439 83.774 111.259 83.882L111.547 83.198C113.041 83.072 113.977 82.37 114.499 81.632L113.005 80.246C112.591 80.822 111.961 81.182 111.169 81.182C109.783 81.182 108.811 80.156 108.811 78.644C108.811 77.132 109.783 76.124 111.169 76.124C111.961 76.124 112.591 76.448 113.005 77.06L114.499 75.656C113.923 74.864 112.843 74.09 111.061 74.09C108.379 74.09 106.453 75.98 106.453 78.644C106.453 81.128 108.073 82.928 110.431 83.18L110.053 84.242L110.881 84.71C111.025 84.566 111.223 84.458 111.457 84.458C111.799 84.458 111.979 84.638 111.979 84.926C111.979 85.322 111.529 85.52 111.043 85.52C110.557 85.52 110.035 85.34 109.585 84.998L109.135 85.916C109.513 86.222 110.251 86.492 111.115 86.492ZM123.499 83V77.384C123.499 74.882 121.681 74.09 119.701 74.09C118.333 74.09 116.965 74.522 115.903 75.458L116.767 76.988C117.505 76.304 118.369 75.962 119.305 75.962C120.457 75.962 121.213 76.538 121.213 77.42V78.59C120.637 77.906 119.611 77.528 118.459 77.528C117.073 77.528 115.435 78.302 115.435 80.336C115.435 82.28 117.073 83.216 118.459 83.216C119.593 83.216 120.619 82.802 121.213 82.1V83H123.499ZM119.377 81.668C118.477 81.668 117.739 81.2 117.739 80.39C117.739 79.544 118.477 79.076 119.377 79.076C120.115 79.076 120.835 79.328 121.213 79.832V80.912C120.835 81.416 120.115 81.668 119.377 81.668ZM120.727 73.028C121.987 73.028 122.653 72.146 122.653 70.616H121.447C121.447 71.372 121.159 71.714 120.799 71.714C120.115 71.714 119.899 70.508 118.711 70.508C117.451 70.508 116.767 71.39 116.767 72.92H117.973C117.973 72.146 118.261 71.804 118.621 71.804C119.305 71.804 119.503 73.028 120.727 73.028ZM129.799 83.216C132.679 83.216 134.407 81.128 134.407 78.644C134.407 76.178 132.679 74.09 129.799 74.09C126.937 74.09 125.209 76.178 125.209 78.644C125.209 81.128 126.937 83.216 129.799 83.216ZM129.799 81.182C128.377 81.182 127.585 80.012 127.585 78.644C127.585 77.294 128.377 76.124 129.799 76.124C131.221 76.124 132.031 77.294 132.031 78.644C132.031 80.012 131.221 81.182 129.799 81.182ZM148.988 83V70.994H146.684V75.422C146 74.54 145.028 74.09 144.002 74.09C141.788 74.09 140.15 75.818 140.15 78.662C140.15 81.56 141.806 83.216 144.002 83.216C145.046 83.216 146 82.748 146.684 81.884V83H148.988ZM144.704 81.182C143.408 81.182 142.508 80.156 142.508 78.662C142.508 77.15 143.408 76.124 144.704 76.124C145.478 76.124 146.306 76.538 146.684 77.114V80.192C146.306 80.768 145.478 81.182 144.704 81.182ZM158.761 83V77.384C158.761 74.882 156.943 74.09 154.963 74.09C153.595 74.09 152.227 74.522 151.165 75.458L152.029 76.988C152.767 76.304 153.631 75.962 154.567 75.962C155.719 75.962 156.475 76.538 156.475 77.42V78.59C155.899 77.906 154.873 77.528 153.721 77.528C152.335 77.528 150.697 78.302 150.697 80.336C150.697 82.28 152.335 83.216 153.721 83.216C154.855 83.216 155.881 82.802 156.475 82.1V83H158.761ZM154.639 81.668C153.739 81.668 153.001 81.2 153.001 80.39C153.001 79.544 153.739 79.076 154.639 79.076C155.377 79.076 156.097 79.328 156.475 79.832V80.912C156.097 81.416 155.377 81.668 154.639 81.668ZM164.161 83.216C166.573 83.216 167.923 82.01 167.923 80.426C167.923 76.916 162.775 77.996 162.775 76.7C162.775 76.214 163.315 75.836 164.143 75.836C165.205 75.836 166.195 76.286 166.717 76.844L167.635 75.278C166.771 74.594 165.601 74.09 164.125 74.09C161.839 74.09 160.561 75.368 160.561 76.826C160.561 80.246 165.727 79.076 165.727 80.516C165.727 81.056 165.259 81.452 164.269 81.452C163.189 81.452 161.893 80.858 161.263 80.264L160.273 81.866C161.191 82.712 162.649 83.216 164.161 83.216ZM30.202 107V94.994H26.602L23.686 102.248L20.77 94.994H17.188V107H19.744V98.594L23.128 107H24.244L27.628 98.594V107H30.202ZM40.6864 107V98.306H38.4004V104.192C38.0044 104.696 37.3024 105.182 36.4204 105.182C35.4484 105.182 34.8184 104.786 34.8184 103.58V98.306H32.5324V104.48C32.5324 106.172 33.4324 107.216 35.3404 107.216C36.7624 107.216 37.8064 106.568 38.4004 105.902V107H40.6864ZM45.8723 107.216C46.8263 107.216 47.4383 106.964 47.7803 106.658L47.2943 104.93C47.1683 105.056 46.8443 105.182 46.5023 105.182C45.9983 105.182 45.7103 104.768 45.7103 104.228V100.304H47.4743V98.306H45.7103V95.93H43.4063V98.306H41.9663V100.304H43.4063V104.84C43.4063 106.388 44.2703 107.216 45.8723 107.216ZM56.5443 107V101.384C56.5443 98.882 54.7263 98.09 52.7463 98.09C51.3783 98.09 50.0103 98.522 48.9483 99.458L49.8123 100.988C50.5503 100.304 51.4143 99.962 52.3503 99.962C53.5023 99.962 54.2583 100.538 54.2583 101.42V102.59C53.6823 101.906 52.6563 101.528 51.5043 101.528C50.1183 101.528 48.4803 102.302 48.4803 104.336C48.4803 106.28 50.1183 107.216 51.5043 107.216C52.6383 107.216 53.6643 106.802 54.2583 106.1V107H56.5443ZM52.4223 105.668C51.5223 105.668 50.7843 105.2 50.7843 104.39C50.7843 103.544 51.5223 103.076 52.4223 103.076C53.1603 103.076 53.8803 103.328 54.2583 103.832V104.912C53.8803 105.416 53.1603 105.668 52.4223 105.668ZM62.9157 110.492C63.9957 110.492 64.9137 109.916 64.9137 108.962C64.9137 108.206 64.3737 107.702 63.7077 107.702C63.4737 107.702 63.2397 107.774 63.0597 107.882L63.3477 107.198C64.8417 107.072 65.7777 106.37 66.2997 105.632L64.8057 104.246C64.3917 104.822 63.7617 105.182 62.9697 105.182C61.5837 105.182 60.6117 104.156 60.6117 102.644C60.6117 101.132 61.5837 100.124 62.9697 100.124C63.7617 100.124 64.3917 100.448 64.8057 101.06L66.2997 99.656C65.7237 98.864 64.6437 98.09 62.8617 98.09C60.1797 98.09 58.2537 99.98 58.2537 102.644C58.2537 105.128 59.8737 106.928 62.2317 107.18L61.8537 108.242L62.6817 108.71C62.8257 108.566 63.0237 108.458 63.2577 108.458C63.5997 108.458 63.7797 108.638 63.7797 108.926C63.7797 109.322 63.3297 109.52 62.8437 109.52C62.3577 109.52 61.8357 109.34 61.3857 108.998L60.9357 109.916C61.3137 110.222 62.0517 110.492 62.9157 110.492ZM71.8262 107.216C74.7062 107.216 76.4342 105.128 76.4342 102.644C76.4342 100.178 74.7062 98.09 71.8262 98.09C68.9642 98.09 67.2362 100.178 67.2362 102.644C67.2362 105.128 68.9642 107.216 71.8262 107.216ZM71.8262 105.182C70.4042 105.182 69.6122 104.012 69.6122 102.644C69.6122 101.294 70.4042 100.124 71.8262 100.124C73.2482 100.124 74.0582 101.294 74.0582 102.644C74.0582 104.012 73.2482 105.182 71.8262 105.182ZM72.8522 97.028C74.1122 97.028 74.7782 96.146 74.7782 94.616H73.5722C73.5722 95.372 73.2842 95.714 72.9242 95.714C72.2402 95.714 72.0242 94.508 70.8362 94.508C69.5762 94.508 68.8922 95.39 68.8922 96.92H70.0982C70.0982 96.146 70.3862 95.804 70.7462 95.804C71.4302 95.804 71.6282 97.028 72.8522 97.028ZM82.2161 107.216C83.5661 107.216 84.9341 106.802 85.7981 106.01L84.7901 104.534C84.2321 105.074 83.2061 105.398 82.4681 105.398C80.9921 105.398 80.1101 104.48 79.9661 103.382H86.4281V102.878C86.4281 100.034 84.6641 98.09 82.0721 98.09C79.4261 98.09 77.5721 100.124 77.5721 102.644C77.5721 105.434 79.5701 107.216 82.2161 107.216ZM84.2141 101.834H79.9301C80.0381 100.97 80.6501 99.908 82.0721 99.908C83.5841 99.908 84.1601 101.006 84.2141 101.834ZM91.2113 107.216C93.6233 107.216 94.9733 106.01 94.9733 104.426C94.9733 100.916 89.8253 101.996 89.8253 100.7C89.8253 100.214 90.3653 99.836 91.1933 99.836C92.2553 99.836 93.2453 100.286 93.7673 100.844L94.6853 99.278C93.8213 98.594 92.6513 98.09 91.1753 98.09C88.8893 98.09 87.6113 99.368 87.6113 100.826C87.6113 104.246 92.7773 103.076 92.7773 104.516C92.7773 105.056 92.3093 105.452 91.3193 105.452C90.2393 105.452 88.9433 104.858 88.3133 104.264L87.3233 105.866C88.2413 106.712 89.6993 107.216 91.2113 107.216ZM109.543 107V94.994H107.239V99.422C106.555 98.54 105.583 98.09 104.557 98.09C102.343 98.09 100.705 99.818 100.705 102.662C100.705 105.56 102.361 107.216 104.557 107.216C105.601 107.216 106.555 106.748 107.239 105.884V107H109.543ZM105.259 105.182C103.963 105.182 103.063 104.156 103.063 102.662C103.063 101.15 103.963 100.124 105.259 100.124C106.033 100.124 106.861 100.538 107.239 101.114V104.192C106.861 104.768 106.033 105.182 105.259 105.182ZM115.842 107.216C118.722 107.216 120.45 105.128 120.45 102.644C120.45 100.178 118.722 98.09 115.842 98.09C112.98 98.09 111.252 100.178 111.252 102.644C111.252 105.128 112.98 107.216 115.842 107.216ZM115.842 105.182C114.42 105.182 113.628 104.012 113.628 102.644C113.628 101.294 114.42 100.124 115.842 100.124C117.264 100.124 118.074 101.294 118.074 102.644C118.074 104.012 117.264 105.182 115.842 105.182ZM19.744 131V126.734H22.804C25.396 126.734 26.836 124.952 26.836 122.864C26.836 120.758 25.414 118.994 22.804 118.994H17.188V131H19.744ZM22.462 124.484H19.744V121.244H22.462C23.47 121.244 24.226 121.856 24.226 122.864C24.226 123.854 23.47 124.484 22.462 124.484ZM35.5209 131V125.384C35.5209 122.882 33.7029 122.09 31.7229 122.09C30.3549 122.09 28.9869 122.522 27.9249 123.458L28.7889 124.988C29.5269 124.304 30.3909 123.962 31.3269 123.962C32.4789 123.962 33.2349 124.538 33.2349 125.42V126.59C32.6589 125.906 31.6329 125.528 30.4809 125.528C29.0949 125.528 27.4569 126.302 27.4569 128.336C27.4569 130.28 29.0949 131.216 30.4809 131.216C31.6149 131.216 32.6409 130.802 33.2349 130.1V131H35.5209ZM31.3989 129.668C30.4989 129.668 29.7609 129.2 29.7609 128.39C29.7609 127.544 30.4989 127.076 31.3989 127.076C32.1369 127.076 32.8569 127.328 33.2349 127.832V128.912C32.8569 129.416 32.1369 129.668 31.3989 129.668ZM40.7043 131.216C41.6583 131.216 42.2703 130.964 42.6123 130.658L42.1263 128.93C42.0003 129.056 41.6763 129.182 41.3343 129.182C40.8303 129.182 40.5423 128.768 40.5423 128.228V124.304H42.3063V122.306H40.5423V119.93H38.2383V122.306H36.7983V124.304H38.2383V128.84C38.2383 130.388 39.1023 131.216 40.7043 131.216ZM46.1563 131V125.258C46.5343 124.7 47.5423 124.268 48.2983 124.268C48.5503 124.268 48.7663 124.286 48.9283 124.322V122.09C47.8483 122.09 46.7683 122.72 46.1563 123.494V122.306H43.8703V131H46.1563ZM51.4907 121.37C52.2467 121.37 52.8587 120.758 52.8587 120.002C52.8587 119.246 52.2467 118.652 51.4907 118.652C50.7527 118.652 50.1227 119.246 50.1227 120.002C50.1227 120.758 50.7527 121.37 51.4907 121.37ZM52.6427 131V122.306H50.3567V131H52.6427ZM67.9954 131V124.718C67.9954 122.936 67.0414 122.09 65.4394 122.09C64.1074 122.09 62.9554 122.882 62.4514 123.674C62.1274 122.684 61.3174 122.09 60.0394 122.09C58.7074 122.09 57.5554 122.918 57.1954 123.44V122.306H54.9094V131H57.1954V125.15C57.5374 124.664 58.2034 124.124 58.9954 124.124C59.9314 124.124 60.2914 124.7 60.2914 125.51V131H62.5954V125.132C62.9194 124.664 63.5854 124.124 64.3954 124.124C65.3314 124.124 65.6914 124.7 65.6914 125.51V131H67.9954ZM76.9695 120.992L75.2775 118.4H73.2255L71.5695 120.992H72.9735L74.2515 119.39L75.5655 120.992H76.9695ZM74.2695 131.216C77.1495 131.216 78.8775 129.128 78.8775 126.644C78.8775 124.178 77.1495 122.09 74.2695 122.09C71.4075 122.09 69.6795 124.178 69.6795 126.644C69.6795 129.128 71.4075 131.216 74.2695 131.216ZM74.2695 129.182C72.8475 129.182 72.0555 128.012 72.0555 126.644C72.0555 125.294 72.8475 124.124 74.2695 124.124C75.6915 124.124 76.5015 125.294 76.5015 126.644C76.5015 128.012 75.6915 129.182 74.2695 129.182ZM88.7275 131V124.862C88.7275 123.17 87.8095 122.09 85.9015 122.09C84.4795 122.09 83.4175 122.774 82.8595 123.44V122.306H80.5735V131H82.8595V125.15C83.2375 124.628 83.9395 124.124 84.8395 124.124C85.8115 124.124 86.4415 124.538 86.4415 125.744V131H88.7275ZM92.1313 121.37C92.8873 121.37 93.4993 120.758 93.4993 120.002C93.4993 119.246 92.8873 118.652 92.1313 118.652C91.3933 118.652 90.7633 119.246 90.7633 120.002C90.7633 120.758 91.3933 121.37 92.1313 121.37ZM93.2833 131V122.306H90.9973V131H93.2833ZM99.582 131.216C102.462 131.216 104.19 129.128 104.19 126.644C104.19 124.178 102.462 122.09 99.582 122.09C96.72 122.09 94.992 124.178 94.992 126.644C94.992 129.128 96.72 131.216 99.582 131.216ZM99.582 129.182C98.16 129.182 97.368 128.012 97.368 126.644C97.368 125.294 98.16 124.124 99.582 124.124C101.004 124.124 101.814 125.294 101.814 126.644C101.814 128.012 101.004 129.182 99.582 129.182ZM21.454 155.216C24.694 155.216 26.26 153.56 26.26 151.364C26.26 146.882 19.366 148.16 19.366 146.252C19.366 145.532 19.978 145.046 21.076 145.046C22.3 145.046 23.596 145.46 24.568 146.36L25.99 144.488C24.802 143.39 23.218 142.814 21.31 142.814C18.484 142.814 16.756 144.47 16.756 146.468C16.756 150.986 23.668 149.528 23.668 151.652C23.668 152.336 22.984 152.984 21.58 152.984C19.924 152.984 18.61 152.246 17.764 151.364L16.378 153.308C17.494 154.442 19.15 155.216 21.454 155.216ZM31.959 155.216C34.839 155.216 36.567 153.128 36.567 150.644C36.567 148.178 34.839 146.09 31.959 146.09C29.097 146.09 27.369 148.178 27.369 150.644C27.369 153.128 29.097 155.216 31.959 155.216ZM31.959 153.182C30.537 153.182 29.745 152.012 29.745 150.644C29.745 149.294 30.537 148.124 31.959 148.124C33.381 148.124 34.191 149.294 34.191 150.644C34.191 152.012 33.381 153.182 31.959 153.182ZM42.3129 155.216C44.0949 155.216 45.1749 154.442 45.7509 153.632L44.2569 152.246C43.8429 152.822 43.2129 153.182 42.4209 153.182C41.0349 153.182 40.0629 152.156 40.0629 150.644C40.0629 149.132 41.0349 148.124 42.4209 148.124C43.2129 148.124 43.8429 148.448 44.2569 149.06L45.7509 147.656C45.1749 146.864 44.0949 146.09 42.3129 146.09C39.6309 146.09 37.7049 147.98 37.7049 150.644C37.7049 153.326 39.6309 155.216 42.3129 155.216ZM48.3793 145.37C49.1353 145.37 49.7473 144.758 49.7473 144.002C49.7473 143.246 49.1353 142.652 48.3793 142.652C47.6413 142.652 47.0113 143.246 47.0113 144.002C47.0113 144.758 47.6413 145.37 48.3793 145.37ZM49.5313 155V146.306H47.2453V155H49.5313ZM59.3041 155V149.384C59.3041 146.882 57.4861 146.09 55.5061 146.09C54.1381 146.09 52.7701 146.522 51.7081 147.458L52.5721 148.988C53.3101 148.304 54.1741 147.962 55.1101 147.962C56.2621 147.962 57.0181 148.538 57.0181 149.42V150.59C56.4421 149.906 55.4161 149.528 54.2641 149.528C52.8781 149.528 51.2401 150.302 51.2401 152.336C51.2401 154.28 52.8781 155.216 54.2641 155.216C55.3981 155.216 56.4241 154.802 57.0181 154.1V155H59.3041ZM55.1821 153.668C54.2821 153.668 53.5441 153.2 53.5441 152.39C53.5441 151.544 54.2821 151.076 55.1821 151.076C55.9201 151.076 56.6401 151.328 57.0181 151.832V152.912C56.6401 153.416 55.9201 153.668 55.1821 153.668ZM63.8575 155V142.994H61.5715V155H63.8575Z" fill="white"></path><g clip-path="url(#clip2_649_5822)"><path d="M184.665 184H177.999V174H167.999V184H161.332L172.999 195.667L184.665 184ZM161.332 199V202.333H184.665V199H161.332Z" fill="#48785D"></path></g></g><defs><clipPath id="clip0_649_5822"><rect width="209" height="222" rx="8" fill="white"></rect></clipPath><clipPath id="clip1_649_5822"><rect width="40" height="40" fill="white" transform="translate(16 14)"></rect></clipPath><clipPath id="clip2_649_5822"><rect width="40" height="40" fill="white" transform="translate(153 169)"></rect></clipPath></defs></svg>