<svg xmlns="http://www.w3.org/2000/svg" width="208" height="222" viewBox="0 0 208 222" fill="none"><g clip-path="url(#clip0_649_5792)"><rect width="208" height="222" rx="8" fill="#48785D"></rect><path d="M147.992 117.638L413.958 279.958L147.967 442.321L-118 280L147.992 117.638Z" fill="#E6B12E"></path><g clip-path="url(#clip1_649_5792)"><path d="M48.5 19.8333L46 17.3333L43.5 19.8333L41 17.3333L38.5 19.8333L36 17.3333L33.5 19.8333L31 17.3333L28.5 19.8333L26 17.3333V40.6667H21V45.6667C21 48.4333 23.2333 50.6667 26 50.6667H46C48.7667 50.6667 51 48.4333 51 45.6667V17.3333L48.5 19.8333ZM41 47.3333H26C25.0833 47.3333 24.3333 46.5833 24.3333 45.6667V44H41V47.3333ZM47.6667 45.6667C47.6667 46.5833 46.9167 47.3333 46 47.3333C45.0833 47.3333 44.3333 46.5833 44.3333 45.6667V40.6667H29.3333V22.3333H47.6667V45.6667Z" fill="#E6B12E"></path><path d="M41 25.6667H31V29H41V25.6667Z" fill="#E6B12E"></path><path d="M46.0013 25.6667H42.668V29H46.0013V25.6667Z" fill="#E6B12E"></path><path d="M41 30.6667H31V34H41V30.6667Z" fill="#E6B12E"></path><path d="M46.0013 30.6667H42.668V34H46.0013V30.6667Z" fill="#E6B12E"></path></g><path d="M19.744 83V78.032H25.558V75.782H19.744V73.244H25.684V70.994H17.188V83H19.744ZM29.7032 83V70.994H27.4172V83H29.7032ZM40.1239 83V74.306H37.8379V80.192C37.4419 80.696 36.7399 81.182 35.8579 81.182C34.8859 81.182 34.2559 80.786 34.2559 79.58V74.306H31.9699V80.48C31.9699 82.172 32.8699 83.216 34.7779 83.216C36.1999 83.216 37.2439 82.568 37.8379 81.902V83H40.1239ZM50.3318 83L47.2178 78.536L50.1338 74.306H47.5778L45.7958 76.988L43.9958 74.306H41.4398L44.3378 78.536L41.2598 83H43.7978L45.7958 80.066L47.7758 83H50.3318ZM54.8808 83.216C57.7608 83.216 59.4888 81.128 59.4888 78.644C59.4888 76.178 57.7608 74.09 54.8808 74.09C52.0188 74.09 50.2908 76.178 50.2908 78.644C50.2908 81.128 52.0188 83.216 54.8808 83.216ZM54.8808 81.182C53.4588 81.182 52.6668 80.012 52.6668 78.644C52.6668 77.294 53.4588 76.124 54.8808 76.124C56.3028 76.124 57.1128 77.294 57.1128 78.644C57.1128 80.012 56.3028 81.182 54.8808 81.182ZM74.0703 83V70.994H71.7663V75.422C71.0823 74.54 70.1103 74.09 69.0843 74.09C66.8703 74.09 65.2323 75.818 65.2323 78.662C65.2323 81.56 66.8883 83.216 69.0843 83.216C70.1283 83.216 71.0823 82.748 71.7663 81.884V83H74.0703ZM69.7863 81.182C68.4903 81.182 67.5903 80.156 67.5903 78.662C67.5903 77.15 68.4903 76.124 69.7863 76.124C70.5603 76.124 71.3883 76.538 71.7663 77.114V80.192C71.3883 80.768 70.5603 81.182 69.7863 81.182ZM80.4231 83.216C81.7731 83.216 83.1411 82.802 84.0051 82.01L82.9971 80.534C82.4391 81.074 81.4131 81.398 80.6751 81.398C79.1991 81.398 78.3171 80.48 78.1731 79.382H84.6351V78.878C84.6351 76.034 82.8711 74.09 80.2791 74.09C77.6331 74.09 75.7791 76.124 75.7791 78.644C75.7791 81.434 77.7771 83.216 80.4231 83.216ZM82.4211 77.834H78.1371C78.2451 76.97 78.8571 75.908 80.2791 75.908C81.7911 75.908 82.3671 77.006 82.4211 77.834ZM96.7598 83.216C99.4058 83.216 100.918 81.758 101.782 80.264L99.5858 79.202C99.0818 80.192 98.0018 80.948 96.7598 80.948C94.5818 80.948 92.9978 79.274 92.9978 77.006C92.9978 74.738 94.5818 73.064 96.7598 73.064C98.0018 73.064 99.0818 73.838 99.5858 74.81L101.782 73.73C100.936 72.236 99.4058 70.796 96.7598 70.796C93.1598 70.796 90.3698 73.316 90.3698 77.006C90.3698 80.696 93.1598 83.216 96.7598 83.216ZM110.755 83V77.384C110.755 74.882 108.937 74.09 106.957 74.09C105.589 74.09 104.221 74.522 103.159 75.458L104.023 76.988C104.761 76.304 105.625 75.962 106.561 75.962C107.713 75.962 108.469 76.538 108.469 77.42V78.59C107.893 77.906 106.867 77.528 105.715 77.528C104.329 77.528 102.691 78.302 102.691 80.336C102.691 82.28 104.329 83.216 105.715 83.216C106.849 83.216 107.875 82.802 108.469 82.1V83H110.755ZM106.633 81.668C105.733 81.668 104.995 81.2 104.995 80.39C104.995 79.544 105.733 79.076 106.633 79.076C107.371 79.076 108.091 79.328 108.469 79.832V80.912C108.091 81.416 107.371 81.668 106.633 81.668ZM114.157 73.37C114.913 73.37 115.525 72.758 115.525 72.002C115.525 71.246 114.913 70.652 114.157 70.652C113.419 70.652 112.789 71.246 112.789 72.002C112.789 72.758 113.419 73.37 114.157 73.37ZM115.309 83V74.306H113.023V83H115.309ZM125.513 83L122.399 78.536L125.315 74.306H122.759L120.977 76.988L119.177 74.306H116.621L119.519 78.536L116.441 83H118.979L120.977 80.066L122.957 83H125.513ZM134.152 83V77.384C134.152 74.882 132.334 74.09 130.354 74.09C128.986 74.09 127.618 74.522 126.556 75.458L127.42 76.988C128.158 76.304 129.022 75.962 129.958 75.962C131.11 75.962 131.866 76.538 131.866 77.42V78.59C131.29 77.906 130.264 77.528 129.112 77.528C127.726 77.528 126.088 78.302 126.088 80.336C126.088 82.28 127.726 83.216 129.112 83.216C130.246 83.216 131.272 82.802 131.866 82.1V83H134.152ZM130.03 81.668C129.13 81.668 128.392 81.2 128.392 80.39C128.392 79.544 129.13 79.076 130.03 79.076C130.768 79.076 131.488 79.328 131.866 79.832V80.912C131.488 81.416 130.768 81.668 130.03 81.668Z" fill="white"></path><g clip-path="url(#clip2_649_5792)"><path d="M182.665 184H175.999V174H165.999V184H159.332L170.999 195.667L182.665 184ZM159.332 199V202.333H182.665V199H159.332Z" fill="#48785D"></path></g></g><defs><clipPath id="clip0_649_5792"><rect width="208" height="222" rx="8" fill="white"></rect></clipPath><clipPath id="clip1_649_5792"><rect width="40" height="40" fill="white" transform="translate(16 14)"></rect></clipPath><clipPath id="clip2_649_5792"><rect width="40" height="40" fill="white" transform="translate(151 169)"></rect></clipPath></defs></svg>