<svg xmlns="http://www.w3.org/2000/svg" width="207" height="222" viewBox="0 0 207 222" fill="none"><g clip-path="url(#clip0_649_5762)"><rect width="207" height="222" rx="8" fill="#48785D"></rect><path d="M147.992 117.638L413.958 279.958L147.967 442.321L-118 280L147.992 117.638Z" fill="#E6B12E"></path><g clip-path="url(#clip1_649_5762)"><path d="M48.5 19.8333L46 17.3333L43.5 19.8333L41 17.3333L38.5 19.8333L36 17.3333L33.5 19.8333L31 17.3333L28.5 19.8333L26 17.3333V40.6667H21V45.6667C21 48.4333 23.2333 50.6667 26 50.6667H46C48.7667 50.6667 51 48.4333 51 45.6667V17.3333L48.5 19.8333ZM41 47.3333H26C25.0833 47.3333 24.3333 46.5833 24.3333 45.6667V44H41V47.3333ZM47.6667 45.6667C47.6667 46.5833 46.9167 47.3333 46 47.3333C45.0833 47.3333 44.3333 46.5833 44.3333 45.6667V40.6667H29.3333V22.3333H47.6667V45.6667Z" fill="#E6B12E"></path><path d="M41 25.6667H31V29H41V25.6667Z" fill="#E6B12E"></path><path d="M46.0013 25.6667H42.668V29H46.0013V25.6667Z" fill="#E6B12E"></path><path d="M41 30.6667H31V34H41V30.6667Z" fill="#E6B12E"></path><path d="M46.0013 30.6667H42.668V34H46.0013V30.6667Z" fill="#E6B12E"></path></g><path d="M21.94 82C25.684 82 28.294 79.624 28.294 75.988C28.294 72.388 25.684 69.994 21.922 69.994H17.188V82H21.94ZM21.922 79.75H19.744V72.244H21.94C24.388 72.244 25.684 73.882 25.684 75.988C25.684 78.04 24.298 79.75 21.922 79.75ZM34.1399 82.216C35.4899 82.216 36.8579 81.802 37.7219 81.01L36.6959 79.498C36.1379 80.038 35.1299 80.344 34.3919 80.344C32.9159 80.344 32.0519 79.462 31.8899 78.4H38.3519V77.86C38.3519 75.034 36.6059 73.09 33.9959 73.09C31.3679 73.09 29.4959 75.124 29.4959 77.644C29.4959 80.434 31.4939 82.216 34.1399 82.216ZM36.1559 76.816H31.8719C31.9619 75.952 32.5739 74.962 33.9959 74.962C35.5079 74.962 36.0839 75.988 36.1559 76.816ZM53.0891 82V75.718C53.0891 73.936 52.1351 73.09 50.5331 73.09C49.2011 73.09 48.0491 73.882 47.5451 74.656C47.2391 73.684 46.4111 73.09 45.1331 73.09C43.8011 73.09 42.6671 73.918 42.2891 74.422V73.306H40.0031V82H42.2891V76.132C42.6311 75.664 43.2971 75.124 44.0891 75.124C45.0251 75.124 45.3851 75.7 45.3851 76.51V82H47.6891V76.132C48.0131 75.664 48.6791 75.124 49.4891 75.124C50.4251 75.124 50.7851 75.7 50.7851 76.51V82H53.0891ZM59.3808 82.216C62.2608 82.216 63.9888 80.11 63.9888 77.644C63.9888 75.178 62.2608 73.09 59.3808 73.09C56.5188 73.09 54.7908 75.178 54.7908 77.644C54.7908 80.11 56.5188 82.216 59.3808 82.216ZM59.3808 80.182C57.9588 80.182 57.1668 79.012 57.1668 77.644C57.1668 76.294 57.9588 75.124 59.3808 75.124C60.8208 75.124 61.6128 76.294 61.6128 77.644C61.6128 79.012 60.8208 80.182 59.3808 80.182ZM73.8744 82V75.862C73.8744 74.17 72.9564 73.09 71.0304 73.09C69.6264 73.09 68.5464 73.774 67.9884 74.422V73.306H65.7024V82H67.9884V76.132C68.3844 75.628 69.0684 75.124 69.9684 75.124C70.9404 75.124 71.5704 75.538 71.5704 76.744V82H73.8744ZM79.2582 82.216C81.6702 82.216 83.0382 81.046 83.0382 79.444C83.0382 75.934 77.8722 77.014 77.8722 75.736C77.8722 75.25 78.4122 74.89 79.2402 74.89C80.3022 74.89 81.2922 75.358 81.8142 75.898L82.7322 74.278C81.8682 73.594 80.6982 73.09 79.2402 73.09C76.9362 73.09 75.6762 74.368 75.6762 75.826C75.6762 79.246 80.8242 78.076 80.8242 79.498C80.8242 80.038 80.3562 80.416 79.3662 80.416C78.2862 80.416 77.0082 79.822 76.3602 79.21L75.3702 80.866C76.2882 81.712 77.7462 82.216 79.2582 82.216ZM87.6203 82.216C88.5743 82.216 89.1863 81.964 89.5283 81.658L89.0423 79.912C88.9163 80.056 88.5923 80.182 88.2503 80.182C87.7463 80.182 87.4583 79.768 87.4583 79.21V75.304H89.2223V73.306H87.4583V70.93H85.1723V73.306H83.7323V75.304H85.1723V79.822C85.1723 81.388 86.0183 82.216 87.6203 82.216ZM93.0723 82V76.258C93.4503 75.7 94.4583 75.268 95.2143 75.268C95.4843 75.268 95.6823 75.286 95.8443 75.322V73.09C94.7643 73.09 93.7023 73.72 93.0723 74.476V73.306H90.7863V82H93.0723ZM104.797 82V76.384C104.797 73.882 102.979 73.09 100.981 73.09C99.6127 73.09 98.2447 73.504 97.1827 74.458L98.0827 76.06C98.8027 75.394 99.6667 75.034 100.585 75.034C101.737 75.034 102.493 75.61 102.493 76.492V77.59C101.917 76.906 100.909 76.528 99.7387 76.528C98.3527 76.528 96.7327 77.284 96.7327 79.336C96.7327 81.28 98.3527 82.216 99.7387 82.216C100.873 82.216 101.899 81.802 102.493 81.082V82H104.797ZM100.657 80.668C99.7567 80.668 99.0187 80.2 99.0187 79.372C99.0187 78.544 99.7567 78.058 100.657 78.058C101.395 78.058 102.115 78.328 102.493 78.832V79.912C102.115 80.416 101.395 80.668 100.657 80.668ZM111.15 85.474C112.248 85.474 113.148 84.916 113.148 83.962C113.148 83.206 112.608 82.702 111.942 82.702C111.708 82.702 111.492 82.756 111.312 82.882L111.582 82.198C113.076 82.054 114.012 81.352 114.534 80.632L113.04 79.228C112.626 79.822 111.996 80.182 111.204 80.182C109.818 80.182 108.846 79.156 108.846 77.644C108.846 76.132 109.818 75.124 111.204 75.124C111.996 75.124 112.626 75.448 113.04 76.06L114.534 74.656C113.958 73.864 112.878 73.09 111.096 73.09C108.432 73.09 106.488 74.98 106.488 77.644C106.488 80.11 108.126 81.91 110.466 82.18L110.088 83.242L110.916 83.71C111.06 83.566 111.258 83.458 111.492 83.458C111.834 83.458 112.014 83.638 112.014 83.926C112.014 84.322 111.564 84.52 111.096 84.52C110.592 84.52 110.07 84.34 109.62 83.998L109.17 84.916C109.548 85.222 110.286 85.474 111.15 85.474ZM123.553 82V76.384C123.553 73.882 121.735 73.09 119.737 73.09C118.369 73.09 117.001 73.504 115.939 74.458L116.839 76.06C117.559 75.394 118.423 75.034 119.341 75.034C120.493 75.034 121.249 75.61 121.249 76.492V77.59C120.673 76.906 119.665 76.528 118.495 76.528C117.109 76.528 115.489 77.284 115.489 79.336C115.489 81.28 117.109 82.216 118.495 82.216C119.629 82.216 120.655 81.802 121.249 81.082V82H123.553ZM119.413 80.668C118.513 80.668 117.775 80.2 117.775 79.372C117.775 78.544 118.513 78.058 119.413 78.058C120.151 78.058 120.871 78.328 121.249 78.832V79.912C120.871 80.416 120.151 80.668 119.413 80.668ZM120.781 72.028C122.041 72.028 122.707 71.146 122.707 69.616H121.501C121.501 70.372 121.213 70.714 120.853 70.714C120.169 70.714 119.971 69.508 118.765 69.508C117.505 69.508 116.821 70.39 116.821 71.92H118.027C118.027 71.146 118.315 70.804 118.675 70.804C119.359 70.804 119.557 72.028 120.781 72.028ZM129.834 82.216C132.714 82.216 134.442 80.11 134.442 77.644C134.442 75.178 132.714 73.09 129.834 73.09C126.972 73.09 125.244 75.178 125.244 77.644C125.244 80.11 126.972 82.216 129.834 82.216ZM129.834 80.182C128.412 80.182 127.62 79.012 127.62 77.644C127.62 76.294 128.412 75.124 129.834 75.124C131.274 75.124 132.066 76.294 132.066 77.644C132.066 79.012 131.274 80.182 129.834 80.182ZM25.414 106V93.994H23.11V98.422C22.426 97.522 21.454 97.09 20.428 97.09C18.214 97.09 16.576 98.818 16.576 101.644C16.576 104.56 18.25 106.216 20.428 106.216C21.49 106.216 22.426 105.748 23.11 104.884V106H25.414ZM21.148 104.182C19.834 104.182 18.934 103.156 18.934 101.644C18.934 100.15 19.834 99.124 21.148 99.124C21.904 99.124 22.732 99.538 23.11 100.114V103.192C22.732 103.768 21.904 104.182 21.148 104.182ZM31.7669 106.216C33.1169 106.216 34.4849 105.802 35.3489 105.01L34.3229 103.498C33.7649 104.038 32.7569 104.344 32.0189 104.344C30.5429 104.344 29.6789 103.462 29.5169 102.4H35.9789V101.86C35.9789 99.034 34.2329 97.09 31.6229 97.09C28.9949 97.09 27.1229 99.124 27.1229 101.644C27.1229 104.434 29.1209 106.216 31.7669 106.216ZM33.7829 100.816H29.4989C29.5889 99.952 30.2009 98.962 31.6229 98.962C33.1349 98.962 33.7109 99.988 33.7829 100.816ZM52.0451 106L49.3271 101.428C50.6231 101.122 51.9731 99.97 51.9731 97.864C51.9731 95.632 50.4251 93.994 47.9231 93.994H42.3071V106H44.8631V101.734H46.7351L49.0931 106H52.0451ZM47.5631 99.484H44.8631V96.244H47.5631C48.5711 96.244 49.3451 96.856 49.3451 97.846C49.3451 98.872 48.5711 99.484 47.5631 99.484ZM57.3606 106.216C58.7106 106.216 60.0786 105.802 60.9426 105.01L59.9166 103.498C59.3586 104.038 58.3506 104.344 57.6126 104.344C56.1366 104.344 55.2726 103.462 55.1106 102.4H61.5726V101.86C61.5726 99.034 59.8266 97.09 57.2166 97.09C54.5886 97.09 52.7166 99.124 52.7166 101.644C52.7166 104.434 54.7146 106.216 57.3606 106.216ZM59.3766 100.816H55.0926C55.1826 99.952 55.7946 98.962 57.2166 98.962C58.7286 98.962 59.3046 99.988 59.3766 100.816ZM66.3558 106.216C68.7678 106.216 70.1358 105.046 70.1358 103.444C70.1358 99.934 64.9698 101.014 64.9698 99.736C64.9698 99.25 65.5098 98.89 66.3378 98.89C67.3998 98.89 68.3898 99.358 68.9118 99.898L69.8298 98.278C68.9658 97.594 67.7958 97.09 66.3378 97.09C64.0338 97.09 62.7738 98.368 62.7738 99.826C62.7738 103.246 67.9218 102.076 67.9218 103.498C67.9218 104.038 67.4538 104.416 66.4638 104.416C65.3838 104.416 64.1058 103.822 63.4578 103.21L62.4678 104.866C63.3858 105.712 64.8438 106.216 66.3558 106.216ZM79.956 106V97.306H77.67V103.192C77.274 103.696 76.572 104.182 75.69 104.182C74.718 104.182 74.088 103.786 74.088 102.58V97.306H71.802V103.48C71.802 105.172 72.702 106.216 74.61 106.216C76.032 106.216 77.076 105.55 77.67 104.902V106H79.956ZM84.5118 106V93.994H82.2258V106H84.5118ZM89.6945 106.216C90.6485 106.216 91.2605 105.964 91.6025 105.658L91.1165 103.912C90.9905 104.056 90.6665 104.182 90.3245 104.182C89.8205 104.182 89.5325 103.768 89.5325 103.21V99.304H91.2965V97.306H89.5325V94.93H87.2465V97.306H85.8065V99.304H87.2465V103.822C87.2465 105.388 88.0925 106.216 89.6945 106.216ZM100.385 106V100.384C100.385 97.882 98.5666 97.09 96.5686 97.09C95.2006 97.09 93.8326 97.504 92.7706 98.458L93.6706 100.06C94.3906 99.394 95.2546 99.034 96.1726 99.034C97.3246 99.034 98.0806 99.61 98.0806 100.492V101.59C97.5046 100.906 96.4966 100.528 95.3266 100.528C93.9406 100.528 92.3206 101.284 92.3206 103.336C92.3206 105.28 93.9406 106.216 95.3266 106.216C96.4606 106.216 97.4866 105.802 98.0806 105.082V106H100.385ZM96.2446 104.668C95.3446 104.668 94.6066 104.2 94.6066 103.372C94.6066 102.544 95.3446 102.058 96.2446 102.058C96.9826 102.058 97.7026 102.328 98.0806 102.832V103.912C97.7026 104.416 96.9826 104.668 96.2446 104.668ZM110.914 106V93.994H108.61V98.422C107.926 97.522 106.954 97.09 105.928 97.09C103.714 97.09 102.076 98.818 102.076 101.644C102.076 104.56 103.75 106.216 105.928 106.216C106.99 106.216 107.926 105.748 108.61 104.884V106H110.914ZM106.648 104.182C105.334 104.182 104.434 103.156 104.434 101.644C104.434 100.15 105.334 99.124 106.648 99.124C107.404 99.124 108.232 99.538 108.61 100.114V103.192C108.232 103.768 107.404 104.182 106.648 104.182ZM117.213 106.216C120.093 106.216 121.821 104.11 121.821 101.644C121.821 99.178 120.093 97.09 117.213 97.09C114.351 97.09 112.623 99.178 112.623 101.644C112.623 104.11 114.351 106.216 117.213 106.216ZM117.213 104.182C115.791 104.182 114.999 103.012 114.999 101.644C114.999 100.294 115.791 99.124 117.213 99.124C118.653 99.124 119.445 100.294 119.445 101.644C119.445 103.012 118.653 104.182 117.213 104.182ZM126.666 106.216C129.078 106.216 130.446 105.046 130.446 103.444C130.446 99.934 125.28 101.014 125.28 99.736C125.28 99.25 125.82 98.89 126.648 98.89C127.71 98.89 128.7 99.358 129.222 99.898L130.14 98.278C129.276 97.594 128.106 97.09 126.648 97.09C124.344 97.09 123.084 98.368 123.084 99.826C123.084 103.246 128.232 102.076 128.232 103.498C128.232 104.038 127.764 104.416 126.774 104.416C125.694 104.416 124.416 103.822 123.768 103.21L122.778 104.866C123.696 105.712 125.154 106.216 126.666 106.216Z" fill="white"></path><g clip-path="url(#clip2_649_5762)"><path d="M181.665 184H174.999V174H164.999V184H158.332L169.999 195.667L181.665 184ZM158.332 199V202.333H181.665V199H158.332Z" fill="#48785D"></path></g></g><defs><clipPath id="clip0_649_5762"><rect width="207" height="222" rx="8" fill="white"></rect></clipPath><clipPath id="clip1_649_5762"><rect width="40" height="40" fill="white" transform="translate(16 14)"></rect></clipPath><clipPath id="clip2_649_5762"><rect width="40" height="40" fill="white" transform="translate(150 169)"></rect></clipPath></defs></svg>