<svg xmlns="http://www.w3.org/2000/svg" width="210" height="222" viewBox="0 0 210 222" fill="none"><g clip-path="url(#clip0_649_5807)"><rect width="210" height="222" rx="8" fill="#48785D"></rect><path d="M147.992 117.638L413.958 279.958L147.967 442.321L-118 280L147.992 117.638Z" fill="#E6B12E"></path><g clip-path="url(#clip1_649_5807)"><path d="M48.5 19.8333L46 17.3333L43.5 19.8333L41 17.3333L38.5 19.8333L36 17.3333L33.5 19.8333L31 17.3333L28.5 19.8333L26 17.3333V40.6667H21V45.6667C21 48.4333 23.2333 50.6667 26 50.6667H46C48.7667 50.6667 51 48.4333 51 45.6667V17.3333L48.5 19.8333ZM41 47.3333H26C25.0833 47.3333 24.3333 46.5833 24.3333 45.6667V44H41V47.3333ZM47.6667 45.6667C47.6667 46.5833 46.9167 47.3333 46 47.3333C45.0833 47.3333 44.3333 46.5833 44.3333 45.6667V40.6667H29.3333V22.3333H47.6667V45.6667Z" fill="#E6B12E"></path><path d="M41 25.6667H31V29H41V25.6667Z" fill="#E6B12E"></path><path d="M46.0013 25.6667H42.668V29H46.0013V25.6667Z" fill="#E6B12E"></path><path d="M41 30.6667H31V34H41V30.6667Z" fill="#E6B12E"></path><path d="M46.0013 30.6667H42.668V34H46.0013V30.6667Z" fill="#E6B12E"></path></g><path d="M27.934 82V69.994H25.378V77.536L19.816 69.994H17.188V82H19.744V74.17L25.468 82H27.934ZM34.2793 82.216C37.1593 82.216 38.8873 80.11 38.8873 77.644C38.8873 75.178 37.1593 73.09 34.2793 73.09C31.4173 73.09 29.6893 75.178 29.6893 77.644C29.6893 80.11 31.4173 82.216 34.2793 82.216ZM34.2793 80.182C32.8573 80.182 32.0653 79.012 32.0653 77.644C32.0653 76.294 32.8573 75.124 34.2793 75.124C35.7193 75.124 36.5113 76.294 36.5113 77.644C36.5113 79.012 35.7193 80.182 34.2793 80.182ZM43.5168 82.216C44.4708 82.216 45.0828 81.964 45.4248 81.658L44.9388 79.912C44.8128 80.056 44.4888 80.182 44.1468 80.182C43.6428 80.182 43.3548 79.768 43.3548 79.21V75.304H45.1188V73.306H43.3548V70.93H41.0688V73.306H39.6288V75.304H41.0688V79.822C41.0688 81.388 41.9148 82.216 43.5168 82.216ZM54.2068 82V76.384C54.2068 73.882 52.3888 73.09 50.3908 73.09C49.0228 73.09 47.6548 73.504 46.5928 74.458L47.4928 76.06C48.2128 75.394 49.0768 75.034 49.9948 75.034C51.1468 75.034 51.9028 75.61 51.9028 76.492V77.59C51.3268 76.906 50.3188 76.528 49.1488 76.528C47.7628 76.528 46.1428 77.284 46.1428 79.336C46.1428 81.28 47.7628 82.216 49.1488 82.216C50.2828 82.216 51.3088 81.802 51.9028 81.082V82H54.2068ZM50.0668 80.668C49.1668 80.668 48.4288 80.2 48.4288 79.372C48.4288 78.544 49.1668 78.058 50.0668 78.058C50.8048 78.058 51.5248 78.328 51.9028 78.832V79.912C51.5248 80.416 50.8048 80.668 50.0668 80.668ZM59.5883 82.216C62.0003 82.216 63.3683 81.046 63.3683 79.444C63.3683 75.934 58.2023 77.014 58.2023 75.736C58.2023 75.25 58.7423 74.89 59.5703 74.89C60.6323 74.89 61.6223 75.358 62.1443 75.898L63.0623 74.278C62.1983 73.594 61.0283 73.09 59.5703 73.09C57.2663 73.09 56.0063 74.368 56.0063 75.826C56.0063 79.246 61.1543 78.076 61.1543 79.498C61.1543 80.038 60.6863 80.416 59.6963 80.416C58.6163 80.416 57.3383 79.822 56.6903 79.21L55.7003 80.866C56.6183 81.712 58.0763 82.216 59.5883 82.216ZM25.684 106V103.75H19.744V101.014H25.558V98.764H19.744V96.244H25.684V93.994H17.188V106H25.684ZM35.5661 106L32.4701 101.536L35.3681 97.306H32.8121L31.0301 99.97L29.2301 97.306H26.6741L29.5901 101.536L26.4941 106H29.0321L31.0301 103.066L33.0101 106H35.5661ZM41.6665 106.216C43.8985 106.216 45.5185 104.542 45.5185 101.644C45.5185 98.746 43.8985 97.09 41.6665 97.09C40.6045 97.09 39.6505 97.558 38.9845 98.404V97.306H36.6985V109.312H38.9845V104.884C39.7045 105.784 40.6405 106.216 41.6665 106.216ZM40.9465 104.182C40.2085 104.182 39.3625 103.732 38.9845 103.174V100.114C39.3805 99.538 40.2085 99.124 40.9465 99.124C42.2605 99.124 43.1605 100.15 43.1605 101.644C43.1605 103.156 42.2605 104.182 40.9465 104.182ZM49.4786 106V93.994H47.1926V106H49.4786ZM52.8793 96.37C53.6353 96.37 54.2473 95.758 54.2473 95.002C54.2473 94.246 53.6353 93.652 52.8793 93.652C52.1413 93.652 51.5293 94.246 51.5293 95.002C51.5293 95.758 52.1413 96.37 52.8793 96.37ZM54.0313 106V97.306H51.7453V106H54.0313ZM60.3481 106.216C62.1301 106.216 63.2101 105.424 63.7861 104.632L62.2921 103.228C61.8781 103.822 61.2481 104.182 60.4561 104.182C59.0701 104.182 58.0981 103.156 58.0981 101.644C58.0981 100.132 59.0701 99.124 60.4561 99.124C61.2481 99.124 61.8781 99.448 62.2921 100.06L63.7861 98.656C63.2101 97.864 62.1301 97.09 60.3481 97.09C57.6841 97.09 55.7401 98.98 55.7401 101.644C55.7401 104.326 57.6841 106.216 60.3481 106.216ZM72.8045 106V100.384C72.8045 97.882 70.9865 97.09 68.9885 97.09C67.6205 97.09 66.2525 97.504 65.1905 98.458L66.0905 100.06C66.8105 99.394 67.6745 99.034 68.5925 99.034C69.7445 99.034 70.5005 99.61 70.5005 100.492V101.59C69.9245 100.906 68.9165 100.528 67.7465 100.528C66.3605 100.528 64.7405 101.284 64.7405 103.336C64.7405 105.28 66.3605 106.216 67.7465 106.216C68.8805 106.216 69.9065 105.802 70.5005 105.082V106H72.8045ZM68.6645 104.668C67.7645 104.668 67.0265 104.2 67.0265 103.372C67.0265 102.544 67.7645 102.058 68.6645 102.058C69.4025 102.058 70.1225 102.328 70.5005 102.832V103.912C70.1225 104.416 69.4025 104.668 68.6645 104.668ZM77.9699 106.216C78.9239 106.216 79.5359 105.964 79.8779 105.658L79.3919 103.912C79.2659 104.056 78.9419 104.182 78.5999 104.182C78.0959 104.182 77.8079 103.768 77.8079 103.21V99.304H79.5719V97.306H77.8079V94.93H75.5219V97.306H74.0819V99.304H75.5219V103.822C75.5219 105.388 76.3679 106.216 77.9699 106.216ZM82.27 96.37C83.026 96.37 83.638 95.758 83.638 95.002C83.638 94.246 83.026 93.652 82.27 93.652C81.532 93.652 80.92 94.246 80.92 95.002C80.92 95.758 81.532 96.37 82.27 96.37ZM83.422 106V97.306H81.136V106H83.422ZM90.4047 106L93.8967 97.306H91.4487L89.1627 103.354L86.8947 97.306H84.4467L87.9387 106H90.4047ZM102.441 106V100.384C102.441 97.882 100.623 97.09 98.6252 97.09C97.2572 97.09 95.8892 97.504 94.8272 98.458L95.7272 100.06C96.4472 99.394 97.3112 99.034 98.2292 99.034C99.3812 99.034 100.137 99.61 100.137 100.492V101.59C99.5612 100.906 98.5532 100.528 97.3832 100.528C95.9972 100.528 94.3772 101.284 94.3772 103.336C94.3772 105.28 95.9972 106.216 97.3832 106.216C98.5172 106.216 99.5432 105.802 100.137 105.082V106H102.441ZM98.3012 104.668C97.4012 104.668 96.6632 104.2 96.6632 103.372C96.6632 102.544 97.4012 102.058 98.3012 102.058C99.0392 102.058 99.7592 102.328 100.137 102.832V103.912C99.7592 104.416 99.0392 104.668 98.3012 104.668ZM107.823 106.216C110.235 106.216 111.603 105.046 111.603 103.444C111.603 99.934 106.437 101.014 106.437 99.736C106.437 99.25 106.977 98.89 107.805 98.89C108.867 98.89 109.857 99.358 110.379 99.898L111.297 98.278C110.433 97.594 109.263 97.09 107.805 97.09C105.501 97.09 104.241 98.368 104.241 99.826C104.241 103.246 109.389 102.076 109.389 103.498C109.389 104.038 108.921 104.416 107.931 104.416C106.851 104.416 105.573 103.822 104.925 103.21L103.935 104.866C104.853 105.712 106.311 106.216 107.823 106.216Z" fill="white"></path><g clip-path="url(#clip2_649_5807)"><path d="M185.665 184H178.999V174H168.999V184H162.332L173.999 195.667L185.665 184ZM162.332 199V202.333H185.665V199H162.332Z" fill="#48785D"></path></g></g><defs><clipPath id="clip0_649_5807"><rect width="210" height="222" rx="8" fill="white"></rect></clipPath><clipPath id="clip1_649_5807"><rect width="40" height="40" fill="white" transform="translate(16 14)"></rect></clipPath><clipPath id="clip2_649_5807"><rect width="40" height="40" fill="white" transform="translate(154 169)"></rect></clipPath></defs></svg>