<svg xmlns="http://www.w3.org/2000/svg" width="208" height="222" viewBox="0 0 208 222" fill="none"><g clip-path="url(#clip0_649_5777)"><rect width="208" height="222" rx="8" fill="#48785D"></rect><path d="M147.992 117.638L413.958 279.958L147.967 442.321L-118 280L147.992 117.638Z" fill="#E6B12E"></path><g clip-path="url(#clip1_649_5777)"><path d="M48.5 19.8333L46 17.3333L43.5 19.8333L41 17.3333L38.5 19.8333L36 17.3333L33.5 19.8333L31 17.3333L28.5 19.8333L26 17.3333V40.6667H21V45.6667C21 48.4333 23.2333 50.6667 26 50.6667H46C48.7667 50.6667 51 48.4333 51 45.6667V17.3333L48.5 19.8333ZM41 47.3333H26C25.0833 47.3333 24.3333 46.5833 24.3333 45.6667V44H41V47.3333ZM47.6667 45.6667C47.6667 46.5833 46.9167 47.3333 46 47.3333C45.0833 47.3333 44.3333 46.5833 44.3333 45.6667V40.6667H29.3333V22.3333H47.6667V45.6667Z" fill="#E6B12E"></path><path d="M41 25.6667H31V29H41V25.6667Z" fill="#E6B12E"></path><path d="M46.0013 25.6667H42.668V29H46.0013V25.6667Z" fill="#E6B12E"></path><path d="M41 30.6667H31V34H41V30.6667Z" fill="#E6B12E"></path><path d="M46.0013 30.6667H42.668V34H46.0013V30.6667Z" fill="#E6B12E"></path></g><path d="M23.704 83C25.99 83 27.196 81.56 27.196 79.76C27.196 78.248 26.17 77.006 24.892 76.808C26.026 76.574 26.962 75.566 26.962 74.054C26.962 72.452 25.792 70.994 23.506 70.994H17.188V83H23.704ZM22.948 75.8H19.744V73.19H22.948C23.812 73.19 24.352 73.748 24.352 74.504C24.352 75.26 23.812 75.8 22.948 75.8ZM23.038 80.786H19.744V77.996H23.038C24.046 77.996 24.586 78.644 24.586 79.4C24.586 80.264 24.01 80.786 23.038 80.786ZM36.5755 83V77.384C36.5755 74.882 34.7575 74.09 32.7775 74.09C31.4095 74.09 30.0415 74.522 28.9795 75.458L29.8435 76.988C30.5815 76.304 31.4455 75.962 32.3815 75.962C33.5335 75.962 34.2895 76.538 34.2895 77.42V78.59C33.7135 77.906 32.6875 77.528 31.5355 77.528C30.1495 77.528 28.5115 78.302 28.5115 80.336C28.5115 82.28 30.1495 83.216 31.5355 83.216C32.6695 83.216 33.6955 82.802 34.2895 82.1V83H36.5755ZM32.4535 81.668C31.5535 81.668 30.8155 81.2 30.8155 80.39C30.8155 79.544 31.5535 79.076 32.4535 79.076C33.1915 79.076 33.9115 79.328 34.2895 79.832V80.912C33.9115 81.416 33.1915 81.668 32.4535 81.668ZM41.129 83V70.994H38.843V83H41.129ZM50.9017 83V77.384C50.9017 74.882 49.0837 74.09 47.1037 74.09C45.7357 74.09 44.3677 74.522 43.3057 75.458L44.1697 76.988C44.9077 76.304 45.7717 75.962 46.7077 75.962C47.8597 75.962 48.6157 76.538 48.6157 77.42V78.59C48.0397 77.906 47.0137 77.528 45.8617 77.528C44.4757 77.528 42.8377 78.302 42.8377 80.336C42.8377 82.28 44.4757 83.216 45.8617 83.216C46.9957 83.216 48.0217 82.802 48.6157 82.1V83H50.9017ZM46.7797 81.668C45.8797 81.668 45.1417 81.2 45.1417 80.39C45.1417 79.544 45.8797 79.076 46.7797 79.076C47.5177 79.076 48.2377 79.328 48.6157 79.832V80.912C48.2377 81.416 47.5177 81.668 46.7797 81.668ZM61.3232 83V76.862C61.3232 75.17 60.4052 74.09 58.4972 74.09C57.0752 74.09 56.0132 74.774 55.4552 75.44V74.306H53.1692V83H55.4552V77.15C55.8332 76.628 56.5352 76.124 57.4352 76.124C58.4072 76.124 59.0372 76.538 59.0372 77.744V83H61.3232ZM67.697 86.492C68.777 86.492 69.695 85.916 69.695 84.962C69.695 84.206 69.155 83.702 68.489 83.702C68.255 83.702 68.021 83.774 67.841 83.882L68.129 83.198C69.623 83.072 70.559 82.37 71.081 81.632L69.587 80.246C69.173 80.822 68.543 81.182 67.751 81.182C66.365 81.182 65.393 80.156 65.393 78.644C65.393 77.132 66.365 76.124 67.751 76.124C68.543 76.124 69.173 76.448 69.587 77.06L71.081 75.656C70.505 74.864 69.425 74.09 67.643 74.09C64.961 74.09 63.035 75.98 63.035 78.644C63.035 81.128 64.655 82.928 67.013 83.18L66.635 84.242L67.463 84.71C67.607 84.566 67.805 84.458 68.039 84.458C68.381 84.458 68.561 84.638 68.561 84.926C68.561 85.322 68.111 85.52 67.625 85.52C67.139 85.52 66.617 85.34 66.167 84.998L65.717 85.916C66.095 86.222 66.833 86.492 67.697 86.492ZM76.6074 83.216C79.4874 83.216 81.2154 81.128 81.2154 78.644C81.2154 76.178 79.4874 74.09 76.6074 74.09C73.7454 74.09 72.0174 76.178 72.0174 78.644C72.0174 81.128 73.7454 83.216 76.6074 83.216ZM76.6074 81.182C75.1854 81.182 74.3934 80.012 74.3934 78.644C74.3934 77.294 75.1854 76.124 76.6074 76.124C78.0294 76.124 78.8394 77.294 78.8394 78.644C78.8394 80.012 78.0294 81.182 76.6074 81.182ZM19.744 107V102.734H22.804C25.396 102.734 26.836 100.952 26.836 98.864C26.836 96.758 25.414 94.994 22.804 94.994H17.188V107H19.744ZM22.462 100.484H19.744V97.244H22.462C23.47 97.244 24.226 97.856 24.226 98.864C24.226 99.854 23.47 100.484 22.462 100.484ZM35.5209 107V101.384C35.5209 98.882 33.7029 98.09 31.7229 98.09C30.3549 98.09 28.9869 98.522 27.9249 99.458L28.7889 100.988C29.5269 100.304 30.3909 99.962 31.3269 99.962C32.4789 99.962 33.2349 100.538 33.2349 101.42V102.59C32.6589 101.906 31.6329 101.528 30.4809 101.528C29.0949 101.528 27.4569 102.302 27.4569 104.336C27.4569 106.28 29.0949 107.216 30.4809 107.216C31.6149 107.216 32.6409 106.802 33.2349 106.1V107H35.5209ZM31.3989 105.668C30.4989 105.668 29.7609 105.2 29.7609 104.39C29.7609 103.544 30.4989 103.076 31.3989 103.076C32.1369 103.076 32.8569 103.328 33.2349 103.832V104.912C32.8569 105.416 32.1369 105.668 31.3989 105.668ZM40.7043 107.216C41.6583 107.216 42.2703 106.964 42.6123 106.658L42.1263 104.93C42.0003 105.056 41.6763 105.182 41.3343 105.182C40.8303 105.182 40.5423 104.768 40.5423 104.228V100.304H42.3063V98.306H40.5423V95.93H38.2383V98.306H36.7983V100.304H38.2383V104.84C38.2383 106.388 39.1023 107.216 40.7043 107.216ZM46.1563 107V101.258C46.5343 100.7 47.5423 100.268 48.2983 100.268C48.5503 100.268 48.7663 100.286 48.9283 100.322V98.09C47.8483 98.09 46.7683 98.72 46.1563 99.494V98.306H43.8703V107H46.1563ZM51.4907 97.37C52.2467 97.37 52.8587 96.758 52.8587 96.002C52.8587 95.246 52.2467 94.652 51.4907 94.652C50.7527 94.652 50.1227 95.246 50.1227 96.002C50.1227 96.758 50.7527 97.37 51.4907 97.37ZM52.6427 107V98.306H50.3567V107H52.6427ZM67.9954 107V100.718C67.9954 98.936 67.0414 98.09 65.4394 98.09C64.1074 98.09 62.9554 98.882 62.4514 99.674C62.1274 98.684 61.3174 98.09 60.0394 98.09C58.7074 98.09 57.5554 98.918 57.1954 99.44V98.306H54.9094V107H57.1954V101.15C57.5374 100.664 58.2034 100.124 58.9954 100.124C59.9314 100.124 60.2914 100.7 60.2914 101.51V107H62.5954V101.132C62.9194 100.664 63.5854 100.124 64.3954 100.124C65.3314 100.124 65.6914 100.7 65.6914 101.51V107H67.9954ZM74.2695 107.216C77.1495 107.216 78.8775 105.128 78.8775 102.644C78.8775 100.178 77.1495 98.09 74.2695 98.09C71.4075 98.09 69.6795 100.178 69.6795 102.644C69.6795 105.128 71.4075 107.216 74.2695 107.216ZM74.2695 105.182C72.8475 105.182 72.0555 104.012 72.0555 102.644C72.0555 101.294 72.8475 100.124 74.2695 100.124C75.6915 100.124 76.5015 101.294 76.5015 102.644C76.5015 104.012 75.6915 105.182 74.2695 105.182ZM88.7275 107V100.862C88.7275 99.17 87.8095 98.09 85.9015 98.09C84.4795 98.09 83.4175 98.774 82.8595 99.44V98.306H80.5735V107H82.8595V101.15C83.2375 100.628 83.9395 100.124 84.8395 100.124C85.8115 100.124 86.4415 100.538 86.4415 101.744V107H88.7275ZM92.1313 97.37C92.8873 97.37 93.4993 96.758 93.4993 96.002C93.4993 95.246 92.8873 94.652 92.1313 94.652C91.3933 94.652 90.7633 95.246 90.7633 96.002C90.7633 96.758 91.3933 97.37 92.1313 97.37ZM93.2833 107V98.306H90.9973V107H93.2833ZM103.056 107V101.384C103.056 98.882 101.238 98.09 99.258 98.09C97.89 98.09 96.522 98.522 95.46 99.458L96.324 100.988C97.062 100.304 97.926 99.962 98.862 99.962C100.014 99.962 100.77 100.538 100.77 101.42V102.59C100.194 101.906 99.168 101.528 98.016 101.528C96.63 101.528 94.992 102.302 94.992 104.336C94.992 106.28 96.63 107.216 98.016 107.216C99.15 107.216 100.176 106.802 100.77 106.1V107H103.056ZM98.934 105.668C98.034 105.668 97.296 105.2 97.296 104.39C97.296 103.544 98.034 103.076 98.934 103.076C99.672 103.076 100.392 103.328 100.77 103.832V104.912C100.392 105.416 99.672 105.668 98.934 105.668ZM107.609 107V94.994H105.323V107H107.609Z" fill="white"></path><g clip-path="url(#clip2_649_5777)"><path d="M175.665 184H168.999V174H158.999V184H152.332L163.999 195.667L175.665 184ZM152.332 199V202.333H175.665V199H152.332Z" fill="#48785D"></path></g></g><defs><clipPath id="clip0_649_5777"><rect width="208" height="222" rx="8" fill="white"></rect></clipPath><clipPath id="clip1_649_5777"><rect width="40" height="40" fill="white" transform="translate(16 14)"></rect></clipPath><clipPath id="clip2_649_5777"><rect width="40" height="40" fill="white" transform="translate(144 169)"></rect></clipPath></defs></svg>