<svg xmlns="http://www.w3.org/2000/svg" width="84" height="82" viewBox="0 0 84 82" fill="none"><path opacity="0.3" d="M16 44H8V72H16V44Z" fill="#2F3C34"></path><path opacity="0.3" d="M60 33.16C67.84 25.88 76 17.64 76 13.2C76 10.24 73.76 8 70.8 8C69.04 8 67.24 8.84 66.08 10.2L60 17.36L53.92 10.2C52.76 8.84 50.96 8 49.2 8C46.24 8 44 10.24 44 13.2C44 17.64 52.16 25.88 60 33.16Z" fill="#2F3C34"></path><path opacity="0.3" d="M72 64H50.6C48.44 64 46.32 63.64 44.28 62.96L34.76 59.8L37.28 52.2L46.8 55.36C48.04 55.76 49.32 55.96 50.6 55.96H56C56 54.48 55.08 53.16 53.72 52.64L30.44 44H24V65.92L51.88 73.68L75.6 66.28C74.96 64.92 73.56 64 72 64Z" fill="#2F3C34"></path><path d="M60 44C72.36 32.76 84 22.24 84 13.2C84 5.8 78.2 0 70.8 0C66.64 0 62.6 1.96 60 5C57.4 1.96 53.36 0 49.2 0C41.8 0 36 5.8 36 13.2C36 22.24 47.64 32.76 60 44ZM49.2 8C50.96 8 52.76 8.84 53.92 10.2L60 17.36L66.08 10.2C67.24 8.84 69.04 8 70.8 8C73.76 8 76 10.24 76 13.2C76 17.68 67.84 25.88 60 33.16C52.16 25.88 44 17.64 44 13.2C44 10.24 46.24 8 49.2 8Z" fill="#2F3C34"></path><path d="M72 56H64C64 51.2 61 46.88 56.52 45.2L31.88 36H0V80H24V74.24L52 82L84 72V68C84 61.36 78.64 56 72 56ZM16 72H8V44H16V72ZM51.88 73.64L24 65.92V44H30.44L53.72 52.68C55.08 53.2 56 54.52 56 56H50.6C49.32 56 48.04 55.8 46.8 55.4L37.28 52.24L34.76 59.84L44.28 63C46.32 63.68 48.44 64.04 50.6 64.04H72C73.56 64.04 74.96 64.96 75.6 66.28L51.88 73.64Z" fill="#2F3C34"></path></svg>