<svg xmlns="http://www.w3.org/2000/svg" width="44" height="32" viewBox="0 0 44 32" fill="none"><path d="M10.64 18.02C12.56 18.06 14.34 19.02 15.54 20.7C17 22.76 19.42 24 22 24C24.58 24 27 22.76 28.46 20.68C29.66 19 31.44 18.04 33.36 18C31.92 15.56 26.16 14 22 14C17.86 14 12.08 15.56 10.64 18.02Z" fill="#E6B12E"></path><path d="M6 18C9.32 18 12 15.32 12 12C12 8.68 9.32 6 6 6C2.68 6 0 8.68 0 12C0 15.32 2.68 18 6 18Z" fill="#E6B12E"></path><path d="M38 18C41.32 18 44 15.32 44 12C44 8.68 41.32 6 38 6C34.68 6 32 8.68 32 12C32 15.32 34.68 18 38 18Z" fill="#E6B12E"></path><path d="M22 12C25.32 12 28 9.32 28 6C28 2.68 25.32 0 22 0C18.68 0 16 2.68 16 6C16 9.32 18.68 12 22 12Z" fill="#E6B12E"></path><path d="M40 20H33.46C31.92 20 30.76 20.9 30.1 21.84C30.02 21.96 27.38 26 22 26C19.14 26 15.94 24.72 13.9 21.84C13.12 20.74 11.9 20 10.54 20H4C1.8 20 0 21.8 0 24V32H14V27.48C16.3 29.08 19.08 30 22 30C24.92 30 27.7 29.08 30 27.48V32H44V24C44 21.8 42.2 20 40 20Z" fill="#E6B12E"></path></svg>