<svg xmlns="http://www.w3.org/2000/svg" width="56" height="56" viewBox="0 0 56 56" fill="none"><g clip-path="url(#clip0_385_3730)"><path opacity="0.3" d="M28 9.65991L14 14.9099V25.8766C14 35.2099 19.95 43.8433 28 46.4799C36.05 43.8433 42 35.2333 42 25.8766V14.9099L28 9.65991ZM37.3333 30.3333H31.5V36.1666H24.5V30.3333H18.6667V23.3332H24.5V17.4999H31.5V23.3332H37.3333V30.3333Z" fill="#E6B12E"></path><path d="M24.4999 30.3334H18.6666V23.3334H24.4999V17.5001H31.4999V23.3334H37.3333V30.3334H31.4999V36.1667H24.4999V30.3334ZM27.9999 4.66675L9.33325 11.6667V25.8767C9.33325 37.6601 17.2899 48.6501 27.9999 51.3334C38.7099 48.6501 46.6666 37.6601 46.6666 25.8767V11.6667L27.9999 4.66675ZM41.9999 25.8767C41.9999 35.2101 36.0499 43.8434 27.9999 46.4801C19.9499 43.8434 13.9999 35.2334 13.9999 25.8767V14.9101L27.9999 9.66008L41.9999 14.9101V25.8767Z" fill="#E6B12E"></path></g><defs><clipPath id="clip0_385_3730"><rect width="56" height="56" fill="white"></rect></clipPath></defs></svg>