<svg xmlns="http://www.w3.org/2000/svg" width="439" height="180" viewBox="0 0 439 180" fill="none"><path d="M141.621 178.714V166.041L126.876 178.714H141.621Z" fill="white"></path><path d="M126.33 0.551025V20.5714L141.621 29.0204V0.551025H126.33Z" fill="white"></path><path d="M198.779 0.551025L170.382 20.2041V0.551025H154.909V36.1837L170.382 44.6327V44.449L198.779 24.6122V24.9796V43.898H214.434V0.551025H198.779Z" fill="white"></path><path d="M0.546082 112.959H16.0188V112.775L0.546082 99.1836V112.959Z" fill="white"></path><path d="M0.546082 92.3878L16.0188 81.551V26.449L0.546082 37.102V92.3878Z" fill="white"></path><path d="M126.33 154.653L97.7513 134.816V159.061L126.33 178.714H126.876L141.621 166.041V29.0205L126.33 20.5715V154.469V154.653Z" fill="white"></path><path d="M170.382 112.959V44.6326L154.909 36.1836V112.959H170.382Z" fill="white"></path><path d="M16.0188 112.776V81.551L0.546082 92.3878V99.1837L16.0188 112.776Z" fill="white"></path><path d="M97.7513 24.6121V112.959H113.224V13.7754L97.7513 24.6121Z" fill="white"></path><path d="M53.6995 55.2857V112.959H69.1723V44.449L53.6995 55.2857Z" fill="white"></path><path d="M16.0188 0.551025H15.4727L0.546082 11.0204V30.3061L16.0188 19.6531V0.551025Z" fill="white"></path><path d="M97.7513 0.551025L69.1722 20.2041V0.551025H53.6995L25.1204 20.2041V44.449L53.6995 24.6122V24.9796V55.2857L113.224 13.7755V0.551025H97.7513Z" fill="white"></path><path d="M234.64 31.4082V29.0204H239.918V2.93878H234.64V0.551025H247.746V2.93878H242.467V29.0204H247.746V31.4082H234.64Z" fill="white"></path><path d="M271.228 31.4082V26.6327L257.94 5.51021H257.758V31.4082H255.209V0.551025H257.758L271.046 21.8571H271.228V0.551025H273.776V31.4082H271.228Z" fill="white"></path><path d="M286.883 16.7142C284.152 15.9795 281.968 15.0611 280.694 13.7754C279.419 12.4897 278.691 10.653 278.691 8.08155C278.691 5.51012 279.601 3.67339 281.24 2.204C282.878 0.734615 285.062 0.183594 287.793 0.183594C290.523 0.183594 293.254 0.734613 295.984 1.65298L295.256 4.04074C292.708 3.12237 290.341 2.57135 288.157 2.57135C285.973 2.57135 284.334 3.12237 283.242 4.04074C282.15 4.95911 281.422 6.24482 281.422 8.08155C281.422 9.91829 281.968 11.204 282.878 12.1224C283.788 13.0407 285.609 13.7754 288.521 14.5101C291.252 15.2448 293.254 16.1632 294.528 17.4489C295.802 18.7346 296.348 20.5714 296.348 23.3265C296.348 26.0816 295.438 28.102 293.618 29.755C291.798 31.2244 289.431 32.1428 286.701 32.1428C284.516 32.1428 281.968 31.5918 278.691 30.8571L279.237 28.4693C282.332 29.3877 284.88 29.755 286.883 29.755C288.885 29.755 290.341 29.204 291.616 28.102C292.89 26.9999 293.436 25.5305 293.436 23.5101C293.436 21.4897 292.89 20.204 292.162 19.2856C291.434 18.1836 289.613 17.2652 286.883 16.7142Z" fill="white"></path><path d="M301.809 2.93878V0.551025H320.559V2.93878H312.549V31.4082H309.819V2.93878H301.809Z" fill="white"></path><path d="M328.204 31.4082V29.0204H333.483V2.93878H328.204V0.551025H341.128V2.93878H336.031V29.0204H341.128V31.4082H328.204Z" fill="white"></path><path d="M348.592 2.93878V0.551025H367.341V2.93878H359.15V31.4082H356.601V2.93878H348.592Z" fill="white"></path><path d="M372.256 22.5918V0.551025H374.804V22.2245C374.804 27 376.989 29.5714 381.358 29.5714C383.542 29.5714 385.18 28.8367 386.272 27.551C387.365 26.2653 387.911 24.4286 387.911 22.2245V0.551025H390.459V22.5918C390.459 25.7143 389.731 27.9184 388.093 29.5714C386.454 31.2245 384.27 31.9592 381.175 31.9592C378.081 31.9592 375.897 31.0408 374.44 29.3878C372.984 27.7347 372.256 25.5306 372.256 22.5918Z" fill="white"></path><path d="M395.192 2.93878V0.551025H414.123V2.93878H405.932V31.4082H403.383V2.93878H395.192Z" fill="white"></path><path d="M418.31 15.6122C418.31 13.2245 418.492 11.0204 418.856 9.18367C419.22 7.34694 419.584 5.69388 420.312 4.40816C421.769 1.46939 424.317 0 428.14 0C432.509 0 435.421 2.02041 436.695 6.2449C437.423 8.63265 437.97 11.3878 437.97 14.5102C437.97 17.6327 437.787 20.2041 437.423 22.0408C437.059 23.8775 436.695 25.5306 435.967 27.1837C434.511 30.3061 431.962 31.7755 428.14 31.7755C424.317 31.7755 421.769 30.3061 420.312 27.1837C418.856 24.4286 418.31 20.5714 418.31 15.6122ZM435.057 16.1633C435.057 14.5102 435.057 13.0408 434.875 12.1224C434.875 11.0204 434.693 9.91837 434.329 8.63265C433.965 7.34694 433.601 6.42857 433.237 5.5102C432.691 4.77551 432.144 4.04082 431.234 3.48979C430.324 2.93877 429.232 2.7551 427.958 2.7551C426.683 2.7551 425.591 3.12245 424.681 3.48979C423.771 4.04082 423.043 4.77551 422.679 5.5102C422.133 6.2449 421.769 7.34694 421.587 8.63265C421.223 10.6531 420.858 12.6735 420.858 15.0612C420.858 17.449 420.858 19.2857 421.04 20.7551C421.223 22.2245 421.587 23.6939 421.951 24.9796C422.861 27.9184 424.863 29.3878 427.776 29.3878C430.688 29.3878 432.691 27.9184 433.601 24.9796C434.693 22.5918 435.057 19.4694 435.057 16.1633Z" fill="white"></path><path d="M244.105 62.2652H239.554V72.1836H234.64V41.3264H244.287C247.746 41.3264 250.476 42.2448 252.115 43.8978C253.753 45.5509 254.481 48.1223 254.481 51.6121C254.481 58.7754 251.022 62.2652 244.105 62.2652ZM243.559 45.7346H239.554V57.857H243.559C245.561 57.857 247.2 57.306 248.11 56.3876C249.02 55.4693 249.566 53.8162 249.566 51.6121C249.566 49.408 249.02 47.9387 248.11 47.0203C247.2 46.1019 245.561 45.7346 243.559 45.7346Z" fill="white"></path><path d="M267.587 60.9795C265.949 61.1632 265.039 61.1632 264.857 61.1632H262.672V72.3672H257.758V41.3264H267.405C270.864 41.3264 273.412 42.0611 275.051 43.5305C276.871 44.9999 277.599 47.5713 277.599 51.0611C277.599 55.1019 275.779 58.0407 272.32 59.6938C274.505 63.7346 276.325 67.9591 277.781 71.9999H272.502C271.228 68.5101 269.408 64.653 267.587 60.9795ZM266.313 45.7346H262.49V56.5713H266.313C270.5 56.5713 272.502 54.7346 272.502 51.2448C272.502 49.2244 271.956 47.755 271.046 47.0203C270.136 46.1019 268.497 45.7346 266.313 45.7346Z" fill="white"></path><path d="M291.069 72.7347C287.247 72.7347 284.516 71.449 282.878 68.6939C281.24 66.1225 280.512 62.0817 280.512 56.5715C280.512 51.0613 281.422 47.2041 283.06 44.6327C284.698 42.0613 287.429 40.9592 291.252 40.9592C295.074 40.9592 297.623 42.2449 299.261 44.6327C300.899 47.2041 301.627 51.0613 301.627 56.7551C301.627 62.2654 300.899 66.3062 299.261 68.8776C297.441 71.449 294.892 72.7347 291.069 72.7347ZM290.887 68.3266C293.072 68.3266 294.528 67.5919 295.256 65.9388C295.984 64.2858 296.348 61.1633 296.348 56.7551C296.348 52.1633 295.984 49.2245 295.256 47.7551C294.528 46.2858 293.072 45.5511 290.887 45.5511C288.703 45.5511 287.247 46.2858 286.519 47.9388C285.609 49.5919 285.244 52.5307 285.244 56.7551C285.244 60.9796 285.609 63.9184 286.337 65.7551C287.247 67.4082 288.703 68.3266 290.887 68.3266Z" fill="white"></path><path d="M305.268 45.7346V41.3264H319.284V62.4489C319.284 65.204 318.374 67.408 316.736 68.8774C315.28 70.1632 313.095 71.2652 310.183 71.8162C308.909 71.9999 307.452 72.3672 305.814 72.5509L305.268 68.1427C308.545 67.5917 310.911 67.0407 312.367 66.1223C313.641 65.3876 314.37 64.1019 314.37 62.4489V45.5509H305.268V45.7346Z" fill="white"></path><path d="M325.11 72.1836V41.3264H342.949V45.7346H330.024V54.3672H341.674V58.5917H330.024V67.7754H343.131V72.1836H325.11Z" fill="white"></path><path d="M346.953 45.7346V41.3264H367.523V45.7346H359.696V72.1836H354.781V45.7346H346.953Z" fill="white"></path><path d="M380.811 72.7347C376.989 72.7347 374.258 71.449 372.62 68.6939C370.982 66.1225 370.253 62.0817 370.253 56.5715C370.253 51.0613 371.164 47.2041 372.802 44.6327C374.44 42.0613 377.171 40.9592 380.993 40.9592C384.816 40.9592 387.365 42.2449 389.003 44.6327C390.641 47.2041 391.369 51.0613 391.369 56.7551C391.369 62.2654 390.641 66.3062 389.003 68.8776C387.365 71.449 384.452 72.7347 380.811 72.7347ZM380.629 68.3266C382.814 68.3266 384.27 67.5919 384.998 65.9388C385.726 64.2858 386.09 61.1633 386.09 56.7551C386.09 52.1633 385.726 49.2245 384.998 47.7551C384.27 46.2858 382.814 45.5511 380.629 45.5511C378.445 45.5511 376.989 46.2858 376.261 47.9388C375.35 49.5919 374.986 52.5307 374.986 56.7551C374.986 60.9796 375.35 63.9184 376.079 65.7551C376.989 67.4082 378.445 68.3266 380.629 68.3266Z" fill="white"></path><path d="M250.84 112.959V108.918L239.19 89.8163H239.008V112.959H234.64V82.1021H239.008L250.658 101.388H250.84V82.1021H255.209V112.959H250.84Z" fill="white"></path><path d="M259.396 112.959V82.1021H277.235V86.5102H264.311V95.1429H275.961V99.3674H264.311V108.551H277.417V112.959H259.396Z" fill="white"></path><path d="M292.89 99.7347V112.959H288.157V99.7347L278.873 82.1021H284.334L290.341 95.1429H290.705L296.713 82.1021H302.173L292.89 99.7347Z" fill="white"></path><path d="M303.084 112.959V82.1021H307.816L313.641 98.2653H314.005L320.013 82.1021H324.563V112.959H320.195L320.377 92.2041H320.195L316.19 102.49H311.639L307.634 92.2041H307.452L307.634 112.959H303.084Z" fill="white"></path><path d="M327.476 112.959L334.939 82.1021H343.677L350.958 112.959H345.861L344.405 107.082H334.029L332.755 112.959H327.476ZM343.131 102.673L339.672 86.5102H338.58L334.757 102.673H343.131Z" fill="white"></path><path d="M362.426 101.755C360.788 101.939 359.878 101.939 359.696 101.939H357.511V113.143H352.596V82.1021H362.244C365.703 82.1021 368.251 82.8367 369.889 84.3061C371.71 85.7755 372.438 88.347 372.438 91.8367C372.438 95.8776 370.618 98.8163 367.159 100.469C369.343 104.51 371.164 108.735 372.62 112.776H367.341C366.067 109.286 364.246 105.429 362.426 101.755ZM361.152 86.5102H357.329V97.347H361.152C365.339 97.347 367.341 95.5102 367.341 92.0204C367.341 90 366.795 88.5306 365.885 87.7959C364.975 86.8776 363.336 86.5102 361.152 86.5102Z" fill="white"></path><path d="M392.826 86.5102V82.1021H406.842V103.224C406.842 105.98 405.932 108.184 404.294 109.653C402.837 110.939 400.653 112.041 397.74 112.592C396.466 112.776 395.01 113.143 393.372 113.327L392.826 108.918C396.102 108.367 398.468 107.816 399.925 106.898C401.381 106.163 401.927 104.878 401.927 103.224V86.3265H392.826V86.5102Z" fill="white"></path><path d="M423.953 101.755C422.315 101.939 421.405 101.939 421.223 101.939H419.038V113.143H414.123V82.1021H423.771C427.23 82.1021 429.778 82.8367 431.416 84.3061C433.237 85.7755 433.965 88.347 433.965 91.8367C433.965 95.8776 432.144 98.8163 428.686 100.469C430.87 104.51 432.691 108.735 434.147 112.776H428.868C427.594 109.286 425.955 105.429 423.953 101.755ZM422.861 86.5102H419.038V97.347H422.861C427.048 97.347 429.05 95.5102 429.05 92.0204C429.05 90 428.504 88.5306 427.594 87.7959C426.684 86.8776 425.045 86.5102 422.861 86.5102Z" fill="white"></path></svg>