<?xml version="1.0" standalone="no"?>
<!DOCTYPE svg PUBLIC "-//W3C//DTD SVG 20010904//EN"
 "http://www.w3.org/TR/2001/REC-SVG-20010904/DTD/svg10.dtd">
<svg version="1.0" xmlns="http://www.w3.org/2000/svg"
 width="3242.000000pt" height="2160.000000pt" viewBox="0 0 3242.000000 2160.000000"
 preserveAspectRatio="xMidYMid meet">
<metadata>
Created by potrace 1.16, written by Peter Selinger 2001-2019
</metadata>
<g transform="translate(0.000000,2160.000000) scale(0.100000,-0.100000)"
fill="#000000" stroke="none">
<path d="M32390 21596 c0 -2 7 -9 15 -16 12 -10 15 -10 15 4 0 9 -7 16 -15 16
-8 0 -15 -2 -15 -4z"/>
<path d="M20765 18521 c-16 -12 -42 -21 -57 -21 -15 0 -52 -16 -82 -35 -30
-19 -59 -35 -65 -35 -5 0 -22 -11 -38 -24 -15 -13 -43 -27 -60 -30 -18 -4 -36
-13 -40 -20 -5 -6 -33 -24 -63 -39 -31 -14 -77 -47 -103 -72 -26 -25 -52 -45
-58 -45 -19 0 -167 -92 -204 -127 -19 -18 -40 -33 -46 -33 -6 0 -29 -15 -52
-33 -23 -18 -53 -38 -67 -45 -33 -17 -207 -146 -245 -183 -17 -16 -39 -29 -48
-29 -10 0 -22 -11 -28 -24 -6 -13 -27 -33 -48 -44 -20 -11 -72 -55 -115 -96
-43 -42 -85 -76 -92 -76 -13 0 -43 -25 -119 -97 -18 -18 -40 -33 -48 -33 -17
0 -64 -45 -72 -70 -3 -10 -18 -21 -33 -25 -45 -11 -69 -32 -98 -84 -20 -38
-36 -54 -65 -65 -22 -9 -44 -26 -50 -39 -6 -12 -43 -42 -81 -67 -39 -25 -86
-66 -107 -93 -20 -26 -66 -85 -102 -131 -37 -46 -75 -95 -84 -110 -10 -15 -29
-32 -42 -37 -13 -5 -26 -17 -30 -26 -3 -10 -26 -39 -50 -65 -23 -26 -43 -52
-43 -58 0 -7 -36 -53 -81 -103 -44 -51 -87 -105 -96 -122 -9 -16 -32 -46 -52
-67 -20 -20 -52 -55 -71 -78 -65 -80 -105 -87 -136 -27 -21 41 -82 110 -106
119 -9 4 -24 22 -32 40 -7 18 -30 50 -50 71 -20 20 -36 42 -36 49 0 10 -38 55
-131 157 -17 19 -44 58 -61 88 -16 29 -33 53 -37 53 -4 0 -15 16 -24 36 -12
25 -30 41 -61 55 -43 19 -56 34 -56 67 0 9 -13 31 -28 48 -15 17 -58 68 -96
113 -38 44 -73 81 -77 81 -4 0 -12 12 -18 28 -11 26 -34 58 -124 170 -23 29
-58 72 -77 96 -98 123 -149 184 -193 230 -46 47 -98 118 -143 191 -11 19 -54
70 -95 113 -41 43 -92 100 -114 126 -80 98 -82 99 -131 93 -64 -7 -113 -45
-196 -154 -40 -52 -113 -141 -161 -197 -48 -55 -106 -128 -129 -161 -22 -33
-70 -92 -107 -131 -36 -39 -79 -92 -94 -117 -27 -44 -50 -73 -144 -175 -24
-25 -43 -53 -43 -62 0 -9 -12 -27 -26 -41 -14 -13 -32 -38 -39 -55 -7 -18 -25
-36 -44 -43 -17 -8 -31 -17 -31 -21 0 -5 -16 -27 -35 -50 -19 -23 -35 -46 -35
-52 0 -10 -125 -162 -160 -193 -12 -11 -30 -36 -40 -55 -10 -19 -28 -44 -40
-55 -12 -11 -30 -36 -40 -55 -11 -19 -42 -57 -70 -84 -28 -27 -65 -73 -82
-103 -16 -29 -39 -58 -49 -64 -11 -5 -30 -27 -43 -47 -13 -20 -50 -66 -83
-101 -77 -83 -87 -81 -182 37 -74 92 -114 139 -178 212 -22 25 -42 51 -44 58
-6 18 -219 243 -463 487 -115 116 -216 220 -224 233 -8 13 -40 41 -71 62 -31
21 -77 60 -103 87 -26 26 -58 59 -71 73 -14 14 -42 36 -63 50 -21 14 -69 55
-106 92 -36 37 -79 73 -95 82 -15 8 -41 28 -57 45 -17 17 -35 31 -41 31 -7 0
-33 18 -58 40 -25 22 -49 40 -53 40 -4 0 -22 15 -39 33 -18 17 -60 52 -94 77
-33 25 -75 56 -93 70 -34 27 -65 47 -168 106 -36 21 -90 57 -120 79 -30 23
-73 55 -94 71 -22 16 -63 43 -92 59 -135 78 -161 94 -173 109 -7 9 -21 16 -31
16 -9 0 -34 13 -55 30 -20 16 -54 32 -74 36 -20 3 -47 13 -61 22 -14 9 -50 17
-80 18 -30 2 -66 5 -80 9 -16 4 -36 -1 -57 -14 -32 -20 -33 -23 -33 -85 0 -36
5 -68 10 -71 29 -18 50 -91 50 -170 0 -56 5 -87 15 -101 8 -10 15 -28 15 -39
0 -11 7 -30 15 -42 8 -12 15 -36 15 -55 2 -137 11 -230 25 -250 8 -13 15 -40
15 -61 0 -24 8 -49 20 -64 11 -14 20 -41 20 -59 0 -40 26 -142 40 -159 6 -7
13 -23 15 -35 2 -13 12 -31 22 -42 14 -16 15 -25 6 -58 -8 -33 -7 -44 8 -69 9
-16 22 -32 28 -35 6 -4 11 -36 11 -71 0 -41 7 -83 21 -117 11 -28 18 -60 16
-69 -6 -22 28 -154 48 -191 8 -14 15 -46 15 -71 0 -52 15 -101 44 -140 16 -22
20 -43 21 -102 0 -58 4 -79 21 -102 25 -34 35 -70 38 -148 1 -33 9 -71 16 -85
8 -14 17 -54 21 -90 10 -89 34 -192 54 -230 11 -21 15 -47 13 -74 -3 -25 2
-59 14 -89 10 -26 18 -62 18 -79 0 -17 8 -40 17 -50 11 -13 16 -32 14 -57 -1
-24 3 -42 13 -50 9 -8 16 -27 16 -43 0 -37 28 -136 41 -143 5 -4 9 -16 9 -28
0 -25 28 -103 47 -132 7 -11 13 -27 13 -35 0 -9 11 -31 25 -50 14 -19 25 -46
25 -60 0 -14 6 -34 13 -45 8 -11 21 -41 30 -68 9 -26 25 -59 36 -74 12 -14 21
-36 21 -48 0 -12 14 -41 31 -65 17 -23 36 -57 42 -74 6 -17 20 -44 32 -61 12
-16 37 -58 54 -91 32 -61 121 -176 143 -183 7 -2 9 6 6 23 -7 36 14 34 46 -5
33 -39 33 -62 0 -88 -29 -23 -44 -20 -44 10 0 10 -3 19 -7 19 -14 -1 -71 -76
-87 -114 -16 -38 -39 -69 -99 -137 -18 -19 -47 -55 -65 -80 -17 -24 -60 -80
-95 -123 -34 -43 -73 -95 -86 -115 -13 -20 -38 -52 -56 -71 -33 -35 -77 -99
-104 -149 -8 -14 -38 -52 -67 -83 -30 -31 -54 -60 -54 -65 0 -5 -22 -33 -50
-63 -27 -30 -52 -64 -56 -75 -3 -11 -23 -37 -43 -57 -57 -59 -81 -88 -81 -98
0 -6 -32 -44 -70 -86 -39 -41 -70 -81 -70 -89 0 -7 -11 -22 -25 -33 -13 -11
-30 -32 -36 -48 -7 -16 -25 -42 -40 -59 -14 -16 -57 -70 -95 -120 -37 -49 -91
-117 -118 -151 -28 -34 -69 -87 -91 -119 -22 -31 -50 -67 -61 -79 -12 -13 -27
-33 -34 -46 -19 -36 -162 -210 -172 -210 -4 0 -14 -12 -21 -27 -6 -16 -31 -52
-54 -81 -24 -29 -43 -57 -43 -62 0 -5 -23 -37 -51 -72 -28 -35 -62 -83 -77
-108 -14 -25 -47 -68 -74 -97 -26 -28 -48 -56 -48 -62 0 -6 -33 -50 -73 -98
-98 -116 -100 -121 -86 -180 22 -89 42 -134 66 -146 25 -13 89 -94 129 -163
14 -24 43 -62 65 -86 22 -24 53 -66 69 -94 16 -28 47 -66 69 -83 23 -18 41
-39 41 -47 0 -8 15 -31 33 -51 18 -21 38 -49 45 -63 7 -14 49 -65 93 -115 44
-49 89 -108 101 -130 11 -22 41 -63 67 -91 25 -28 70 -85 100 -127 29 -43 72
-98 95 -125 24 -26 49 -58 56 -72 7 -14 30 -45 51 -70 78 -92 149 -180 149
-184 0 -8 43 -69 68 -96 61 -68 151 -180 165 -206 9 -16 41 -56 72 -89 31 -33
71 -82 90 -110 18 -27 42 -59 54 -69 11 -11 21 -24 21 -29 0 -5 30 -43 68 -84
37 -41 75 -89 85 -106 11 -18 30 -43 43 -58 13 -14 24 -29 24 -35 0 -5 16 -27
35 -49 19 -22 35 -45 35 -52 0 -7 13 -27 29 -45 63 -74 67 -110 14 -136 -43
-20 -60 -29 -120 -60 -23 -12 -48 -22 -56 -22 -8 0 -43 -15 -78 -34 -35 -19
-93 -43 -129 -55 -59 -19 -92 -33 -183 -77 -16 -8 -41 -14 -56 -14 -15 0 -52
-12 -82 -27 -48 -23 -64 -26 -142 -24 -100 2 -136 -7 -222 -56 -85 -49 -125
-77 -167 -120 -67 -67 -50 -132 65 -250 28 -29 56 -53 61 -53 5 0 39 -30 75
-67 97 -99 265 -252 301 -274 17 -11 70 -57 118 -102 48 -46 103 -94 122 -109
19 -14 79 -68 132 -120 53 -51 112 -105 130 -120 18 -16 56 -46 83 -69 28 -22
113 -100 190 -173 77 -73 165 -153 195 -178 30 -26 73 -65 95 -87 22 -23 45
-41 51 -41 6 0 60 -49 121 -110 71 -71 117 -110 131 -110 12 0 27 -10 33 -22
18 -33 99 -117 144 -149 22 -15 75 -62 118 -103 43 -41 87 -78 98 -81 12 -4
72 -57 134 -118 122 -122 220 -210 275 -247 19 -13 55 -45 80 -70 25 -25 63
-58 85 -72 22 -14 74 -58 115 -98 41 -39 105 -94 141 -121 36 -27 71 -60 77
-74 6 -13 25 -31 42 -40 16 -8 30 -19 30 -23 0 -4 27 -28 60 -52 33 -25 107
-91 165 -148 58 -56 124 -114 146 -127 21 -14 70 -56 108 -93 37 -37 85 -80
106 -97 72 -56 167 -140 231 -203 34 -34 67 -62 72 -62 5 0 60 -50 123 -111
63 -61 146 -136 184 -166 39 -31 75 -61 80 -67 20 -22 171 -152 206 -178 20
-15 55 -45 79 -68 24 -23 70 -56 103 -73 33 -18 69 -38 81 -44 35 -21 70 -15
101 17 16 17 37 30 46 30 27 0 85 39 158 105 36 34 107 96 156 140 50 44 102
91 116 105 15 14 50 43 79 65 29 22 83 69 121 105 122 115 169 155 198 167 16
7 85 66 153 130 68 65 141 132 163 148 22 17 46 38 53 47 7 10 36 33 65 53 29
19 77 58 107 87 30 29 89 80 130 115 212 177 348 299 466 416 61 60 120 115
131 121 46 26 134 99 150 123 9 14 29 33 44 42 35 21 191 147 283 228 98 86
107 95 141 131 60 62 131 127 163 149 39 27 46 33 116 98 30 28 73 66 96 85
22 19 64 58 93 86 29 28 91 84 140 124 48 39 87 76 87 81 0 5 13 15 29 23 15
8 68 54 117 101 49 47 101 93 116 102 14 9 32 27 39 40 7 13 17 23 22 23 5 0
31 21 56 48 86 87 202 187 236 205 19 9 39 26 45 36 5 11 18 22 27 25 10 3 44
32 75 64 100 102 162 155 191 165 9 4 17 11 17 16 0 10 132 124 221 189 33 24
59 46 59 50 0 14 96 109 140 139 134 92 179 214 103 277 -14 11 -46 40 -72 63
-70 63 -150 113 -180 113 -27 0 -120 29 -179 56 -18 9 -41 13 -49 10 -9 -4
-50 9 -92 28 -86 38 -175 66 -213 66 -14 0 -33 9 -44 21 -24 26 -59 44 -104
54 -19 4 -47 16 -62 26 -14 11 -48 23 -75 28 -27 6 -73 26 -102 45 -29 20 -57
36 -63 36 -5 0 -16 16 -24 36 -14 34 -14 38 11 80 15 25 54 77 89 117 34 40
73 88 86 107 13 19 35 49 50 65 16 17 31 40 34 52 4 12 20 32 37 43 16 12 29
28 29 36 0 15 45 76 155 207 34 40 74 90 90 112 16 22 37 49 47 60 60 69 87
104 102 133 9 18 23 35 31 38 8 3 27 29 44 58 16 29 45 64 64 78 19 15 40 42
48 60 19 49 74 125 138 193 56 59 195 237 279 359 23 33 72 95 107 136 36 41
85 104 109 140 24 36 54 74 66 85 19 17 46 53 120 159 8 12 26 39 38 59 13 20
27 37 32 37 7 0 89 103 137 173 12 18 32 41 43 52 35 36 60 97 60 149 0 83
-74 210 -185 316 -37 35 -95 112 -95 126 0 13 -87 124 -131 167 -11 10 -19 22
-19 28 0 6 -31 46 -70 90 -38 43 -70 84 -70 90 0 11 -23 42 -91 122 -20 23
-49 62 -66 87 -17 25 -41 54 -53 65 -13 11 -39 45 -58 75 -19 30 -59 81 -89
113 -29 32 -53 62 -53 67 0 5 -27 41 -60 81 -33 39 -60 77 -61 83 0 6 -29 45
-65 86 -80 94 -203 251 -230 296 -11 18 -43 57 -70 86 -28 29 -57 64 -64 78
-15 29 -68 98 -91 120 -9 8 -27 33 -41 55 -14 22 -33 46 -42 54 -9 7 -16 19
-16 26 0 7 -11 20 -25 29 -14 9 -25 23 -25 32 0 9 -25 41 -55 73 -30 32 -55
61 -55 66 0 4 -16 25 -35 46 -19 22 -35 44 -35 49 0 6 -15 25 -32 43 -18 18
-58 66 -89 107 -30 41 -88 118 -127 172 -65 87 -71 99 -62 123 5 14 10 40 10
56 0 31 25 82 110 219 28 47 68 117 87 155 20 39 44 81 54 94 11 13 19 31 19
40 0 10 5 22 12 29 11 11 30 57 49 118 5 18 16 37 24 44 8 6 17 39 21 72 5 40
13 66 27 78 10 10 23 40 28 66 5 26 20 71 33 101 21 44 23 58 14 84 -9 25 -7
34 8 52 39 45 54 85 54 144 0 32 5 64 11 70 15 15 30 77 39 170 6 53 18 102
35 136 20 44 23 60 16 80 -7 19 -6 34 5 56 8 17 18 47 21 68 3 21 12 50 19 65
8 15 14 58 14 95 0 41 5 76 14 88 7 11 16 31 19 45 3 14 11 48 19 77 8 28 13
65 10 82 -3 19 3 42 17 64 11 18 20 47 20 63 -1 34 37 174 51 188 6 6 10 30
10 55 0 26 7 55 15 65 8 11 15 27 15 35 0 9 7 30 16 46 9 17 18 60 20 97 2 42
11 83 24 107 11 23 20 60 20 86 0 25 6 58 13 73 8 15 22 56 31 92 10 36 27 80
38 98 12 19 18 43 16 57 -3 16 2 31 13 41 10 9 16 21 13 26 -4 5 1 24 9 41 42
89 50 116 43 165 -4 34 -2 60 9 85 11 26 13 56 9 114 -3 43 -2 89 4 103 6 16
6 33 -1 47 -9 21 -4 33 74 163 5 8 13 25 18 37 6 11 15 24 20 28 6 3 11 24 11
46 0 89 -112 149 -185 100z m101 -27 c12 -3 27 -17 33 -30 14 -31 14 -94 1
-94 -6 0 -13 -8 -17 -17 -8 -23 -44 -63 -55 -63 -13 0 1 40 23 69 20 25 26 61
10 61 -21 0 -525 -496 -647 -636 -43 -51 -119 -137 -169 -191 -115 -126 -230
-258 -275 -313 -19 -24 -48 -57 -63 -74 -16 -17 -46 -54 -68 -83 -21 -28 -43
-54 -49 -58 -12 -8 -159 -190 -183 -227 -9 -15 -36 -50 -60 -77 -23 -27 -64
-75 -92 -107 -27 -32 -62 -76 -77 -99 -15 -22 -44 -61 -65 -87 -184 -226 -555
-739 -642 -888 -24 -41 -51 -86 -60 -100 -45 -70 -161 -303 -186 -371 -61
-169 -112 -357 -140 -519 -9 -52 -23 -126 -31 -164 -8 -38 -14 -85 -14 -104 0
-20 -6 -77 -14 -126 -47 -292 -73 -660 -81 -1141 -3 -165 -9 -303 -14 -308
-13 -13 -24 -4 -67 60 -49 73 -124 150 -124 128 0 -9 5 -21 10 -28 55 -63 167
-266 255 -462 38 -85 75 -157 89 -175 7 -8 19 -31 26 -50 15 -40 78 -160 91
-175 5 -5 9 -20 9 -33 0 -18 -10 -28 -47 -44 -27 -11 -101 -53 -166 -92 -65
-39 -132 -80 -150 -90 -18 -11 -50 -33 -72 -51 -22 -17 -71 -52 -110 -79 -88
-60 -167 -118 -236 -174 -30 -23 -139 -110 -244 -193 -225 -178 -235 -187
-435 -383 -86 -84 -174 -162 -195 -175 -22 -12 -48 -35 -57 -51 -14 -25 -23
-29 -85 -35 -89 -9 -108 -14 -95 -27 6 -6 62 -14 124 -19 62 -4 127 -12 143
-17 65 -21 121 -47 151 -69 39 -29 52 -29 56 -1 4 27 33 35 56 16 15 -13 41
-22 182 -64 25 -7 73 -23 108 -34 70 -23 126 -26 120 -8 -5 15 -20 22 -88 41
-30 9 -82 24 -115 33 -33 10 -93 32 -133 51 -86 38 -89 59 -8 50 28 -4 83 -2
121 4 39 5 99 12 135 16 36 3 72 11 80 18 8 7 33 16 55 19 22 4 57 18 77 32
21 13 42 24 48 24 29 0 235 239 258 298 11 31 103 155 205 277 15 18 27 37 27
42 0 5 20 24 45 42 25 18 45 35 45 39 0 4 18 26 40 50 22 24 40 51 40 60 0 9
3 27 6 40 5 16 2 22 -10 22 -9 0 -16 5 -16 10 0 6 4 10 9 10 6 0 13 -4 16 -10
19 -31 68 4 98 71 15 33 15 42 0 121 -20 102 -11 136 43 167 19 11 34 26 34
33 0 7 -16 40 -35 73 -19 33 -39 71 -45 84 -6 13 -19 35 -29 50 -29 40 -61
100 -61 114 0 7 -9 23 -20 37 -21 27 -27 75 -10 85 13 8 50 -13 50 -29 0 -7 8
-24 19 -37 17 -23 99 -181 125 -244 7 -16 24 -52 37 -80 17 -36 24 -70 25
-120 0 -38 8 -95 16 -125 9 -30 27 -95 41 -145 24 -85 74 -312 84 -382 4 -27
-3 -40 -49 -91 -29 -32 -73 -85 -98 -117 -25 -31 -65 -83 -90 -114 -25 -31
-68 -85 -95 -121 -27 -36 -69 -87 -93 -114 -45 -51 -79 -106 -65 -106 16 0
269 271 357 381 44 56 65 61 96 22 12 -16 48 -57 80 -93 95 -107 123 -141 190
-230 35 -47 75 -99 89 -116 14 -17 34 -46 43 -63 15 -26 23 -32 45 -29 40 4
40 30 1 81 -40 52 -211 255 -288 341 -30 33 -79 91 -108 128 -57 72 -60 98
-12 98 29 0 115 -70 185 -150 16 -19 71 -78 122 -130 50 -52 123 -138 163
-190 87 -115 106 -133 128 -122 17 9 110 29 258 57 98 18 268 21 262 3 -4 -12
-100 -46 -132 -47 -11 -1 -47 -7 -80 -15 -34 -8 -126 -30 -206 -48 -91 -21
-151 -39 -163 -51 -11 -11 -25 -16 -38 -12 -11 4 -32 4 -48 0 -24 -5 -30 -12
-35 -48 -10 -66 -54 -237 -75 -294 -13 -37 -16 -55 -8 -60 6 -3 110 -7 231 -8
283 -2 511 -28 786 -88 36 -8 99 -22 140 -31 76 -17 344 -103 403 -130 17 -8
66 -29 107 -46 103 -44 252 -119 269 -135 22 -22 -28 -30 -64 -11 -17 9 -34
16 -38 16 -4 0 -36 13 -70 29 -65 30 -327 118 -507 169 -382 110 -699 152
-1147 152 -161 0 -159 1 -188 -92 -45 -139 -89 -236 -127 -275 -16 -17 -28
-36 -24 -41 3 -5 32 -13 63 -17 88 -11 193 -34 313 -70 25 -7 81 -23 125 -35
126 -36 361 -133 435 -180 14 -9 45 -25 70 -35 162 -70 445 -280 490 -366 20
-36 -26 -22 -82 26 -167 141 -539 345 -768 422 -41 13 -84 29 -95 33 -46 21
-284 92 -390 117 -221 52 -327 55 -393 10 -21 -14 -63 -35 -93 -47 -30 -13
-81 -35 -114 -51 -52 -25 -61 -27 -75 -14 -21 19 -54 19 -69 2 -13 -16 -5 -27
21 -27 31 0 12 -16 -64 -55 -40 -20 -100 -55 -133 -77 -56 -38 -76 -54 -126
-101 -10 -9 -26 -17 -34 -17 -9 0 -20 -11 -25 -25 -5 -14 -14 -25 -19 -25 -6
0 -31 -20 -57 -45 -25 -25 -73 -58 -105 -73 -32 -15 -62 -35 -65 -45 -3 -10
-16 -23 -29 -29 -12 -5 -28 -21 -35 -34 -12 -21 -38 -39 -46 -31 -7 6 59 157
68 157 5 0 59 50 120 110 102 101 213 190 237 190 6 0 27 18 47 40 20 21 51
44 69 50 19 6 45 27 60 46 14 18 30 34 36 34 5 0 26 10 47 23 20 13 63 34 95
47 88 37 55 44 -167 35 -151 -5 -200 -11 -233 -25 -42 -18 -43 -18 -188 2 -23
4 -26 -2 -140 -256 -46 -104 -98 -212 -116 -240 -48 -80 -139 -134 -409 -243
-89 -36 -133 -49 -217 -63 -89 -15 -129 -9 -373 57 -87 23 -91 30 -100 184
-12 196 -7 209 98 311 115 111 210 206 369 368 73 74 141 143 153 152 42 37
26 44 -135 54 -188 11 -281 -13 -431 -112 -58 -39 -81 -42 -115 -16 -60 46
-150 91 -214 108 -85 21 -367 26 -387 6 -9 -9 9 -32 83 -104 52 -51 194 -194
316 -318 256 -261 240 -228 224 -449 -8 -111 -13 -137 -29 -154 -25 -25 -305
-97 -376 -97 -67 0 -149 20 -266 65 -138 52 -351 159 -382 192 -33 35 -115
189 -163 308 -21 50 -41 95 -45 100 -4 6 -15 33 -24 61 -9 28 -27 60 -39 72
-20 19 -29 20 -124 13 -57 -4 -106 -10 -109 -14 -7 -6 69 -57 86 -57 6 0 27
-17 48 -37 20 -21 46 -43 57 -49 16 -10 18 -14 7 -25 -11 -12 -19 -10 -52 9
-21 12 -47 22 -58 22 -10 0 -29 11 -42 25 -13 14 -47 37 -76 50 -29 14 -55 29
-58 34 -3 5 -22 12 -41 15 -20 4 -52 17 -72 29 -28 16 -58 22 -124 25 -49 3
-96 2 -105 -2 -25 -10 -1 -31 51 -46 25 -7 58 -25 75 -41 16 -16 39 -29 51
-29 28 0 21 -34 -9 -38 -28 -4 -29 -28 -1 -43 18 -9 27 -7 51 11 18 13 36 19
49 15 36 -12 91 -49 128 -87 26 -27 49 -40 81 -46 45 -9 96 -49 134 -107 9
-14 25 -25 36 -25 13 0 27 -14 39 -38 11 -21 31 -43 45 -50 17 -7 29 -25 37
-54 7 -24 16 -48 20 -53 9 -13 39 -98 35 -102 -4 -4 -76 46 -138 96 -31 25
-84 69 -119 96 -35 28 -90 75 -124 106 -34 31 -75 64 -91 74 -16 10 -42 31
-59 45 -16 15 -46 33 -65 40 -19 7 -42 19 -50 25 -26 22 -271 135 -290 135
-10 0 -22 5 -25 11 -9 14 -167 87 -221 101 -31 9 -56 9 -96 0 -52 -11 -100
-20 -243 -47 -38 -8 -92 -19 -118 -25 -49 -12 -77 -9 -77 10 0 6 8 13 18 16 9
4 31 12 49 20 17 8 37 14 44 14 7 0 31 6 54 14 57 20 178 46 213 46 62 0 66 9
19 54 -45 42 -74 104 -127 271 -13 39 -27 73 -33 76 -19 13 -266 -6 -507 -37
-113 -15 -292 -52 -380 -79 -25 -8 -90 -28 -145 -45 -133 -41 -199 -67 -330
-132 -111 -55 -165 -88 -165 -100 0 -19 -45 -3 -48 18 -4 31 150 127 369 228
180 84 409 143 749 196 41 7 153 15 248 17 186 6 197 10 174 56 -29 58 -92
288 -92 339 0 17 -8 31 -20 38 -25 13 -60 4 -60 -16 0 -22 -16 -16 -28 11 -7
14 -23 27 -39 31 -15 3 -48 12 -73 19 -25 7 -79 21 -120 30 -41 10 -104 26
-140 35 -36 10 -85 21 -108 24 -24 4 -60 13 -80 22 -29 12 -34 17 -22 24 8 5
33 10 55 10 58 0 287 -36 379 -60 89 -23 136 -26 136 -8 0 29 125 189 260 332
234 248 253 266 282 266 41 0 36 -34 -15 -96 -23 -29 -62 -76 -86 -105 -23
-30 -61 -73 -83 -96 -58 -63 -193 -227 -234 -284 -30 -40 -34 -52 -24 -64 27
-32 48 -15 139 113 120 165 144 195 262 330 55 61 105 112 113 112 7 0 44 -37
82 -82 89 -107 101 -122 164 -190 29 -32 61 -70 71 -85 30 -49 97 -118 105
-111 4 5 0 16 -9 26 -10 10 -17 23 -17 28 0 5 -23 34 -51 64 -28 30 -58 66
-67 80 -81 120 -185 254 -286 369 -85 96 -90 104 -78 143 6 18 27 103 47 188
20 85 47 196 60 245 15 55 24 119 24 166 1 76 11 115 49 200 55 119 152 316
164 330 12 15 51 39 62 39 17 0 -10 -100 -32 -122 -7 -7 -12 -17 -12 -24 0 -7
-29 -62 -65 -123 -36 -60 -65 -113 -65 -117 0 -4 -6 -15 -14 -23 -8 -9 -17
-27 -21 -41 -5 -22 0 -30 31 -50 21 -14 47 -40 57 -58 17 -29 17 -35 5 -55 -8
-12 -18 -50 -21 -85 -6 -53 -3 -70 14 -104 21 -41 102 -152 145 -198 13 -14
43 -47 66 -74 63 -72 114 -128 143 -156 14 -14 25 -29 25 -33 0 -8 107 -175
147 -230 43 -58 114 -140 135 -155 10 -8 30 -31 44 -53 13 -21 30 -39 38 -39
7 0 19 -7 26 -15 42 -50 214 -91 433 -101 130 -7 137 -8 121 -25 -15 -17 -219
-89 -251 -89 -8 0 -29 -6 -46 -14 -18 -8 -44 -17 -59 -20 -16 -4 -28 -11 -28
-16 0 -13 51 -13 82 -1 13 5 66 19 118 31 52 12 97 25 100 29 4 6 59 20 143
38 26 5 27 4 17 -21 -17 -46 -10 -48 46 -9 100 69 238 113 356 113 37 0 69 4
73 10 7 11 -60 31 -130 39 -49 6 -50 6 -47 39 3 30 1 32 -28 32 -40 0 -69 23
-320 251 -276 252 -449 390 -891 713 -131 96 -382 254 -452 284 -37 16 -35 37
18 140 25 48 45 91 45 96 0 5 38 86 84 180 46 94 87 181 90 194 11 33 90 174
131 230 19 27 35 54 35 59 0 6 9 18 20 28 21 19 27 55 10 55 -5 0 -21 -18 -35
-40 -14 -22 -29 -40 -33 -40 -4 0 -27 -31 -51 -70 -24 -38 -48 -70 -52 -70
-16 0 -19 43 -25 353 -6 306 -31 720 -53 872 -6 39 -16 108 -21 155 -17 135
-41 298 -69 475 -24 145 -77 337 -145 516 -28 76 -115 243 -193 373 -29 49
-53 90 -53 92 0 3 -106 161 -165 244 -22 32 -87 120 -144 196 -57 77 -121 162
-141 189 -20 28 -56 76 -81 109 -24 32 -53 71 -64 86 -11 16 -42 56 -68 90
-73 93 -56 111 23 26 138 -149 237 -236 266 -236 8 0 26 -7 39 -16 14 -9 34
-14 46 -11 12 3 32 1 45 -5 17 -8 40 -7 91 5 37 9 83 19 101 22 18 4 39 17 48
30 9 15 22 21 33 18 26 -7 38 17 18 32 -10 7 -17 24 -17 39 0 32 -51 108 -160
239 -19 23 -44 53 -55 66 -30 36 -4 22 55 -29 95 -82 467 -515 570 -664 30
-43 71 -97 91 -120 35 -40 70 -92 292 -439 63 -97 302 -575 352 -702 26 -66
50 -124 54 -130 22 -31 130 -351 175 -520 15 -55 34 -120 42 -145 8 -25 14
-62 14 -82 0 -47 15 -56 50 -30 34 26 43 18 65 -56 15 -51 133 -310 152 -334
5 -7 20 -32 33 -55 35 -64 55 -56 25 9 -8 18 -48 119 -90 224 -68 173 -75 196
-75 260 0 52 6 81 24 119 24 50 127 163 200 220 54 42 98 89 86 93 -14 5 -56
-23 -115 -78 -27 -25 -73 -64 -100 -86 -92 -72 -143 -135 -156 -192 -21 -101
-45 -80 -78 70 -12 56 -28 121 -35 143 -7 22 -20 65 -29 95 -36 126 -51 171
-98 300 -100 272 -132 346 -264 608 -128 254 -233 433 -385 657 -67 100 -104
164 -98 170 7 7 95 -8 108 -19 35 -26 178 -230 261 -369 19 -32 51 -86 71
-120 54 -91 119 -214 146 -277 13 -30 33 -75 44 -100 76 -165 165 -405 204
-550 14 -52 32 -116 40 -142 41 -139 64 -231 81 -328 11 -60 35 -65 51 -11 15
47 133 163 282 275 86 65 193 136 205 136 3 0 44 22 91 50 128 73 164 82 310
81 129 -1 169 -10 191 -40 10 -15 30 -19 118 -23 78 -4 110 -9 122 -20 19 -20
11 -34 -24 -43 -14 -3 -45 -19 -67 -34 -94 -65 -276 -162 -288 -155 -22 14
107 116 188 149 52 21 55 24 36 34 -26 14 -214 8 -255 -8 -16 -6 -61 -10 -100
-10 -40 1 -63 4 -52 6 11 3 35 16 55 29 25 18 48 24 87 24 28 0 55 5 59 12 10
15 -148 3 -229 -18 -92 -24 -281 -124 -264 -140 7 -7 242 21 314 37 57 12 140
11 149 -2 3 -6 -7 -25 -23 -42 -56 -61 -82 -105 -122 -203 -41 -101 -81 -238
-81 -274 0 -33 16 -23 29 18 25 79 116 247 135 251 37 6 307 -81 436 -141 25
-11 61 -27 80 -36 46 -19 234 -127 287 -165 23 -16 46 -26 52 -23 6 4 11 24
11 45 0 40 13 97 75 316 60 214 123 391 198 556 19 42 40 93 47 114 7 22 23
60 35 85 13 25 35 72 51 105 15 33 54 107 86 164 31 57 60 112 63 122 9 27
161 278 194 319 16 20 38 53 50 75 12 22 42 67 66 100 25 33 53 71 62 85 97
143 395 512 574 712 277 308 762 769 1064 1010 39 30 86 71 106 89 20 19 56
49 80 67 24 18 80 61 123 95 126 99 166 128 247 182 91 59 198 155 174 155
-22 0 -15 34 8 38 10 2 24 -4 30 -12 11 -15 14 -15 32 -2 19 15 19 15 -7 16
-16 0 -28 4 -28 10 0 16 49 23 65 10 11 -10 20 -8 41 9 15 12 32 21 40 21 7 0
33 20 57 45 25 25 52 45 60 45 9 0 28 11 44 23 34 28 90 57 112 57 9 1 27 7
41 15 29 17 28 16 56 9z m-9471 -54 c3 -5 18 -10 33 -10 35 0 128 -47 161 -82
14 -16 30 -28 35 -28 5 0 31 -14 58 -30 31 -20 57 -29 69 -25 14 5 17 3 13 -9
-4 -11 4 -21 26 -33 17 -10 72 -48 121 -85 49 -37 128 -92 174 -123 47 -31 85
-61 85 -66 0 -5 15 -19 34 -31 42 -29 206 -162 266 -216 67 -61 26 -53 -56 12
-90 69 -127 89 -143 73 -18 -18 -13 -44 24 -115 39 -76 49 -119 25 -113 -88
23 -98 3 -41 -80 22 -33 41 -62 41 -64 0 -29 -109 69 -262 236 -126 138 -197
211 -474 490 -278 280 -300 309 -230 309 19 0 38 -4 41 -10z m9415 -205 c0
-19 -4 -35 -10 -35 -11 0 -13 30 -4 54 10 25 14 19 14 -19z m-20 -157 c0 -61
-8 -97 -38 -171 -13 -32 -13 -45 -2 -91 16 -68 8 -118 -25 -162 -19 -25 -24
-40 -19 -60 10 -38 -15 -104 -39 -104 -16 0 -18 5 -12 28 3 15 9 41 12 59 3
18 11 38 19 44 8 7 14 31 14 59 0 30 6 52 15 60 8 7 15 26 15 42 0 26 -2 29
-15 18 -8 -7 -15 -23 -15 -36 0 -13 -4 -24 -9 -24 -5 0 -15 -17 -21 -37 -6
-21 -18 -52 -26 -70 -8 -17 -14 -38 -14 -47 0 -8 -6 -30 -14 -48 -8 -18 -35
-100 -61 -183 -26 -82 -62 -193 -80 -245 -18 -52 -52 -163 -74 -245 -23 -83
-49 -173 -57 -202 -22 -77 -49 -187 -69 -278 -10 -44 -25 -116 -35 -160 -10
-44 -23 -107 -29 -140 -7 -33 -20 -100 -31 -150 -10 -49 -23 -115 -29 -145
-42 -222 -57 -291 -88 -415 -33 -135 -172 -563 -199 -615 -7 -14 -41 -83 -75
-155 -100 -207 -179 -341 -288 -490 -144 -195 -191 -258 -239 -315 -29 -36
-75 -91 -100 -123 -95 -117 -324 -354 -593 -614 -68 -65 -210 -223 -269 -298
-54 -69 -164 -200 -197 -234 -18 -19 -23 -20 -23 -7 0 9 3 16 8 16 4 0 16 17
26 38 10 20 22 44 27 52 5 8 18 33 30 55 12 22 29 49 39 60 10 11 31 45 48 75
29 53 97 161 142 225 107 153 195 277 222 313 62 82 230 277 308 357 43 44
103 112 135 150 31 39 84 99 118 135 139 147 407 524 407 571 0 8 9 23 21 32
11 10 18 21 15 25 -4 3 -19 -8 -34 -25 -16 -16 -32 -32 -38 -34 -5 -2 -45 -44
-89 -93 -44 -49 -97 -99 -117 -112 -21 -14 -38 -31 -38 -39 0 -9 -6 -12 -15
-9 -22 9 -44 -13 -38 -36 5 -18 2 -19 -27 -14 -24 5 -31 3 -30 -7 5 -31 -2
-40 -50 -64 -27 -14 -50 -31 -50 -38 0 -6 -21 -33 -46 -59 -32 -33 -54 -48
-72 -48 -20 0 -23 -3 -14 -12 8 -8 6 -17 -11 -34 -12 -13 -29 -24 -37 -24 -9
0 -37 -22 -64 -50 -39 -41 -55 -50 -82 -50 -21 0 -42 8 -54 20 l-20 20 0 -30
c0 -16 5 -40 11 -53 14 -32 -7 -82 -35 -82 -36 0 -55 44 -62 145 -3 52 -8 98
-11 102 -5 9 -4 213 1 393 7 248 43 476 85 529 4 6 11 28 14 49 3 21 17 51 31
68 14 17 26 39 26 48 0 10 8 29 18 42 10 13 24 35 31 49 33 66 51 93 68 105
11 8 25 31 31 52 7 21 26 56 42 78 16 22 40 63 54 90 13 28 36 65 50 84 14 19
26 40 26 45 0 6 16 31 35 55 19 24 35 48 35 52 0 5 11 19 25 31 14 12 25 31
25 42 0 11 10 31 23 45 13 15 40 55 62 91 38 64 49 80 91 123 12 12 31 41 43
64 11 23 37 54 56 69 19 14 35 32 35 39 0 6 10 20 21 31 12 10 38 44 59 74 21
30 48 64 60 75 12 11 30 36 40 55 10 20 39 55 64 78 25 23 46 45 46 48 0 12
104 124 115 124 7 0 20 11 29 25 9 14 25 25 36 25 13 0 25 12 34 35 8 19 19
35 24 35 5 0 41 31 81 70 69 68 72 69 82 47 6 -13 20 -27 32 -32 27 -12 35
-75 15 -108 -22 -35 -46 -126 -54 -207 -3 -25 -23 -101 -44 -170 -21 -69 -49
-168 -60 -220 -12 -52 -28 -116 -36 -142 -8 -25 -14 -70 -12 -100 3 -47 4 -50
11 -23 4 17 14 43 22 58 8 16 15 35 15 43 0 8 9 40 20 71 10 32 29 96 41 143
11 47 25 89 30 94 5 6 9 19 9 29 0 21 25 140 41 197 6 19 21 77 35 129 26 101
120 389 132 406 4 5 18 44 31 85 13 41 28 84 32 95 5 11 29 76 53 145 40 113
104 274 142 357 7 17 14 38 14 46 0 9 4 18 9 22 5 3 13 20 17 38 3 17 13 45
20 62 7 16 23 58 35 93 12 34 26 62 30 62 5 0 9 -28 9 -62z m-9361 -100 c10
-7 29 -49 44 -93 14 -44 36 -105 47 -135 12 -30 26 -68 30 -85 8 -28 67 -181
111 -285 10 -25 44 -124 75 -220 31 -96 69 -209 86 -250 16 -41 37 -99 46
-127 9 -29 19 -53 22 -53 3 0 11 9 17 19 10 16 9 27 -2 55 -8 19 -15 47 -15
61 0 14 -6 38 -14 53 -15 30 -29 132 -18 132 4 0 22 -14 41 -31 31 -28 32 -33
21 -55 -17 -30 -6 -42 18 -21 10 9 33 20 52 23 32 7 37 3 135 -99 97 -101 110
-124 91 -155 -4 -6 -3 -12 3 -12 5 0 11 6 13 12 9 25 55 -10 108 -81 29 -39
65 -77 79 -84 14 -6 35 -31 45 -54 11 -23 30 -47 42 -54 20 -10 47 -47 108
-144 10 -16 22 -43 25 -60 5 -22 15 -33 36 -40 30 -10 106 -85 138 -137 9 -15
17 -39 17 -52 0 -18 9 -30 31 -41 32 -17 112 -131 150 -215 12 -27 30 -52 40
-55 9 -3 27 -25 38 -48 27 -53 68 -109 87 -120 8 -4 14 -16 15 -25 0 -9 14
-37 30 -62 16 -25 37 -58 47 -74 9 -15 29 -47 44 -70 15 -22 28 -51 28 -62 0
-12 7 -27 16 -35 8 -7 22 -26 31 -43 9 -17 33 -57 54 -89 22 -32 39 -70 39
-83 0 -14 9 -37 20 -52 18 -24 27 -58 46 -167 3 -16 11 -57 19 -90 19 -84 29
-585 15 -690 -13 -91 -21 -105 -61 -105 -22 0 -29 -5 -29 -19 0 -11 4 -22 10
-26 5 -3 7 -12 3 -20 -3 -9 1 -15 10 -15 20 0 32 -19 20 -31 -11 -11 -77 14
-89 33 -5 7 -7 25 -5 39 2 24 -3 29 -46 45 -55 20 -82 40 -94 71 -5 13 -20 24
-41 28 -18 4 -39 16 -47 27 -7 11 -23 23 -36 28 -13 5 -29 21 -37 36 -7 15
-29 35 -48 46 -24 13 -34 24 -32 38 3 17 -26 42 -45 39 -26 -4 -43 3 -43 19 0
9 -28 44 -61 77 -46 45 -67 59 -85 57 -15 -2 -24 2 -24 11 0 7 -11 19 -25 25
-19 9 -25 19 -25 42 0 17 -5 30 -13 30 -6 0 -35 23 -62 50 -28 28 -58 55 -67
60 -16 9 -17 8 -8 -15 41 -107 249 -386 451 -606 48 -52 98 -108 111 -124 13
-17 57 -66 99 -110 181 -191 274 -304 447 -550 114 -161 168 -244 206 -315 13
-25 56 -92 95 -150 39 -58 71 -109 71 -114 0 -5 6 -17 14 -25 18 -21 30 -61
18 -61 -5 0 -42 41 -83 91 -265 325 -339 407 -628 689 -143 140 -287 286 -318
324 -32 38 -90 106 -129 150 -73 84 -159 195 -235 304 -24 35 -68 98 -98 140
-61 87 -166 271 -241 421 -64 130 -187 449 -232 604 -29 101 -78 304 -118 487
-12 52 -25 111 -30 130 -11 46 -25 111 -55 250 -14 63 -36 162 -50 220 -14 58
-32 139 -41 180 -27 138 -118 435 -275 902 -16 47 -29 95 -29 105 0 11 -7 28
-15 39 -8 10 -15 28 -15 39 0 11 -8 36 -19 55 -10 19 -21 49 -25 67 -4 17 -14
34 -22 37 -8 3 -14 16 -14 29 0 14 -6 42 -13 63 -8 22 -16 77 -19 124 -3 47
-3 75 -1 63 2 -13 12 -28 22 -35z m8541 12 c0 -5 -8 -10 -17 -10 -15 0 -16 2
-3 10 19 12 20 12 20 0z m-90 -60 c0 -5 -6 -10 -14 -10 -7 0 -19 -7 -26 -15
-7 -8 -18 -15 -24 -15 -12 0 44 49 57 50 4 0 7 -4 7 -10z m-7530 -40 c0 -5 -2
-10 -4 -10 -3 0 -8 5 -11 10 -3 6 -1 10 4 10 6 0 11 -4 11 -10z m7330 -110 c0
-6 -8 -13 -17 -17 -10 -3 -34 -19 -54 -35 -40 -31 -60 -38 -34 -11 15 14 96
72 103 73 1 0 2 -5 2 -10z m-276 -214 c-3 -8 -24 -27 -47 -43 -23 -15 -50 -38
-60 -50 -10 -13 -26 -23 -35 -23 -11 0 -2 13 27 40 24 22 46 40 49 40 2 0 15
11 28 25 25 27 47 33 38 11z m-6661 -82 c54 -54 68 -74 48 -74 -21 0 -131 102
-131 121 0 21 29 5 83 -47z m6477 -68 c0 -8 -12 -24 -27 -36 -79 -61 -581
-551 -797 -777 -54 -57 -102 -103 -107 -103 -20 0 -7 28 27 61 20 18 73 79
117 133 157 191 209 247 310 334 56 48 109 94 118 102 100 94 149 143 149 149
0 4 19 18 43 31 23 13 50 34 60 47 10 13 24 23 31 23 7 0 23 11 36 25 26 28
40 32 40 11z m1419 -72 c-8 -24 -17 -44 -21 -44 -14 0 -9 59 9 98 15 34 17 35
21 14 2 -13 -2 -44 -9 -68z m-7789 41 c21 -25 1 -31 -22 -7 -18 18 -19 22 -6
22 8 0 21 -7 28 -15z m7731 -228 c-13 -13 -14 5 -3 43 l7 25 3 -29 c2 -16 -1
-33 -7 -39z m-7225 -264 c-7 -7 -26 7 -26 19 0 6 6 6 15 -2 9 -7 13 -15 11
-17z m7124 -120 c0 -5 -5 -15 -10 -23 -8 -12 -10 -11 -10 8 0 12 5 22 10 22 6
0 10 -3 10 -7z m-8727 -242 c2 -10 1 -25 -4 -32 -6 -10 -9 -4 -9 19 0 36 5 42
13 13z m4472 -296 c66 -36 140 -79 165 -95 46 -29 63 -39 183 -104 37 -21 70
-45 75 -54 4 -9 6 -164 4 -344 l-3 -328 -55 -35 c-30 -19 -56 -35 -58 -35 -2
0 -58 -31 -125 -69 -247 -142 -330 -183 -357 -177 -33 9 -419 219 -536 293
l-38 23 -1 213 c-2 380 0 449 17 468 9 10 66 45 127 80 62 34 124 71 139 81
15 11 83 50 150 89 102 58 129 69 158 65 19 -2 89 -34 155 -71z m-4418 33 c-3
-8 -6 -5 -6 6 -1 11 2 17 5 13 3 -3 4 -12 1 -19z m6069 -311 c-20 -35 -45 -72
-56 -82 -11 -10 -20 -22 -20 -27 0 -6 -13 -28 -28 -51 -55 -80 -186 -289 -227
-361 -63 -111 -247 -490 -275 -565 -16 -45 -36 -94 -44 -109 -8 -15 -24 -55
-36 -87 -111 -305 -113 -310 -165 -536 -58 -248 -61 -251 -137 -202 -135 86
-342 180 -518 232 -219 66 -223 69 -178 111 26 24 28 24 56 4 12 -8 48 -19 81
-25 32 -5 72 -16 87 -24 16 -8 36 -15 44 -15 48 -1 259 -100 371 -174 46 -31
88 -55 94 -53 5 2 13 32 18 68 12 99 34 200 83 374 37 129 45 158 80 270 52
166 91 266 179 456 84 180 122 256 140 279 7 8 19 29 27 45 27 54 179 299 230
370 71 99 98 125 127 126 14 0 42 11 61 23 19 13 37 22 38 21 2 -2 -12 -32
-32 -68z m2371 -149 c-3 -8 -6 -5 -6 6 -1 11 2 17 5 13 3 -3 4 -12 1 -19z
m-8268 -255 c1 -35 -13 -44 -23 -17 -8 22 -8 69 1 78 10 10 21 -22 22 -61z
m8212 -46 c-8 -8 -11 -7 -11 4 0 9 3 19 7 23 4 4 9 2 11 -4 3 -7 -1 -17 -7
-23z m-8157 -159 c5 -14 6 -34 1 -44 -7 -17 -9 -16 -21 11 -7 17 -13 38 -14
48 0 26 23 16 34 -15z m8126 -13 c0 -13 -5 -27 -11 -30 -15 -10 -17 -4 -12 32
6 37 23 35 23 -2z m-8070 -187 c0 -28 -28 -10 -35 23 -10 43 6 60 21 24 7 -17
13 -38 14 -47z m8010 10 c0 -13 -5 -30 -10 -38 -7 -11 -10 -5 -10 23 0 20 5
37 10 37 6 0 10 -10 10 -22z m-7960 -160 c0 -16 -4 -28 -9 -28 -12 0 -24 56
-15 71 10 16 24 -9 24 -43z m56 -122 c7 -31 -4 -55 -17 -35 -12 19 -11 59 1
59 5 0 12 -11 16 -24z m7744 -180 c0 -8 -4 -18 -10 -21 -5 -3 -10 3 -10 14 0
12 5 21 10 21 6 0 10 -6 10 -14z m-7633 -119 c-2 -7 -12 1 -21 16 -11 16 -15
34 -11 44 6 15 10 12 22 -16 8 -18 12 -38 10 -44z m7564 -20 c-8 -8 -11 -7
-11 4 0 9 3 19 7 23 4 4 9 2 11 -4 3 -7 -1 -17 -7 -23z m-7510 -63 c5 -15 8
-29 5 -31 -6 -7 -36 28 -36 43 0 24 20 16 31 -12z m75 -145 c14 -28 24 -53 21
-55 -6 -6 -57 76 -57 92 0 25 9 15 36 -37z m7170 -261 c-4 -13 -9 -38 -13 -55
-6 -37 -7 -37 -34 -23 -25 14 -24 34 3 70 26 36 53 41 44 8z m-5522 -2284 c10
-26 7 -32 -14 -27 -24 6 -34 19 -25 33 9 15 32 12 39 -6z m4066 6 c0 -5 -5
-10 -11 -10 -5 0 -7 5 -4 10 3 6 8 10 11 10 2 0 4 -4 4 -10z m-80 -101 c0 -20
-21 -49 -35 -49 -20 0 -19 25 1 44 18 18 34 21 34 5z m-3910 -9 c0 -5 -4 -10
-10 -10 -5 0 -10 5 -10 10 0 6 5 10 10 10 6 0 10 -4 10 -10z m108 -175 c3 -25
2 -27 -12 -16 -19 16 -22 55 -3 49 6 -3 14 -17 15 -33z m3633 -148 c-16 -16
-26 20 -10 40 13 15 14 14 17 -7 2 -12 -1 -27 -7 -33z m-3576 -17 c7 -22 6
-23 -9 -11 -9 7 -16 25 -16 40 1 29 11 17 25 -29z m3155 -300 c0 -11 -12 -27
-27 -37 -16 -9 -41 -29 -58 -43 -83 -73 -186 -118 -198 -86 -6 15 -9 15 -31 1
-31 -21 -74 -10 -88 21 -22 47 2 54 142 38 51 -6 58 -4 94 25 21 17 44 31 51
31 7 0 32 16 55 35 48 40 60 43 60 15z m-2590 -77 c-1 -21 -19 -35 -36 -29
-18 7 -18 8 0 22 22 15 36 18 36 7z m2111 -43 c39 -21 16 -110 -28 -110 -24 0
-53 30 -53 53 0 21 36 67 52 67 5 0 18 -5 29 -10z m-1121 -1271 c97 -45 126
-63 185 -111 41 -35 54 -35 91 0 16 15 69 52 118 82 68 40 99 54 130 54 35 1
41 -2 44 -21 3 -22 -8 -38 -64 -96 -17 -18 -38 -45 -47 -62 -8 -16 -58 -72
-111 -124 -53 -51 -96 -97 -96 -101 0 -4 -7 -11 -16 -14 -19 -7 -83 41 -116
87 -13 18 -50 59 -83 92 -125 125 -217 234 -211 251 10 25 68 13 176 -37z
m1710 -274 c-6 -7 -26 -16 -45 -19 -19 -4 -35 -13 -35 -20 0 -19 -27 -40 -34
-27 -4 5 -2 12 4 16 6 3 16 21 24 39 12 30 16 32 55 28 33 -3 39 -7 31 -17z
m-3485 -230 c0 -15 -22 -32 -85 -66 -235 -126 -260 -140 -361 -205 -36 -24
-95 -59 -130 -79 -251 -142 -300 -186 -348 -306 -12 -31 -32 -66 -44 -76 -12
-11 -74 -41 -137 -67 -201 -82 -264 -107 -305 -124 -22 -8 -60 -24 -85 -35
-113 -50 -133 -57 -151 -57 -13 0 -19 7 -19 23 0 17 11 27 48 44 26 12 103 48
172 81 69 33 179 80 245 106 207 81 197 75 223 149 25 71 77 137 145 187 105
75 209 141 292 185 50 27 125 70 168 97 134 85 308 169 342 166 22 -2 30 -8
30 -23z m4105 -10 c7 -8 17 -15 23 -15 10 0 104 -58 212 -130 50 -33 202 -120
210 -120 6 0 158 -90 223 -132 15 -10 36 -22 47 -28 11 -6 34 -19 50 -30 17
-11 53 -31 80 -46 86 -45 125 -94 144 -179 7 -32 56 -71 100 -82 25 -6 76 -26
156 -63 98 -46 224 -98 268 -111 52 -15 61 -22 71 -57 16 -49 3 -45 -492 151
-92 36 -107 45 -129 81 -14 22 -30 55 -35 73 -13 47 -61 91 -164 148 -49 27
-93 54 -99 60 -12 13 -135 86 -215 127 -60 31 -92 50 -190 113 -36 23 -123 77
-195 120 -158 95 -169 103 -154 122 15 18 74 17 89 -2z m-3830 -154 c25 -19
79 -66 122 -104 42 -38 92 -79 110 -91 19 -11 43 -29 54 -39 38 -35 92 -77 98
-77 4 0 35 -24 71 -52 104 -86 124 -100 138 -95 18 6 72 -19 103 -48 15 -14
33 -25 40 -25 21 0 29 -42 10 -55 -14 -11 -12 -15 18 -39 19 -14 41 -26 49
-26 8 0 17 -9 20 -20 3 -11 11 -20 19 -20 7 0 22 -14 33 -30 11 -16 25 -30 32
-30 7 0 17 -8 22 -18 5 -10 37 -39 70 -66 65 -52 73 -69 41 -86 -18 -9 -28 -4
-74 34 -36 31 -62 46 -82 46 -18 0 -38 10 -54 27 -14 14 -54 45 -90 69 -36 23
-88 62 -116 86 -28 23 -70 54 -93 68 -24 14 -71 49 -106 78 -35 28 -68 52 -73
52 -5 0 -33 23 -62 50 -29 28 -56 50 -61 50 -10 0 -213 178 -217 191 -2 5 -24
29 -48 52 -39 38 -43 47 -44 92 -3 89 -7 87 70 26z m3545 19 c7 -21 0 -37 -46
-104 -27 -41 -51 -64 -118 -113 -21 -16 -38 -32 -67 -64 -19 -20 -200 -161
-214 -167 -8 -3 -46 -33 -85 -67 -38 -34 -81 -68 -95 -75 -14 -7 -45 -29 -69
-49 -24 -20 -52 -35 -62 -33 -13 2 -20 -5 -25 -22 -3 -14 -10 -26 -14 -26 -5
0 -35 -22 -68 -50 -33 -27 -67 -50 -75 -50 -8 0 -24 -12 -35 -27 -17 -24 -22
-26 -37 -13 -14 12 -19 10 -40 -16 -22 -27 -25 -28 -40 -13 -16 16 -14 20 21
59 30 33 42 40 61 35 15 -3 25 -1 29 8 3 8 32 36 64 63 32 27 61 58 65 71 3
12 14 25 25 28 11 4 28 17 36 31 9 13 22 24 29 24 8 0 23 14 35 30 12 17 17
30 12 30 -4 0 -24 -13 -42 -30 -18 -16 -40 -30 -47 -30 -22 0 -14 30 11 39 13
5 26 17 29 25 4 9 17 16 29 16 13 0 31 9 41 20 9 11 24 20 32 20 9 0 25 9 37
20 12 11 29 20 37 20 9 0 41 23 71 50 30 27 59 50 65 50 5 0 18 9 30 20 21 21
279 234 342 283 42 32 69 35 78 7z m762 -276 c-3 -3 -12 -4 -19 -1 -8 3 -5 6
6 6 11 1 17 -2 13 -5z m60 -34 c14 -11 32 -20 39 -20 8 0 14 -4 14 -9 0 -5 15
-14 33 -20 19 -7 43 -20 54 -30 11 -11 46 -31 77 -46 69 -32 113 -77 132 -130
18 -51 17 -60 -1 -45 -8 7 -15 17 -15 23 0 16 -71 98 -94 108 -11 5 -39 20
-61 34 -22 13 -49 29 -60 35 -11 5 -33 19 -50 30 -16 11 -40 24 -52 30 -13 5
-23 14 -23 19 0 5 -9 11 -20 14 -21 5 -28 27 -9 27 6 0 22 -9 36 -20z m-3406
-115 c163 -43 188 -45 719 -48 283 -2 547 0 585 5 39 4 95 11 125 14 30 3 69
12 85 19 17 7 56 21 87 30 32 9 60 21 63 26 4 5 15 9 25 9 40 0 4 -57 -92
-147 -51 -48 -122 -117 -158 -152 -35 -36 -79 -74 -96 -86 -18 -12 -65 -51
-105 -88 -100 -89 -253 -202 -317 -234 -59 -29 -154 -40 -245 -29 -41 5 -74
19 -133 56 -42 27 -80 53 -83 58 -3 5 -26 23 -51 40 -25 18 -76 59 -115 92
-38 33 -95 79 -125 101 -30 23 -91 76 -135 118 -45 42 -107 101 -139 131 -59
56 -112 132 -102 149 3 5 37 -4 75 -19 38 -16 98 -36 132 -45z m1739 -173 c0
-13 -12 -22 -22 -16 -10 6 -1 24 13 24 5 0 9 -4 9 -8z m2050 -68 c0 -14 -4
-22 -10 -19 -5 3 -10 17 -10 31 0 14 4 22 10 19 6 -3 10 -17 10 -31z m-4181
-47 c5 -13 17 -29 26 -37 20 -17 135 -185 135 -198 0 -4 14 -21 30 -37 17 -16
30 -33 30 -38 0 -20 86 -111 117 -124 33 -13 34 -14 18 -41 -9 -15 -37 -40
-63 -55 -51 -30 -109 -71 -223 -158 -41 -30 -90 -66 -109 -79 -19 -14 -67 -50
-106 -82 -39 -32 -75 -58 -80 -58 -13 0 -52 43 -87 95 -15 22 -55 77 -89 122
-76 99 -235 339 -265 401 -12 25 -19 50 -16 55 6 10 42 -31 43 -48 0 -5 27
-39 60 -73 33 -35 60 -70 60 -78 0 -8 7 -14 15 -14 10 0 15 10 15 31 0 16 -4
28 -9 24 -12 -7 -25 31 -16 45 5 8 11 8 19 1 9 -8 19 7 40 62 98 255 95 250
166 266 25 5 65 14 89 19 33 8 56 6 90 -4 59 -18 58 -18 66 6 9 27 33 25 44
-3z m2601 -13 c39 -5 48 -11 72 -47 14 -23 31 -62 38 -87 33 -126 54 -174 91
-211 22 -22 46 -39 54 -39 8 0 28 20 45 45 32 46 70 61 70 27 0 -17 -75 -125
-143 -207 -18 -22 -44 -58 -57 -80 -13 -22 -37 -56 -54 -76 -17 -20 -51 -60
-76 -89 -88 -105 -102 -120 -115 -120 -6 0 -45 25 -86 55 -41 30 -103 75 -139
99 -36 25 -94 68 -130 96 -36 27 -98 73 -138 102 -84 59 -105 87 -76 103 36
20 170 161 261 275 136 169 166 181 383 154z m-3323 -116 c-3 -7 -5 -2 -5 12
0 14 2 19 5 13 2 -7 2 -19 0 -25z m2570 -92 c-4 -10 -18 -16 -39 -16 l-33 1
30 24 c30 25 53 20 42 -9z m2263 -14 c0 -11 -49 -62 -60 -62 -16 0 -12 20 5
26 8 4 15 12 15 19 0 7 6 16 13 18 19 8 27 8 27 -1z m-3485 -57 c40 -37 45
-45 25 -39 -14 4 -27 11 -28 16 -2 4 -19 15 -38 23 -19 8 -34 21 -34 29 0 27
24 18 75 -29z m1104 4 c-21 -30 -74 -69 -94 -69 -14 1 91 100 105 100 6 0 1
-14 -11 -31z m1281 11 c0 -5 -4 -10 -10 -10 -5 0 -10 5 -10 10 0 6 5 10 10 10
6 0 10 -4 10 -10z m-172 -25 c3 -18 3 -18 -10 -4 -7 9 -20 19 -28 23 -8 3 -4
4 10 3 16 -1 26 -9 28 -22z m1192 -24 c0 -21 -75 -110 -84 -100 -6 5 70 119
80 119 2 0 4 -9 4 -19z m-7412 -193 c-3 -7 -18 -17 -34 -22 -16 -4 -60 -21
-99 -37 -104 -42 -185 -55 -185 -29 0 5 24 25 53 44 38 26 70 38 117 44 100
14 152 14 148 0z m4356 -173 c22 -8 43 -12 48 -9 4 3 70 7 145 9 136 4 137 4
93 -11 -74 -27 -184 -32 -346 -19 -150 12 -174 17 -174 36 0 14 190 10 234 -6z
m-653 -15 c10 -6 19 -17 19 -24 0 -8 12 -19 28 -25 17 -8 39 -33 61 -74 44
-81 155 -277 195 -347 49 -84 136 -232 215 -366 39 -66 74 -134 77 -151 4 -20
-2 -54 -19 -99 -24 -67 -32 -107 -97 -454 -16 -91 -35 -187 -41 -215 -6 -27
-14 -72 -19 -100 -14 -85 -37 -199 -44 -215 -3 -8 -10 -42 -15 -75 -5 -33 -16
-94 -26 -135 -9 -41 -23 -109 -30 -150 -8 -41 -23 -118 -34 -170 -11 -52 -21
-106 -23 -120 -5 -43 -32 -28 -66 40 -19 36 -69 124 -112 195 -42 72 -110 193
-150 270 -40 77 -103 196 -140 265 -89 168 -298 591 -314 638 -8 20 -32 75
-54 122 -91 193 -165 372 -227 550 -26 74 -56 158 -66 185 -31 83 -49 168 -52
241 -2 65 -1 69 20 69 11 0 25 3 29 8 12 12 36 8 56 -10 10 -9 36 -17 57 -17
36 -1 44 -7 100 -75 33 -41 73 -80 88 -86 16 -7 23 -14 16 -18 -6 -4 -26 -1
-44 7 -19 7 -63 17 -99 20 -35 4 -73 12 -83 18 -22 11 -30 7 -22 -14 10 -27
194 -108 290 -128 22 -5 78 -18 124 -30 101 -26 135 -22 70 8 -25 12 -62 34
-82 50 -20 16 -51 35 -69 42 -80 30 -75 25 -48 40 14 7 36 24 50 38 14 14 62
49 106 79 45 29 87 60 94 68 6 8 27 19 46 25 19 6 34 15 34 20 0 8 85 70 97
70 3 0 27 -11 54 -25 43 -21 51 -22 56 -9 3 9 -3 21 -16 30 -11 8 -21 22 -21
30 0 17 5 17 31 4z m1705 -13 c5 -4 -2 -10 -14 -14 -18 -4 -20 -9 -11 -24 12
-23 49 -25 49 -4 0 22 27 18 40 -5 6 -11 8 -20 4 -20 -4 0 1 -9 11 -20 22 -25
41 -26 54 -3 11 21 24 12 26 -19 1 -12 7 -24 15 -26 7 -3 10 0 6 7 -14 23 31
11 55 -15 13 -14 44 -35 69 -46 42 -19 69 -39 147 -108 35 -31 33 -37 -26 -60
-18 -7 -47 -26 -64 -42 -17 -15 -50 -36 -74 -45 -43 -18 -56 -33 -29 -33 18 0
150 32 231 55 109 32 269 104 267 120 -2 17 -43 18 -81 2 -20 -9 -63 -18 -96
-20 -40 -4 -53 -2 -37 4 12 4 22 15 22 23 0 19 78 88 91 80 5 -3 20 1 33 9 18
12 26 13 35 4 10 -9 16 -8 27 8 11 15 27 19 79 20 80 2 83 -5 61 -115 -18 -84
-100 -345 -145 -460 -17 -41 -42 -106 -57 -145 -14 -38 -48 -117 -74 -175 -26
-58 -72 -159 -100 -225 -57 -129 -278 -579 -351 -710 -24 -44 -62 -114 -84
-156 -64 -122 -112 -206 -169 -293 -28 -45 -74 -118 -100 -163 -26 -46 -52
-86 -58 -89 -17 -11 -27 10 -37 76 -10 61 -33 181 -65 330 -8 36 -21 101 -30
145 -9 44 -34 163 -55 265 -22 102 -43 203 -46 225 -4 22 -16 85 -27 140 -11
55 -23 123 -28 150 -11 73 -60 304 -70 330 -6 17 -1 42 21 96 16 40 35 79 41
86 17 21 234 450 345 683 71 149 102 185 158 185 18 0 37 -4 41 -8z m-390
-274 c-115 -241 -125 -257 -132 -229 -6 24 34 119 70 166 6 8 22 38 35 65 43
88 75 139 79 127 2 -7 -22 -65 -52 -129z m2172 63 c75 -54 162 -117 225 -165
57 -44 107 -95 107 -110 0 -12 -3 -12 -17 2 -10 8 -63 45 -118 82 -55 37 -122
86 -150 109 -27 23 -71 57 -97 76 -45 33 -61 60 -37 60 6 0 45 -24 87 -54z
m2217 -41 c-27 -24 -51 -42 -54 -39 -3 3 2 11 12 18 9 7 17 18 17 24 0 14 40
42 59 42 8 0 -7 -20 -34 -45z m-65 -54 c0 -12 -20 -25 -27 -18 -7 7 6 27 18
27 5 0 9 -4 9 -9z m-71 -64 c-19 -17 -44 -39 -54 -47 -33 -27 0 24 36 54 44
38 61 32 18 -7z m-79 -71 c0 -3 -13 -14 -30 -26 -35 -25 -40 -20 -8 10 20 18
38 26 38 16z m-4320 -125 c0 -11 -4 -23 -10 -26 -6 -4 -10 5 -10 19 0 14 5 26
10 26 6 0 10 -9 10 -19z m-2990 -26 c0 -19 6 -61 14 -93 8 -31 22 -93 31 -137
17 -80 29 -120 58 -205 8 -25 20 -63 25 -85 28 -112 161 -422 225 -521 24 -38
54 -88 67 -111 13 -24 27 -43 32 -43 4 0 8 -9 8 -20 0 -11 -3 -20 -7 -20 -7 1
-82 98 -108 140 -5 9 -27 42 -48 74 -98 146 -198 369 -239 531 -11 44 -27 101
-34 127 -8 26 -14 65 -14 87 0 22 -4 50 -9 63 -14 38 -24 248 -12 248 6 0 11
-16 11 -35z m2948 -79 c-14 -12 -48 -80 -48 -99 -1 -7 -12 -25 -25 -42 -39
-47 -31 -8 16 76 22 41 46 85 52 99 l11 25 4 -24 c2 -14 -2 -30 -10 -35z
m2582 -43 c0 -5 -4 -15 -10 -23 -11 -18 -25 -7 -17 15 6 15 27 21 27 8z m-48
-75 c-7 -7 -12 -8 -12 -2 0 14 12 26 19 19 2 -3 -1 -11 -7 -17z m-61 -129 c-9
-22 -10 -22 -10 -3 -1 11 2 24 6 27 12 12 14 0 4 -24z m-89 -161 c-7 -7 -12
-8 -12 -2 0 14 12 26 19 19 2 -3 -1 -11 -7 -17z m-23 -40 c0 -7 -13 -35 -29
-63 -15 -27 -44 -84 -65 -125 -46 -95 -148 -262 -194 -319 -20 -25 -39 -49
-43 -55 -4 -6 -10 -7 -14 -3 -8 7 23 86 40 102 6 6 22 31 35 55 13 25 41 71
62 102 22 32 39 61 39 65 0 10 42 97 50 103 4 3 13 16 20 30 46 89 101 149 99
108z m-6289 -168 c0 -5 -7 -7 -15 -4 -8 4 -15 8 -15 10 0 2 7 4 15 4 8 0 15
-4 15 -10z m6908 -372 c-2 -6 -10 -14 -16 -16 -7 -2 -10 2 -6 12 7 18 28 22
22 4z m-6403 -78 c3 -5 1 -10 -4 -10 -6 0 -11 5 -11 10 0 6 2 10 4 10 3 0 8
-4 11 -10z m43 -38 c2 -7 -3 -12 -12 -12 -9 0 -16 7 -16 16 0 17 22 14 28 -4z
m212 -193 c0 -4 -7 -6 -15 -3 -8 4 -15 10 -15 15 0 4 7 6 15 3 8 -4 15 -10 15
-15z m30 -29 c0 -5 -4 -10 -10 -10 -5 0 -10 5 -10 10 0 6 5 10 10 10 6 0 10
-4 10 -10z m5750 0 c0 -5 -7 -10 -16 -10 -8 0 -12 5 -9 10 3 6 10 10 16 10 5
0 9 -4 9 -10z m-5562 -158 c2 -7 -2 -10 -12 -6 -9 3 -16 11 -16 16 0 13 23 5
28 -10z m43 -49 l24 -26 -27 19 c-15 10 -28 22 -28 27 0 12 5 8 31 -20z m314
-264 c11 -17 0 -20 -21 -4 -17 13 -17 14 -2 15 9 0 20 -5 23 -11z m3415 -1089
c0 -5 -4 -10 -10 -10 -5 0 -10 5 -10 10 0 6 5 10 10 10 6 0 10 -4 10 -10z"/>
<path d="M13787 16325 c-28 -21 -13 -51 60 -122 58 -56 93 -77 93 -55 0 4 -26
42 -58 84 -31 42 -61 84 -67 92 -9 13 -13 13 -28 1z"/>
<path d="M13950 16126 c0 -8 5 -18 10 -21 6 -3 10 1 10 9 0 8 -4 18 -10 21 -5
3 -10 -1 -10 -9z"/>
<path d="M16365 13529 c-10 -15 3 -25 16 -12 7 7 7 13 1 17 -6 3 -14 1 -17 -5z"/>
<path d="M15521 13294 c0 -11 3 -14 6 -6 3 7 2 16 -1 19 -3 4 -6 -2 -5 -13z"/>
<path d="M15561 13224 c0 -11 3 -14 6 -6 3 7 2 16 -1 19 -3 4 -6 -2 -5 -13z"/>
<path d="M15580 13171 c0 -11 5 -23 10 -26 6 -3 10 3 10 14 0 11 -4 23 -10 26
-5 3 -10 -3 -10 -14z"/>
<path d="M15610 13112 c0 -10 7 -27 15 -38 8 -10 15 -27 15 -36 0 -9 6 -21 14
-25 8 -5 19 -19 25 -33 8 -21 10 -22 10 -5 1 22 -60 154 -71 155 -5 0 -8 -8
-8 -18z"/>
<path d="M16673 11409 c-68 -113 -173 -365 -173 -415 0 -29 0 -29 20 9 11 20
29 54 40 74 11 21 20 44 20 51 0 7 6 23 14 35 8 12 28 61 45 109 17 48 38 102
46 119 23 44 13 59 -12 18z"/>
<path d="M16462 10870 c0 -19 2 -27 5 -17 2 9 2 25 0 35 -3 9 -5 1 -5 -18z"/>
<path d="M14870 10400 c0 -13 11 -13 30 0 12 8 11 10 -7 10 -13 0 -23 -4 -23
-10z"/>
<path d="M17140 10231 c0 -5 4 -12 9 -15 20 -13 80 -115 111 -189 17 -42 40
-87 50 -99 17 -22 17 -22 46 -3 16 11 36 24 45 30 96 61 119 79 119 90 0 7 20
33 45 58 25 26 45 53 45 62 0 30 -18 21 -145 -76 -34 -26 -71 -49 -82 -53 -12
-4 -24 -13 -27 -21 -11 -29 -66 -11 -66 22 0 7 -13 41 -30 76 -22 46 -42 72
-75 96 -25 18 -45 28 -45 22z"/>
<path d="M14966 10154 c-9 -8 -16 -21 -16 -28 0 -7 -9 -24 -19 -37 -10 -14
-21 -36 -23 -49 -6 -43 -40 -36 -133 27 -106 71 -152 95 -173 91 -28 -6 80
-107 217 -203 64 -44 80 -40 96 23 5 23 16 47 23 54 6 6 12 21 12 33 0 12 5
26 10 31 10 10 32 74 25 74 -2 0 -11 -7 -19 -16z"/>
<path d="M14639 9912 c15 -27 29 -37 100 -65 58 -23 91 -26 91 -7 0 15 -37 38
-102 64 -81 32 -103 34 -89 8z"/>
<path d="M17475 9896 c-50 -24 -65 -35 -54 -40 21 -9 128 29 153 54 20 20 20
20 -4 20 -14 -1 -56 -16 -95 -34z"/>
<path d="M17434 9775 c-9 -22 3 -45 23 -45 20 0 47 36 38 50 -10 16 -55 12
-61 -5z"/>
<path d="M14717 9773 c-6 -10 45 -63 61 -63 13 0 23 27 16 45 -4 8 -14 15 -24
15 -10 0 -25 3 -33 6 -8 3 -17 1 -20 -3z"/>
<path d="M13890 9460 c0 -5 12 -10 28 -10 21 0 24 2 12 10 -20 13 -40 13 -40
0z"/>
<path d="M18236 9463 c-17 -3 -30 -12 -33 -24 -3 -11 -17 -22 -32 -25 -28 -7
-61 -32 -61 -46 0 -4 16 -8 35 -8 25 0 39 6 47 21 7 11 37 32 66 45 29 14 50
30 47 35 -6 9 -17 9 -69 2z"/>
<path d="M13950 9444 c0 -17 23 -44 38 -44 10 0 34 -9 55 -20 36 -19 111 -29
92 -11 -6 4 -37 19 -70 32 -33 12 -67 29 -76 36 -16 13 -39 18 -39 7z"/>
<path d="M17898 9243 c6 -2 18 -2 25 0 6 3 1 5 -13 5 -14 0 -19 -2 -12 -5z"/>
<path d="M20197 16913 c-13 -12 -7 -33 8 -33 8 0 15 9 15 20 0 20 -11 26 -23
13z"/>
<path d="M20094 16825 c-4 -10 -1 -21 7 -26 23 -14 31 -10 27 13 -4 27 -26 35
-34 13z"/>
<path d="M19957 16193 c-11 -10 -8 -51 3 -58 6 -4 10 8 10 29 0 37 -2 41 -13
29z"/>
<path d="M19516 16061 c-4 -7 -5 -15 -2 -18 9 -9 19 4 14 18 -4 11 -6 11 -12
0z"/>
<path d="M19682 16048 c-14 -14 -16 -28 -3 -28 9 0 24 30 18 36 -2 2 -9 -2
-15 -8z"/>
<path d="M19940 15999 c0 -38 24 -35 28 4 2 19 -1 27 -12 27 -11 0 -16 -10
-16 -31z"/>
<path d="M19975 15771 c-3 -11 -2 -28 4 -38 8 -16 10 -14 16 10 9 34 -10 60
-20 28z"/>
<path d="M19910 15489 c0 -24 4 -38 10 -34 6 3 10 22 10 41 0 19 -4 34 -10 34
-5 0 -10 -18 -10 -41z"/>
<path d="M18993 15308 c2 -7 10 -13 17 -13 7 0 15 6 18 13 2 7 -5 12 -18 12
-13 0 -20 -5 -17 -12z"/>
<path d="M19110 14925 c0 -8 5 -15 10 -15 6 0 10 7 10 15 0 8 -4 15 -10 15 -5
0 -10 -7 -10 -15z"/>
<path d="M18960 14150 c0 -5 5 -10 11 -10 5 0 7 5 4 10 -3 6 -8 10 -11 10 -2
0 -4 -4 -4 -10z"/>
<path d="M11948 16721 c-34 -34 -13 -56 26 -28 11 8 15 19 10 30 -8 21 -14 21
-36 -2z"/>
<path d="M12120 16634 c0 -8 5 -12 10 -9 6 3 10 10 10 16 0 5 -4 9 -10 9 -5 0
-10 -7 -10 -16z"/>
<path d="M11939 16605 c-9 -8 2 -65 12 -65 5 0 9 10 9 23 0 24 -13 50 -21 42z"/>
<path d="M12180 16550 c0 -19 3 -21 12 -12 9 9 9 15 0 24 -9 9 -12 7 -12 -12z"/>
<path d="M12305 16551 c-3 -5 -1 -12 5 -16 12 -7 30 2 30 16 0 12 -27 12 -35
0z"/>
<path d="M11965 16480 c-9 -15 4 -80 15 -80 13 0 13 77 1 85 -5 3 -13 0 -16
-5z"/>
<path d="M12220 16461 c0 -12 5 -21 10 -21 6 0 10 6 10 14 0 8 -4 18 -10 21
-5 3 -10 -3 -10 -14z"/>
<path d="M12330 16460 c0 -5 5 -10 10 -10 6 0 10 5 10 10 0 6 -4 10 -10 10 -5
0 -10 -4 -10 -10z"/>
<path d="M12320 16310 c0 -5 5 -10 10 -10 6 0 10 5 10 10 0 6 -4 10 -10 10 -5
0 -10 -4 -10 -10z"/>
<path d="M12025 16218 c-3 -8 -1 -27 5 -43 13 -35 33 -21 28 21 -3 30 -25 44
-33 22z"/>
<path d="M12055 16093 c4 -27 13 -53 21 -59 8 -7 14 -30 14 -57 0 -25 5 -49
10 -52 6 -4 10 13 10 44 0 27 -4 53 -10 56 -5 3 -10 25 -10 49 0 39 -13 66
-33 66 -4 0 -5 -21 -2 -47z"/>
<path d="M12120 15866 c0 -20 5 -36 10 -36 6 0 10 13 10 29 0 17 -4 33 -10 36
-6 4 -10 -8 -10 -29z"/>
<path d="M12221 15524 c0 -11 3 -14 6 -6 3 7 2 16 -1 19 -3 4 -6 -2 -5 -13z"/>
<path d="M12251 15434 c0 -11 3 -14 6 -6 3 7 2 16 -1 19 -3 4 -6 -2 -5 -13z"/>
<path d="M12560 14616 c0 -2 7 -9 15 -16 13 -11 14 -10 9 4 -5 14 -24 23 -24
12z"/>
<path d="M13115 14170 c-3 -5 1 -10 10 -10 9 0 13 5 10 10 -3 6 -8 10 -10 10
-2 0 -7 -4 -10 -10z"/>
<path d="M13562 14110 c0 -19 2 -27 5 -17 2 9 2 25 0 35 -3 9 -5 1 -5 -18z"/>
<path d="M13383 14043 c-19 -7 -16 -38 10 -77 24 -39 56 -47 64 -16 3 11 9 20
14 20 5 0 9 11 9 24 0 40 -54 67 -97 49z"/>
<path d="M16005 16186 c-33 -18 -145 -82 -250 -143 l-190 -110 -6 -279 c-3
-154 -1 -287 3 -296 5 -10 30 -29 56 -44 109 -62 189 -109 222 -130 19 -12 60
-35 90 -51 30 -15 57 -31 60 -34 14 -16 57 -39 71 -39 15 0 276 145 337 188
15 11 55 34 89 52 99 52 93 25 85 349 l-7 285 -47 27 c-25 15 -66 38 -90 52
-23 13 -106 60 -183 104 -77 44 -149 85 -160 91 -17 8 -32 4 -80 -22z m-67
-209 c11 -13 92 -333 92 -362 0 -19 31 -97 36 -92 5 5 50 184 84 332 32 140
28 135 111 135 l71 0 -4 -27 c-7 -37 -71 -260 -113 -393 -18 -58 -37 -123 -41
-145 -4 -22 -15 -59 -25 -82 l-18 -43 -63 0 c-35 0 -68 4 -74 8 -6 4 -21 45
-33 92 -13 47 -29 101 -36 120 -7 19 -27 87 -45 150 -17 63 -45 157 -61 208
-16 51 -27 97 -24 102 9 15 131 12 143 -3z"/>
<path d="M14720 8661 c0 -13 26 -32 33 -24 8 7 -11 33 -24 33 -5 0 -9 -4 -9
-9z"/>
<path d="M17737 7913 c-9 -15 12 -53 29 -53 9 0 13 5 10 13 -3 6 -9 20 -12 30
-7 18 -20 22 -27 10z"/>
<path d="M21098 6883 c-17 -34 -38 -41 -45 -15 -4 19 -29 32 -61 32 -15 0
-102 -79 -102 -93 0 -6 34 -42 76 -80 70 -65 75 -72 72 -106 -2 -24 -8 -37
-20 -39 -25 -5 -78 38 -93 76 -17 39 -61 46 -73 11 -8 -19 -9 -19 -39 10 -22
20 -38 28 -52 24 -24 -6 -101 -89 -100 -107 0 -6 32 -37 70 -69 38 -32 69 -63
69 -69 0 -11 44 -64 135 -163 28 -29 70 -79 95 -110 25 -31 64 -78 88 -104 23
-27 42 -53 42 -59 0 -17 42 -42 72 -42 15 0 38 -5 51 -11 38 -17 103 23 136
85 12 22 8 29 -73 112 -139 142 -153 157 -168 189 -22 43 -8 75 31 75 23 0 34
-7 45 -29 8 -15 31 -42 50 -58 19 -17 40 -41 46 -54 7 -13 30 -45 51 -70 29
-34 46 -46 66 -46 16 0 44 -4 64 -8 30 -6 38 -3 60 19 13 15 36 34 52 42 40
22 36 55 -12 87 -21 14 -49 40 -62 57 -13 18 -40 50 -60 71 -20 21 -48 54 -61
71 -14 18 -38 48 -54 65 -16 18 -54 62 -84 99 -30 36 -70 81 -87 101 -18 19
-42 51 -54 72 -11 20 -29 42 -39 49 -16 10 -21 8 -32 -15z m-1 -275 c-3 -7 -5
-2 -5 12 0 14 2 19 5 13 2 -7 2 -19 0 -25z m3 -62 c0 -3 -4 -8 -10 -11 -5 -3
-10 -1 -10 4 0 6 5 11 10 11 6 0 10 -2 10 -4z m-195 -96 c3 -5 -1 -10 -9 -10
-9 0 -16 5 -16 10 0 6 4 10 9 10 6 0 13 -4 16 -10z"/>
<path d="M11310 6695 c0 -14 5 -25 10 -25 6 0 10 11 10 25 0 14 -4 25 -10 25
-5 0 -10 -11 -10 -25z"/>
<path d="M10923 6563 c-255 -276 -383 -425 -385 -452 -1 -14 -2 -39 -2 -56 -1
-20 -8 -33 -24 -41 -20 -10 -21 -13 -7 -24 20 -16 45 3 45 34 0 15 52 81 146
187 199 223 254 282 260 276 9 -9 -15 -55 -47 -92 -26 -30 -30 -38 -18 -46 35
-22 51 -6 107 106 60 121 76 215 38 215 -8 0 -58 -48 -113 -107z"/>
<path d="M11286 6588 c-19 -11 -22 -48 -3 -48 6 1 22 6 34 13 22 12 22 13 4
29 -12 10 -23 13 -35 6z"/>
<path d="M11195 6540 c-10 -17 12 -37 25 -24 8 8 6 15 -4 23 -10 9 -16 9 -21
1z"/>
<path d="M11635 6430 c-26 -29 -15 -32 13 -4 12 13 19 24 14 24 -5 0 -17 -9
-27 -20z"/>
<path d="M20414 6402 c-21 -15 -58 -47 -82 -72 -53 -54 -52 -74 8 -164 22 -32
40 -64 40 -70 0 -6 9 -22 20 -36 11 -14 20 -32 20 -41 0 -9 7 -22 15 -29 8 -7
24 -31 35 -54 11 -22 37 -70 59 -106 41 -67 131 -245 131 -259 0 -21 38 -41
66 -35 21 4 34 1 43 -10 22 -26 49 -19 96 25 38 35 45 47 45 80 0 27 -6 42
-20 52 -41 28 -167 255 -157 281 7 17 47 23 47 7 0 -5 29 -28 64 -51 35 -23
80 -62 101 -87 32 -39 41 -43 66 -38 16 4 43 1 61 -5 30 -11 38 -9 83 17 62
36 79 66 60 103 -17 33 -33 45 -69 54 -26 6 -76 41 -131 91 -12 11 -39 31 -60
45 -20 14 -47 34 -58 45 -12 11 -60 48 -107 82 -47 35 -98 74 -115 88 -102 87
-103 87 -145 80 -22 -4 -40 -3 -40 2 0 4 -9 14 -19 20 -16 10 -25 8 -57 -15z
m13 -114 c-3 -8 -6 -5 -6 6 -1 11 2 17 5 13 3 -3 4 -12 1 -19z m213 -142 c0
-2 -7 -6 -15 -10 -8 -3 -15 -1 -15 4 0 6 7 10 15 10 8 0 15 -2 15 -4z m-70
-96 c0 -5 -7 -7 -15 -4 -8 4 -15 8 -15 10 0 2 7 4 15 4 8 0 15 -4 15 -10z"/>
<path d="M11320 6386 c0 -2 7 -9 15 -16 12 -10 15 -10 15 4 0 9 -7 16 -15 16
-8 0 -15 -2 -15 -4z"/>
<path d="M11171 6224 c-49 -52 -52 -58 -36 -73 15 -15 20 -12 71 41 31 32 54
64 52 70 -10 28 -37 16 -87 -38z"/>
<path d="M11490 6265 c-7 -9 -11 -17 -9 -20 3 -2 10 5 17 15 14 24 10 26 -8 5z"/>
<path d="M11476 6175 c-3 -8 -1 -15 3 -15 5 0 11 7 15 15 3 8 1 15 -3 15 -5 0
-11 -7 -15 -15z"/>
<path d="M20105 6135 c-64 -33 -77 -46 -81 -84 -3 -24 2 -34 22 -47 51 -34 68
-114 25 -114 -10 0 -29 9 -42 19 -20 16 -39 19 -107 17 l-83 -2 -39 -42 c-60
-63 -55 -83 28 -122 37 -17 96 -43 132 -56 36 -14 74 -29 85 -34 86 -37 119
-50 130 -50 22 0 42 -34 60 -100 23 -86 36 -163 39 -232 1 -32 5 -61 9 -64 7
-7 72 -23 128 -31 31 -4 38 -1 62 30 15 20 36 39 47 42 11 4 27 20 35 36 15
28 15 30 -14 57 -39 36 -71 91 -71 123 0 14 -6 45 -14 70 -8 24 -22 71 -31
104 -48 169 -80 263 -131 382 -8 17 -14 42 -14 55 0 13 -6 32 -13 43 -12 16
-18 17 -48 6 -28 -10 -36 -9 -45 4 -14 19 -10 20 -69 -10z m102 -47 c-3 -8 -6
-5 -6 6 -1 11 2 17 5 13 3 -3 4 -12 1 -19z m-60 -334 c-3 -3 -12 -4 -19 -1 -8
3 -5 6 6 6 11 1 17 -2 13 -5z m190 -226 c-3 -8 -6 -5 -6 6 -1 11 2 17 5 13 3
-3 4 -12 1 -19z"/>
<path d="M11485 6099 c-4 -6 -5 -12 -2 -15 2 -3 7 2 10 11 7 17 1 20 -8 4z"/>
<path d="M11900 6056 c-65 -17 -132 -66 -242 -178 -86 -87 -161 -186 -196
-258 -30 -63 -32 -120 -7 -183 10 -24 85 -67 117 -67 123 0 370 223 483 435
33 62 36 76 33 128 -3 46 -10 63 -33 87 -16 17 -45 35 -64 40 -42 12 -34 12
-91 -4z m124 -92 c43 -44 33 -59 -19 -28 -33 19 -53 24 -73 19 -49 -12 -116
-63 -213 -162 -96 -99 -140 -156 -191 -248 -24 -43 -28 -46 -28 -24 0 94 261
397 391 454 54 23 102 19 133 -11z"/>
<path d="M10997 5684 c-3 -17 -3 -40 -1 -52 4 -14 -1 -24 -15 -31 -28 -15 -27
-33 2 -29 16 2 23 11 25 33 2 17 10 37 19 47 12 14 12 17 0 25 -8 4 -16 15
-19 23 -3 8 -7 2 -11 -16z"/>
<path d="M19737 5676 c-12 -10 -36 -12 -80 -9 -55 5 -71 2 -120 -22 -44 -22
-63 -39 -90 -82 -33 -52 -34 -57 -31 -136 2 -45 11 -105 20 -135 24 -74 12
-83 -61 -47 -47 22 -64 26 -98 20 -23 -3 -51 -6 -62 -5 -103 9 -131 5 -180
-26 -34 -21 -58 -45 -76 -78 -23 -43 -26 -57 -23 -127 2 -44 8 -96 13 -117 11
-40 96 -177 124 -201 10 -7 17 -22 17 -33 0 -17 -5 -19 -27 -14 -77 18 -89 32
-118 133 -9 32 -69 81 -115 93 -64 17 -188 -6 -220 -40 -8 -9 -24 -21 -35 -27
-11 -7 -36 -25 -55 -42 -19 -18 -59 -52 -87 -78 -41 -35 -53 -52 -53 -74 0
-16 3 -29 8 -29 11 0 92 -82 152 -155 30 -37 76 -89 103 -117 26 -28 47 -55
47 -60 0 -5 21 -31 48 -58 88 -92 142 -157 142 -171 0 -17 70 -49 120 -56 38
-5 35 -7 170 116 120 108 152 235 90 356 -16 32 -30 65 -30 72 0 15 23 17 48
3 9 -6 37 -19 62 -31 25 -11 61 -29 80 -40 42 -23 123 -25 171 -5 45 19 83 61
119 130 46 89 41 158 -26 317 -39 92 -30 99 56 44 29 -19 84 -44 121 -55 50
-16 66 -25 62 -36 -4 -11 7 -14 56 -14 101 0 162 42 212 146 44 94 41 166 -12
286 -47 104 -99 190 -127 210 -11 7 -22 23 -26 36 -11 32 -99 96 -179 127 -37
15 -70 31 -73 36 -7 12 -16 11 -37 -5z m-69 -123 c-10 -2 -26 -2 -35 0 -10 3
-2 5 17 5 19 0 27 -2 18 -5z m369 -435 c-3 -8 -6 -5 -6 6 -1 11 2 17 5 13 3
-3 4 -12 1 -19z m-480 -410 c-3 -8 -6 -5 -6 6 -1 11 2 17 5 13 3 -3 4 -12 1
-19z m-1030 -60 c-3 -8 -6 -5 -6 6 -1 11 2 17 5 13 3 -3 4 -12 1 -19z m380
-114 c-3 -3 -12 -4 -19 -1 -8 3 -5 6 6 6 11 1 17 -2 13 -5z m-190 -116 c-3 -8
-6 -5 -6 6 -1 11 2 17 5 13 3 -3 4 -12 1 -19z m178 -248 c3 -5 1 -10 -4 -10
-6 0 -11 5 -11 10 0 6 2 10 4 10 3 0 8 -4 11 -10z"/>
<path d="M12930 5310 c-8 -5 -12 -11 -9 -14 3 -3 14 1 25 9 21 16 8 20 -16 5z"/>
<path d="M13163 5143 c9 -2 23 -2 30 0 6 3 -1 5 -18 5 -16 0 -22 -2 -12 -5z"/>
<path d="M12074 4946 c-4 -26 -1 -43 11 -62 22 -33 32 -22 37 41 3 45 1 50
-19 53 -18 3 -23 -3 -29 -32z"/>
<path d="M11881 4930 c0 -33 1 -34 11 -12 8 17 8 26 0 34 -9 9 -12 4 -11 -22z"/>
<path d="M13129 4931 c-24 -25 -29 -37 -28 -78 0 -26 3 -41 6 -33 10 27 47 50
82 50 42 0 93 -37 111 -79 19 -48 40 -40 40 16 0 57 -28 103 -81 132 -53 30
-94 27 -130 -8z"/>
<path d="M13217 4813 c10 -10 26 -26 36 -37 9 -10 17 -14 17 -9 0 13 -49 63
-62 63 -5 0 -1 -8 9 -17z"/>
<path d="M12198 4803 c12 -2 30 -2 40 0 9 3 -1 5 -23 4 -22 0 -30 -2 -17 -4z"/>
<path d="M13320 4696 c0 -21 20 -30 33 -17 9 9 8 14 -3 21 -21 14 -30 12 -30
-4z"/>
<path d="M12390 4665 c-9 -11 -10 -22 -3 -37 l10 -22 17 26 c25 39 4 67 -24
33z"/>
<path d="M12942 4640 c0 -14 2 -19 5 -12 2 6 2 18 0 25 -3 6 -5 1 -5 -13z"/>
<path d="M12208 4563 c18 -2 45 -2 60 0 15 2 0 4 -33 4 -33 0 -45 -2 -27 -4z"/>
<path d="M13678 4418 c-53 -58 -59 -84 -25 -116 33 -31 47 -28 47 13 0 26 6
39 25 51 24 16 27 15 59 -7 19 -13 64 -51 101 -83 72 -65 92 -64 72 1 -13 43
-176 193 -209 193 -13 0 -40 -20 -70 -52z"/>
<path d="M17915 4263 c-138 -68 -191 -201 -127 -318 22 -40 38 -55 82 -77 52
-26 63 -27 196 -28 130 0 144 -2 175 -23 81 -55 102 -137 48 -188 -39 -36 -73
-46 -113 -30 -26 9 -33 9 -43 -6 -7 -9 -13 -26 -13 -37 0 -44 69 -116 110
-116 11 0 33 -6 48 -14 15 -7 46 -13 70 -11 38 2 50 10 107 66 44 43 70 78 80
108 17 50 21 206 5 216 -5 3 -14 23 -20 43 -8 32 -57 94 -102 129 -15 11 -98
53 -106 53 -2 0 -2 -6 1 -13 10 -26 -28 -37 -101 -28 -38 5 -90 6 -116 4 -36
-4 -51 -2 -66 12 -45 41 -7 95 67 95 38 1 73 18 73 37 0 23 -53 124 -68 132
-9 4 -44 11 -77 13 -50 5 -68 1 -110 -19z m-38 -225 c-3 -8 -6 -5 -6 6 -1 11
2 17 5 13 3 -3 4 -12 1 -19z m13 -73 c0 -8 -4 -15 -10 -15 -5 0 -10 7 -10 15
0 8 5 15 10 15 6 0 10 -7 10 -15z m250 -68 c19 -3 16 -5 -12 -6 -30 -1 -36 2
-31 15 3 9 8 11 12 6 3 -6 17 -12 31 -15z"/>
<path d="M13480 4193 c-39 -27 -270 -295 -270 -313 0 -17 67 -90 82 -90 12 0
10 48 -2 55 -19 12 -9 30 52 100 165 190 165 190 232 130 36 -33 66 -45 66
-26 0 26 -37 90 -68 118 -44 39 -65 45 -92 26z"/>
<path d="M13956 4175 c4 -8 15 -15 25 -15 23 0 25 16 3 24 -25 10 -34 7 -28
-9z"/>
<path d="M13020 4159 c0 -5 5 -7 10 -4 6 3 10 8 10 11 0 2 -4 4 -10 4 -5 0
-10 -5 -10 -11z"/>
<path d="M12648 4083 c7 -3 16 -2 19 1 4 3 -2 6 -13 5 -11 0 -14 -3 -6 -6z"/>
<path d="M12868 4083 c7 -3 16 -2 19 1 4 3 -2 6 -13 5 -11 0 -14 -3 -6 -6z"/>
<path d="M13620 4002 c0 -5 7 -15 15 -22 12 -10 19 -10 27 -2 14 14 11 17 -19
26 -13 4 -23 3 -23 -2z"/>
<path d="M17503 3910 c-29 -14 -66 -38 -83 -55 -42 -40 -80 -116 -80 -160 0
-69 58 -162 117 -187 15 -7 101 -14 191 -17 l163 -6 45 -47 c38 -41 44 -52 44
-91 0 -39 -5 -49 -36 -77 -33 -29 -42 -31 -91 -28 -75 4 -84 -11 -53 -80 13
-29 28 -53 34 -54 6 0 16 -2 21 -3 16 -3 68 -24 87 -35 10 -6 38 -10 62 -10
40 0 49 5 110 65 86 83 99 114 97 234 -1 52 -6 100 -10 106 -5 5 -11 22 -15
37 -3 15 -17 38 -30 51 -13 13 -25 28 -27 33 -6 15 -122 84 -141 84 -8 0 -18
-9 -21 -21 -5 -18 -11 -20 -59 -16 -29 3 -65 9 -79 15 -21 8 -31 7 -45 -3 -27
-20 -57 -18 -88 6 -50 40 -24 82 58 93 54 7 76 20 76 45 0 21 -46 116 -63 129
-7 5 -39 12 -72 14 -50 3 -70 0 -112 -22z m-46 -207 c-3 -10 -5 -4 -5 12 0 17
2 24 5 18 2 -7 2 -21 0 -30z m560 -319 c-3 -3 -12 -4 -19 -1 -8 3 -5 6 6 6 11
1 17 -2 13 -5z"/>
<path d="M14695 3840 c3 -5 8 -10 11 -10 2 0 4 5 4 10 0 6 -5 10 -11 10 -5 0
-7 -4 -4 -10z"/>
<path d="M14720 3699 c0 -5 5 -7 10 -4 6 3 10 8 10 11 0 2 -4 4 -10 4 -5 0
-10 -5 -10 -11z"/>
<path d="M14680 3599 c0 -5 5 -7 10 -4 6 3 10 8 10 11 0 2 -4 4 -10 4 -5 0
-10 -5 -10 -11z"/>
<path d="M17035 3502 c-64 -46 -113 -96 -125 -127 -10 -25 -8 -31 20 -60 16
-17 30 -38 30 -47 0 -9 5 -20 11 -24 6 -3 20 -27 31 -53 10 -25 26 -54 35 -63
17 -19 50 -79 112 -204 23 -45 47 -86 54 -93 8 -6 31 -51 52 -100 l38 -89 58
-6 c85 -10 121 0 164 44 31 31 36 43 31 65 -4 14 -17 30 -29 36 -23 10 -77 89
-117 169 -12 25 -29 53 -37 62 -19 22 -13 62 11 66 10 2 22 -1 25 -7 4 -6 35
-31 69 -55 34 -24 81 -64 103 -90 38 -43 44 -46 76 -40 21 4 44 2 57 -6 20
-10 29 -8 63 13 43 27 83 72 83 92 0 19 -42 57 -100 90 -29 17 -69 44 -89 61
-20 17 -58 46 -85 65 -27 19 -61 45 -76 59 -15 14 -49 41 -76 60 -27 19 -55
41 -62 48 -7 6 -17 12 -21 12 -7 0 -29 18 -115 96 -25 22 -35 25 -73 19 -23
-3 -43 -3 -43 2 0 4 -9 14 -19 20 -16 10 -25 8 -56 -15z m165 -418 c0 -2 -9
-4 -21 -4 -11 0 -18 4 -14 10 5 8 35 3 35 -6z m50 -149 c0 -8 -4 -15 -10 -15
-5 0 -10 7 -10 15 0 8 5 15 10 15 6 0 10 -7 10 -15z"/>
<path d="M14710 3470 c-32 -26 -33 -29 -13 -30 37 0 75 19 71 37 -5 27 -21 25
-58 -7z"/>
<path d="M14640 3435 c0 -8 4 -15 10 -15 5 0 7 7 4 15 -4 8 -8 15 -10 15 -2 0
-4 -7 -4 -15z"/>
<path d="M14410 3390 c-9 -6 -10 -10 -3 -10 6 0 15 5 18 10 8 12 4 12 -15 0z"/>
<path d="M15068 3343 c6 -2 18 -2 25 0 6 3 1 5 -13 5 -14 0 -19 -2 -12 -5z"/>
<path d="M15033 3283 c9 -2 25 -2 35 0 9 3 1 5 -18 5 -19 0 -27 -2 -17 -5z"/>
<path d="M16680 3193 c-19 -8 -43 -22 -53 -31 -9 -10 -40 -35 -68 -57 -63 -49
-159 -143 -159 -156 0 -9 7 -17 83 -87 26 -24 47 -47 47 -52 0 -5 20 -28 45
-51 25 -23 45 -47 45 -52 0 -6 26 -38 58 -73 31 -34 73 -81 93 -105 20 -24 56
-67 80 -96 24 -28 52 -63 62 -77 12 -17 27 -26 45 -26 15 0 38 -7 50 -16 21
-14 26 -14 56 0 37 17 106 89 106 109 0 8 -30 40 -67 72 -38 33 -72 66 -77 75
-6 8 -31 38 -57 65 -46 48 -69 89 -69 121 0 7 15 31 33 51 35 40 44 59 70 136
14 42 15 52 3 75 -7 15 -17 41 -20 57 -7 34 -47 82 -89 109 -23 15 -32 16 -56
7 -23 -10 -35 -9 -66 3 -44 19 -50 19 -95 -1z m-80 -147 c0 -3 -4 -8 -10 -11
-5 -3 -10 -1 -10 4 0 6 5 11 10 11 6 0 10 -2 10 -4z m-80 -97 c0 -5 -4 -9 -10
-9 -5 0 -10 7 -10 16 0 8 5 12 10 9 6 -3 10 -10 10 -16z m213 -223 c-4 -5 -10
3 -14 19 -5 15 -5 33 -2 39 4 5 10 -3 14 -19 5 -15 5 -33 2 -39z m207 -266 c0
-5 -4 -10 -10 -10 -5 0 -10 5 -10 10 0 6 5 10 10 10 6 0 10 -4 10 -10z"/>
<path d="M14330 3176 c-49 -19 -240 -115 -273 -138 -32 -23 -69 -94 -62 -118
3 -11 -3 -20 -17 -27 -18 -8 -19 -10 -6 -16 12 -4 23 4 36 27 26 44 67 73 186
135 106 55 137 63 129 32 -7 -28 23 -34 39 -8 41 65 51 128 21 126 -10 0 -34
-6 -53 -13z"/>
<path d="M14050 2905 c-7 -9 -11 -18 -8 -20 3 -3 11 1 18 10 7 9 11 18 8 20
-3 3 -11 -1 -18 -10z"/>
<path d="M14230 2815 c-10 -12 -10 -15 3 -15 8 0 17 7 21 15 3 8 2 15 -3 15
-5 0 -14 -7 -21 -15z"/>
<path d="M14430 2650 c0 -5 5 -10 10 -10 6 0 10 5 10 10 0 6 -4 10 -10 10 -5
0 -10 -4 -10 -10z"/>
<path d="M14400 2525 c-7 -9 -10 -18 -7 -22 8 -7 37 15 37 28 0 14 -16 11 -30
-6z"/>
</g>
</svg>
