<svg xmlns="http://www.w3.org/2000/svg" width="90" height="38" viewBox="0 0 90 38" fill="none"><path d="M29.0537 37.105V34.5185L26.0288 37.105H29.0537Z" fill="#48785D"></path><path d="M25.917 0.745117V4.83092L29.0539 6.5552V0.745117H25.917Z" fill="#48785D"></path><path d="M40.7798 0.745117L34.9541 4.75595V0.745117H31.7798V8.01709L34.9541 9.74137V9.70389L40.7798 5.65557V5.73054V9.59143H43.9914V0.745117H40.7798Z" fill="#48785D"></path><path d="M0.111816 23.6856H3.28609V23.6481L0.111816 20.8742V23.6856Z" fill="#48785D"></path><path d="M0.111816 19.4873L3.28609 17.2757V6.03041L0.111816 8.20451V19.4873Z" fill="#48785D"></path><path d="M25.9168 32.1945L20.0537 28.1462V33.0941L25.9168 37.105H26.0288L29.0537 34.5185V6.5552L25.9168 4.83092V32.157V32.1945Z" fill="#E6B12E"></path><path d="M34.9541 23.6856V9.74137L31.7798 8.01709V23.6856H34.9541Z" fill="#E6B12E"></path><path d="M3.28609 23.6481V17.2757L0.111816 19.4873V20.8742L3.28609 23.6481Z" fill="#E6B12E"></path><path d="M20.0537 5.65556V23.6856H23.228V3.44398L20.0537 5.65556Z" fill="#E6B12E"></path><path d="M11.0166 11.9155V23.6856H14.1909V9.70389L11.0166 11.9155Z" fill="#E6B12E"></path><path d="M3.28609 0.745117H3.17406L0.111816 2.88173V6.81759L3.28609 4.64349V0.745117Z" fill="#48785D"></path><path d="M20.0537 0.745117L14.1907 4.75595V0.745117H11.0164L5.15332 4.75595V9.70388L11.0164 5.65557V5.73054V11.9155L23.228 3.44399V0.745117H20.0537Z" fill="#48785D"></path><path d="M48.1367 7.04249V6.5552H49.2197V1.23241H48.1367V0.745117H50.8255V1.23241H49.7425V6.5552H50.8255V7.04249H48.1367Z" fill="#48785D"></path><path d="M55.6428 7.04249V6.0679L52.9166 1.7572H52.8793V7.04249H52.3564V0.745117H52.8793L55.6054 5.09331H55.6428V0.745117H56.1656V7.04249H55.6428Z" fill="#48785D"></path><path d="M58.8543 4.04375C58.2942 3.89381 57.846 3.70639 57.5846 3.44399C57.3232 3.1816 57.1738 2.80676 57.1738 2.28198C57.1738 1.7572 57.3605 1.38235 57.6966 1.08248C58.0327 0.782604 58.4809 0.670151 59.041 0.670151C59.6012 0.670151 60.1614 0.782604 60.7215 0.970026L60.5722 1.45732C60.0493 1.2699 59.5639 1.15745 59.1157 1.15745C58.6676 1.15745 58.3315 1.2699 58.1074 1.45732C57.8834 1.64474 57.734 1.90714 57.734 2.28198C57.734 2.65682 57.846 2.91921 58.0327 3.10664C58.2195 3.29406 58.5929 3.44399 59.1904 3.59393C59.7506 3.74387 60.1614 3.93129 60.4228 4.19368C60.6842 4.45607 60.7962 4.83092 60.7962 5.39318C60.7962 5.95545 60.6095 6.36778 60.2361 6.70514C59.8626 7.00501 59.3771 7.19243 58.817 7.19243C58.3688 7.19243 57.846 7.07998 57.1738 6.93004L57.2859 6.44275C57.9207 6.63017 58.4435 6.70514 58.8543 6.70514C59.2651 6.70514 59.5639 6.59268 59.8253 6.36778C60.0867 6.14287 60.1987 5.843 60.1987 5.43067C60.1987 5.01834 60.0867 4.75595 59.9373 4.56853C59.7879 4.34362 59.4145 4.1562 58.8543 4.04375Z" fill="#48785D"></path><path d="M61.917 1.23241V0.745117H65.7635V1.23241H64.1203V7.04249H63.5602V1.23241H61.917Z" fill="#48785D"></path><path d="M67.3315 7.04249V6.5552H68.4145V1.23241H67.3315V0.745117H69.983V1.23241H68.9374V6.5552H69.983V7.04249H67.3315Z" fill="#48785D"></path><path d="M71.5142 1.23241V0.745117H75.3606V1.23241H73.6801V7.04249H73.1573V1.23241H71.5142Z" fill="#48785D"></path><path d="M76.3691 5.24324V0.745117H76.892V5.16827C76.892 6.14287 77.3401 6.66765 78.2364 6.66765C78.6845 6.66765 79.0206 6.51771 79.2447 6.25532C79.4687 5.99293 79.5808 5.61809 79.5808 5.16827V0.745117H80.1036V5.24324C80.1036 5.88048 79.9542 6.33029 79.6181 6.66765C79.282 7.00501 78.8339 7.15495 78.199 7.15495C77.5642 7.15495 77.116 6.96752 76.8173 6.63016C76.5185 6.29281 76.3691 5.84299 76.3691 5.24324Z" fill="#48785D"></path><path d="M81.0747 1.23241V0.745117H84.9585V1.23241H83.278V7.04249H82.7552V1.23241H81.0747Z" fill="#48785D"></path><path d="M85.8174 3.81883C85.8174 3.33154 85.8547 2.88172 85.9294 2.50688C86.0041 2.13204 86.0788 1.79468 86.2282 1.53228C86.5269 0.932535 87.0497 0.63266 87.834 0.63266C88.7302 0.63266 89.3278 1.04499 89.5892 1.90713C89.7385 2.39443 89.8506 2.95669 89.8506 3.59393C89.8506 4.23116 89.8132 4.75594 89.7385 5.13079C89.6639 5.50563 89.5892 5.84299 89.4398 6.18035C89.141 6.81758 88.6182 7.11746 87.834 7.11746C87.0497 7.11746 86.5269 6.81758 86.2282 6.18035C85.9294 5.61808 85.8174 4.83091 85.8174 3.81883ZM89.2531 3.93129C89.2531 3.59393 89.2531 3.29405 89.2157 3.10663C89.2157 2.88172 89.1784 2.65682 89.1037 2.39443C89.029 2.13204 88.9543 1.94461 88.8796 1.75719C88.7676 1.60725 88.6556 1.45732 88.4688 1.34486C88.2821 1.23241 88.058 1.19493 87.7966 1.19493C87.5352 1.19493 87.3112 1.26989 87.1244 1.34486C86.9377 1.45732 86.7883 1.60725 86.7136 1.75719C86.6016 1.90713 86.5269 2.13204 86.4896 2.39443C86.4149 2.80675 86.3402 3.21908 86.3402 3.70638C86.3402 4.19368 86.3402 4.56852 86.3775 4.86839C86.4149 5.16827 86.4896 5.46815 86.5643 5.73054C86.751 6.33029 87.1618 6.63016 87.7593 6.63016C88.3568 6.63016 88.7676 6.33029 88.9543 5.73054C89.1784 5.24324 89.2531 4.606 89.2531 3.93129Z" fill="#48785D"></path><path d="M50.0786 13.3399H49.145V15.364H48.1367V9.06665H50.116C50.8255 9.06665 51.3857 9.25407 51.7218 9.59143C52.0579 9.92879 52.2072 10.4536 52.2072 11.1658C52.2072 12.6277 51.4977 13.3399 50.0786 13.3399ZM49.9666 9.96628H49.145V12.4402H49.9666C50.3774 12.4402 50.7135 12.3278 50.9002 12.1404C51.0869 11.9529 51.199 11.6156 51.199 11.1658C51.199 10.716 51.0869 10.4161 50.9002 10.2287C50.7135 10.0412 50.3774 9.96628 49.9666 9.96628Z" fill="#48785D"></path><path d="M54.896 13.0775C54.5599 13.115 54.3732 13.115 54.3358 13.115H53.8877V15.4015H52.8794V9.06665H54.8586C55.5682 9.06665 56.091 9.21659 56.4271 9.51646C56.8006 9.81634 56.9499 10.3411 56.9499 11.0533C56.9499 11.878 56.5765 12.4777 55.8669 12.8151C56.3151 13.6397 56.6885 14.5019 56.9873 15.3265H55.9043C55.6429 14.6143 55.2694 13.8272 54.896 13.0775ZM54.6346 9.96628H53.8503V12.1779H54.6346C55.4935 12.1779 55.9043 11.803 55.9043 11.0908C55.9043 10.6785 55.7923 10.3786 55.6055 10.2287C55.4188 10.0412 55.0827 9.96628 54.6346 9.96628Z" fill="#48785D"></path><path d="M59.7133 15.4765C58.9291 15.4765 58.3689 15.2141 58.0328 14.6518C57.6967 14.127 57.5474 13.3024 57.5474 12.1779C57.5474 11.0533 57.7341 10.2662 58.0702 9.74137C58.4063 9.21659 58.9664 8.99168 59.7507 8.99168C60.5349 8.99168 61.0577 9.25407 61.3938 9.74137C61.7299 10.2662 61.8793 11.0533 61.8793 12.2153C61.8793 13.3399 61.7299 14.1645 61.3938 14.6893C61.0204 15.2141 60.4976 15.4765 59.7133 15.4765ZM59.676 14.5769C60.1241 14.5769 60.4229 14.4269 60.5722 14.0896C60.7216 13.7522 60.7963 13.115 60.7963 12.2153C60.7963 11.2782 60.7216 10.6785 60.5722 10.3786C60.4229 10.0787 60.1241 9.92879 59.676 9.92879C59.2279 9.92879 58.9291 10.0787 58.7797 10.4161C58.593 10.7534 58.5183 11.3532 58.5183 12.2153C58.5183 13.0775 58.593 13.6772 58.7424 14.0521C58.9291 14.3894 59.2279 14.5769 59.676 14.5769Z" fill="#48785D"></path><path d="M62.6265 9.96628V9.06665H65.502V13.3774C65.502 13.9396 65.3153 14.3894 64.9792 14.6893C64.6804 14.9517 64.2323 15.1766 63.6348 15.2891C63.3734 15.3265 63.0746 15.4015 62.7385 15.439L62.6265 14.5394C63.2987 14.4269 63.7841 14.3145 64.0829 14.127C64.3443 13.9771 64.4937 13.7147 64.4937 13.3774V9.92879H62.6265V9.96628Z" fill="#48785D"></path><path d="M66.6968 15.364V9.06665H70.3565V9.96628H67.7051V11.728H70.0951V12.5902H67.7051V14.4644H70.3939V15.364H66.6968Z" fill="#48785D"></path><path d="M71.1782 9.96628V9.06665H75.3981V9.96628H73.7923V15.364H72.784V9.96628H71.1782Z" fill="#48785D"></path><path d="M78.1245 15.4765C77.3402 15.4765 76.7801 15.2141 76.444 14.6518C76.1079 14.127 75.9585 13.3024 75.9585 12.1779C75.9585 11.0533 76.1452 10.2662 76.4813 9.74137C76.8174 9.21659 77.3776 8.99168 78.1618 8.99168C78.9461 8.99168 79.4689 9.25407 79.805 9.74137C80.1411 10.2662 80.2905 11.0533 80.2905 12.2153C80.2905 13.3399 80.1411 14.1645 79.805 14.6893C79.4689 15.2141 78.8714 15.4765 78.1245 15.4765ZM78.0871 14.5769C78.5353 14.5769 78.834 14.4269 78.9834 14.0896C79.1328 13.7522 79.2075 13.115 79.2075 12.2153C79.2075 11.2782 79.1328 10.6785 78.9834 10.3786C78.834 10.0787 78.5353 9.92879 78.0871 9.92879C77.639 9.92879 77.3402 10.0787 77.1909 10.4161C77.0041 10.7534 76.9295 11.3532 76.9295 12.2153C76.9295 13.0775 77.0041 13.6772 77.1535 14.0521C77.3402 14.3894 77.639 14.5769 78.0871 14.5769Z" fill="#48785D"></path><path d="M51.4604 23.6856V22.8609L49.0703 18.9625H49.033V23.6856H48.1367V17.3882H49.033L51.423 21.324H51.4604V17.3882H52.3566V23.6856H51.4604Z" fill="#48785D"></path><path d="M53.2153 23.6856V17.3882H56.8751V18.2878H54.2236V20.0496H56.6137V20.9117H54.2236V22.7859H56.9124V23.6856H53.2153Z" fill="#48785D"></path><path d="M60.0869 20.9867V23.6856H59.116V20.9867L57.2114 17.3882H58.3318L59.5641 20.0496H59.6388L60.8712 17.3882H61.9915L60.0869 20.9867Z" fill="#48785D"></path><path d="M62.1782 23.6856V17.3882H63.1492L64.3442 20.6868H64.4189L65.6513 17.3882H66.5849V23.6856H65.6886L65.7259 19.4498H65.6886L64.867 21.549H63.9334L63.1118 19.4498H63.0745L63.1118 23.6856H62.1782Z" fill="#48785D"></path><path d="M67.1821 23.6856L68.7133 17.3882H70.5058L71.9996 23.6856H70.9539L70.6552 22.4861H68.5265L68.2651 23.6856H67.1821ZM70.3937 21.5864L69.6842 18.2878H69.4601L68.6759 21.5864H70.3937Z" fill="#48785D"></path><path d="M74.3525 21.399C74.0164 21.4365 73.8297 21.4365 73.7924 21.4365H73.3442V23.723H72.3359V17.3882H74.3152C75.0247 17.3882 75.5476 17.5381 75.8837 17.838C76.2571 18.1379 76.4065 18.6627 76.4065 19.3749C76.4065 20.1995 76.033 20.7993 75.3235 21.1366C75.7716 21.9613 76.1451 22.8234 76.4438 23.6481H75.3608C75.0994 22.9359 74.726 22.1487 74.3525 21.399ZM74.0911 18.2878H73.3069V20.4994H74.0911C74.95 20.4994 75.3608 20.1245 75.3608 19.4123C75.3608 19 75.2488 18.7001 75.0621 18.5502C74.8754 18.3628 74.5393 18.2878 74.0911 18.2878Z" fill="#48785D"></path><path d="M80.5889 18.2878V17.3882H83.4644V21.6989C83.4644 22.2612 83.2777 22.711 82.9416 23.0108C82.6428 23.2732 82.1947 23.4981 81.5972 23.6106C81.3358 23.6481 81.037 23.723 80.7009 23.7605L80.5889 22.8609C81.2611 22.7485 81.7465 22.636 82.0453 22.4486C82.344 22.2986 82.4561 22.0362 82.4561 21.6989V18.2503H80.5889V18.2878Z" fill="#48785D"></path><path d="M86.9751 21.399C86.639 21.4365 86.4523 21.4365 86.4149 21.4365H85.9668V23.723H84.9585V17.3882H86.9378C87.6473 17.3882 88.1701 17.5381 88.5062 17.838C88.8797 18.1379 89.029 18.6627 89.029 19.3749C89.029 20.1995 88.6556 20.7993 87.9461 21.1366C88.3942 21.9613 88.7676 22.8234 89.0664 23.6481H87.9834C87.722 22.9359 87.3859 22.1487 86.9751 21.399ZM86.751 18.2878H85.9668V20.4994H86.751C87.61 20.4994 88.0207 20.1245 88.0207 19.4123C88.0207 19 87.9087 18.7001 87.722 18.5502C87.5353 18.3628 87.1992 18.2878 86.751 18.2878Z" fill="#48785D"></path></svg>