<svg xmlns="http://www.w3.org/2000/svg" width="80" height="80" viewBox="0 0 80 80" fill="none"><g clip-path="url(#clip0_473_5789)"><path opacity="0.3" d="M56.6667 36.6665H63.3333V43.3332H56.6667V49.9998H63.3333V56.6665H56.6667V63.3332H70V16.6665H40V21.3332L56.6667 33.2332V36.6665ZM56.6667 23.3332H63.3333V29.9998H56.6667V23.3332Z" fill="#48785D"></path><path d="M33.334 10V16.5667L36.534 18.8667L40.0007 21.3333V16.6667H70.0006V63.3333H56.6673V70H76.6673V10H33.334Z" fill="#48785D"></path><path opacity="0.3" d="M10 40.0002V63.3335H16.6667V46.6668H36.6667V63.3335H43.3333V40.0002L26.6667 28.3335L10 40.0002Z" fill="#48785D"></path><path d="M63.3346 23.3335H56.668V30.0002H63.3346V23.3335Z" fill="#48785D"></path><path d="M63.3346 36.6665H56.668V43.3332H63.3346V36.6665Z" fill="#48785D"></path><path d="M63.3346 50H56.668V56.6667H63.3346V50Z" fill="#48785D"></path><path d="M3.33398 36.6667V70H23.334V53.3333H30.0007V70H50.0007V36.6667L26.6673 20L3.33398 36.6667ZM43.334 63.3333H36.6673V46.6667H16.6673V63.3333H10.0007V40L26.6673 28.3333L43.334 40V63.3333Z" fill="#48785D"></path></g><defs><clipPath id="clip0_473_5789"><rect width="80" height="80" fill="white"></rect></clipPath></defs></svg>