<svg xmlns="http://www.w3.org/2000/svg" width="96" height="89" viewBox="0 0 96 89" fill="none"><path opacity="0.3" d="M9.99921 67.88C8.07921 69 7.43921 71.44 8.51921 73.36C9.59921 75.28 12.0792 75.92 13.9992 74.84C15.9192 73.72 16.5592 71.28 15.4792 69.36C14.3992 67.44 11.9192 66.76 9.99921 67.88Z" fill="#2F3C34"></path><path opacity="0.3" d="M85.9975 67.88C84.0775 66.76 81.6374 67.44 80.5174 69.36C79.3974 71.28 80.0775 73.72 81.9975 74.84C83.9175 75.96 86.3575 75.28 87.4775 73.36C88.5975 71.44 87.9175 68.96 85.9975 67.88Z" fill="#2F3C34"></path><path opacity="0.3" d="M48 16C50.2091 16 52 14.2091 52 12C52 9.79086 50.2091 8 48 8C45.7909 8 44 9.79086 44 12C44 14.2091 45.7909 16 48 16Z" fill="#2F3C34"></path><path d="M40.4 59.6L46.08 53.92C35.16 44.2 28 37.64 28 31.4C28 27.2 31.2 24 35.4 24C39.84 24 41.56 26.6 46.12 32H49.84C54.32 26.76 55.96 24 60.56 24C64.04 24 66.76 26.16 67.64 29.28C69.04 29.12 70.36 29.04 71.64 29.04C73.08 29.04 74.44 29.16 75.76 29.36C74.8 21.72 68.52 16 60.6 16C60.12 16 59.68 16.12 59.2 16.16C59.68 14.84 60 13.48 60 12C60 5.36 54.64 0 48 0C41.36 0 36 5.36 36 12C36 13.48 36.32 14.84 36.8 16.16C36.32 16.12 35.88 16 35.4 16C26.76 16 20 22.76 20 31.4C20 41.08 28.16 48.64 40.4 59.6ZM48 8C50.2 8 52 9.8 52 12C52 14.2 50.2 16 48 16C45.8 16 44 14.2 44 12C44 9.8 45.8 8 48 8Z" fill="#2F3C34"></path><path d="M89.9977 60.96C88.7177 60.24 87.3577 59.8 85.9977 59.56C86.2777 59.16 86.5977 58.84 86.8377 58.44C91.1577 50.96 88.6777 41.72 81.1977 37.4C72.8377 32.56 62.1577 35.84 46.5977 41L48.6777 48.76C62.5577 44.2 71.8377 41.24 77.2377 44.36C80.8777 46.48 82.0377 50.8 79.9577 54.48C77.7177 58.32 74.6377 58.48 67.6777 59.76L65.7977 63C68.1177 69.48 69.6777 72.32 67.3577 76.28C65.2377 79.92 60.9177 81.08 57.2377 79C56.9977 78.88 56.7977 78.64 56.5577 78.48C55.3577 81.16 53.9977 83.44 52.4377 85.4C52.7177 85.56 52.9577 85.76 53.2377 85.96C60.7177 90.28 69.9577 87.8 74.2777 80.32C74.5177 79.92 74.6377 79.48 74.8377 79.04C75.7177 80.12 76.7577 81.08 78.0377 81.8C83.7577 85.12 91.1177 83.16 94.4377 77.4C97.7577 71.64 95.7177 64.24 89.9977 60.96ZM87.4777 73.32C86.3577 75.24 83.9177 75.88 81.9977 74.8C80.0777 73.68 79.4377 71.24 80.5177 69.32C81.5977 67.4 84.0777 66.76 85.9977 67.84C87.9177 68.96 88.5577 71.44 87.4777 73.32Z" fill="#2F3C34"></path><path d="M49.2785 52.04C46.3185 66.36 44.1985 75.84 38.7985 78.96C35.1585 81.08 30.7985 79.92 28.6785 76.24C26.4385 72.4 27.8785 69.6 30.2385 62.96L28.3985 59.72C21.5985 58.48 18.3985 58.4 16.1185 54.44C13.9985 50.8 15.1585 46.44 18.8385 44.32C19.1985 44.12 19.5985 44 19.9985 43.88C18.5985 41.64 17.4385 39.2 16.7185 36.48C16.0785 36.76 15.4385 37.04 14.7985 37.4C7.31849 41.72 4.83849 50.96 9.15849 58.44C9.39849 58.84 9.71849 59.16 9.99849 59.56C8.63849 59.8 7.27849 60.24 5.99849 60.96C0.278488 64.28 -1.72151 71.6 1.59849 77.36C4.91849 83.12 12.2385 85.08 17.9985 81.76C19.2785 81.04 20.3185 80.08 21.1985 79C21.3985 79.44 21.5185 79.88 21.7585 80.28C26.0785 87.76 35.3185 90.24 42.7985 85.92C51.1585 81.08 53.6385 70.2 56.9985 54.16L49.2785 52.04ZM13.9985 74.8C12.0785 75.92 9.63849 75.24 8.51849 73.32C7.39849 71.4 8.07849 68.96 9.99849 67.84C11.9185 66.72 14.3585 67.4 15.4785 69.32C16.5985 71.24 15.9185 73.68 13.9985 74.8Z" fill="#2F3C34"></path></svg>