<svg xmlns="http://www.w3.org/2000/svg" width="80" height="80" viewBox="0 0 80 80" fill="none"><g clip-path="url(#clip0_194_1041)"><path opacity="0.3" d="M61.6666 34.0001C61.6666 42.5667 54.6666 53.3001 41.1333 65.7001L40 66.7001L38.8666 65.6667C25.3333 53.3001 18.3333 42.5667 18.3333 34.0001C18.3333 21.2001 27.7333 11.6667 40 11.6667C52.2666 11.6667 61.6666 21.1667 61.6666 34.0001Z" fill="#48785D"></path><path d="M40 6.66675C54 6.66675 66.6666 17.4001 66.6666 34.0001C66.6666 45.0667 57.7666 58.1667 40 73.3334C22.2333 58.1667 13.3333 45.0667 13.3333 34.0001C13.3333 17.4001 26 6.66675 40 6.66675ZM60 34.0001C60 21.9001 51.1666 13.3334 40 13.3334C28.8333 13.3334 20 21.9001 20 34.0001C20 41.8001 26.5 52.1334 40 64.4668C53.5 52.1334 60 41.8001 60 34.0001ZM40 40.0001C36.3333 40.0001 33.3333 37.0001 33.3333 33.3334C33.3333 29.6667 36.3333 26.6667 40 26.6667C43.6666 26.6667 46.6666 29.6667 46.6666 33.3334C46.6666 37.0001 43.6666 40.0001 40 40.0001Z" fill="#48785D"></path></g><defs><clipPath id="clip0_194_1041"><rect width="80" height="80" fill="white"></rect></clipPath></defs></svg>