<svg xmlns="http://www.w3.org/2000/svg" width="64" height="64" viewBox="0 0 64 64" fill="none"><g clip-path="url(#clip0_385_3979)"><path opacity="0.3" d="M49.3332 27.2001C49.3332 34.0534 43.7332 42.6401 32.9065 52.5601L31.9998 53.3601L31.0932 52.5334C20.2665 42.6401 14.6665 34.0534 14.6665 27.2001C14.6665 16.9601 22.1865 9.33344 31.9998 9.33344C41.8132 9.33344 49.3332 16.9334 49.3332 27.2001Z" fill="#E6B12E"></path><path d="M31.9998 5.33344C43.1998 5.33344 53.3332 13.9201 53.3332 27.2001C53.3332 36.0534 46.2132 46.5334 31.9998 58.6668C17.7865 46.5334 10.6665 36.0534 10.6665 27.2001C10.6665 13.9201 20.7998 5.33344 31.9998 5.33344ZM47.9998 27.2001C47.9998 17.5201 40.9332 10.6668 31.9998 10.6668C23.0665 10.6668 15.9998 17.5201 15.9998 27.2001C15.9998 33.4401 21.1998 41.7068 31.9998 51.5734C42.7998 41.7068 47.9998 33.4401 47.9998 27.2001ZM31.9998 32.0001C29.0665 32.0001 26.6665 29.6001 26.6665 26.6668C26.6665 23.7334 29.0665 21.3334 31.9998 21.3334C34.9332 21.3334 37.3332 23.7334 37.3332 26.6668C37.3332 29.6001 34.9332 32.0001 31.9998 32.0001Z" fill="#E6B12E"></path></g><defs><clipPath id="clip0_385_3979"><rect width="64" height="64" fill="white"></rect></clipPath></defs></svg>