<svg xmlns="http://www.w3.org/2000/svg" width="96" height="96" viewBox="0 0 96 96" fill="none"><g clip-path="url(#clip0_385_4021)"><g opacity="0.3"><path opacity="0.3" d="M76 38.0001L62 24.0001C62 21.4001 62.36 18.8401 63.04 16.3601C59.16 17.3601 56 20.2401 54.68 24.0001H30C22.28 24.0001 16 30.2801 16 38.0001C16 45.5201 20.88 64.6001 24.04 76.0001H32V68.0001H56V76.0001H64.04L70.24 55.4001L80 52.1201V38.0001H76ZM52 36.0001H32V28.0001H52V36.0001ZM64 44.0001C61.8 44.0001 60 42.2001 60 40.0001C60 37.8001 61.8 36.0001 64 36.0001C66.2 36.0001 68 37.8001 68 40.0001C68 42.2001 66.2 44.0001 64 44.0001Z" fill="#48785D"></path></g><path d="M60 40C60 37.8 61.8 36 64 36C66.2 36 68 37.8 68 40C68 42.2 66.2 44 64 44C61.8 44 60 42.2 60 40ZM32 36H52V28H32V36ZM88 30V57.88L76.72 61.64L70 84H48V76H40V84H18C18 84 8 50.16 8 38C8 25.84 17.84 16 30 16H50C53.64 11.16 59.44 8 66 8C69.32 8 72 10.68 72 14C72 14.84 71.84 15.6 71.52 16.32C70.96 17.68 70.48 19.24 70.24 20.92L79.32 30H88ZM80 38H76L62 24C62 21.4 62.36 18.84 63.04 16.36C59.16 17.36 56 20.24 54.68 24H30C22.28 24 16 30.28 16 38C16 45.52 20.88 64.6 24.04 76H32V68H56V76H64.04L70.24 55.4L80 52.12V38Z" fill="#48785D"></path></g><defs><clipPath id="clip0_385_4021"><rect width="96" height="96" fill="white"></rect></clipPath></defs></svg>