<svg xmlns="http://www.w3.org/2000/svg" width="96" height="96" viewBox="0 0 96 96" fill="none"><g clip-path="url(#clip0_395_4061)"><path opacity="0.3" d="M28.0007 49.0801V63.9601L48.0007 74.8801L68.0007 63.9601V49.0801L48.0007 60.0001L28.0007 49.0801ZM20.7207 36.0001L48.0007 50.8801L75.2807 36.0001L48.0007 21.1201L20.7207 36.0001Z" fill="#48785D"></path><path d="M48 12L4 36L20 44.72V68.72L48 84L76 68.72V44.72L84 40.36V68H92V36L48 12ZM68 63.96L48 74.88L28 63.96V49.08L48 60L68 49.08V63.96ZM48 50.88L20.72 36L48 21.12L75.28 36L48 50.88Z" fill="#48785D"></path></g><defs><clipPath id="clip0_395_4061"><rect width="96" height="96" fill="white"></rect></clipPath></defs></svg>