<svg xmlns="http://www.w3.org/2000/svg" width="48" height="48" viewBox="0 0 48 48" fill="none"><g clip-path="url(#clip0_1564_1771)"><path opacity="0.3" d="M14 24.5402V31.9802L24 37.4402L34 31.9802V24.5402L24 30.0002L14 24.5402ZM10.36 18.0002L24 25.4402L37.64 18.0002L24 10.5602L10.36 18.0002Z" fill="#48785D"></path><path d="M24 6.00012L2 18.0001L10 22.3601V34.3601L24 42.0001L38 34.3601V22.3601L42 20.1801V34.0001H46V18.0001L24 6.00012ZM34 31.9801L24 37.4401L14 31.9801V24.5401L24 30.0001L34 24.5401V31.9801ZM24 25.4401L10.36 18.0001L24 10.5601L37.64 18.0001L24 25.4401Z" fill="#48785D"></path></g><defs><clipPath id="clip0_1564_1771"><rect width="48" height="48" fill="white"></rect></clipPath></defs></svg>