<svg xmlns="http://www.w3.org/2000/svg" width="96" height="96" viewBox="0 0 96 96" fill="none"><g clip-path="url(#clip0_393_3830)"><path opacity="0.3" d="M27.9997 49.08V63.96L47.9997 74.88L67.9997 63.96V49.08L47.9997 60L27.9997 49.08ZM20.7197 36L47.9997 50.88L75.2797 36L47.9997 21.12L20.7197 36Z" fill="#E6B12E"></path><path d="M48 12L4 36L20 44.72V68.72L48 84L76 68.72V44.72L84 40.36V68H92V36L48 12ZM68 63.96L48 74.88L28 63.96V49.08L48 60L68 49.08V63.96ZM48 50.88L20.72 36L48 21.12L75.28 36L48 50.88Z" fill="#E6B12E"></path></g><defs><clipPath id="clip0_393_3830"><rect width="96" height="96" fill="white"></rect></clipPath></defs></svg>