<svg xmlns="http://www.w3.org/2000/svg" width="80" height="80" viewBox="0 0 80 80" fill="none"><g clip-path="url(#clip0_203_239)"><path d="M47.5668 19.9999C45.7335 23.1666 46.8335 27.2666 50.0001 29.0999C53.1668 30.9332 57.2668 29.8332 59.1001 26.6666C60.9335 23.4999 59.8335 19.3999 56.6668 17.5666C53.5001 15.7332 49.4001 16.8332 47.5668 19.9999Z" fill="#E6B12E"></path><path d="M52.8 34.7C52.8 34.7 47.3667 31.5666 44.1334 29.7C36.2 25.1 33.4667 14.9 38.0667 6.96663L32.3 3.6333C27 12.7666 28.6667 24.0333 35.5334 31.3333L18.3667 61.0666L24.1334 64.4L29.1334 55.7333L34.9 59.0666L24.9 76.4L30.6667 79.7333L51.6334 43.4333C55.4334 48.6 56.0667 55.7333 52.6667 61.6333L58.4334 64.9666C63.7667 55.8 62.7 43.0333 52.8 34.7Z" fill="#E6B12E"></path><path d="M42.5001 12.6667C44.9001 14.0333 47.9334 13.2333 49.3334 10.8333C50.7001 8.43332 49.9001 5.39999 47.5001 3.99999C45.1001 2.63332 42.0667 3.43332 40.6667 5.83332C39.3001 8.23332 40.1001 11.3 42.5001 12.6667Z" fill="#E6B12E"></path></g><defs><clipPath id="clip0_203_239"><rect width="80" height="80" fill="white"></rect></clipPath></defs></svg>