<svg xmlns="http://www.w3.org/2000/svg" width="80" height="80" viewBox="0 0 80 80" fill="none"><g clip-path="url(#clip0_385_4419)"><path opacity="0.3" d="M48.333 36.0335C48.4997 32.6668 52.133 30.0002 56.633 30.0002C61.233 30.0002 64.9663 32.8002 64.9663 36.2668H48.333V40.3335C50.633 42.1668 53.4997 43.3335 56.6663 43.3335C64.033 43.3335 69.9997 37.3668 69.9997 30.0002V13.3335H43.333V25.0002H48.333V36.0335ZM63.333 18.3335C65.1663 18.3335 66.6663 19.8335 66.6663 21.6668C66.6663 23.5002 65.1663 25.0002 63.333 25.0002C61.4997 25.0002 59.9997 23.5002 59.9997 21.6668C59.9997 19.8335 61.4997 18.3335 63.333 18.3335ZM46.6663 21.6668C46.6663 19.8335 48.1663 18.3335 49.9997 18.3335C51.833 18.3335 53.333 19.8335 53.333 21.6668C53.333 23.5002 51.833 25.0002 49.9997 25.0002C48.1663 25.0002 46.6663 23.5002 46.6663 21.6668Z" fill="#48785D"></path><path d="M36.666 6.66675V25.0001H43.3327V13.3334H69.9993V30.0001C69.9993 37.3667 64.0327 43.3334 56.666 43.3334C53.4993 43.3334 50.6327 42.1667 48.3327 40.3334V48.1667C50.866 49.3334 53.6993 50.0001 56.666 50.0001C67.6993 50.0001 76.666 41.0334 76.666 30.0001V6.66675H36.666Z" fill="#48785D"></path><path d="M63.3333 25.0002C65.1743 25.0002 66.6667 23.5078 66.6667 21.6668C66.6667 19.8259 65.1743 18.3335 63.3333 18.3335C61.4924 18.3335 60 19.8259 60 21.6668C60 23.5078 61.4924 25.0002 63.3333 25.0002Z" fill="#E6B12E"></path><path d="M49.9993 25.0002C51.8403 25.0002 53.3327 23.5078 53.3327 21.6668C53.3327 19.8259 51.8403 18.3335 49.9993 18.3335C48.1584 18.3335 46.666 19.8259 46.666 21.6668C46.666 23.5078 48.1584 25.0002 49.9993 25.0002Z" fill="#E6B12E"></path><path d="M56.633 30C52.133 30 48.4997 32.6667 48.333 36.0333V36.2667H64.9663C64.9663 32.8 61.233 30 56.633 30Z" fill="#E6B12E"></path><path d="M3.33301 53.3333C3.33301 64.3667 12.2997 73.3333 23.333 73.3333C34.3663 73.3333 43.333 64.3667 43.333 53.3333V30H3.33301V53.3333ZM9.99967 36.6667H36.6663V53.3333C36.6663 60.7 30.6997 66.6667 23.333 66.6667C15.9663 66.6667 9.99967 60.7 9.99967 53.3333V36.6667Z" fill="#E6B12E"></path><path opacity="0.3" d="M23.3333 66.6667C30.7 66.6667 36.6667 60.7001 36.6667 53.3334V36.6667H10V53.3334C10 60.7001 15.9667 66.6667 23.3333 66.6667ZM23.3333 59.6001C18.7333 59.6001 15 56.8001 15 53.3334H31.6667C31.6667 56.8001 27.9333 59.6001 23.3333 59.6001ZM30 41.6667C31.8333 41.6667 33.3333 43.1667 33.3333 45.0001C33.3333 46.8334 31.8333 48.3334 30 48.3334C28.1667 48.3334 26.6667 46.8334 26.6667 45.0001C26.6667 43.1667 28.1667 41.6667 30 41.6667ZM16.6667 41.6667C18.5 41.6667 20 43.1667 20 45.0001C20 46.8334 18.5 48.3334 16.6667 48.3334C14.8333 48.3334 13.3333 46.8334 13.3333 45.0001C13.3333 43.1667 14.8333 41.6667 16.6667 41.6667Z" fill="#E6B12E"></path><path d="M16.6663 48.3334C18.5073 48.3334 19.9997 46.841 19.9997 45.0001C19.9997 43.1591 18.5073 41.6667 16.6663 41.6667C14.8254 41.6667 13.333 43.1591 13.333 45.0001C13.333 46.841 14.8254 48.3334 16.6663 48.3334Z" fill="#E6B12E"></path><path d="M29.9993 48.3334C31.8403 48.3334 33.3327 46.841 33.3327 45.0001C33.3327 43.1591 31.8403 41.6667 29.9993 41.6667C28.1584 41.6667 26.666 43.1591 26.666 45.0001C26.666 46.841 28.1584 48.3334 29.9993 48.3334Z" fill="#E6B12E"></path><path d="M23.3333 59.6002C27.9333 59.6002 31.6667 56.8002 31.6667 53.3335H15C15 56.8002 18.7333 59.6002 23.3333 59.6002Z" fill="#E6B12E"></path></g><defs><clipPath id="clip0_385_4419"><rect width="80" height="80" fill="white"></rect></clipPath></defs></svg>