<svg xmlns="http://www.w3.org/2000/svg" width="48" height="48" viewBox="0 0 48 48" fill="none"><g clip-path="url(#clip0_1564_1714)"><path opacity="0.3" d="M29 21.62C29.1 19.6 31.28 18 33.98 18C36.74 18 38.98 19.68 38.98 21.76H29V24.2C30.38 25.3 32.1 26 34 26C38.42 26 42 22.42 42 18V8H26V15H29V21.62ZM38 11C39.1 11 40 11.9 40 13C40 14.1 39.1 15 38 15C36.9 15 36 14.1 36 13C36 11.9 36.9 11 38 11ZM28 13C28 11.9 28.9 11 30 11C31.1 11 32 11.9 32 13C32 14.1 31.1 15 30 15C28.9 15 28 14.1 28 13Z" fill="#E6B12E"></path><path d="M22 4V15H26V8H42V18C42 22.42 38.42 26 34 26C32.1 26 30.38 25.3 29 24.2V28.9C30.52 29.6 32.22 30 34 30C40.62 30 46 24.62 46 18V4H22Z" fill="#E6B12E"></path><path d="M38 15C39.1046 15 40 14.1046 40 13C40 11.8954 39.1046 11 38 11C36.8954 11 36 11.8954 36 13C36 14.1046 36.8954 15 38 15Z" fill="#E6B12E"></path><path d="M30 15C31.1046 15 32 14.1046 32 13C32 11.8954 31.1046 11 30 11C28.8954 11 28 11.8954 28 13C28 14.1046 28.8954 15 30 15Z" fill="#E6B12E"></path><path d="M33.98 18C31.28 18 29.1 19.6 29 21.62V21.76H38.98C38.98 19.68 36.74 18 33.98 18Z" fill="#E6B12E"></path><path d="M2 32C2 38.62 7.38 44 14 44C20.62 44 26 38.62 26 32V18H2V32ZM6 22H22V32C22 36.42 18.42 40 14 40C9.58 40 6 36.42 6 32V22Z" fill="#E6B12E"></path><path opacity="0.3" d="M14 40C18.42 40 22 36.42 22 32V22H6V32C6 36.42 9.58 40 14 40ZM14 35.76C11.24 35.76 9 34.08 9 32H19C19 34.08 16.76 35.76 14 35.76ZM18 25C19.1 25 20 25.9 20 27C20 28.1 19.1 29 18 29C16.9 29 16 28.1 16 27C16 25.9 16.9 25 18 25ZM10 25C11.1 25 12 25.9 12 27C12 28.1 11.1 29 10 29C8.9 29 8 28.1 8 27C8 25.9 8.9 25 10 25Z" fill="#E6B12E"></path><path d="M10 29C11.1046 29 12 28.1046 12 27C12 25.8954 11.1046 25 10 25C8.89543 25 8 25.8954 8 27C8 28.1046 8.89543 29 10 29Z" fill="#E6B12E"></path><path d="M18 29C19.1046 29 20 28.1046 20 27C20 25.8954 19.1046 25 18 25C16.8954 25 16 25.8954 16 27C16 28.1046 16.8954 29 18 29Z" fill="#E6B12E"></path><path d="M14 35.76C16.76 35.76 19 34.08 19 32H9C9 34.08 11.24 35.76 14 35.76Z" fill="#E6B12E"></path></g><defs><clipPath id="clip0_1564_1714"><rect width="48" height="48" fill="white"></rect></clipPath></defs></svg>