<svg xmlns="http://www.w3.org/2000/svg" width="42" height="42" viewBox="0 0 42 42" fill="none"><path d="M39.6667 29.1667C36.75 29.1667 33.95 28.7 31.3367 27.8367C30.52 27.58 29.61 27.7667 28.9567 28.3967L23.8233 33.53C17.22 30.17 11.8067 24.78 8.44667 18.1767L13.58 13.02C14.2333 12.39 14.42 11.48 14.1633 10.6633C13.3 8.05 12.8333 5.25 12.8333 2.33333C12.8333 1.05 11.7833 0 10.5 0H2.33333C1.05 0 0 1.05 0 2.33333C0 24.2433 17.7567 42 39.6667 42C40.95 42 42 40.95 42 39.6667V31.5C42 30.2167 40.95 29.1667 39.6667 29.1667ZM21 0V23.3333L28 16.3333H42V0H21Z" fill="#2F3C34"></path></svg>