<svg xmlns="http://www.w3.org/2000/svg" width="60" height="68" viewBox="0 0 60 68" fill="none"><path d="M30 0.666656C13.4333 0.666656 0 14.1 0 30.6667C0 44.5667 9.46667 56.2333 22.3 59.6333L30 67.3333L37.7 59.6333C50.5333 56.2333 60 44.5667 60 30.6667C60 14.1 46.5667 0.666656 30 0.666656ZM30 7.33332C35.5333 7.33332 40 11.8 40 17.3333C40 22.8667 35.5333 27.3333 30 27.3333C24.4667 27.3333 20 22.8667 20 17.3333C20 11.8 24.4667 7.33332 30 7.33332ZM30 55C21.6667 55 14.3 50.7333 10 44.2667C10.1 37.6333 23.3333 34 30 34C36.6333 34 49.9 37.6333 50 44.2667C45.7 50.7333 38.3333 55 30 55Z" fill="#E6B12E"></path></svg>