<svg xmlns="http://www.w3.org/2000/svg" width="54" height="68" viewBox="0 0 54 68" fill="none"><path d="M27 0.666626C41 0.666626 53.6667 11.4 53.6667 28C53.6667 39.0666 44.7667 52.1666 27 67.3333C9.23334 52.1666 0.333344 39.0666 0.333344 28C0.333344 11.4 13 0.666626 27 0.666626ZM47 28C47 15.9 38.1667 7.33329 27 7.33329C15.8333 7.33329 7.00001 15.9 7.00001 28C7.00001 35.8 13.5 46.1333 27 58.4666C40.5 46.1333 47 35.8 47 28ZM27 34C23.3333 34 20.3333 31 20.3333 27.3333C20.3333 23.6666 23.3333 20.6666 27 20.6666C30.6667 20.6666 33.6667 23.6666 33.6667 27.3333C33.6667 31 30.6667 34 27 34Z" fill="#E6B12E"></path></svg>