<svg xmlns="http://www.w3.org/2000/svg" width="48" height="48" viewBox="0 0 48 48" fill="none"><g clip-path="url(#clip0_1564_1782)"><path opacity="0.3" d="M10 26.0001H6V40.0001H10V26.0001Z" fill="#48785D"></path><path opacity="0.3" d="M32 20.5801C35.92 16.9401 40 12.8201 40 10.6001C40 9.12012 38.88 8.00012 37.4 8.00012C36.52 8.00012 35.62 8.42012 35.04 9.10012L32 12.6801L28.96 9.10012C28.38 8.42012 27.48 8.00012 26.6 8.00012C25.12 8.00012 24 9.12012 24 10.6001C24 12.8201 28.08 16.9401 32 20.5801Z" fill="#48785D"></path><path opacity="0.3" d="M38 36.0001H27.3C26.22 36.0001 25.16 35.8201 24.14 35.4801L19.38 33.9001L20.64 30.1001L25.4 31.6801C26.02 31.8801 26.66 31.9801 27.3 31.9801H30C30 31.2401 29.54 30.5801 28.86 30.3201L17.22 26.0001H14V36.9601L27.94 40.8401L39.8 37.1401C39.48 36.4601 38.78 36.0001 38 36.0001Z" fill="#48785D"></path><path d="M32 26.0001C38.18 20.3801 44 15.1201 44 10.6001C44 6.90012 41.1 4.00012 37.4 4.00012C35.32 4.00012 33.3 4.98012 32 6.50012C30.7 4.98012 28.68 4.00012 26.6 4.00012C22.9 4.00012 20 6.90012 20 10.6001C20 15.1201 25.82 20.3801 32 26.0001ZM26.6 8.00012C27.48 8.00012 28.38 8.42012 28.96 9.10012L32 12.6801L35.04 9.10012C35.62 8.42012 36.52 8.00012 37.4 8.00012C38.88 8.00012 40 9.12012 40 10.6001C40 12.8401 35.92 16.9401 32 20.5801C28.08 16.9401 24 12.8201 24 10.6001C24 9.12012 25.12 8.00012 26.6 8.00012Z" fill="#48785D"></path><path d="M38 32.0001H34C34 29.6001 32.5 27.4401 30.26 26.6001L17.94 22.0001H2V44.0001H14V41.1201L28 45.0001L44 40.0001V38.0001C44 34.6801 41.32 32.0001 38 32.0001ZM10 40.0001H6V26.0001H10V40.0001ZM27.94 40.8201L14 36.9601V26.0001H17.22L28.86 30.3401C29.54 30.6001 30 31.2601 30 32.0001H27.3C26.66 32.0001 26.02 31.9001 25.4 31.7001L20.64 30.1201L19.38 33.9201L24.14 35.5001C25.16 35.8401 26.22 36.0201 27.3 36.0201H38C38.78 36.0201 39.48 36.4801 39.8 37.1401L27.94 40.8201Z" fill="#48785D"></path></g><defs><clipPath id="clip0_1564_1782"><rect width="48" height="48" fill="white"></rect></clipPath></defs></svg>