<svg xmlns="http://www.w3.org/2000/svg" width="343" height="80" viewBox="0 0 343 80" fill="none"><g clip-path="url(#clip0_8_4323)"><rect width="343" height="80" rx="8" fill="#48785D"></rect><path d="M569.99 -160.193L897.949 39.962L569.959 240.168L242 40.0132L569.99 -160.193Z" fill="#E6B12E"></path><g clip-path="url(#clip1_8_4323)"><path d="M56.5 25.8465L54 23.3465L51.5 25.8465L49 23.3465L46.5 25.8465L44 23.3465L41.5 25.8465L39 23.3465L36.5 25.8465L34 23.3465V46.6798H29V51.6798C29 54.4465 31.2333 56.6798 34 56.6798H54C56.7667 56.6798 59 54.4465 59 51.6798V23.3465L56.5 25.8465ZM49 53.3465H34C33.0833 53.3465 32.3333 52.5965 32.3333 51.6798V50.0132H49V53.3465ZM55.6667 51.6798C55.6667 52.5965 54.9167 53.3465 54 53.3465C53.0833 53.3465 52.3333 52.5965 52.3333 51.6798V46.6798H37.3333V28.3465H55.6667V51.6798Z" fill="#E6B12E"></path><path d="M49 31.6798H39V35.0131H49V31.6798Z" fill="#E6B12E"></path><path d="M54.0001 31.6798H50.6667V35.0131H54.0001V31.6798Z" fill="#E6B12E"></path><path d="M49 36.6798H39V40.0131H49V36.6798Z" fill="#E6B12E"></path><path d="M54.0001 36.6798H50.6667V40.0131H54.0001V36.6798Z" fill="#E6B12E"></path></g><path d="M87.384 34.0132L82.758 22.0072H79.554L74.91 34.0132H77.718L78.474 31.9432H83.838L84.594 34.0132H87.384ZM83.136 29.7292H79.158L81.156 24.2212L83.136 29.7292ZM87.8807 29.6572C87.8807 32.3392 89.8067 34.2292 92.4887 34.2292C94.2707 34.2292 95.3507 33.4552 95.9267 32.6452L94.4327 31.2592C94.0187 31.8352 93.3887 32.1952 92.5967 32.1952C91.2107 32.1952 90.2387 31.1692 90.2387 29.6572C90.2387 28.1452 91.2107 27.1372 92.5967 27.1372C93.3887 27.1372 94.0187 27.4792 94.4327 28.0732L95.9267 26.6872C95.3507 25.8772 94.2707 25.1032 92.4887 25.1032C89.8067 25.1032 87.8807 26.9932 87.8807 29.6572ZM96.8631 29.6572C96.8631 32.3392 98.7891 34.2292 101.471 34.2292C103.253 34.2292 104.333 33.4552 104.909 32.6452L103.415 31.2592C103.001 31.8352 102.371 32.1952 101.579 32.1952C100.193 32.1952 99.2211 31.1692 99.2211 29.6572C99.2211 28.1452 100.193 27.1372 101.579 27.1372C102.371 27.1372 103.001 27.4792 103.415 28.0732L104.909 26.6872C104.333 25.8772 103.253 25.1032 101.471 25.1032C98.7891 25.1032 96.8631 26.9932 96.8631 29.6572ZM105.846 29.6572C105.846 32.4472 107.844 34.2292 110.49 34.2292C111.84 34.2292 113.19 33.8332 114.072 33.0232L113.064 31.5472C112.506 32.0872 111.552 32.4112 110.742 32.4112C109.266 32.4112 108.384 31.4932 108.24 30.3952H114.702V29.8912C114.702 27.0472 112.938 25.1032 110.346 25.1032C107.7 25.1032 105.846 27.1372 105.846 29.6572ZM110.346 26.9212C111.858 26.9212 112.434 28.0192 112.488 28.8472H108.204C108.312 27.9832 108.924 26.9212 110.346 26.9212ZM124.633 34.0132V22.0072H122.329V26.4352C121.645 25.5532 120.673 25.1032 119.647 25.1032C117.433 25.1032 115.795 26.8312 115.795 29.6752C115.795 32.5732 117.451 34.2292 119.647 34.2292C120.691 34.2292 121.645 33.7612 122.329 32.9152V34.0132H124.633ZM122.329 31.2052C121.933 31.7812 121.123 32.1952 120.349 32.1952C119.053 32.1952 118.153 31.1692 118.153 29.6752C118.153 28.1632 119.053 27.1372 120.349 27.1372C121.123 27.1372 121.933 27.5512 122.329 28.1272V31.2052ZM134.406 34.0132V28.3972C134.406 25.8952 132.588 25.1032 130.608 25.1032C129.24 25.1032 127.872 25.5352 126.81 26.4712L127.674 28.0012C128.412 27.3172 129.276 26.9752 130.212 26.9752C131.364 26.9752 132.12 27.5512 132.12 28.4332V29.6392C131.544 28.9372 130.518 28.5772 129.366 28.5772C127.98 28.5772 126.342 29.3152 126.342 31.3492C126.342 33.2932 127.98 34.2292 129.366 34.2292C130.5 34.2292 131.526 33.8152 132.12 33.1132V34.0132H134.406ZM132.12 31.9252C131.742 32.4292 131.022 32.6812 130.284 32.6812C129.384 32.6812 128.646 32.2132 128.646 31.4032C128.646 30.5752 129.384 30.0892 130.284 30.0892C131.022 30.0892 131.742 30.3412 132.12 30.8452V31.9252ZM148.785 34.0132V28.3972C148.785 25.8952 146.967 25.1032 144.987 25.1032C143.619 25.1032 142.251 25.5352 141.189 26.4712L142.053 28.0012C142.791 27.3172 143.655 26.9752 144.591 26.9752C145.743 26.9752 146.499 27.5512 146.499 28.4332V29.6392C145.923 28.9372 144.897 28.5772 143.745 28.5772C142.359 28.5772 140.721 29.3152 140.721 31.3492C140.721 33.2932 142.359 34.2292 143.745 34.2292C144.879 34.2292 145.905 33.8152 146.499 33.1132V34.0132H148.785ZM146.499 31.9252C146.121 32.4292 145.401 32.6812 144.663 32.6812C143.763 32.6812 143.025 32.2132 143.025 31.4032C143.025 30.5752 143.763 30.0892 144.663 30.0892C145.401 30.0892 146.121 30.3412 146.499 30.8452V31.9252ZM166.457 34.0132V22.0072H163.901V29.7832L158.339 22.0072H155.711V34.0132H158.267V25.9492L163.991 34.0132H166.457ZM176.925 34.0132V25.3192H174.639V31.2052C174.243 31.7092 173.541 32.1952 172.659 32.1952C171.687 32.1952 171.057 31.7992 171.057 30.5932V25.3192H168.771V31.4932C168.771 33.1852 169.671 34.2292 171.579 34.2292C173.001 34.2292 174.045 33.5812 174.639 32.9152V34.0132H176.925ZM178.637 29.6572C178.637 32.4472 180.635 34.2292 183.281 34.2292C184.631 34.2292 185.981 33.8332 186.863 33.0232L185.855 31.5472C185.297 32.0872 184.343 32.4112 183.533 32.4112C182.057 32.4112 181.175 31.4932 181.031 30.3952H187.493V29.8912C187.493 27.0472 185.729 25.1032 183.137 25.1032C180.491 25.1032 178.637 27.1372 178.637 29.6572ZM183.137 26.9212C184.649 26.9212 185.225 28.0192 185.279 28.8472H180.995C181.103 27.9832 181.715 26.9212 183.137 26.9212ZM188.388 32.8792C189.306 33.7252 190.764 34.2292 192.276 34.2292C194.688 34.2292 196.038 33.0412 196.038 31.4392C196.038 29.2792 194.04 28.8832 192.546 28.5952C191.574 28.3972 190.89 28.1992 190.89 27.6592C190.89 27.1552 191.43 26.8492 192.258 26.8492C193.32 26.8492 194.31 27.2992 194.832 27.8572L195.732 26.2912C194.886 25.6072 193.716 25.1032 192.24 25.1032C189.954 25.1032 188.676 26.3812 188.676 27.8392C188.676 29.9092 190.602 30.2692 192.096 30.5572C193.086 30.7552 193.842 30.9712 193.842 31.5832C193.842 32.1232 193.374 32.4652 192.384 32.4652C191.304 32.4652 190.008 31.8712 189.378 31.2772L188.388 32.8792ZM200.638 34.2292C201.592 34.2292 202.204 33.9772 202.546 33.6712L202.06 31.9432C201.934 32.0692 201.61 32.1952 201.268 32.1952C200.764 32.1952 200.476 31.7812 200.476 31.2412V27.3172H202.24V25.3192H200.476V22.9432H198.172V25.3192H196.732V27.3172H198.172V31.8532C198.172 33.4012 199.036 34.2292 200.638 34.2292ZM206.09 34.0132V28.2712C206.468 27.7132 207.476 27.2992 208.232 27.2992C208.484 27.2992 208.7 27.3172 208.862 27.3532V25.1212C207.782 25.1212 206.702 25.7332 206.09 26.5072V25.3192H203.804V34.0132H206.09ZM214.322 34.2292C217.202 34.2292 218.93 32.1412 218.93 29.6572C218.93 27.1912 217.202 25.1032 214.322 25.1032C211.46 25.1032 209.732 27.1912 209.732 29.6572C209.732 32.1412 211.46 34.2292 214.322 34.2292ZM214.322 32.1952C212.9 32.1952 212.108 31.0252 212.108 29.6572C212.108 28.3072 212.9 27.1372 214.322 27.1372C215.744 27.1372 216.554 28.3072 216.554 29.6572C216.554 31.0252 215.744 32.1952 214.322 32.1952ZM219.87 32.8792C220.788 33.7252 222.246 34.2292 223.758 34.2292C226.17 34.2292 227.52 33.0412 227.52 31.4392C227.52 29.2792 225.522 28.8832 224.028 28.5952C223.056 28.3972 222.372 28.1992 222.372 27.6592C222.372 27.1552 222.912 26.8492 223.74 26.8492C224.802 26.8492 225.792 27.2992 226.314 27.8572L227.214 26.2912C226.368 25.6072 225.198 25.1032 223.722 25.1032C221.436 25.1032 220.158 26.3812 220.158 27.8392C220.158 29.9092 222.084 30.2692 223.578 30.5572C224.568 30.7552 225.324 30.9712 225.324 31.5832C225.324 32.1232 224.856 32.4652 223.866 32.4652C222.786 32.4652 221.49 31.8712 220.86 31.2772L219.87 32.8792ZM78.744 58.0132V46.0072H76.188V58.0132H78.744ZM89.2275 58.0132V51.8752C89.2275 50.1832 88.3095 49.1032 86.4015 49.1032C84.9795 49.1032 83.9175 49.7872 83.3595 50.4532V49.3192H81.0735V58.0132H83.3595V52.1632C83.7375 51.6412 84.4395 51.1372 85.3395 51.1372C86.3115 51.1372 86.9415 51.5512 86.9415 52.7572V58.0132H89.2275ZM96.0693 51.3172V49.3192H94.3053V48.8872C94.3053 48.0592 94.7373 47.6272 95.3853 47.6272C95.6553 47.6272 95.9253 47.6812 96.1233 47.8072L96.5913 46.1872C96.1773 45.9712 95.5833 45.8272 94.9353 45.8272C93.2253 45.8272 92.0013 46.9612 92.0013 48.8512V49.3192H90.5613V51.3172H92.0013V58.0132H94.3053V51.3172H96.0693ZM101.418 58.2292C104.298 58.2292 106.026 56.1412 106.026 53.6572C106.026 51.1912 104.298 49.1032 101.418 49.1032C98.556 49.1032 96.828 51.1912 96.828 53.6572C96.828 56.1412 98.556 58.2292 101.418 58.2292ZM101.418 56.1952C99.996 56.1952 99.204 55.0252 99.204 53.6572C99.204 52.3072 99.996 51.1372 101.418 51.1372C102.84 51.1372 103.65 52.3072 103.65 53.6572C103.65 55.0252 102.84 56.1952 101.418 56.1952ZM110.008 58.0132V52.2712C110.386 51.7132 111.394 51.2992 112.15 51.2992C112.402 51.2992 112.618 51.3172 112.78 51.3532V49.1212C111.7 49.1212 110.62 49.7332 110.008 50.5072V49.3192H107.722V58.0132H110.008ZM127.294 58.0132V51.7312C127.294 49.9492 126.34 49.1032 124.738 49.1032C123.406 49.1032 122.254 49.8952 121.75 50.6872C121.426 49.6972 120.616 49.1032 119.338 49.1032C118.006 49.1032 116.854 49.9312 116.494 50.4532V49.3192H114.208V58.0132H116.494V52.1632C116.836 51.6772 117.502 51.1372 118.294 51.1372C119.23 51.1372 119.59 51.7132 119.59 52.5232V58.0132H121.894V52.1452C122.218 51.6772 122.884 51.1372 123.694 51.1372C124.63 51.1372 124.99 51.7132 124.99 52.5232V58.0132H127.294ZM128.978 53.6572C128.978 56.4472 130.976 58.2292 133.622 58.2292C134.972 58.2292 136.322 57.8332 137.204 57.0232L136.196 55.5472C135.638 56.0872 134.684 56.4112 133.874 56.4112C132.398 56.4112 131.516 55.4932 131.372 54.3952H137.834V53.8912C137.834 51.0472 136.07 49.1032 133.478 49.1032C130.832 49.1032 128.978 51.1372 128.978 53.6572ZM133.478 50.9212C134.99 50.9212 135.566 52.0192 135.62 52.8472H131.336C131.444 51.9832 132.056 50.9212 133.478 50.9212ZM138.73 56.8792C139.648 57.7252 141.106 58.2292 142.618 58.2292C145.03 58.2292 146.38 57.0412 146.38 55.4392C146.38 53.2792 144.382 52.8832 142.888 52.5952C141.916 52.3972 141.232 52.1992 141.232 51.6592C141.232 51.1552 141.772 50.8492 142.6 50.8492C143.662 50.8492 144.652 51.2992 145.174 51.8572L146.074 50.2912C145.228 49.6072 144.058 49.1032 142.582 49.1032C140.296 49.1032 139.018 50.3812 139.018 51.8392C139.018 53.9092 140.944 54.2692 142.438 54.5572C143.428 54.7552 144.184 54.9712 144.184 55.5832C144.184 56.1232 143.716 56.4652 142.726 56.4652C141.646 56.4652 140.35 55.8712 139.72 55.2772L138.73 56.8792ZM163.919 58.0132L159.293 46.0072H156.089L151.445 58.0132H154.253L155.009 55.9432H160.373L161.129 58.0132H163.919ZM159.671 53.7292H155.693L157.691 48.2212L159.671 53.7292ZM173.128 58.0132V51.8752C173.128 50.1832 172.21 49.1032 170.302 49.1032C168.88 49.1032 167.818 49.7872 167.26 50.4532V49.3192H164.974V58.0132H167.26V52.1632C167.638 51.6412 168.34 51.1372 169.24 51.1372C170.212 51.1372 170.842 51.5512 170.842 52.7572V58.0132H173.128ZM183.552 58.0132V49.3192H181.266V55.2052C180.87 55.7092 180.168 56.1952 179.286 56.1952C178.314 56.1952 177.684 55.7992 177.684 54.5932V49.3192H175.398V55.4932C175.398 57.1852 176.298 58.2292 178.206 58.2292C179.628 58.2292 180.672 57.5812 181.266 56.9152V58.0132H183.552ZM193.328 58.0132V52.3972C193.328 49.8952 191.51 49.1032 189.53 49.1032C188.162 49.1032 186.794 49.5352 185.732 50.4712L186.596 52.0012C187.333 51.3172 188.198 50.9752 189.134 50.9752C190.286 50.9752 191.042 51.5512 191.042 52.4332V53.6392C190.466 52.9372 189.439 52.5772 188.288 52.5772C186.902 52.5772 185.264 53.3152 185.264 55.3492C185.264 57.2932 186.902 58.2292 188.288 58.2292C189.422 58.2292 190.448 57.8152 191.042 57.1132V58.0132H193.328ZM191.042 55.9252C190.664 56.4292 189.944 56.6812 189.206 56.6812C188.306 56.6812 187.568 56.2132 187.568 55.4032C187.568 54.5752 188.306 54.0892 189.206 54.0892C189.944 54.0892 190.664 54.3412 191.042 54.8452V55.9252ZM197.881 58.0132V46.0072H195.595V58.0132H197.881ZM199.59 53.6572C199.59 56.4472 201.588 58.2292 204.234 58.2292C205.584 58.2292 206.934 57.8332 207.816 57.0232L206.808 55.5472C206.25 56.0872 205.296 56.4112 204.486 56.4112C203.01 56.4112 202.128 55.4932 201.984 54.3952H208.446V53.8912C208.446 51.0472 206.682 49.1032 204.09 49.1032C201.444 49.1032 199.59 51.1372 199.59 53.6572ZM204.09 50.9212C205.602 50.9212 206.178 52.0192 206.232 52.8472H201.948C202.056 51.9832 202.668 50.9212 204.09 50.9212ZM209.341 56.8792C210.259 57.7252 211.717 58.2292 213.229 58.2292C215.641 58.2292 216.991 57.0412 216.991 55.4392C216.991 53.2792 214.993 52.8832 213.499 52.5952C212.527 52.3972 211.843 52.1992 211.843 51.6592C211.843 51.1552 212.383 50.8492 213.211 50.8492C214.273 50.8492 215.263 51.2992 215.785 51.8572L216.685 50.2912C215.839 49.6072 214.669 49.1032 213.193 49.1032C210.907 49.1032 209.629 50.3812 209.629 51.8392C209.629 53.9092 211.555 54.2692 213.049 54.5572C214.039 54.7552 214.795 54.9712 214.795 55.5832C214.795 56.1232 214.327 56.4652 213.337 56.4652C212.257 56.4652 210.961 55.8712 210.331 55.2772L209.341 56.8792Z" fill="white"></path><g clip-path="url(#clip2_8_4323)"><path d="M316 28.3465L313.65 30.6965L321.283 38.3465H294.333V41.6798H321.283L313.633 49.3298L316 51.6798L327.667 40.0132L316 28.3465Z" fill="#48785D"></path></g></g><defs><clipPath id="clip0_8_4323"><rect width="343" height="80" rx="8" fill="white"></rect></clipPath><clipPath id="clip1_8_4323"><rect width="40" height="40" fill="white" transform="translate(24 20.0132)"></rect></clipPath><clipPath id="clip2_8_4323"><rect width="40" height="40" fill="white" transform="translate(291 20.0132)"></rect></clipPath></defs></svg>