<svg xmlns="http://www.w3.org/2000/svg" width="209" height="222" viewBox="0 0 209 222" fill="none"><g clip-path="url(#clip0_1574_4830)"><rect width="209" height="222" rx="8" fill="#48785D"></rect><path d="M147.992 117.638L413.958 279.958L147.967 442.321L-118 280L147.992 117.638Z" fill="#E6B12E"></path><g clip-path="url(#clip1_1574_4830)"><path d="M48.5 19.8333L46 17.3333L43.5 19.8333L41 17.3333L38.5 19.8333L36 17.3333L33.5 19.8333L31 17.3333L28.5 19.8333L26 17.3333V40.6667H21V45.6667C21 48.4333 23.2333 50.6667 26 50.6667H46C48.7667 50.6667 51 48.4333 51 45.6667V17.3333L48.5 19.8333ZM41 47.3333H26C25.0833 47.3333 24.3333 46.5833 24.3333 45.6667V44H41V47.3333ZM47.6667 45.6667C47.6667 46.5833 46.9167 47.3333 46 47.3333C45.0833 47.3333 44.3333 46.5833 44.3333 45.6667V40.6667H29.3333V22.3333H47.6667V45.6667Z" fill="#E6B12E"></path><path d="M41 25.6667H31V29H41V25.6667Z" fill="#E6B12E"></path><path d="M46.0013 25.6667H42.668V29H46.0013V25.6667Z" fill="#E6B12E"></path><path d="M41 30.6667H31V34H41V30.6667Z" fill="#E6B12E"></path><path d="M46.0013 30.6667H42.668V34H46.0013V30.6667Z" fill="#E6B12E"></path></g><path d="M25.684 83V80.75H19.744V78.032H25.558V75.782H19.744V73.244H25.684V70.994H17.188V83H25.684ZM30.5441 83.216C31.4981 83.216 32.1101 82.964 32.4521 82.658L31.9661 80.93C31.8401 81.056 31.5161 81.182 31.1741 81.182C30.6701 81.182 30.3821 80.768 30.3821 80.228V76.304H32.1461V74.306H30.3821V71.93H28.0781V74.306H26.6381V76.304H28.0781V80.84C28.0781 82.388 28.9421 83.216 30.5441 83.216ZM41.2162 83V77.384C41.2162 74.882 39.3982 74.09 37.4182 74.09C36.0502 74.09 34.6822 74.522 33.6202 75.458L34.4842 76.988C35.2222 76.304 36.0862 75.962 37.0222 75.962C38.1742 75.962 38.9302 76.538 38.9302 77.42V78.59C38.3542 77.906 37.3282 77.528 36.1762 77.528C34.7902 77.528 33.1522 78.302 33.1522 80.336C33.1522 82.28 34.7902 83.216 36.1762 83.216C37.3102 83.216 38.3362 82.802 38.9302 82.1V83H41.2162ZM37.0942 81.668C36.1942 81.668 35.4562 81.2 35.4562 80.39C35.4562 79.544 36.1942 79.076 37.0942 79.076C37.8322 79.076 38.5522 79.328 38.9302 79.832V80.912C38.5522 81.416 37.8322 81.668 37.0942 81.668ZM46.3996 83.216C47.3536 83.216 47.9656 82.964 48.3076 82.658L47.8216 80.93C47.6956 81.056 47.3716 81.182 47.0296 81.182C46.5256 81.182 46.2376 80.768 46.2376 80.228V76.304H48.0016V74.306H46.2376V71.93H43.9336V74.306H42.4936V76.304H43.9336V80.84C43.9336 82.388 44.7976 83.216 46.3996 83.216ZM62.4511 83V70.994H60.1471V75.422C59.4631 74.54 58.4911 74.09 57.4651 74.09C55.2511 74.09 53.6131 75.818 53.6131 78.662C53.6131 81.56 55.2691 83.216 57.4651 83.216C58.5091 83.216 59.4631 82.748 60.1471 81.884V83H62.4511ZM58.1671 81.182C56.8711 81.182 55.9711 80.156 55.9711 78.662C55.9711 77.15 56.8711 76.124 58.1671 76.124C58.9411 76.124 59.7691 76.538 60.1471 77.114V80.192C59.7691 80.768 58.9411 81.182 58.1671 81.182ZM68.804 83.216C70.154 83.216 71.522 82.802 72.386 82.01L71.378 80.534C70.82 81.074 69.794 81.398 69.056 81.398C67.58 81.398 66.698 80.48 66.554 79.382H73.016V78.878C73.016 76.034 71.252 74.09 68.66 74.09C66.014 74.09 64.16 76.124 64.16 78.644C64.16 81.434 66.158 83.216 68.804 83.216ZM70.802 77.834H66.518C66.626 76.97 67.238 75.908 68.66 75.908C70.172 75.908 70.748 77.006 70.802 77.834ZM77.7992 83.216C80.2112 83.216 81.5612 82.01 81.5612 80.426C81.5612 76.916 76.4132 77.996 76.4132 76.7C76.4132 76.214 76.9532 75.836 77.7812 75.836C78.8432 75.836 79.8332 76.286 80.3552 76.844L81.2732 75.278C80.4092 74.594 79.2392 74.09 77.7632 74.09C75.4772 74.09 74.1992 75.368 74.1992 76.826C74.1992 80.246 79.3652 79.076 79.3652 80.516C79.3652 81.056 78.8972 81.452 77.9072 81.452C76.8272 81.452 75.5312 80.858 74.9012 80.264L73.9112 81.866C74.8292 82.712 76.2872 83.216 77.7992 83.216ZM94.4748 83L99.1008 70.994H96.1848L92.8728 80.228L89.5428 70.994H86.6268L91.2708 83H94.4748ZM106.449 83V77.384C106.449 74.882 104.631 74.09 102.651 74.09C101.283 74.09 99.9146 74.522 98.8526 75.458L99.7166 76.988C100.455 76.304 101.319 75.962 102.255 75.962C103.407 75.962 104.163 76.538 104.163 77.42V78.59C103.587 77.906 102.561 77.528 101.409 77.528C100.023 77.528 98.3846 78.302 98.3846 80.336C98.3846 82.28 100.023 83.216 101.409 83.216C102.543 83.216 103.569 82.802 104.163 82.1V83H106.449ZM102.327 81.668C101.427 81.668 100.689 81.2 100.689 80.39C100.689 79.544 101.427 79.076 102.327 79.076C103.065 79.076 103.785 79.328 104.163 79.832V80.912C103.785 81.416 103.065 81.668 102.327 81.668ZM111.002 83V77.258C111.38 76.7 112.388 76.268 113.144 76.268C113.396 76.268 113.612 76.286 113.774 76.322V74.09C112.694 74.09 111.614 74.72 111.002 75.494V74.306H108.716V83H111.002ZM116.336 73.37C117.092 73.37 117.704 72.758 117.704 72.002C117.704 71.246 117.092 70.652 116.336 70.652C115.598 70.652 114.968 71.246 114.968 72.002C114.968 72.758 115.598 73.37 116.336 73.37ZM117.488 83V74.306H115.202V83H117.488ZM127.261 83V77.384C127.261 74.882 125.443 74.09 123.463 74.09C122.095 74.09 120.727 74.522 119.665 75.458L120.529 76.988C121.267 76.304 122.131 75.962 123.067 75.962C124.219 75.962 124.975 76.538 124.975 77.42V78.59C124.399 77.906 123.373 77.528 122.221 77.528C120.835 77.528 119.197 78.302 119.197 80.336C119.197 82.28 120.835 83.216 122.221 83.216C123.355 83.216 124.381 82.802 124.975 82.1V83H127.261ZM123.139 81.668C122.239 81.668 121.501 81.2 121.501 80.39C121.501 79.544 122.239 79.076 123.139 79.076C123.877 79.076 124.597 79.328 124.975 79.832V80.912C124.597 81.416 123.877 81.668 123.139 81.668ZM132.445 83.216C133.399 83.216 134.011 82.964 134.353 82.658L133.867 80.93C133.741 81.056 133.417 81.182 133.075 81.182C132.571 81.182 132.283 80.768 132.283 80.228V76.304H134.047V74.306H132.283V71.93H129.979V74.306H128.539V76.304H129.979V80.84C129.979 82.388 130.843 83.216 132.445 83.216ZM136.745 73.37C137.501 73.37 138.113 72.758 138.113 72.002C138.113 71.246 137.501 70.652 136.745 70.652C136.007 70.652 135.377 71.246 135.377 72.002C135.377 72.758 136.007 73.37 136.745 73.37ZM137.897 83V74.306H135.611V83H137.897ZM144.195 83.216C147.075 83.216 148.803 81.128 148.803 78.644C148.803 76.178 147.075 74.09 144.195 74.09C141.333 74.09 139.605 76.178 139.605 78.644C139.605 81.128 141.333 83.216 144.195 83.216ZM144.195 81.182C142.773 81.182 141.981 80.012 141.981 78.644C141.981 77.294 142.773 76.124 144.195 76.124C145.617 76.124 146.427 77.294 146.427 78.644C146.427 80.012 145.617 81.182 144.195 81.182ZM158.653 83V76.862C158.653 75.17 157.735 74.09 155.827 74.09C154.405 74.09 153.343 74.774 152.785 75.44V74.306H150.499V83H152.785V77.15C153.163 76.628 153.865 76.124 154.765 76.124C155.737 76.124 156.367 76.538 156.367 77.744V83H158.653ZM164.055 83.216C166.467 83.216 167.817 82.01 167.817 80.426C167.817 76.916 162.669 77.996 162.669 76.7C162.669 76.214 163.209 75.836 164.037 75.836C165.099 75.836 166.089 76.286 166.611 76.844L167.529 75.278C166.665 74.594 165.495 74.09 164.019 74.09C161.733 74.09 160.455 75.368 160.455 76.826C160.455 80.246 165.621 79.076 165.621 80.516C165.621 81.056 165.153 81.452 164.163 81.452C163.083 81.452 161.787 80.858 161.157 80.264L160.167 81.866C161.085 82.712 162.543 83.216 164.055 83.216ZM25.414 107V94.994H23.11V99.422C22.426 98.54 21.454 98.09 20.428 98.09C18.214 98.09 16.576 99.818 16.576 102.662C16.576 105.56 18.232 107.216 20.428 107.216C21.472 107.216 22.426 106.748 23.11 105.884V107H25.414ZM21.13 105.182C19.834 105.182 18.934 104.156 18.934 102.662C18.934 101.15 19.834 100.124 21.13 100.124C21.904 100.124 22.732 100.538 23.11 101.114V104.192C22.732 104.768 21.904 105.182 21.13 105.182ZM31.7669 107.216C33.1169 107.216 34.4849 106.802 35.3489 106.01L34.3409 104.534C33.7829 105.074 32.7569 105.398 32.0189 105.398C30.5429 105.398 29.6609 104.48 29.5169 103.382H35.9789V102.878C35.9789 100.034 34.2149 98.09 31.6229 98.09C28.9769 98.09 27.1229 100.124 27.1229 102.644C27.1229 105.434 29.1209 107.216 31.7669 107.216ZM33.7649 101.834H29.4809C29.5889 100.97 30.2009 99.908 31.6229 99.908C33.1349 99.908 33.7109 101.006 33.7649 101.834ZM40.7621 107.216C43.1741 107.216 44.5241 106.01 44.5241 104.426C44.5241 100.916 39.3761 101.996 39.3761 100.7C39.3761 100.214 39.9161 99.836 40.7441 99.836C41.8061 99.836 42.7961 100.286 43.3181 100.844L44.2361 99.278C43.3721 98.594 42.2021 98.09 40.7261 98.09C38.4401 98.09 37.1621 99.368 37.1621 100.826C37.1621 104.246 42.3281 103.076 42.3281 104.516C42.3281 105.056 41.8601 105.452 40.8701 105.452C39.7901 105.452 38.4941 104.858 37.8641 104.264L36.8741 105.866C37.7921 106.712 39.2501 107.216 40.7621 107.216ZM56.6817 107.216C59.3277 107.216 60.8397 105.758 61.7037 104.264L59.5077 103.202C59.0037 104.192 57.9237 104.948 56.6817 104.948C54.5037 104.948 52.9197 103.274 52.9197 101.006C52.9197 98.738 54.5037 97.064 56.6817 97.064C57.9237 97.064 59.0037 97.838 59.5077 98.81L61.7037 97.73C60.8577 96.236 59.3277 94.796 56.6817 94.796C53.0817 94.796 50.2917 97.316 50.2917 101.006C50.2917 104.696 53.0817 107.216 56.6817 107.216ZM70.6771 107V101.384C70.6771 98.882 68.8591 98.09 66.8791 98.09C65.5111 98.09 64.1431 98.522 63.0811 99.458L63.9451 100.988C64.6831 100.304 65.5471 99.962 66.4831 99.962C67.6351 99.962 68.3911 100.538 68.3911 101.42V102.59C67.8151 101.906 66.7891 101.528 65.6371 101.528C64.2511 101.528 62.6131 102.302 62.6131 104.336C62.6131 106.28 64.2511 107.216 65.6371 107.216C66.7711 107.216 67.7971 106.802 68.3911 106.1V107H70.6771ZM66.5551 105.668C65.6551 105.668 64.9171 105.2 64.9171 104.39C64.9171 103.544 65.6551 103.076 66.5551 103.076C67.2931 103.076 68.0131 103.328 68.3911 103.832V104.912C68.0131 105.416 67.2931 105.668 66.5551 105.668ZM77.9125 107.216C80.1445 107.216 81.7645 105.542 81.7645 102.644C81.7645 99.746 80.1445 98.09 77.9125 98.09C76.8505 98.09 75.8965 98.558 75.2305 99.404V98.306H72.9445V110.312H75.2305V105.884C75.9325 106.784 76.8865 107.216 77.9125 107.216ZM77.1925 105.182C76.4545 105.182 75.6085 104.732 75.2305 104.192V101.114C75.6085 100.556 76.4545 100.124 77.1925 100.124C78.5065 100.124 79.3885 101.15 79.3885 102.644C79.3885 104.156 78.5065 105.182 77.1925 105.182ZM84.5727 97.37C85.3287 97.37 85.9407 96.758 85.9407 96.002C85.9407 95.246 85.3287 94.652 84.5727 94.652C83.8347 94.652 83.2047 95.246 83.2047 96.002C83.2047 96.758 83.8347 97.37 84.5727 97.37ZM85.7247 107V98.306H83.4387V107H85.7247ZM90.9074 107.216C91.8614 107.216 92.4734 106.964 92.8154 106.658L92.3294 104.93C92.2034 105.056 91.8794 105.182 91.5374 105.182C91.0334 105.182 90.7454 104.768 90.7454 104.228V100.304H92.5094V98.306H90.7454V95.93H88.4414V98.306H87.0014V100.304H88.4414V104.84C88.4414 106.388 89.3054 107.216 90.9074 107.216ZM101.579 107V101.384C101.579 98.882 99.7615 98.09 97.7815 98.09C96.4135 98.09 95.0455 98.522 93.9835 99.458L94.8475 100.988C95.5855 100.304 96.4495 99.962 97.3855 99.962C98.5375 99.962 99.2935 100.538 99.2935 101.42V102.59C98.7175 101.906 97.6915 101.528 96.5395 101.528C95.1535 101.528 93.5155 102.302 93.5155 104.336C93.5155 106.28 95.1535 107.216 96.5395 107.216C97.6735 107.216 98.6995 106.802 99.2935 106.1V107H101.579ZM97.4575 105.668C96.5575 105.668 95.8195 105.2 95.8195 104.39C95.8195 103.544 96.5575 103.076 97.4575 103.076C98.1955 103.076 98.9155 103.328 99.2935 103.832V104.912C98.9155 105.416 98.1955 105.668 97.4575 105.668ZM112.001 107V98.306H109.715V104.192C109.319 104.696 108.617 105.182 107.735 105.182C106.763 105.182 106.133 104.786 106.133 103.58V98.306H103.847V104.48C103.847 106.172 104.747 107.216 106.655 107.216C108.077 107.216 109.121 106.568 109.715 105.902V107H112.001ZM122.209 107L119.095 102.536L122.011 98.306H119.455L117.673 100.988L115.873 98.306H113.317L116.215 102.536L113.137 107H115.675L117.673 104.066L119.653 107H122.209ZM19.744 131V126.734H22.804C25.396 126.734 26.836 124.952 26.836 122.864C26.836 120.758 25.414 118.994 22.804 118.994H17.188V131H19.744ZM22.462 124.484H19.744V121.244H22.462C23.47 121.244 24.226 121.856 24.226 122.864C24.226 123.854 23.47 124.484 22.462 124.484ZM30.6524 131V125.258C31.0304 124.7 32.0384 124.268 32.7944 124.268C33.0464 124.268 33.2624 124.286 33.4244 124.322V122.09C32.3444 122.09 31.2644 122.72 30.6524 123.494V122.306H28.3664V131H30.6524ZM38.8848 131.216C41.7648 131.216 43.4928 129.128 43.4928 126.644C43.4928 124.178 41.7648 122.09 38.8848 122.09C36.0228 122.09 34.2948 124.178 34.2948 126.644C34.2948 129.128 36.0228 131.216 38.8848 131.216ZM38.8848 129.182C37.4628 129.182 36.6708 128.012 36.6708 126.644C36.6708 125.294 37.4628 124.124 38.8848 124.124C40.3068 124.124 41.1168 125.294 41.1168 126.644C41.1168 128.012 40.3068 129.182 38.8848 129.182ZM50.1567 131.216C52.3887 131.216 54.0087 129.542 54.0087 126.644C54.0087 123.746 52.3887 122.09 50.1567 122.09C49.0947 122.09 48.1407 122.558 47.4747 123.404V122.306H45.1887V134.312H47.4747V129.884C48.1767 130.784 49.1307 131.216 50.1567 131.216ZM49.4367 129.182C48.6987 129.182 47.8527 128.732 47.4747 128.192V125.114C47.8527 124.556 48.6987 124.124 49.4367 124.124C50.7507 124.124 51.6327 125.15 51.6327 126.644C51.6327 128.156 50.7507 129.182 49.4367 129.182ZM57.9688 131V125.258C58.3468 124.7 59.3548 124.268 60.1108 124.268C60.3628 124.268 60.5788 124.286 60.7408 124.322V122.09C59.6608 122.09 58.5808 122.72 57.9688 123.494V122.306H55.6828V131H57.9688ZM66.2552 131.216C67.6052 131.216 68.9732 130.802 69.8372 130.01L68.8292 128.534C68.2712 129.074 67.2452 129.398 66.5072 129.398C65.0312 129.398 64.1492 128.48 64.0052 127.382H70.4672V126.878C70.4672 124.034 68.7032 122.09 66.1112 122.09C63.4652 122.09 61.6112 124.124 61.6112 126.644C61.6112 129.434 63.6092 131.216 66.2552 131.216ZM68.2532 125.834H63.9692C64.0772 124.97 64.6892 123.908 66.1112 123.908C67.6232 123.908 68.1992 125.006 68.2532 125.834ZM75.2504 131.216C77.6624 131.216 79.0124 130.01 79.0124 128.426C79.0124 124.916 73.8644 125.996 73.8644 124.7C73.8644 124.214 74.4044 123.836 75.2324 123.836C76.2944 123.836 77.2844 124.286 77.8064 124.844L78.7244 123.278C77.8604 122.594 76.6904 122.09 75.2144 122.09C72.9284 122.09 71.6504 123.368 71.6504 124.826C71.6504 128.246 76.8164 127.076 76.8164 128.516C76.8164 129.056 76.3484 129.452 75.3584 129.452C74.2784 129.452 72.9824 128.858 72.3524 128.264L71.3624 129.866C72.2804 130.712 73.7384 131.216 75.2504 131.216Z" fill="white"></path><g clip-path="url(#clip2_1574_4830)"><path d="M184.665 184H177.999V174H167.999V184H161.332L172.999 195.667L184.665 184ZM161.332 199V202.333H184.665V199H161.332Z" fill="#48785D"></path></g></g><defs><clipPath id="clip0_1574_4830"><rect width="209" height="222" rx="8" fill="white"></rect></clipPath><clipPath id="clip1_1574_4830"><rect width="40" height="40" fill="white" transform="translate(16 14)"></rect></clipPath><clipPath id="clip2_1574_4830"><rect width="40" height="40" fill="white" transform="translate(153 169)"></rect></clipPath></defs></svg>