<svg xmlns="http://www.w3.org/2000/svg" width="208" height="222" viewBox="0 0 208 222" fill="none"><g clip-path="url(#clip0_1_4600)"><rect width="208" height="222" rx="8" fill="#48785D"></rect><path d="M147.992 117.638L413.958 279.958L147.967 442.321L-118 280L147.992 117.638Z" fill="#E6B12E"></path><g clip-path="url(#clip1_1_4600)"><path d="M48.5 19.8333L46 17.3333L43.5 19.8333L41 17.3333L38.5 19.8333L36 17.3333L33.5 19.8333L31 17.3333L28.5 19.8333L26 17.3333V40.6667H21V45.6667C21 48.4333 23.2333 50.6667 26 50.6667H46C48.7667 50.6667 51 48.4333 51 45.6667V17.3333L48.5 19.8333ZM41 47.3333H26C25.0833 47.3333 24.3333 46.5833 24.3333 45.6667V44H41V47.3333ZM47.6667 45.6667C47.6667 46.5833 46.9167 47.3333 46 47.3333C45.0833 47.3333 44.3333 46.5833 44.3333 45.6667V40.6667H29.3333V22.3333H47.6667V45.6667Z" fill="#E6B12E"></path><path d="M41 25.6667H31V29H41V25.6667Z" fill="#E6B12E"></path><path d="M46 25.6667H42.6667V29H46V25.6667Z" fill="#E6B12E"></path><path d="M41 30.6667H31V34H41V30.6667Z" fill="#E6B12E"></path><path d="M46 30.6667H42.6667V34H46V30.6667Z" fill="#E6B12E"></path></g><path d="M19.744 83V77.996H25.558V75.8H19.744V73.19H25.684V70.994H17.188V83H19.744ZM29.7032 83V70.994H27.4172V83H29.7032ZM40.1239 83V74.306H37.8379V80.192C37.4419 80.696 36.7399 81.182 35.8579 81.182C34.8859 81.182 34.2559 80.786 34.2559 79.58V74.306H31.9699V80.48C31.9699 82.172 32.8699 83.216 34.7779 83.216C36.1999 83.216 37.2439 82.568 37.8379 81.902V83H40.1239ZM50.3318 83L47.2178 78.536L50.1338 74.306H47.5778L45.7958 76.988L43.9958 74.306H41.4398L44.3378 78.536L41.2598 83H43.7978L45.7958 80.066L47.7758 83H50.3318ZM60.8575 83C64.6195 83 67.2295 80.624 67.2295 77.006C67.2295 73.388 64.6195 70.994 60.8575 70.994H56.1235V83H60.8575ZM58.6795 73.244H60.8575C63.3235 73.244 64.6195 74.882 64.6195 77.006C64.6195 79.04 63.2335 80.75 60.8575 80.75H58.6795V73.244ZM68.4315 78.644C68.4315 81.434 70.4295 83.216 73.0755 83.216C74.4255 83.216 75.7755 82.82 76.6575 82.01L75.6495 80.534C75.0915 81.074 74.1375 81.398 73.3275 81.398C71.8515 81.398 70.9695 80.48 70.8255 79.382H77.2875V78.878C77.2875 76.034 75.5235 74.09 72.9315 74.09C70.2855 74.09 68.4315 76.124 68.4315 78.644ZM72.9315 75.908C74.4435 75.908 75.0195 77.006 75.0735 77.834H70.7895C70.8975 76.97 71.5095 75.908 72.9315 75.908ZM22.534 107V97.244H26.026V94.994H16.45V97.244H19.96V107H22.534ZM28.6661 107V101.258C29.0441 100.7 30.0521 100.286 30.8081 100.286C31.0601 100.286 31.2761 100.304 31.4381 100.34V98.108C30.3581 98.108 29.2781 98.72 28.6661 99.494V98.306H26.3801V107H28.6661ZM40.4624 94.4H38.3564L35.9444 96.992H37.5464L40.4624 94.4ZM32.3084 102.644C32.3084 105.434 34.3064 107.216 36.9524 107.216C38.3024 107.216 39.6524 106.82 40.5344 106.01L39.5264 104.534C38.9684 105.074 38.0144 105.398 37.2044 105.398C35.7284 105.398 34.8464 104.48 34.7024 103.382H41.1644V102.878C41.1644 100.034 39.4004 98.09 36.8084 98.09C34.1624 98.09 32.3084 100.124 32.3084 102.644ZM36.8084 99.908C38.3204 99.908 38.8964 101.006 38.9504 101.834H34.6664C34.7744 100.97 35.3864 99.908 36.8084 99.908ZM42.0596 105.866C42.9776 106.712 44.4356 107.216 45.9476 107.216C48.3596 107.216 49.7096 106.028 49.7096 104.426C49.7096 102.266 47.7116 101.87 46.2176 101.582C45.2456 101.384 44.5616 101.186 44.5616 100.646C44.5616 100.142 45.1016 99.836 45.9296 99.836C46.9916 99.836 47.9816 100.286 48.5036 100.844L49.4036 99.278C48.5576 98.594 47.3876 98.09 45.9116 98.09C43.6256 98.09 42.3476 99.368 42.3476 100.826C42.3476 102.896 44.2736 103.256 45.7676 103.544C46.7576 103.742 47.5136 103.958 47.5136 104.57C47.5136 105.11 47.0456 105.452 46.0556 105.452C44.9756 105.452 43.6796 104.858 43.0496 104.264L42.0596 105.866ZM55.4258 107.216C58.3058 107.216 60.0338 105.128 60.0338 102.644C60.0338 100.178 58.3058 98.09 55.4258 98.09C52.5638 98.09 50.8358 100.178 50.8358 102.644C50.8358 105.128 52.5638 107.216 55.4258 107.216ZM55.4258 105.182C54.0038 105.182 53.2118 104.012 53.2118 102.644C53.2118 101.294 54.0038 100.124 55.4258 100.124C56.8478 100.124 57.6578 101.294 57.6578 102.644C57.6578 104.012 56.8478 105.182 55.4258 105.182ZM64.0157 107V101.258C64.3937 100.7 65.4017 100.286 66.1577 100.286C66.4097 100.286 66.6257 100.304 66.7877 100.34V98.108C65.7077 98.108 64.6277 98.72 64.0157 99.494V98.306H61.7297V107H64.0157ZM67.658 102.644C67.658 105.434 69.656 107.216 72.302 107.216C73.652 107.216 75.002 106.82 75.884 106.01L74.876 104.534C74.318 105.074 73.364 105.398 72.554 105.398C71.078 105.398 70.196 104.48 70.052 103.382H76.514V102.878C76.514 100.034 74.75 98.09 72.158 98.09C69.512 98.09 67.658 100.124 67.658 102.644ZM72.158 99.908C73.67 99.908 74.246 101.006 74.3 101.834H70.016C70.124 100.97 70.736 99.908 72.158 99.908ZM80.4513 107V101.258C80.8293 100.7 81.8373 100.286 82.5933 100.286C82.8453 100.286 83.0613 100.304 83.2233 100.34V98.108C82.1433 98.108 81.0633 98.72 80.4513 99.494V98.306H78.1653V107H80.4513ZM85.7856 97.028C86.5416 97.028 87.1536 96.416 87.1536 95.66C87.1536 94.904 86.5416 94.292 85.7856 94.292C85.0476 94.292 84.4176 94.904 84.4176 95.66C84.4176 96.416 85.0476 97.028 85.7856 97.028ZM86.9376 107V98.306H84.6516V107H86.9376ZM88.6463 102.644C88.6463 105.434 90.6443 107.216 93.2903 107.216C94.6403 107.216 95.9903 106.82 96.8723 106.01L95.8643 104.534C95.3063 105.074 94.3523 105.398 93.5423 105.398C92.0663 105.398 91.1843 104.48 91.0403 103.382H97.5023V102.878C97.5023 100.034 95.7383 98.09 93.1463 98.09C90.5003 98.09 88.6463 100.124 88.6463 102.644ZM93.1463 99.908C94.6583 99.908 95.2343 101.006 95.2883 101.834H91.0043C91.1123 100.97 91.7243 99.908 93.1463 99.908Z" fill="white"></path><g clip-path="url(#clip2_1_4600)"><path d="M182.667 184H176V174H166V184H159.333L171 195.667L182.667 184ZM159.333 199V202.333H182.667V199H159.333Z" fill="#48785D"></path></g></g><defs><clipPath id="clip0_1_4600"><rect width="208" height="222" rx="8" fill="white"></rect></clipPath><clipPath id="clip1_1_4600"><rect width="40" height="40" fill="white" transform="translate(16 14)"></rect></clipPath><clipPath id="clip2_1_4600"><rect width="40" height="40" fill="white" transform="translate(151 169)"></rect></clipPath></defs></svg>