<svg xmlns="http://www.w3.org/2000/svg" width="343" height="80" viewBox="0 0 343 80" fill="none"><g clip-path="url(#clip0_14_4498)"><rect width="343" height="80" rx="8" fill="#48785D"></rect><path d="M569.99 -160.193L897.949 39.962L569.959 240.168L242 40.0132L569.99 -160.193Z" fill="#E6B12E"></path><g clip-path="url(#clip1_14_4498)"><path d="M56.5 25.8466L54 23.3466L51.5 25.8466L49 23.3466L46.5 25.8466L44 23.3466L41.5 25.8466L39 23.3466L36.5 25.8466L34 23.3466V46.6799H29V51.6799C29 54.4466 31.2333 56.6799 34 56.6799H54C56.7667 56.6799 59 54.4466 59 51.6799V23.3466L56.5 25.8466ZM49 53.3466H34C33.0833 53.3466 32.3333 52.5966 32.3333 51.6799V50.0132H49V53.3466ZM55.6667 51.6799C55.6667 52.5966 54.9167 53.3466 54 53.3466C53.0833 53.3466 52.3333 52.5966 52.3333 51.6799V46.6799H37.3333V28.3466H55.6667V51.6799Z" fill="#E6B12E"></path><path d="M49 31.6799H39V35.0133H49V31.6799Z" fill="#E6B12E"></path><path d="M54.0001 31.6799H50.6667V35.0133H54.0001V31.6799Z" fill="#E6B12E"></path><path d="M49 36.6799H39V40.0133H49V36.6799Z" fill="#E6B12E"></path><path d="M54.0001 36.6799H50.6667V40.0133H54.0001V36.6799Z" fill="#E6B12E"></path></g><path d="M81.912 34.2292C84.648 34.2292 86.16 32.7712 87.024 31.2772L84.828 30.2152C84.324 31.2052 83.244 31.9612 81.912 31.9612C79.824 31.9612 78.24 30.2872 78.24 28.0192C78.24 25.7512 79.824 24.0772 81.912 24.0772C83.244 24.0772 84.324 24.8512 84.828 25.8232L87.024 24.7432C86.178 23.2492 84.648 21.8092 81.912 21.8092C78.402 21.8092 75.612 24.3292 75.612 28.0192C75.612 31.7092 78.402 34.2292 81.912 34.2292ZM92.5234 34.2292C95.4034 34.2292 97.1314 32.1412 97.1314 29.6572C97.1314 27.1912 95.4034 25.1032 92.5234 25.1032C89.6614 25.1032 87.9334 27.1912 87.9334 29.6572C87.9334 32.1412 89.6614 34.2292 92.5234 34.2292ZM92.5234 32.1952C91.1014 32.1952 90.3094 31.0252 90.3094 29.6572C90.3094 28.3072 91.1014 27.1372 92.5234 27.1372C93.9454 27.1372 94.7554 28.3072 94.7554 29.6572C94.7554 31.0252 93.9454 32.1952 92.5234 32.1952ZM106.981 34.0132V27.8752C106.981 26.1832 106.063 25.1032 104.155 25.1032C102.733 25.1032 101.671 25.7872 101.113 26.4532V25.3192H98.8274V34.0132H101.113V28.1632C101.491 27.6412 102.193 27.1372 103.093 27.1372C104.065 27.1372 104.695 27.5512 104.695 28.7572V34.0132H106.981ZM108.495 32.8792C109.413 33.7252 110.871 34.2292 112.383 34.2292C114.795 34.2292 116.145 33.0412 116.145 31.4392C116.145 29.2792 114.147 28.8832 112.653 28.5952C111.681 28.3972 110.997 28.1992 110.997 27.6592C110.997 27.1552 111.537 26.8492 112.365 26.8492C113.427 26.8492 114.417 27.2992 114.939 27.8572L115.839 26.2912C114.993 25.6072 113.823 25.1032 112.347 25.1032C110.061 25.1032 108.783 26.3812 108.783 27.8392C108.783 29.9092 110.709 30.2692 112.203 30.5572C113.193 30.7552 113.949 30.9712 113.949 31.5832C113.949 32.1232 113.481 32.4652 112.491 32.4652C111.411 32.4652 110.115 31.8712 109.485 31.2772L108.495 32.8792ZM125.983 34.0132V25.3192H123.697V31.2052C123.301 31.7092 122.599 32.1952 121.717 32.1952C120.745 32.1952 120.115 31.7992 120.115 30.5932V25.3192H117.829V31.4932C117.829 33.1852 118.729 34.2292 120.637 34.2292C122.059 34.2292 123.103 33.5812 123.697 32.9152V34.0132H125.983ZM130.539 34.0132V22.0072H128.253V34.0132H130.539ZM135.722 34.2292C136.676 34.2292 137.288 33.9772 137.63 33.6712L137.144 31.9432C137.018 32.0692 136.694 32.1952 136.352 32.1952C135.848 32.1952 135.56 31.7812 135.56 31.2412V27.3172H137.324V25.3192H135.56V22.9432H133.256V25.3192H131.816V27.3172H133.256V31.8532C133.256 33.4012 134.12 34.2292 135.722 34.2292ZM138.33 29.6572C138.33 32.4472 140.328 34.2292 142.974 34.2292C144.324 34.2292 145.674 33.8332 146.556 33.0232L145.548 31.5472C144.99 32.0872 144.036 32.4112 143.226 32.4112C141.75 32.4112 140.868 31.4932 140.724 30.3952H147.186V29.8912C147.186 27.0472 145.422 25.1032 142.83 25.1032C140.184 25.1032 138.33 27.1372 138.33 29.6572ZM142.83 26.9212C144.342 26.9212 144.918 28.0192 144.972 28.8472H140.688C140.796 27.9832 141.408 26.9212 142.83 26.9212ZM155.551 34.0132V32.0152H151.501L155.479 26.9752V25.3192H148.459V27.3172H152.383L148.459 32.3032V34.0132H155.551ZM172.856 34.0132V22.0072H170.3V29.7832L164.738 22.0072H162.11V34.0132H164.666V25.9492L170.39 34.0132H172.856ZM179.201 34.2292C182.081 34.2292 183.809 32.1412 183.809 29.6572C183.809 27.1912 182.081 25.1032 179.201 25.1032C176.339 25.1032 174.611 27.1912 174.611 29.6572C174.611 32.1412 176.339 34.2292 179.201 34.2292ZM179.201 32.1952C177.779 32.1952 176.987 31.0252 176.987 29.6572C176.987 28.3072 177.779 27.1372 179.201 27.1372C180.623 27.1372 181.433 28.3072 181.433 29.6572C181.433 31.0252 180.623 32.1952 179.201 32.1952ZM184.749 32.8792C185.667 33.7252 187.125 34.2292 188.637 34.2292C191.049 34.2292 192.399 33.0412 192.399 31.4392C192.399 29.2792 190.401 28.8832 188.907 28.5952C187.935 28.3972 187.251 28.1992 187.251 27.6592C187.251 27.1552 187.791 26.8492 188.619 26.8492C189.681 26.8492 190.671 27.2992 191.193 27.8572L192.093 26.2912C191.247 25.6072 190.077 25.1032 188.601 25.1032C186.315 25.1032 185.037 26.3812 185.037 27.8392C185.037 29.9092 186.963 30.2692 188.457 30.5572C189.447 30.7552 190.203 30.9712 190.203 31.5832C190.203 32.1232 189.735 32.4652 188.745 32.4652C187.665 32.4652 186.369 31.8712 185.739 31.2772L184.749 32.8792ZM85.908 58.0132L83.208 53.4412C84.504 53.1352 85.836 52.0012 85.836 49.8772C85.836 47.6452 84.306 46.0072 81.804 46.0072H76.188V58.0132H78.744V53.7112H80.616L82.974 58.0132H85.908ZM83.226 49.8592C83.226 50.8672 82.452 51.5152 81.426 51.5152H78.744V48.2032H81.426C82.452 48.2032 83.226 48.8512 83.226 49.8592ZM94.8548 58.0132V52.3972C94.8548 49.8952 93.0368 49.1032 91.0568 49.1032C89.6888 49.1032 88.3208 49.5352 87.2588 50.4712L88.1228 52.0012C88.8608 51.3172 89.7248 50.9752 90.6608 50.9752C91.8128 50.9752 92.5688 51.5512 92.5688 52.4332V53.6392C91.9928 52.9372 90.9668 52.5772 89.8148 52.5772C88.4288 52.5772 86.7908 53.3152 86.7908 55.3492C86.7908 57.2932 88.4288 58.2292 89.8148 58.2292C90.9488 58.2292 91.9748 57.8152 92.5688 57.1132V58.0132H94.8548ZM92.5688 55.9252C92.1908 56.4292 91.4708 56.6812 90.7328 56.6812C89.8328 56.6812 89.0948 56.2132 89.0948 55.4032C89.0948 54.5752 89.8328 54.0892 90.7328 54.0892C91.4708 54.0892 92.1908 54.3412 92.5688 54.8452V55.9252ZM99.4083 56.8972C100.11 57.7972 101.064 58.2292 102.09 58.2292C104.322 58.2292 105.942 56.5552 105.942 53.6572C105.942 50.7592 104.322 49.1032 102.09 49.1032C101.028 49.1032 100.074 49.5712 99.4083 50.4172V49.3192H97.1223V61.3252H99.4083V56.8972ZM103.566 53.6572C103.566 55.1692 102.684 56.1952 101.37 56.1952C100.632 56.1952 99.7863 55.7452 99.4083 55.2052V52.1272C99.7863 51.5692 100.632 51.1372 101.37 51.1372C102.684 51.1372 103.566 52.1632 103.566 53.6572ZM109.938 56.8972C110.64 57.7972 111.594 58.2292 112.62 58.2292C114.852 58.2292 116.472 56.5552 116.472 53.6572C116.472 50.7592 114.852 49.1032 112.62 49.1032C111.558 49.1032 110.604 49.5712 109.938 50.4172V49.3192H107.652V61.3252H109.938V56.8972ZM114.096 53.6572C114.096 55.1692 113.214 56.1952 111.9 56.1952C111.162 56.1952 110.316 55.7452 109.938 55.2052V52.1272C110.316 51.5692 111.162 51.1372 111.9 51.1372C113.214 51.1372 114.096 52.1632 114.096 53.6572ZM122.213 58.2292C125.093 58.2292 126.821 56.1412 126.821 53.6572C126.821 51.1912 125.093 49.1032 122.213 49.1032C119.351 49.1032 117.623 51.1912 117.623 53.6572C117.623 56.1412 119.351 58.2292 122.213 58.2292ZM122.213 56.1952C120.791 56.1952 119.999 55.0252 119.999 53.6572C119.999 52.3072 120.791 51.1372 122.213 51.1372C123.635 51.1372 124.445 52.3072 124.445 53.6572C124.445 55.0252 123.635 56.1952 122.213 56.1952ZM130.803 58.0132V52.2712C131.181 51.7132 132.189 51.2992 132.945 51.2992C133.197 51.2992 133.413 51.3172 133.575 51.3532V49.1212C132.495 49.1212 131.415 49.7332 130.803 50.5072V49.3192H128.517V58.0132H130.803ZM137.919 58.2292C138.873 58.2292 139.485 57.9772 139.827 57.6712L139.341 55.9432C139.215 56.0692 138.891 56.1952 138.549 56.1952C138.045 56.1952 137.757 55.7812 137.757 55.2412V51.3172H139.521V49.3192H137.757V46.9432H135.453V49.3192H134.013V51.3172H135.453V55.8532C135.453 57.4012 136.317 58.2292 137.919 58.2292ZM140.329 56.8792C141.247 57.7252 142.705 58.2292 144.217 58.2292C146.629 58.2292 147.979 57.0412 147.979 55.4392C147.979 53.2792 145.981 52.8832 144.487 52.5952C143.515 52.3972 142.831 52.1992 142.831 51.6592C142.831 51.1552 143.371 50.8492 144.199 50.8492C145.261 50.8492 146.251 51.2992 146.773 51.8572L147.673 50.2912C146.827 49.6072 145.657 49.1032 144.181 49.1032C141.895 49.1032 140.617 50.3812 140.617 51.8392C140.617 53.9092 142.543 54.2692 144.037 54.5572C145.027 54.7552 145.783 54.9712 145.783 55.5832C145.783 56.1232 145.315 56.4652 144.325 56.4652C143.245 56.4652 141.949 55.8712 141.319 55.2772L140.329 56.8792ZM165.519 58.0132L160.893 46.0072H157.689L153.045 58.0132H155.853L156.609 55.9432H161.973L162.729 58.0132H165.519ZM161.271 53.7292H157.293L159.291 48.2212L161.271 53.7292ZM174.727 58.0132V51.8752C174.727 50.1832 173.809 49.1032 171.901 49.1032C170.479 49.1032 169.417 49.7872 168.859 50.4532V49.3192H166.573V58.0132H168.859V52.1632C169.237 51.6412 169.939 51.1372 170.839 51.1372C171.811 51.1372 172.441 51.5512 172.441 52.7572V58.0132H174.727ZM185.151 58.0132V51.8752C185.151 50.1832 184.233 49.1032 182.325 49.1032C180.903 49.1032 179.841 49.7872 179.283 50.4532V49.3192H176.997V58.0132H179.283V52.1632C179.661 51.6412 180.363 51.1372 181.263 51.1372C182.235 51.1372 182.865 51.5512 182.865 52.7572V58.0132H185.151ZM195.575 58.0132V49.3192H193.289V55.2052C192.893 55.7092 192.191 56.1952 191.309 56.1952C190.337 56.1952 189.707 55.7992 189.707 54.5932V49.3192H187.421V55.4932C187.421 57.1852 188.321 58.2292 190.229 58.2292C191.651 58.2292 192.695 57.5812 193.289 56.9152V58.0132H195.575ZM197.287 53.6572C197.287 56.4472 199.285 58.2292 201.931 58.2292C203.281 58.2292 204.631 57.8332 205.513 57.0232L204.505 55.5472C203.947 56.0872 202.993 56.4112 202.183 56.4112C200.707 56.4112 199.825 55.4932 199.681 54.3952H206.143V53.8912C206.143 51.0472 204.379 49.1032 201.787 49.1032C199.141 49.1032 197.287 51.1372 197.287 53.6572ZM201.787 50.9212C203.299 50.9212 203.875 52.0192 203.929 52.8472H199.645C199.753 51.9832 200.365 50.9212 201.787 50.9212ZM210.08 58.0132V46.0072H207.794V58.0132H210.08ZM211.591 56.8792C212.509 57.7252 213.967 58.2292 215.479 58.2292C217.891 58.2292 219.241 57.0412 219.241 55.4392C219.241 53.2792 217.243 52.8832 215.749 52.5952C214.777 52.3972 214.093 52.1992 214.093 51.6592C214.093 51.1552 214.633 50.8492 215.461 50.8492C216.523 50.8492 217.513 51.2992 218.035 51.8572L218.935 50.2912C218.089 49.6072 216.919 49.1032 215.443 49.1032C213.157 49.1032 211.879 50.3812 211.879 51.8392C211.879 53.9092 213.805 54.2692 215.299 54.5572C216.289 54.7552 217.045 54.9712 217.045 55.5832C217.045 56.1232 216.577 56.4652 215.587 56.4652C214.507 56.4652 213.211 55.8712 212.581 55.2772L211.591 56.8792Z" fill="white"></path><g clip-path="url(#clip2_14_4498)"><path d="M316 28.3466L313.65 30.6966L321.283 38.3466H294.333V41.6799H321.283L313.633 49.3299L316 51.6799L327.667 40.0132L316 28.3466Z" fill="#48785D"></path></g></g><defs><clipPath id="clip0_14_4498"><rect width="343" height="80" rx="8" fill="white"></rect></clipPath><clipPath id="clip1_14_4498"><rect width="40" height="40" fill="white" transform="translate(24 20.0132)"></rect></clipPath><clipPath id="clip2_14_4498"><rect width="40" height="40" fill="white" transform="translate(291 20.0132)"></rect></clipPath></defs></svg>