<svg xmlns="http://www.w3.org/2000/svg" width="209" height="222" viewBox="0 0 209 222" fill="none"><g clip-path="url(#clip0_1574_4327)"><rect width="209" height="222" rx="8" fill="#48785D"></rect><path d="M147.992 117.638L413.958 279.958L147.967 442.321L-118 280L147.992 117.638Z" fill="#E6B12E"></path><g clip-path="url(#clip1_1574_4327)"><path d="M48.5 19.8333L46 17.3333L43.5 19.8333L41 17.3333L38.5 19.8333L36 17.3333L33.5 19.8333L31 17.3333L28.5 19.8333L26 17.3333V40.6667H21V45.6667C21 48.4333 23.2333 50.6667 26 50.6667H46C48.7667 50.6667 51 48.4333 51 45.6667V17.3333L48.5 19.8333ZM41 47.3333H26C25.0833 47.3333 24.3333 46.5833 24.3333 45.6667V44H41V47.3333ZM47.6667 45.6667C47.6667 46.5833 46.9167 47.3333 46 47.3333C45.0833 47.3333 44.3333 46.5833 44.3333 45.6667V40.6667H29.3333V22.3333H47.6667V45.6667Z" fill="#E6B12E"></path><path d="M41 25.6667H31V29H41V25.6667Z" fill="#E6B12E"></path><path d="M46.0013 25.6667H42.668V29H46.0013V25.6667Z" fill="#E6B12E"></path><path d="M41 30.6667H31V34H41V30.6667Z" fill="#E6B12E"></path><path d="M46.0013 30.6667H42.668V34H46.0013V30.6667Z" fill="#E6B12E"></path></g><path d="M21.454 83.216C24.694 83.216 26.26 81.56 26.26 79.364C26.26 74.882 19.366 76.16 19.366 74.252C19.366 73.532 19.978 73.046 21.076 73.046C22.3 73.046 23.596 73.46 24.568 74.36L25.99 72.488C24.802 71.39 23.218 70.814 21.31 70.814C18.484 70.814 16.756 72.47 16.756 74.468C16.756 78.986 23.668 77.528 23.668 79.652C23.668 80.336 22.984 80.984 21.58 80.984C19.924 80.984 18.61 80.246 17.764 79.364L16.378 81.308C17.494 82.442 19.15 83.216 21.454 83.216ZM30.5969 83.216C31.5509 83.216 32.1629 82.964 32.5049 82.658L32.0189 80.93C31.8929 81.056 31.5689 81.182 31.2269 81.182C30.7229 81.182 30.4349 80.768 30.4349 80.228V76.304H32.1989V74.306H30.4349V71.93H28.1309V74.306H26.6909V76.304H28.1309V80.84C28.1309 82.388 28.9949 83.216 30.5969 83.216ZM41.2689 83V77.384C41.2689 74.882 39.4509 74.09 37.4709 74.09C36.1029 74.09 34.7349 74.522 33.6729 75.458L34.5369 76.988C35.2749 76.304 36.1389 75.962 37.0749 75.962C38.2269 75.962 38.9829 76.538 38.9829 77.42V78.59C38.4069 77.906 37.3809 77.528 36.2289 77.528C34.8429 77.528 33.2049 78.302 33.2049 80.336C33.2049 82.28 34.8429 83.216 36.2289 83.216C37.3629 83.216 38.3889 82.802 38.9829 82.1V83H41.2689ZM37.1469 81.668C36.2469 81.668 35.5089 81.2 35.5089 80.39C35.5089 79.544 36.2469 79.076 37.1469 79.076C37.8849 79.076 38.6049 79.328 38.9829 79.832V80.912C38.6049 81.416 37.8849 81.668 37.1469 81.668ZM46.4523 83.216C47.4063 83.216 48.0183 82.964 48.3603 82.658L47.8743 80.93C47.7483 81.056 47.4243 81.182 47.0823 81.182C46.5783 81.182 46.2903 80.768 46.2903 80.228V76.304H48.0543V74.306H46.2903V71.93H43.9863V74.306H42.5463V76.304H43.9863V80.84C43.9863 82.388 44.8503 83.216 46.4523 83.216ZM53.7044 83.216C55.0544 83.216 56.4224 82.802 57.2864 82.01L56.2784 80.534C55.7204 81.074 54.6944 81.398 53.9564 81.398C52.4804 81.398 51.5984 80.48 51.4544 79.382H57.9164V78.878C57.9164 76.034 56.1524 74.09 53.5604 74.09C50.9144 74.09 49.0604 76.124 49.0604 78.644C49.0604 81.434 51.0584 83.216 53.7044 83.216ZM55.7024 77.834H51.4184C51.5264 76.97 52.1384 75.908 53.5604 75.908C55.0724 75.908 55.6484 77.006 55.7024 77.834ZM72.6536 83V76.718C72.6536 74.936 71.6996 74.09 70.0976 74.09C68.7656 74.09 67.6136 74.882 67.1096 75.674C66.7856 74.684 65.9756 74.09 64.6976 74.09C63.3656 74.09 62.2136 74.918 61.8536 75.44V74.306H59.5676V83H61.8536V77.15C62.1956 76.664 62.8616 76.124 63.6536 76.124C64.5896 76.124 64.9496 76.7 64.9496 77.51V83H67.2536V77.132C67.5776 76.664 68.2436 76.124 69.0536 76.124C69.9896 76.124 70.3496 76.7 70.3496 77.51V83H72.6536ZM78.9817 83.216C80.3317 83.216 81.6997 82.802 82.5637 82.01L81.5557 80.534C80.9977 81.074 79.9717 81.398 79.2337 81.398C77.7577 81.398 76.8757 80.48 76.7317 79.382H83.1937V78.878C83.1937 76.034 81.4297 74.09 78.8377 74.09C76.1917 74.09 74.3377 76.124 74.3377 78.644C74.3377 81.434 76.3357 83.216 78.9817 83.216ZM80.9797 77.834H76.6957C76.8037 76.97 77.4157 75.908 78.8377 75.908C80.3497 75.908 80.9257 77.006 80.9797 77.834ZM92.9989 83V76.862C92.9989 75.17 92.0809 74.09 90.1729 74.09C88.7509 74.09 87.6889 74.774 87.1309 75.44V74.306H84.8449V83H87.1309V77.15C87.5089 76.628 88.2109 76.124 89.1109 76.124C90.0829 76.124 90.7129 76.538 90.7129 77.744V83H92.9989ZM98.1848 83.216C99.1388 83.216 99.7508 82.964 100.093 82.658L99.6068 80.93C99.4808 81.056 99.1568 81.182 98.8148 81.182C98.3108 81.182 98.0228 80.768 98.0228 80.228V76.304H99.7868V74.306H98.0228V71.93H95.7188V74.306H94.2788V76.304H95.7188V80.84C95.7188 82.388 96.5828 83.216 98.1848 83.216ZM109.988 83.216C112.868 83.216 114.596 81.128 114.596 78.644C114.596 76.178 112.868 74.09 109.988 74.09C107.126 74.09 105.398 76.178 105.398 78.644C105.398 81.128 107.126 83.216 109.988 83.216ZM109.988 81.182C108.566 81.182 107.774 80.012 107.774 78.644C107.774 77.294 108.566 76.124 109.988 76.124C111.41 76.124 112.22 77.294 112.22 78.644C112.22 80.012 111.41 81.182 109.988 81.182ZM119.1 83V76.304H120.864V74.306H119.1V73.838C119.1 73.028 119.55 72.614 120.18 72.614C120.594 72.614 120.9 72.74 121.134 72.974L121.998 71.624C121.44 71.03 120.558 70.814 119.73 70.814C117.984 70.814 116.796 71.984 116.796 73.838V74.306H115.356V76.304H116.796V83H119.1ZM23.002 107.216C25.648 107.216 27.16 105.758 28.024 104.264L25.828 103.202C25.324 104.192 24.244 104.948 23.002 104.948C20.824 104.948 19.24 103.274 19.24 101.006C19.24 98.738 20.824 97.064 23.002 97.064C24.244 97.064 25.324 97.838 25.828 98.81L28.024 97.73C27.178 96.236 25.648 94.796 23.002 94.796C19.402 94.796 16.612 97.316 16.612 101.006C16.612 104.696 19.402 107.216 23.002 107.216ZM37.6634 107V100.826C37.6634 99.134 36.7454 98.09 34.8374 98.09C33.4154 98.09 32.3354 98.774 31.7774 99.44V94.994H29.4914V107H31.7774V101.15C32.1734 100.628 32.8754 100.124 33.7574 100.124C34.7474 100.124 35.3774 100.502 35.3774 101.708V107H37.6634ZM47.4388 107V101.384C47.4388 98.882 45.6208 98.09 43.6408 98.09C42.2728 98.09 40.9048 98.522 39.8428 99.458L40.7068 100.988C41.4448 100.304 42.3088 99.962 43.2448 99.962C44.3968 99.962 45.1528 100.538 45.1528 101.42V102.59C44.5768 101.906 43.5508 101.528 42.3988 101.528C41.0128 101.528 39.3748 102.302 39.3748 104.336C39.3748 106.28 41.0128 107.216 42.3988 107.216C43.5328 107.216 44.5588 106.802 45.1528 106.1V107H47.4388ZM43.3168 105.668C42.4168 105.668 41.6788 105.2 41.6788 104.39C41.6788 103.544 42.4168 103.076 43.3168 103.076C44.0548 103.076 44.7748 103.328 45.1528 103.832V104.912C44.7748 105.416 44.0548 105.668 43.3168 105.668ZM57.8603 107V100.862C57.8603 99.17 56.9423 98.09 55.0343 98.09C53.6123 98.09 52.5503 98.774 51.9923 99.44V98.306H49.7063V107H51.9923V101.15C52.3703 100.628 53.0723 100.124 53.9723 100.124C54.9443 100.124 55.5743 100.538 55.5743 101.744V107H57.8603ZM63.6941 110.528C65.8361 110.528 68.3921 109.718 68.3921 106.406V98.306H66.0881V99.422C65.3861 98.54 64.4501 98.09 63.4061 98.09C61.2101 98.09 59.5721 99.674 59.5721 102.518C59.5721 105.416 61.2281 106.946 63.4061 106.946C64.4681 106.946 65.4041 106.442 66.0881 105.578V106.46C66.0881 108.17 64.7921 108.656 63.6941 108.656C62.5961 108.656 61.6781 108.35 60.9761 107.576L59.9501 109.232C61.0481 110.186 62.2001 110.528 63.6941 110.528ZM64.1261 104.912C62.8301 104.912 61.9301 104.012 61.9301 102.518C61.9301 101.024 62.8301 100.124 64.1261 100.124C64.8821 100.124 65.7101 100.538 66.0881 101.114V103.922C65.7101 104.48 64.8821 104.912 64.1261 104.912ZM74.7454 107.216C76.0954 107.216 77.4634 106.802 78.3274 106.01L77.3194 104.534C76.7614 105.074 75.7354 105.398 74.9974 105.398C73.5214 105.398 72.6394 104.48 72.4954 103.382H78.9574V102.878C78.9574 100.034 77.1934 98.09 74.6014 98.09C71.9554 98.09 70.1014 100.124 70.1014 102.644C70.1014 105.434 72.0994 107.216 74.7454 107.216ZM76.7434 101.834H72.4594C72.5674 100.97 73.1794 99.908 74.6014 99.908C76.1134 99.908 76.6894 101.006 76.7434 101.834ZM83.7406 107.216C86.1526 107.216 87.5026 106.01 87.5026 104.426C87.5026 100.916 82.3546 101.996 82.3546 100.7C82.3546 100.214 82.8946 99.836 83.7226 99.836C84.7846 99.836 85.7746 100.286 86.2966 100.844L87.2146 99.278C86.3506 98.594 85.1806 98.09 83.7046 98.09C81.4186 98.09 80.1406 99.368 80.1406 100.826C80.1406 104.246 85.3066 103.076 85.3066 104.516C85.3066 105.056 84.8386 105.452 83.8486 105.452C82.7686 105.452 81.4726 104.858 80.8426 104.264L79.8526 105.866C80.7706 106.712 82.2286 107.216 83.7406 107.216ZM94.9262 97.37C95.6822 97.37 96.2942 96.758 96.2942 96.002C96.2942 95.246 95.6822 94.652 94.9262 94.652C94.1882 94.652 93.5582 95.246 93.5582 96.002C93.5582 96.758 94.1882 97.37 94.9262 97.37ZM96.0782 107V98.306H93.7922V107H96.0782ZM106.499 107V100.862C106.499 99.17 105.581 98.09 103.673 98.09C102.251 98.09 101.189 98.774 100.631 99.44V98.306H98.3449V107H100.631V101.15C101.009 100.628 101.711 100.124 102.611 100.124C103.583 100.124 104.213 100.538 104.213 101.744V107H106.499ZM121.924 107V104.75H115.984V102.032H121.798V99.782H115.984V97.244H121.924V94.994H113.428V107H121.924ZM127.846 105.182C126.55 105.182 125.65 104.156 125.65 102.644C125.65 101.15 126.55 100.124 127.846 100.124C128.584 100.124 129.43 100.556 129.808 101.114V104.192C129.43 104.732 128.584 105.182 127.846 105.182ZM127.126 107.216C128.152 107.216 129.106 106.784 129.808 105.884V110.312H132.112V98.306H129.808V99.404C129.142 98.558 128.188 98.09 127.126 98.09C124.894 98.09 123.274 99.746 123.274 102.644C123.274 105.542 124.894 107.216 127.126 107.216ZM142.517 107V98.306H140.231V104.192C139.835 104.696 139.133 105.182 138.251 105.182C137.279 105.182 136.649 104.786 136.649 103.58V98.306H134.363V104.48C134.363 106.172 135.263 107.216 137.171 107.216C138.593 107.216 139.637 106.568 140.231 105.902V107H142.517ZM145.92 97.37C146.676 97.37 147.288 96.758 147.288 96.002C147.288 95.246 146.676 94.652 145.92 94.652C145.182 94.652 144.552 95.246 144.552 96.002C144.552 96.758 145.182 97.37 145.92 97.37ZM147.072 107V98.306H144.786V107H147.072ZM152.255 107.216C153.209 107.216 153.821 106.964 154.163 106.658L153.677 104.93C153.551 105.056 153.227 105.182 152.885 105.182C152.381 105.182 152.093 104.768 152.093 104.228V100.304H153.857V98.306H152.093V95.93H149.789V98.306H148.349V100.304H149.789V104.84C149.789 106.388 150.653 107.216 152.255 107.216ZM155.115 110.402C155.403 110.474 155.979 110.528 156.249 110.528C157.743 110.492 158.895 110.06 159.543 108.422L163.629 98.306H161.163L158.895 104.354L156.627 98.306H154.179L157.707 107.126L157.383 107.864C157.167 108.332 156.771 108.494 156.177 108.494C155.961 108.494 155.655 108.44 155.457 108.35L155.115 110.402Z" fill="white"></path><g clip-path="url(#clip2_1574_4327)"><path d="M184.665 184H177.999V174H167.999V184H161.332L172.999 195.667L184.665 184ZM161.332 199V202.333H184.665V199H161.332Z" fill="#48785D"></path></g></g><defs><clipPath id="clip0_1574_4327"><rect width="209" height="222" rx="8" fill="white"></rect></clipPath><clipPath id="clip1_1574_4327"><rect width="40" height="40" fill="white" transform="translate(16 14)"></rect></clipPath><clipPath id="clip2_1574_4327"><rect width="40" height="40" fill="white" transform="translate(153 169)"></rect></clipPath></defs></svg>