<svg xmlns="http://www.w3.org/2000/svg" width="671" height="80" viewBox="0 0 671 80" fill="none"><g clip-path="url(#clip0_14_4481)"><rect width="671" height="80" rx="8" fill="#48785D"></rect><path d="M897.99 -160.193L1225.95 39.962L897.959 240.168L570 40.0132L897.99 -160.193Z" fill="#E6B12E"></path><g clip-path="url(#clip1_14_4481)"><path d="M56.5 25.8334L54 23.3334L51.5 25.8334L49 23.3334L46.5 25.8334L44 23.3334L41.5 25.8334L39 23.3334L36.5 25.8334L34 23.3334V46.6667H29V51.6667C29 54.4334 31.2333 56.6667 34 56.6667H54C56.7667 56.6667 59 54.4334 59 51.6667V23.3334L56.5 25.8334ZM49 53.3334H34C33.0833 53.3334 32.3333 52.5834 32.3333 51.6667V50H49V53.3334ZM55.6667 51.6667C55.6667 52.5834 54.9167 53.3334 54 53.3334C53.0833 53.3334 52.3333 52.5834 52.3333 51.6667V46.6667H37.3333V28.3334H55.6667V51.6667Z" fill="#E6B12E"></path><path d="M49 31.6667H39V35.0001H49V31.6667Z" fill="#E6B12E"></path><path d="M54.0001 31.6667H50.6667V35.0001H54.0001V31.6667Z" fill="#E6B12E"></path><path d="M49 36.6667H39V40.0001H49V36.6667Z" fill="#E6B12E"></path><path d="M54.0001 36.6667H50.6667V40.0001H54.0001V36.6667Z" fill="#E6B12E"></path></g><path d="M81.912 46.216C84.648 46.216 86.16 44.758 87.024 43.264L84.828 42.202C84.324 43.192 83.244 43.948 81.912 43.948C79.824 43.948 78.24 42.274 78.24 40.006C78.24 37.738 79.824 36.064 81.912 36.064C83.244 36.064 84.324 36.838 84.828 37.81L87.024 36.73C86.178 35.236 84.648 33.796 81.912 33.796C78.402 33.796 75.612 36.316 75.612 40.006C75.612 43.696 78.402 46.216 81.912 46.216ZM92.5234 46.216C95.4034 46.216 97.1314 44.128 97.1314 41.644C97.1314 39.178 95.4034 37.09 92.5234 37.09C89.6614 37.09 87.9334 39.178 87.9334 41.644C87.9334 44.128 89.6614 46.216 92.5234 46.216ZM92.5234 44.182C91.1014 44.182 90.3094 43.012 90.3094 41.644C90.3094 40.294 91.1014 39.124 92.5234 39.124C93.9454 39.124 94.7554 40.294 94.7554 41.644C94.7554 43.012 93.9454 44.182 92.5234 44.182ZM106.981 46V39.862C106.981 38.17 106.063 37.09 104.155 37.09C102.733 37.09 101.671 37.774 101.113 38.44V37.306H98.8274V46H101.113V40.15C101.491 39.628 102.193 39.124 103.093 39.124C104.065 39.124 104.695 39.538 104.695 40.744V46H106.981ZM108.495 44.866C109.413 45.712 110.871 46.216 112.383 46.216C114.795 46.216 116.145 45.028 116.145 43.426C116.145 41.266 114.147 40.87 112.653 40.582C111.681 40.384 110.997 40.186 110.997 39.646C110.997 39.142 111.537 38.836 112.365 38.836C113.427 38.836 114.417 39.286 114.939 39.844L115.839 38.278C114.993 37.594 113.823 37.09 112.347 37.09C110.061 37.09 108.783 38.368 108.783 39.826C108.783 41.896 110.709 42.256 112.203 42.544C113.193 42.742 113.949 42.958 113.949 43.57C113.949 44.11 113.481 44.452 112.491 44.452C111.411 44.452 110.115 43.858 109.485 43.264L108.495 44.866ZM125.983 46V37.306H123.697V43.192C123.301 43.696 122.599 44.182 121.717 44.182C120.745 44.182 120.115 43.786 120.115 42.58V37.306H117.829V43.48C117.829 45.172 118.729 46.216 120.637 46.216C122.059 46.216 123.103 45.568 123.697 44.902V46H125.983ZM130.539 46V33.994H128.253V46H130.539ZM135.722 46.216C136.676 46.216 137.288 45.964 137.63 45.658L137.144 43.93C137.018 44.056 136.694 44.182 136.352 44.182C135.848 44.182 135.56 43.768 135.56 43.228V39.304H137.324V37.306H135.56V34.93H133.256V37.306H131.816V39.304H133.256V43.84C133.256 45.388 134.12 46.216 135.722 46.216ZM138.33 41.644C138.33 44.434 140.328 46.216 142.974 46.216C144.324 46.216 145.674 45.82 146.556 45.01L145.548 43.534C144.99 44.074 144.036 44.398 143.226 44.398C141.75 44.398 140.868 43.48 140.724 42.382H147.186V41.878C147.186 39.034 145.422 37.09 142.83 37.09C140.184 37.09 138.33 39.124 138.33 41.644ZM142.83 38.908C144.342 38.908 144.918 40.006 144.972 40.834H140.688C140.796 39.97 141.408 38.908 142.83 38.908ZM155.551 46V44.002H151.501L155.479 38.962V37.306H148.459V39.304H152.383L148.459 44.29V46H155.551ZM172.856 46V33.994H170.3V41.77L164.738 33.994H162.11V46H164.666V37.936L170.39 46H172.856ZM179.201 46.216C182.081 46.216 183.809 44.128 183.809 41.644C183.809 39.178 182.081 37.09 179.201 37.09C176.339 37.09 174.611 39.178 174.611 41.644C174.611 44.128 176.339 46.216 179.201 46.216ZM179.201 44.182C177.779 44.182 176.987 43.012 176.987 41.644C176.987 40.294 177.779 39.124 179.201 39.124C180.623 39.124 181.433 40.294 181.433 41.644C181.433 43.012 180.623 44.182 179.201 44.182ZM184.749 44.866C185.667 45.712 187.125 46.216 188.637 46.216C191.049 46.216 192.399 45.028 192.399 43.426C192.399 41.266 190.401 40.87 188.907 40.582C187.935 40.384 187.251 40.186 187.251 39.646C187.251 39.142 187.791 38.836 188.619 38.836C189.681 38.836 190.671 39.286 191.193 39.844L192.093 38.278C191.247 37.594 190.077 37.09 188.601 37.09C186.315 37.09 185.037 38.368 185.037 39.826C185.037 41.896 186.963 42.256 188.457 42.544C189.447 42.742 190.203 42.958 190.203 43.57C190.203 44.11 189.735 44.452 188.745 44.452C187.665 44.452 186.369 43.858 185.739 43.264L184.749 44.866ZM208.463 46L205.763 41.428C207.059 41.122 208.391 39.988 208.391 37.864C208.391 35.632 206.861 33.994 204.359 33.994H198.743V46H201.299V41.698H203.171L205.529 46H208.463ZM205.781 37.846C205.781 38.854 205.007 39.502 203.981 39.502H201.299V36.19H203.981C205.007 36.19 205.781 36.838 205.781 37.846ZM217.41 46V40.384C217.41 37.882 215.592 37.09 213.612 37.09C212.244 37.09 210.876 37.522 209.814 38.458L210.678 39.988C211.416 39.304 212.28 38.962 213.216 38.962C214.368 38.962 215.124 39.538 215.124 40.42V41.626C214.548 40.924 213.522 40.564 212.37 40.564C210.984 40.564 209.346 41.302 209.346 43.336C209.346 45.28 210.984 46.216 212.37 46.216C213.504 46.216 214.53 45.802 215.124 45.1V46H217.41ZM215.124 43.912C214.746 44.416 214.026 44.668 213.288 44.668C212.388 44.668 211.65 44.2 211.65 43.39C211.65 42.562 212.388 42.076 213.288 42.076C214.026 42.076 214.746 42.328 215.124 42.832V43.912ZM221.963 44.884C222.665 45.784 223.619 46.216 224.645 46.216C226.877 46.216 228.497 44.542 228.497 41.644C228.497 38.746 226.877 37.09 224.645 37.09C223.583 37.09 222.629 37.558 221.963 38.404V37.306H219.677V49.312H221.963V44.884ZM226.121 41.644C226.121 43.156 225.239 44.182 223.925 44.182C223.187 44.182 222.341 43.732 221.963 43.192V40.114C222.341 39.556 223.187 39.124 223.925 39.124C225.239 39.124 226.121 40.15 226.121 41.644ZM232.492 44.884C233.194 45.784 234.148 46.216 235.174 46.216C237.406 46.216 239.026 44.542 239.026 41.644C239.026 38.746 237.406 37.09 235.174 37.09C234.112 37.09 233.158 37.558 232.492 38.404V37.306H230.206V49.312H232.492V44.884ZM236.65 41.644C236.65 43.156 235.768 44.182 234.454 44.182C233.716 44.182 232.87 43.732 232.492 43.192V40.114C232.87 39.556 233.716 39.124 234.454 39.124C235.768 39.124 236.65 40.15 236.65 41.644ZM244.768 46.216C247.648 46.216 249.376 44.128 249.376 41.644C249.376 39.178 247.648 37.09 244.768 37.09C241.906 37.09 240.178 39.178 240.178 41.644C240.178 44.128 241.906 46.216 244.768 46.216ZM244.768 44.182C243.346 44.182 242.554 43.012 242.554 41.644C242.554 40.294 243.346 39.124 244.768 39.124C246.19 39.124 247 40.294 247 41.644C247 43.012 246.19 44.182 244.768 44.182ZM253.358 46V40.258C253.736 39.7 254.744 39.286 255.5 39.286C255.752 39.286 255.968 39.304 256.13 39.34V37.108C255.05 37.108 253.97 37.72 253.358 38.494V37.306H251.072V46H253.358ZM260.474 46.216C261.428 46.216 262.04 45.964 262.382 45.658L261.896 43.93C261.77 44.056 261.446 44.182 261.104 44.182C260.6 44.182 260.312 43.768 260.312 43.228V39.304H262.076V37.306H260.312V34.93H258.008V37.306H256.568V39.304H258.008V43.84C258.008 45.388 258.872 46.216 260.474 46.216ZM262.884 44.866C263.802 45.712 265.26 46.216 266.772 46.216C269.184 46.216 270.534 45.028 270.534 43.426C270.534 41.266 268.536 40.87 267.042 40.582C266.07 40.384 265.386 40.186 265.386 39.646C265.386 39.142 265.926 38.836 266.754 38.836C267.816 38.836 268.806 39.286 269.328 39.844L270.228 38.278C269.382 37.594 268.212 37.09 266.736 37.09C264.45 37.09 263.172 38.368 263.172 39.826C263.172 41.896 265.098 42.256 266.592 42.544C267.582 42.742 268.338 42.958 268.338 43.57C268.338 44.11 267.87 44.452 266.88 44.452C265.8 44.452 264.504 43.858 263.874 43.264L262.884 44.866ZM288.073 46L283.447 33.994H280.243L275.599 46H278.407L279.163 43.93H284.527L285.283 46H288.073ZM283.825 41.716H279.847L281.845 36.208L283.825 41.716ZM297.282 46V39.862C297.282 38.17 296.364 37.09 294.456 37.09C293.034 37.09 291.972 37.774 291.414 38.44V37.306H289.128V46H291.414V40.15C291.792 39.628 292.494 39.124 293.394 39.124C294.366 39.124 294.996 39.538 294.996 40.744V46H297.282ZM307.706 46V39.862C307.706 38.17 306.788 37.09 304.88 37.09C303.458 37.09 302.396 37.774 301.838 38.44V37.306H299.552V46H301.838V40.15C302.216 39.628 302.918 39.124 303.818 39.124C304.79 39.124 305.42 39.538 305.42 40.744V46H307.706ZM318.13 46V37.306H315.844V43.192C315.448 43.696 314.746 44.182 313.864 44.182C312.892 44.182 312.262 43.786 312.262 42.58V37.306H309.976V43.48C309.976 45.172 310.876 46.216 312.784 46.216C314.206 46.216 315.25 45.568 315.844 44.902V46H318.13ZM319.842 41.644C319.842 44.434 321.84 46.216 324.486 46.216C325.836 46.216 327.186 45.82 328.068 45.01L327.06 43.534C326.502 44.074 325.548 44.398 324.738 44.398C323.262 44.398 322.38 43.48 322.236 42.382H328.698V41.878C328.698 39.034 326.934 37.09 324.342 37.09C321.696 37.09 319.842 39.124 319.842 41.644ZM324.342 38.908C325.854 38.908 326.43 40.006 326.484 40.834H322.2C322.308 39.97 322.92 38.908 324.342 38.908ZM332.635 46V33.994H330.349V46H332.635ZM334.146 44.866C335.064 45.712 336.522 46.216 338.034 46.216C340.446 46.216 341.796 45.028 341.796 43.426C341.796 41.266 339.798 40.87 338.304 40.582C337.332 40.384 336.648 40.186 336.648 39.646C336.648 39.142 337.188 38.836 338.016 38.836C339.078 38.836 340.068 39.286 340.59 39.844L341.49 38.278C340.644 37.594 339.474 37.09 337.998 37.09C335.712 37.09 334.434 38.368 334.434 39.826C334.434 41.896 336.36 42.256 337.854 42.544C338.844 42.742 339.6 42.958 339.6 43.57C339.6 44.11 339.132 44.452 338.142 44.452C337.062 44.452 335.766 43.858 335.136 43.264L334.146 44.866Z" fill="white"></path><g clip-path="url(#clip2_14_4481)"><path d="M638 28.3334L635.65 30.6834L643.283 38.3334H616.333V41.6667H643.283L635.633 49.3167L638 51.6667L649.667 40L638 28.3334Z" fill="#48785D"></path></g></g><defs><clipPath id="clip0_14_4481"><rect width="671" height="80" rx="8" fill="white"></rect></clipPath><clipPath id="clip1_14_4481"><rect width="40" height="40" fill="white" transform="translate(24 20)"></rect></clipPath><clipPath id="clip2_14_4481"><rect width="40" height="40" fill="white" transform="translate(613 20)"></rect></clipPath></defs></svg>