<svg xmlns="http://www.w3.org/2000/svg" width="207" height="222" viewBox="0 0 207 222" fill="none"><g clip-path="url(#clip0_1_4655)"><rect width="207" height="222" rx="8" fill="#48785D"></rect><path d="M147.992 117.638L413.958 279.958L147.967 442.321L-118 280L147.992 117.638Z" fill="#E6B12E"></path><g clip-path="url(#clip1_1_4655)"><path d="M48.5 19.8333L46 17.3333L43.5 19.8333L41 17.3333L38.5 19.8333L36 17.3333L33.5 19.8333L31 17.3333L28.5 19.8333L26 17.3333V40.6666H21V45.6666C21 48.4333 23.2333 50.6666 26 50.6666H46C48.7667 50.6666 51 48.4333 51 45.6666V17.3333L48.5 19.8333ZM41 47.3333H26C25.0833 47.3333 24.3333 46.5833 24.3333 45.6666V44H41V47.3333ZM47.6667 45.6666C47.6667 46.5833 46.9167 47.3333 46 47.3333C45.0833 47.3333 44.3333 46.5833 44.3333 45.6666V40.6666H29.3333V22.3333H47.6667V45.6666Z" fill="#E6B12E"></path><path d="M41 25.6666H31V29H41V25.6666Z" fill="#E6B12E"></path><path d="M46 25.6666H42.6667V29H46V25.6666Z" fill="#E6B12E"></path><path d="M41 30.6666H31V34H41V30.6666Z" fill="#E6B12E"></path><path d="M46 30.6666H42.6667V34H46V30.6666Z" fill="#E6B12E"></path></g><path d="M25.684 83V80.786H19.744V77.996H25.558V75.8H19.744V73.19H25.684V70.994H17.188V83H25.684ZM26.8721 81.866C27.7901 82.712 29.2481 83.216 30.7601 83.216C33.1721 83.216 34.5221 82.028 34.5221 80.426C34.5221 78.266 32.5241 77.87 31.0301 77.582C30.0581 77.384 29.3741 77.186 29.3741 76.646C29.3741 76.142 29.9141 75.836 30.7421 75.836C31.8041 75.836 32.7941 76.286 33.3161 76.844L34.2161 75.278C33.3701 74.594 32.2001 74.09 30.7241 74.09C28.4381 74.09 27.1601 75.368 27.1601 76.826C27.1601 78.896 29.0861 79.256 30.5801 79.544C31.5701 79.742 32.3261 79.958 32.3261 80.57C32.3261 81.11 31.8581 81.452 30.8681 81.452C29.7881 81.452 28.4921 80.858 27.8621 80.264L26.8721 81.866ZM39.1223 83.216C40.0763 83.216 40.6883 82.964 41.0303 82.658L40.5443 80.93C40.4183 81.056 40.0943 81.182 39.7523 81.182C39.2483 81.182 38.9603 80.768 38.9603 80.228V76.304H40.7243V74.306H38.9603V71.93H36.6563V74.306H35.2163V76.304H36.6563V80.84C36.6563 82.388 37.5203 83.216 39.1223 83.216ZM49.7943 83V77.384C49.7943 74.882 47.9763 74.09 45.9963 74.09C44.6283 74.09 43.2603 74.522 42.1983 75.458L43.0623 76.988C43.8003 76.304 44.6643 75.962 45.6003 75.962C46.7523 75.962 47.5083 76.538 47.5083 77.42V78.626C46.9323 77.924 45.9063 77.564 44.7543 77.564C43.3683 77.564 41.7303 78.302 41.7303 80.336C41.7303 82.28 43.3683 83.216 44.7543 83.216C45.8883 83.216 46.9143 82.802 47.5083 82.1V83H49.7943ZM47.5083 80.912C47.1303 81.416 46.4103 81.668 45.6723 81.668C44.7723 81.668 44.0343 81.2 44.0343 80.39C44.0343 79.562 44.7723 79.076 45.6723 79.076C46.4103 79.076 47.1303 79.328 47.5083 79.832V80.912ZM60.3417 83V70.994H58.0377V75.422C57.3537 74.54 56.3817 74.09 55.3557 74.09C53.1417 74.09 51.5037 75.818 51.5037 78.662C51.5037 81.56 53.1597 83.216 55.3557 83.216C56.3997 83.216 57.3537 82.748 58.0377 81.902V83H60.3417ZM58.0377 80.192C57.6417 80.768 56.8317 81.182 56.0577 81.182C54.7617 81.182 53.8617 80.156 53.8617 78.662C53.8617 77.15 54.7617 76.124 56.0577 76.124C56.8317 76.124 57.6417 76.538 58.0377 77.114V80.192ZM66.6406 83.216C69.5206 83.216 71.2486 81.128 71.2486 78.644C71.2486 76.178 69.5206 74.09 66.6406 74.09C63.7786 74.09 62.0506 76.178 62.0506 78.644C62.0506 81.128 63.7786 83.216 66.6406 83.216ZM66.6406 81.182C65.2186 81.182 64.4266 80.012 64.4266 78.644C64.4266 77.294 65.2186 76.124 66.6406 76.124C68.0626 76.124 68.8726 77.294 68.8726 78.644C68.8726 80.012 68.0626 81.182 66.6406 81.182ZM82.338 83C86.1 83 88.71 80.624 88.71 77.006C88.71 73.388 86.1 70.994 82.338 70.994H77.604V83H82.338ZM80.16 73.244H82.338C84.804 73.244 86.1 74.882 86.1 77.006C86.1 79.04 84.714 80.75 82.338 80.75H80.16V73.244ZM89.9119 78.644C89.9119 81.434 91.9099 83.216 94.5559 83.216C95.9059 83.216 97.2559 82.82 98.1379 82.01L97.1299 80.534C96.5719 81.074 95.6179 81.398 94.8079 81.398C93.3319 81.398 92.4499 80.48 92.3059 79.382H98.7679V78.878C98.7679 76.034 97.0039 74.09 94.4119 74.09C91.7659 74.09 89.9119 76.124 89.9119 78.644ZM94.4119 75.908C95.9239 75.908 96.4999 77.006 96.5539 77.834H92.2699C92.3779 76.97 92.9899 75.908 94.4119 75.908ZM26.908 107L24.208 102.428C25.504 102.122 26.836 100.988 26.836 98.864C26.836 96.632 25.306 94.994 22.804 94.994H17.188V107H19.744V102.698H21.616L23.974 107H26.908ZM24.226 98.846C24.226 99.854 23.452 100.502 22.426 100.502H19.744V97.19H22.426C23.452 97.19 24.226 97.838 24.226 98.846ZM27.5975 102.644C27.5975 105.434 29.5955 107.216 32.2415 107.216C33.5915 107.216 34.9415 106.82 35.8235 106.01L34.8155 104.534C34.2575 105.074 33.3035 105.398 32.4935 105.398C31.0175 105.398 30.1355 104.48 29.9915 103.382H36.4535V102.878C36.4535 100.034 34.6895 98.09 32.0975 98.09C29.4515 98.09 27.5975 100.124 27.5975 102.644ZM32.0975 99.908C33.6095 99.908 34.1855 101.006 34.2395 101.834H29.9555C30.0635 100.97 30.6755 99.908 32.0975 99.908ZM37.3487 105.866C38.2667 106.712 39.7247 107.216 41.2367 107.216C43.6487 107.216 44.9987 106.028 44.9987 104.426C44.9987 102.266 43.0007 101.87 41.5067 101.582C40.5347 101.384 39.8507 101.186 39.8507 100.646C39.8507 100.142 40.3907 99.836 41.2187 99.836C42.2807 99.836 43.2707 100.286 43.7927 100.844L44.6927 99.278C43.8467 98.594 42.6767 98.09 41.2007 98.09C38.9147 98.09 37.6367 99.368 37.6367 100.826C37.6367 102.896 39.5627 103.256 41.0567 103.544C42.0467 103.742 42.8027 103.958 42.8027 104.57C42.8027 105.11 42.3347 105.452 41.3447 105.452C40.2647 105.452 38.9687 104.858 38.3387 104.264L37.3487 105.866ZM54.8368 107V98.306H52.5508V104.192C52.1548 104.696 51.4528 105.182 50.5708 105.182C49.5988 105.182 48.9688 104.786 48.9688 103.58V98.306H46.6828V104.48C46.6828 106.172 47.5828 107.216 49.4908 107.216C50.9128 107.216 51.9568 106.568 52.5508 105.902V107H54.8368ZM59.3927 107V94.994H57.1067V107H59.3927ZM64.5754 107.216C65.5294 107.216 66.1414 106.964 66.4834 106.658L65.9974 104.93C65.8714 105.056 65.5474 105.182 65.2054 105.182C64.7014 105.182 64.4134 104.768 64.4134 104.228V100.304H66.1774V98.306H64.4134V95.93H62.1094V98.306H60.6694V100.304H62.1094V104.84C62.1094 106.388 62.9734 107.216 64.5754 107.216ZM75.2474 107V101.384C75.2474 98.882 73.4294 98.09 71.4494 98.09C70.0814 98.09 68.7134 98.522 67.6514 99.458L68.5154 100.988C69.2534 100.304 70.1174 99.962 71.0534 99.962C72.2054 99.962 72.9614 100.538 72.9614 101.42V102.626C72.3854 101.924 71.3594 101.564 70.2074 101.564C68.8214 101.564 67.1834 102.302 67.1834 104.336C67.1834 106.28 68.8214 107.216 70.2074 107.216C71.3414 107.216 72.3674 106.802 72.9614 106.1V107H75.2474ZM72.9614 104.912C72.5834 105.416 71.8634 105.668 71.1254 105.668C70.2254 105.668 69.4874 105.2 69.4874 104.39C69.4874 103.562 70.2254 103.076 71.1254 103.076C71.8634 103.076 72.5834 103.328 72.9614 103.832V104.912ZM85.7949 107V94.994H83.4909V99.422C82.8069 98.54 81.8349 98.09 80.8089 98.09C78.5949 98.09 76.9569 99.818 76.9569 102.662C76.9569 105.56 78.6129 107.216 80.8089 107.216C81.8529 107.216 82.8069 106.748 83.4909 105.902V107H85.7949ZM83.4909 104.192C83.0949 104.768 82.2849 105.182 81.5109 105.182C80.2149 105.182 79.3149 104.156 79.3149 102.662C79.3149 101.15 80.2149 100.124 81.5109 100.124C82.2849 100.124 83.0949 100.538 83.4909 101.114V104.192ZM92.0937 107.216C94.9737 107.216 96.7017 105.128 96.7017 102.644C96.7017 100.178 94.9737 98.09 92.0937 98.09C89.2317 98.09 87.5037 100.178 87.5037 102.644C87.5037 105.128 89.2317 107.216 92.0937 107.216ZM92.0937 105.182C90.6717 105.182 89.8797 104.012 89.8797 102.644C89.8797 101.294 90.6717 100.124 92.0937 100.124C93.5157 100.124 94.3257 101.294 94.3257 102.644C94.3257 104.012 93.5157 105.182 92.0937 105.182ZM97.6417 105.866C98.5597 106.712 100.018 107.216 101.53 107.216C103.942 107.216 105.292 106.028 105.292 104.426C105.292 102.266 103.294 101.87 101.8 101.582C100.828 101.384 100.144 101.186 100.144 100.646C100.144 100.142 100.684 99.836 101.512 99.836C102.574 99.836 103.564 100.286 104.086 100.844L104.986 99.278C104.14 98.594 102.97 98.09 101.494 98.09C99.2077 98.09 97.9297 99.368 97.9297 100.826C97.9297 102.896 99.8557 103.256 101.35 103.544C102.34 103.742 103.096 103.958 103.096 104.57C103.096 105.11 102.628 105.452 101.638 105.452C100.558 105.452 99.2617 104.858 98.6317 104.264L97.6417 105.866Z" fill="white"></path><g clip-path="url(#clip2_1_4655)"><path d="M181.667 184H175V174H165V184H158.333L170 195.667L181.667 184ZM158.333 199V202.333H181.667V199H158.333Z" fill="#48785D"></path></g></g><defs><clipPath id="clip0_1_4655"><rect width="207" height="222" rx="8" fill="white"></rect></clipPath><clipPath id="clip1_1_4655"><rect width="40" height="40" fill="white" transform="translate(16 14)"></rect></clipPath><clipPath id="clip2_1_4655"><rect width="40" height="40" fill="white" transform="translate(150 169)"></rect></clipPath></defs></svg>