<svg xmlns="http://www.w3.org/2000/svg" width="208" height="222" viewBox="0 0 208 222" fill="none"><g clip-path="url(#clip0_1_4585)"><rect width="208" height="222" rx="8" fill="#48785D"></rect><path d="M147.992 117.638L413.958 279.958L147.967 442.321L-118 280L147.992 117.638Z" fill="#E6B12E"></path><g clip-path="url(#clip1_1_4585)"><path d="M48.5 19.8333L46 17.3333L43.5 19.8333L41 17.3333L38.5 19.8333L36 17.3333L33.5 19.8333L31 17.3333L28.5 19.8333L26 17.3333V40.6667H21V45.6667C21 48.4333 23.2333 50.6667 26 50.6667H46C48.7667 50.6667 51 48.4333 51 45.6667V17.3333L48.5 19.8333ZM41 47.3333H26C25.0833 47.3333 24.3333 46.5833 24.3333 45.6667V44H41V47.3333ZM47.6667 45.6667C47.6667 46.5833 46.9167 47.3333 46 47.3333C45.0833 47.3333 44.3333 46.5833 44.3333 45.6667V40.6667H29.3333V22.3333H47.6667V45.6667Z" fill="#E6B12E"></path><path d="M41 25.6667H31V29H41V25.6667Z" fill="#E6B12E"></path><path d="M46 25.6667H42.6667V29H46V25.6667Z" fill="#E6B12E"></path><path d="M41 30.6667H31V34H41V30.6667Z" fill="#E6B12E"></path><path d="M46 30.6667H42.6667V34H46V30.6667Z" fill="#E6B12E"></path></g><path d="M23.704 83C25.99 83 27.196 81.56 27.196 79.76C27.196 78.248 26.17 77.006 24.892 76.808C26.026 76.574 26.962 75.566 26.962 74.054C26.962 72.452 25.792 70.994 23.506 70.994H17.188V83H23.704ZM22.948 75.8H19.744V73.19H22.948C23.812 73.19 24.352 73.748 24.352 74.504C24.352 75.26 23.812 75.8 22.948 75.8ZM23.038 80.786H19.744V77.996H23.038C24.046 77.996 24.586 78.644 24.586 79.4C24.586 80.264 24.01 80.786 23.038 80.786ZM30.2035 73.37C30.9595 73.37 31.5715 72.758 31.5715 72.002C31.5715 71.246 30.9595 70.652 30.2035 70.652C29.4655 70.652 28.8355 71.246 28.8355 72.002C28.8355 72.758 29.4655 73.37 30.2035 73.37ZM31.3555 83V74.306H29.0695V83H31.3555ZM35.9083 83V70.994H33.6223V83H35.9083ZM45.681 83V77.384C45.681 74.882 43.863 74.09 41.883 74.09C40.515 74.09 39.147 74.522 38.085 75.458L38.949 76.988C39.687 76.304 40.551 75.962 41.487 75.962C42.639 75.962 43.395 76.538 43.395 77.42V78.59C42.819 77.906 41.793 77.528 40.641 77.528C39.255 77.528 37.617 78.302 37.617 80.336C37.617 82.28 39.255 83.216 40.641 83.216C41.775 83.216 42.801 82.802 43.395 82.1V83H45.681ZM41.559 81.668C40.659 81.668 39.921 81.2 39.921 80.39C39.921 79.544 40.659 79.076 41.559 79.076C42.297 79.076 43.017 79.328 43.395 79.832V80.912C43.017 81.416 42.297 81.668 41.559 81.668ZM56.1025 83V76.862C56.1025 75.17 55.1845 74.09 53.2765 74.09C51.8545 74.09 50.7925 74.774 50.2345 75.44V74.306H47.9485V83H50.2345V77.15C50.6125 76.628 51.3145 76.124 52.2145 76.124C53.1865 76.124 53.8165 76.538 53.8165 77.744V83H56.1025Z" fill="white"></path><g clip-path="url(#clip2_1_4585)"><path d="M175.667 184H169V174H159V184H152.333L164 195.667L175.667 184ZM152.333 199V202.333H175.667V199H152.333Z" fill="#48785D"></path></g></g><defs><clipPath id="clip0_1_4585"><rect width="208" height="222" rx="8" fill="white"></rect></clipPath><clipPath id="clip1_1_4585"><rect width="40" height="40" fill="white" transform="translate(16 14)"></rect></clipPath><clipPath id="clip2_1_4585"><rect width="40" height="40" fill="white" transform="translate(144 169)"></rect></clipPath></defs></svg>