<svg xmlns="http://www.w3.org/2000/svg" width="208" height="222" viewBox="0 0 208 222" fill="none"><g clip-path="url(#clip0_1_4075)"><rect width="208" height="222" rx="8" fill="#48785D"></rect><path d="M147.992 117.638L413.958 279.958L147.967 442.321L-118 280L147.992 117.638Z" fill="#E6B12E"></path><g clip-path="url(#clip1_1_4075)"><path d="M48.5 19.8333L46 17.3333L43.5 19.8333L41 17.3333L38.5 19.8333L36 17.3333L33.5 19.8333L31 17.3333L28.5 19.8333L26 17.3333V40.6667H21V45.6667C21 48.4333 23.2333 50.6667 26 50.6667H46C48.7667 50.6667 51 48.4333 51 45.6667V17.3333L48.5 19.8333ZM41 47.3333H26C25.0833 47.3333 24.3333 46.5833 24.3333 45.6667V44H41V47.3333ZM47.6667 45.6667C47.6667 46.5833 46.9167 47.3333 46 47.3333C45.0833 47.3333 44.3333 46.5833 44.3333 45.6667V40.6667H29.3333V22.3333H47.6667V45.6667Z" fill="#E6B12E"></path><path d="M41 25.6667H31V29H41V25.6667Z" fill="#E6B12E"></path><path d="M46 25.6667H42.6667V29H46V25.6667Z" fill="#E6B12E"></path><path d="M41 30.6667H31V34H41V30.6667Z" fill="#E6B12E"></path><path d="M46 30.6667H42.6667V34H46V30.6667Z" fill="#E6B12E"></path></g><path d="M23.704 83C25.99 83 27.196 81.56 27.196 79.76C27.196 78.248 26.17 77.006 24.892 76.808C26.026 76.574 26.962 75.566 26.962 74.054C26.962 72.452 25.792 70.994 23.506 70.994H17.188V83H23.704ZM22.948 75.8H19.744V73.19H22.948C23.812 73.19 24.352 73.748 24.352 74.504C24.352 75.26 23.812 75.8 22.948 75.8ZM23.038 80.786H19.744V77.996H23.038C24.046 77.996 24.586 78.644 24.586 79.4C24.586 80.264 24.01 80.786 23.038 80.786ZM36.5755 83V77.384C36.5755 74.882 34.7575 74.09 32.7775 74.09C31.4095 74.09 30.0415 74.522 28.9795 75.458L29.8435 76.988C30.5815 76.304 31.4455 75.962 32.3815 75.962C33.5335 75.962 34.2895 76.538 34.2895 77.42V78.59C33.7135 77.906 32.6875 77.528 31.5355 77.528C30.1495 77.528 28.5115 78.302 28.5115 80.336C28.5115 82.28 30.1495 83.216 31.5355 83.216C32.6695 83.216 33.6955 82.802 34.2895 82.1V83H36.5755ZM32.4535 81.668C31.5535 81.668 30.8155 81.2 30.8155 80.39C30.8155 79.544 31.5535 79.076 32.4535 79.076C33.1915 79.076 33.9115 79.328 34.2895 79.832V80.912C33.9115 81.416 33.1915 81.668 32.4535 81.668ZM41.129 83V70.994H38.843V83H41.129ZM50.9017 83V77.384C50.9017 74.882 49.0837 74.09 47.1037 74.09C45.7357 74.09 44.3677 74.522 43.3057 75.458L44.1697 76.988C44.9077 76.304 45.7717 75.962 46.7077 75.962C47.8597 75.962 48.6157 76.538 48.6157 77.42V78.59C48.0397 77.906 47.0137 77.528 45.8617 77.528C44.4757 77.528 42.8377 78.302 42.8377 80.336C42.8377 82.28 44.4757 83.216 45.8617 83.216C46.9957 83.216 48.0217 82.802 48.6157 82.1V83H50.9017ZM46.7797 81.668C45.8797 81.668 45.1417 81.2 45.1417 80.39C45.1417 79.544 45.8797 79.076 46.7797 79.076C47.5177 79.076 48.2377 79.328 48.6157 79.832V80.912C48.2377 81.416 47.5177 81.668 46.7797 81.668ZM61.3232 83V76.862C61.3232 75.17 60.4052 74.09 58.4972 74.09C57.0752 74.09 56.0132 74.774 55.4552 75.44V74.306H53.1692V83H55.4552V77.15C55.8332 76.628 56.5352 76.124 57.4352 76.124C58.4072 76.124 59.0372 76.538 59.0372 77.744V83H61.3232ZM67.643 83.216C69.425 83.216 70.505 82.442 71.081 81.632L69.587 80.246C69.173 80.822 68.543 81.182 67.751 81.182C66.365 81.182 65.393 80.156 65.393 78.644C65.393 77.132 66.365 76.124 67.751 76.124C68.543 76.124 69.173 76.448 69.587 77.06L71.081 75.656C70.505 74.864 69.425 74.09 67.643 74.09C64.961 74.09 63.035 75.98 63.035 78.644C63.035 81.326 64.961 83.216 67.643 83.216ZM76.6614 83.216C78.0114 83.216 79.3794 82.802 80.2434 82.01L79.2354 80.534C78.6774 81.074 77.6514 81.398 76.9134 81.398C75.4374 81.398 74.5554 80.48 74.4114 79.382H80.8734V78.878C80.8734 76.034 79.1094 74.09 76.5174 74.09C73.8714 74.09 72.0174 76.124 72.0174 78.644C72.0174 81.434 74.0154 83.216 76.6614 83.216ZM78.6594 77.834H74.3754C74.4834 76.97 75.0954 75.908 76.5174 75.908C78.0294 75.908 78.6054 77.006 78.6594 77.834ZM21.454 107.216C24.694 107.216 26.26 105.56 26.26 103.364C26.26 98.882 19.366 100.16 19.366 98.252C19.366 97.532 19.978 97.046 21.076 97.046C22.3 97.046 23.596 97.46 24.568 98.36L25.99 96.488C24.802 95.39 23.218 94.814 21.31 94.814C18.484 94.814 16.756 96.47 16.756 98.468C16.756 102.986 23.668 101.528 23.668 103.652C23.668 104.336 22.984 104.984 21.58 104.984C19.924 104.984 18.61 104.246 17.764 103.364L16.378 105.308C17.494 106.442 19.15 107.216 21.454 107.216ZM36.099 107V100.826C36.099 99.134 35.181 98.09 33.273 98.09C31.851 98.09 30.771 98.774 30.213 99.44V94.994H27.927V107H30.213V101.15C30.609 100.628 31.311 100.124 32.193 100.124C33.183 100.124 33.813 100.502 33.813 101.708V107H36.099ZM42.4544 107.216C43.8044 107.216 45.1724 106.802 46.0364 106.01L45.0284 104.534C44.4704 105.074 43.4444 105.398 42.7064 105.398C41.2304 105.398 40.3484 104.48 40.2044 103.382H46.6664V102.878C46.6664 100.034 44.9024 98.09 42.3104 98.09C39.6644 98.09 37.8104 100.124 37.8104 102.644C37.8104 105.434 39.8084 107.216 42.4544 107.216ZM44.4524 101.834H40.1684C40.2764 100.97 40.8884 99.908 42.3104 99.908C43.8224 99.908 44.3984 101.006 44.4524 101.834ZM52.4036 107.216C53.7536 107.216 55.1216 106.802 55.9856 106.01L54.9776 104.534C54.4196 105.074 53.3936 105.398 52.6556 105.398C51.1796 105.398 50.2976 104.48 50.1536 103.382H56.6156V102.878C56.6156 100.034 54.8516 98.09 52.2596 98.09C49.6136 98.09 47.7596 100.124 47.7596 102.644C47.7596 105.434 49.7576 107.216 52.4036 107.216ZM54.4016 101.834H50.1176C50.2256 100.97 50.8376 99.908 52.2596 99.908C53.7716 99.908 54.3476 101.006 54.4016 101.834ZM61.1828 107.216C62.1368 107.216 62.7488 106.964 63.0908 106.658L62.6048 104.93C62.4788 105.056 62.1548 105.182 61.8128 105.182C61.3088 105.182 61.0208 104.768 61.0208 104.228V100.304H62.7848V98.306H61.0208V95.93H58.7168V98.306H57.2768V100.304H58.7168V104.84C58.7168 106.388 59.5808 107.216 61.1828 107.216Z" fill="white"></path><g clip-path="url(#clip2_1_4075)"><path d="M175.667 184H169V174H159V184H152.333L164 195.667L175.667 184ZM152.333 199V202.333H175.667V199H152.333Z" fill="#48785D"></path></g></g><defs><clipPath id="clip0_1_4075"><rect width="208" height="222" rx="8" fill="white"></rect></clipPath><clipPath id="clip1_1_4075"><rect width="40" height="40" fill="white" transform="translate(16 14)"></rect></clipPath><clipPath id="clip2_1_4075"><rect width="40" height="40" fill="white" transform="translate(144 169)"></rect></clipPath></defs></svg>