<svg xmlns="http://www.w3.org/2000/svg" width="671" height="80" viewBox="0 0 671 80" fill="none"><g clip-path="url(#clip0_4_4129)"><rect width="671" height="80" rx="8" fill="#48785D"></rect><path d="M897.99 -160.193L1225.95 39.962L897.959 240.168L570 40.0132L897.99 -160.193Z" fill="#E6B12E"></path><g clip-path="url(#clip1_4_4129)"><path d="M56.5 25.8333L54 23.3333L51.5 25.8333L49 23.3333L46.5 25.8333L44 23.3333L41.5 25.8333L39 23.3333L36.5 25.8333L34 23.3333V46.6667H29V51.6667C29 54.4333 31.2333 56.6667 34 56.6667H54C56.7667 56.6667 59 54.4333 59 51.6667V23.3333L56.5 25.8333ZM49 53.3333H34C33.0833 53.3333 32.3333 52.5833 32.3333 51.6667V50H49V53.3333ZM55.6667 51.6667C55.6667 52.5833 54.9167 53.3333 54 53.3333C53.0833 53.3333 52.3333 52.5833 52.3333 51.6667V46.6667H37.3333V28.3333H55.6667V51.6667Z" fill="#E6B12E"></path><path d="M49 31.6667H39V35H49V31.6667Z" fill="#E6B12E"></path><path d="M54.0001 31.6667H50.6667V35H54.0001V31.6667Z" fill="#E6B12E"></path><path d="M49 36.6667H39V40H49V36.6667Z" fill="#E6B12E"></path><path d="M54.0001 36.6667H50.6667V40H54.0001V36.6667Z" fill="#E6B12E"></path></g><path d="M87.384 46L82.758 33.994H79.554L74.91 46H77.718L78.474 43.93H83.838L84.594 46H87.384ZM83.136 41.716H79.158L81.156 36.208L83.136 41.716ZM87.8807 41.644C87.8807 44.326 89.8067 46.216 92.4887 46.216C94.2707 46.216 95.3507 45.442 95.9267 44.632L94.4327 43.246C94.0187 43.822 93.3887 44.182 92.5967 44.182C91.2107 44.182 90.2387 43.156 90.2387 41.644C90.2387 40.132 91.2107 39.124 92.5967 39.124C93.3887 39.124 94.0187 39.466 94.4327 40.06L95.9267 38.674C95.3507 37.864 94.2707 37.09 92.4887 37.09C89.8067 37.09 87.8807 38.98 87.8807 41.644ZM96.8631 41.644C96.8631 44.326 98.7891 46.216 101.471 46.216C103.253 46.216 104.333 45.442 104.909 44.632L103.415 43.246C103.001 43.822 102.371 44.182 101.579 44.182C100.193 44.182 99.2211 43.156 99.2211 41.644C99.2211 40.132 100.193 39.124 101.579 39.124C102.371 39.124 103.001 39.466 103.415 40.06L104.909 38.674C104.333 37.864 103.253 37.09 101.471 37.09C98.7891 37.09 96.8631 38.98 96.8631 41.644ZM105.846 41.644C105.846 44.434 107.844 46.216 110.49 46.216C111.84 46.216 113.19 45.82 114.072 45.01L113.064 43.534C112.506 44.074 111.552 44.398 110.742 44.398C109.266 44.398 108.384 43.48 108.24 42.382H114.702V41.878C114.702 39.034 112.938 37.09 110.346 37.09C107.7 37.09 105.846 39.124 105.846 41.644ZM110.346 38.908C111.858 38.908 112.434 40.006 112.488 40.834H108.204C108.312 39.97 108.924 38.908 110.346 38.908ZM115.597 44.866C116.515 45.712 117.973 46.216 119.485 46.216C121.897 46.216 123.247 45.028 123.247 43.426C123.247 41.266 121.249 40.87 119.755 40.582C118.783 40.384 118.099 40.186 118.099 39.646C118.099 39.142 118.639 38.836 119.467 38.836C120.529 38.836 121.519 39.286 122.041 39.844L122.941 38.278C122.095 37.594 120.925 37.09 119.449 37.09C117.163 37.09 115.885 38.368 115.885 39.826C115.885 41.896 117.811 42.256 119.305 42.544C120.295 42.742 121.051 42.958 121.051 43.57C121.051 44.11 120.583 44.452 119.593 44.452C118.513 44.452 117.217 43.858 116.587 43.264L115.597 44.866ZM124.175 44.866C125.093 45.712 126.551 46.216 128.063 46.216C130.475 46.216 131.825 45.028 131.825 43.426C131.825 41.266 129.827 40.87 128.333 40.582C127.361 40.384 126.677 40.186 126.677 39.646C126.677 39.142 127.217 38.836 128.045 38.836C129.107 38.836 130.097 39.286 130.619 39.844L131.519 38.278C130.673 37.594 129.503 37.09 128.027 37.09C125.741 37.09 124.463 38.368 124.463 39.826C124.463 41.896 126.389 42.256 127.883 42.544C128.873 42.742 129.629 42.958 129.629 43.57C129.629 44.11 129.161 44.452 128.171 44.452C127.091 44.452 125.795 43.858 125.165 43.264L124.175 44.866ZM142.146 46.216C145.026 46.216 146.754 44.128 146.754 41.644C146.754 39.178 145.026 37.09 142.146 37.09C139.284 37.09 137.556 39.178 137.556 41.644C137.556 44.128 139.284 46.216 142.146 46.216ZM142.146 44.182C140.724 44.182 139.932 43.012 139.932 41.644C139.932 40.294 140.724 39.124 142.146 39.124C143.568 39.124 144.378 40.294 144.378 41.644C144.378 43.012 143.568 44.182 142.146 44.182ZM156.604 46V37.306H154.318V43.192C153.922 43.696 153.22 44.182 152.338 44.182C151.366 44.182 150.736 43.786 150.736 42.58V37.306H148.45V43.48C148.45 45.172 149.35 46.216 151.258 46.216C152.68 46.216 153.724 45.568 154.318 44.902V46H156.604ZM161.16 46V40.258C161.538 39.7 162.546 39.286 163.302 39.286C163.554 39.286 163.77 39.304 163.932 39.34V37.108C162.852 37.108 161.772 37.72 161.16 38.494V37.306H158.874V46H161.16ZM181.216 46L176.59 33.994H173.386L168.742 46H171.55L172.306 43.93H177.67L178.426 46H181.216ZM176.968 41.716H172.99L174.988 36.208L176.968 41.716ZM190.425 46V39.862C190.425 38.17 189.507 37.09 187.599 37.09C186.177 37.09 185.115 37.774 184.557 38.44V37.306H182.271V46H184.557V40.15C184.935 39.628 185.637 39.124 186.537 39.124C187.509 39.124 188.139 39.538 188.139 40.744V46H190.425ZM200.849 46V37.306H198.563V43.192C198.167 43.696 197.465 44.182 196.583 44.182C195.611 44.182 194.981 43.786 194.981 42.58V37.306H192.695V43.48C192.695 45.172 193.595 46.216 195.503 46.216C196.925 46.216 197.969 45.568 198.563 44.902V46H200.849ZM210.624 46V40.384C210.624 37.882 208.806 37.09 206.826 37.09C205.458 37.09 204.09 37.522 203.028 38.458L203.892 39.988C204.63 39.304 205.494 38.962 206.43 38.962C207.582 38.962 208.338 39.538 208.338 40.42V41.626C207.762 40.924 206.736 40.564 205.584 40.564C204.198 40.564 202.56 41.302 202.56 43.336C202.56 45.28 204.198 46.216 205.584 46.216C206.718 46.216 207.744 45.802 208.338 45.1V46H210.624ZM208.338 43.912C207.96 44.416 207.24 44.668 206.502 44.668C205.602 44.668 204.864 44.2 204.864 43.39C204.864 42.562 205.602 42.076 206.502 42.076C207.24 42.076 207.96 42.328 208.338 42.832V43.912ZM215.178 46V33.994H212.892V46H215.178ZM231.824 46L229.124 41.428C230.42 41.122 231.752 39.988 231.752 37.864C231.752 35.632 230.222 33.994 227.72 33.994H222.104V46H224.66V41.698H226.532L228.89 46H231.824ZM229.142 37.846C229.142 38.854 228.368 39.502 227.342 39.502H224.66V36.19H227.342C228.368 36.19 229.142 36.838 229.142 37.846ZM232.514 41.644C232.514 44.434 234.512 46.216 237.158 46.216C238.508 46.216 239.858 45.82 240.74 45.01L239.732 43.534C239.174 44.074 238.22 44.398 237.41 44.398C235.934 44.398 235.052 43.48 234.908 42.382H241.37V41.878C241.37 39.034 239.606 37.09 237.014 37.09C234.368 37.09 232.514 39.124 232.514 41.644ZM237.014 38.908C238.526 38.908 239.102 40.006 239.156 40.834H234.872C234.98 39.97 235.592 38.908 237.014 38.908ZM245.307 44.884C246.009 45.784 246.963 46.216 247.989 46.216C250.221 46.216 251.841 44.542 251.841 41.644C251.841 38.746 250.221 37.09 247.989 37.09C246.927 37.09 245.973 37.558 245.307 38.404V37.306H243.021V49.312H245.307V44.884ZM249.465 41.644C249.465 43.156 248.583 44.182 247.269 44.182C246.531 44.182 245.685 43.732 245.307 43.192V40.114C245.685 39.556 246.531 39.124 247.269 39.124C248.583 39.124 249.465 40.15 249.465 41.644ZM257.582 46.216C260.462 46.216 262.19 44.128 262.19 41.644C262.19 39.178 260.462 37.09 257.582 37.09C254.72 37.09 252.992 39.178 252.992 41.644C252.992 44.128 254.72 46.216 257.582 46.216ZM257.582 44.182C256.16 44.182 255.368 43.012 255.368 41.644C255.368 40.294 256.16 39.124 257.582 39.124C259.004 39.124 259.814 40.294 259.814 41.644C259.814 43.012 259.004 44.182 257.582 44.182ZM266.172 46V40.258C266.55 39.7 267.558 39.286 268.314 39.286C268.566 39.286 268.782 39.304 268.944 39.34V37.108C267.864 37.108 266.784 37.72 266.172 38.494V37.306H263.886V46H266.172ZM273.288 46.216C274.242 46.216 274.854 45.964 275.196 45.658L274.71 43.93C274.584 44.056 274.26 44.182 273.918 44.182C273.414 44.182 273.126 43.768 273.126 43.228V39.304H274.89V37.306H273.126V34.93H270.822V37.306H269.382V39.304H270.822V43.84C270.822 45.388 271.686 46.216 273.288 46.216ZM275.698 44.866C276.616 45.712 278.074 46.216 279.586 46.216C281.998 46.216 283.348 45.028 283.348 43.426C283.348 41.266 281.35 40.87 279.856 40.582C278.884 40.384 278.2 40.186 278.2 39.646C278.2 39.142 278.74 38.836 279.568 38.836C280.63 38.836 281.62 39.286 282.142 39.844L283.042 38.278C282.196 37.594 281.026 37.09 279.55 37.09C277.264 37.09 275.986 38.368 275.986 39.826C275.986 41.896 277.912 42.256 279.406 42.544C280.396 42.742 281.152 42.958 281.152 43.57C281.152 44.11 280.684 44.452 279.694 44.452C278.614 44.452 277.318 43.858 276.688 43.264L275.698 44.866Z" fill="white"></path><g clip-path="url(#clip2_4_4129)"><path d="M638 28.3333L635.65 30.6833L643.283 38.3333H616.333V41.6667H643.283L635.633 49.3167L638 51.6667L649.667 40L638 28.3333Z" fill="#48785D"></path></g></g><defs><clipPath id="clip0_4_4129"><rect width="671" height="80" rx="8" fill="white"></rect></clipPath><clipPath id="clip1_4_4129"><rect width="40" height="40" fill="white" transform="translate(24 20)"></rect></clipPath><clipPath id="clip2_4_4129"><rect width="40" height="40" fill="white" transform="translate(613 20)"></rect></clipPath></defs></svg>