<svg xmlns="http://www.w3.org/2000/svg" width="208" height="222" viewBox="0 0 208 222" fill="none"><g clip-path="url(#clip0_1_4670)"><rect width="208" height="222" rx="8" fill="#48785D"></rect><path d="M147.992 117.638L413.958 279.958L147.967 442.321L-118 280L147.992 117.638Z" fill="#E6B12E"></path><g clip-path="url(#clip1_1_4670)"><path d="M48.5 19.8333L46 17.3333L43.5 19.8333L41 17.3333L38.5 19.8333L36 17.3333L33.5 19.8333L31 17.3333L28.5 19.8333L26 17.3333V40.6666H21V45.6666C21 48.4333 23.2333 50.6666 26 50.6666H46C48.7667 50.6666 51 48.4333 51 45.6666V17.3333L48.5 19.8333ZM41 47.3333H26C25.0833 47.3333 24.3333 46.5833 24.3333 45.6666V44H41V47.3333ZM47.6667 45.6666C47.6667 46.5833 46.9167 47.3333 46 47.3333C45.0833 47.3333 44.3333 46.5833 44.3333 45.6666V40.6666H29.3333V22.3333H47.6667V45.6666Z" fill="#E6B12E"></path><path d="M41 25.6666H31V29H41V25.6666Z" fill="#E6B12E"></path><path d="M46 25.6666H42.6667V29H46V25.6666Z" fill="#E6B12E"></path><path d="M41 30.6666H31V34H41V30.6666Z" fill="#E6B12E"></path><path d="M46 30.6666H42.6667V34H46V30.6666Z" fill="#E6B12E"></path></g><path d="M23.704 83C25.99 83 27.196 81.56 27.196 79.76C27.196 78.248 26.17 77.006 24.892 76.808C26.026 76.574 26.962 75.566 26.962 74.054C26.962 72.452 25.792 70.994 23.506 70.994H17.188V83H23.704ZM19.744 73.172H22.948C23.812 73.172 24.352 73.748 24.352 74.486C24.352 75.26 23.812 75.818 22.948 75.818H19.744V73.172ZM19.744 77.996H23.038C24.046 77.996 24.586 78.644 24.586 79.4C24.586 80.264 24.01 80.822 23.038 80.822H19.744V77.996ZM36.5755 83V77.384C36.5755 74.882 34.7575 74.09 32.7775 74.09C31.4095 74.09 30.0415 74.522 28.9795 75.458L29.8435 76.988C30.5815 76.304 31.4455 75.962 32.3815 75.962C33.5335 75.962 34.2895 76.538 34.2895 77.42V78.626C33.7135 77.924 32.6875 77.564 31.5355 77.564C30.1495 77.564 28.5115 78.302 28.5115 80.336C28.5115 82.28 30.1495 83.216 31.5355 83.216C32.6695 83.216 33.6955 82.802 34.2895 82.1V83H36.5755ZM34.2895 80.912C33.9115 81.416 33.1915 81.668 32.4535 81.668C31.5535 81.668 30.8155 81.2 30.8155 80.39C30.8155 79.562 31.5535 79.076 32.4535 79.076C33.1915 79.076 33.9115 79.328 34.2895 79.832V80.912ZM41.129 83V70.994H38.843V83H41.129ZM50.9017 83V77.384C50.9017 74.882 49.0837 74.09 47.1037 74.09C45.7357 74.09 44.3677 74.522 43.3057 75.458L44.1697 76.988C44.9077 76.304 45.7717 75.962 46.7077 75.962C47.8597 75.962 48.6157 76.538 48.6157 77.42V78.626C48.0397 77.924 47.0137 77.564 45.8617 77.564C44.4757 77.564 42.8377 78.302 42.8377 80.336C42.8377 82.28 44.4757 83.216 45.8617 83.216C46.9957 83.216 48.0217 82.802 48.6157 82.1V83H50.9017ZM48.6157 80.912C48.2377 81.416 47.5177 81.668 46.7797 81.668C45.8797 81.668 45.1417 81.2 45.1417 80.39C45.1417 79.562 45.8797 79.076 46.7797 79.076C47.5177 79.076 48.2377 79.328 48.6157 79.832V80.912ZM61.3232 83V76.862C61.3232 75.17 60.4052 74.09 58.4972 74.09C57.0752 74.09 56.0132 74.774 55.4552 75.44V74.306H53.1692V83H55.4552V77.15C55.8332 76.628 56.5352 76.124 57.4352 76.124C58.4072 76.124 59.0372 76.538 59.0372 77.744V83H61.3232ZM63.035 78.644C63.035 81.326 64.961 83.216 67.643 83.216C69.425 83.216 70.505 82.442 71.081 81.632L69.587 80.246C69.173 80.822 68.543 81.182 67.751 81.182C66.365 81.182 65.393 80.156 65.393 78.644C65.393 77.132 66.365 76.124 67.751 76.124C68.543 76.124 69.173 76.466 69.587 77.06L71.081 75.674C70.505 74.864 69.425 74.09 67.643 74.09C64.961 74.09 63.035 75.98 63.035 78.644ZM72.0174 78.644C72.0174 81.434 74.0154 83.216 76.6614 83.216C78.0114 83.216 79.3614 82.82 80.2434 82.01L79.2354 80.534C78.6774 81.074 77.7234 81.398 76.9134 81.398C75.4374 81.398 74.5554 80.48 74.4114 79.382H80.8734V78.878C80.8734 76.034 79.1094 74.09 76.5174 74.09C73.8714 74.09 72.0174 76.124 72.0174 78.644ZM76.5174 75.908C78.0294 75.908 78.6054 77.006 78.6594 77.834H74.3754C74.4834 76.97 75.0954 75.908 76.5174 75.908ZM16.612 101.006C16.612 104.786 19.492 107.234 23.002 107.234C25.18 107.234 26.89 106.334 28.114 104.966V100.376H22.39V102.572H25.594V104.03C25.072 104.498 24.1 104.948 23.002 104.948C20.824 104.948 19.24 103.274 19.24 101.006C19.24 98.738 20.824 97.064 23.002 97.064C24.262 97.064 25.288 97.73 25.846 98.576L27.97 97.424C27.052 96.002 25.486 94.796 23.002 94.796C19.492 94.796 16.612 97.208 16.612 101.006ZM29.5311 102.644C29.5311 105.434 31.5291 107.216 34.1751 107.216C35.5251 107.216 36.8751 106.82 37.7571 106.01L36.7491 104.534C36.1911 105.074 35.2371 105.398 34.4271 105.398C32.9511 105.398 32.0691 104.48 31.9251 103.382H38.3871V102.878C38.3871 100.034 36.6231 98.09 34.0311 98.09C31.3851 98.09 29.5311 100.124 29.5311 102.644ZM34.0311 99.908C35.5431 99.908 36.1191 101.006 36.1731 101.834H31.8891C31.9971 100.97 32.6091 99.908 34.0311 99.908ZM48.1923 107V100.862C48.1923 99.17 47.2743 98.09 45.3663 98.09C43.9443 98.09 42.8823 98.774 42.3243 99.44V98.306H40.0383V107H42.3243V101.15C42.7023 100.628 43.4043 100.124 44.3043 100.124C45.2763 100.124 45.9063 100.538 45.9063 101.744V107H48.1923ZM49.9041 102.644C49.9041 105.434 51.9021 107.216 54.5481 107.216C55.8981 107.216 57.2481 106.82 58.1301 106.01L57.1221 104.534C56.5641 105.074 55.6101 105.398 54.8001 105.398C53.3241 105.398 52.4421 104.48 52.2981 103.382H58.7601V102.878C58.7601 100.034 56.9961 98.09 54.4041 98.09C51.7581 98.09 49.9041 100.124 49.9041 102.644ZM54.4041 99.908C55.9161 99.908 56.4921 101.006 56.5461 101.834H52.2621C52.3701 100.97 52.9821 99.908 54.4041 99.908ZM62.6973 107V101.258C63.0753 100.7 64.0833 100.286 64.8393 100.286C65.0913 100.286 65.3073 100.304 65.4693 100.34V98.108C64.3893 98.108 63.3093 98.72 62.6973 99.494V98.306H60.4113V107H62.6973ZM74.4037 107V101.384C74.4037 98.882 72.5857 98.09 70.6057 98.09C69.2377 98.09 67.8697 98.522 66.8077 99.458L67.6717 100.988C68.4097 100.304 69.2737 99.962 70.2097 99.962C71.3617 99.962 72.1177 100.538 72.1177 101.42V102.626C71.5417 101.924 70.5157 101.564 69.3637 101.564C67.9777 101.564 66.3397 102.302 66.3397 104.336C66.3397 106.28 67.9777 107.216 69.3637 107.216C70.4977 107.216 71.5237 106.802 72.1177 106.1V107H74.4037ZM72.1177 104.912C71.7397 105.416 71.0197 105.668 70.2817 105.668C69.3817 105.668 68.6437 105.2 68.6437 104.39C68.6437 103.562 69.3817 103.076 70.2817 103.076C71.0197 103.076 71.7397 103.328 72.1177 103.832V104.912ZM78.9571 107V94.994H76.6711V107H78.9571Z" fill="white"></path><g clip-path="url(#clip2_1_4670)"><path d="M175.667 184H169V174H159V184H152.333L164 195.667L175.667 184ZM152.333 199V202.333H175.667V199H152.333Z" fill="#48785D"></path></g></g><defs><clipPath id="clip0_1_4670"><rect width="208" height="222" rx="8" fill="white"></rect></clipPath><clipPath id="clip1_1_4670"><rect width="40" height="40" fill="white" transform="translate(16 14)"></rect></clipPath><clipPath id="clip2_1_4670"><rect width="40" height="40" fill="white" transform="translate(144 169)"></rect></clipPath></defs></svg>