<svg xmlns="http://www.w3.org/2000/svg" width="208" height="222" viewBox="0 0 208 222" fill="none"><g clip-path="url(#clip0_1_4685)"><rect width="208" height="222" rx="8" fill="#48785D"></rect><path d="M147.992 117.638L413.958 279.958L147.967 442.321L-118 280L147.992 117.638Z" fill="#E6B12E"></path><g clip-path="url(#clip1_1_4685)"><path d="M48.5 19.8333L46 17.3333L43.5 19.8333L41 17.3333L38.5 19.8333L36 17.3333L33.5 19.8333L31 17.3333L28.5 19.8333L26 17.3333V40.6666H21V45.6666C21 48.4333 23.2333 50.6666 26 50.6666H46C48.7667 50.6666 51 48.4333 51 45.6666V17.3333L48.5 19.8333ZM41 47.3333H26C25.0833 47.3333 24.3333 46.5833 24.3333 45.6666V44H41V47.3333ZM47.6667 45.6666C47.6667 46.5833 46.9167 47.3333 46 47.3333C45.0833 47.3333 44.3333 46.5833 44.3333 45.6666V40.6666H29.3333V22.3333H47.6667V45.6666Z" fill="#E6B12E"></path><path d="M41 25.6666H31V29H41V25.6666Z" fill="#E6B12E"></path><path d="M46 25.6666H42.6667V29H46V25.6666Z" fill="#E6B12E"></path><path d="M41 30.6666H31V34H41V30.6666Z" fill="#E6B12E"></path><path d="M46 30.6666H42.6667V34H46V30.6666Z" fill="#E6B12E"></path></g><path d="M19.744 83V77.996H25.558V75.8H19.744V73.19H25.684V70.994H17.188V83H19.744ZM29.7032 83V70.994H27.4172V83H29.7032ZM40.1239 83V74.306H37.8379V80.192C37.4419 80.696 36.7399 81.182 35.8579 81.182C34.8859 81.182 34.2559 80.786 34.2559 79.58V74.306H31.9699V80.48C31.9699 82.172 32.8699 83.216 34.7779 83.216C36.1999 83.216 37.2439 82.568 37.8379 81.902V83H40.1239ZM43.5278 73.028C44.2838 73.028 44.8958 72.416 44.8958 71.66C44.8958 70.904 44.2838 70.292 43.5278 70.292C42.7898 70.292 42.1598 70.904 42.1598 71.66C42.1598 72.416 42.7898 73.028 43.5278 73.028ZM42.3938 74.306V83.234C42.3938 84.206 41.9078 84.62 41.2418 84.62C41.0978 84.62 40.8818 84.602 40.7378 84.566L40.5938 86.438C40.8638 86.492 41.1698 86.528 41.5838 86.528C43.6718 86.528 44.6798 85.214 44.6798 83.234V74.306H42.3938ZM50.9785 83.216C53.8585 83.216 55.5865 81.128 55.5865 78.644C55.5865 76.178 53.8585 74.09 50.9785 74.09C48.1165 74.09 46.3885 76.178 46.3885 78.644C46.3885 81.128 48.1165 83.216 50.9785 83.216ZM50.9785 81.182C49.5565 81.182 48.7645 80.012 48.7645 78.644C48.7645 77.294 49.5565 76.124 50.9785 76.124C52.4005 76.124 53.2105 77.294 53.2105 78.644C53.2105 80.012 52.4005 81.182 50.9785 81.182ZM21.922 107C25.684 107 28.294 104.624 28.294 101.006C28.294 97.388 25.684 94.994 21.922 94.994H17.188V107H21.922ZM19.744 97.244H21.922C24.388 97.244 25.684 98.882 25.684 101.006C25.684 103.04 24.298 104.75 21.922 104.75H19.744V97.244ZM29.4959 102.644C29.4959 105.434 31.4939 107.216 34.1399 107.216C35.4899 107.216 36.8399 106.82 37.7219 106.01L36.7139 104.534C36.1559 105.074 35.2019 105.398 34.3919 105.398C32.9159 105.398 32.0339 104.48 31.8899 103.382H38.3519V102.878C38.3519 100.034 36.5879 98.09 33.9959 98.09C31.3499 98.09 29.4959 100.124 29.4959 102.644ZM33.9959 99.908C35.5079 99.908 36.0839 101.006 36.1379 101.834H31.8539C31.9619 100.97 32.5739 99.908 33.9959 99.908ZM50.3866 107.216C53.1226 107.216 54.6346 105.758 55.4986 104.264L53.3026 103.202C52.7986 104.192 51.7186 104.948 50.3866 104.948C48.2986 104.948 46.7146 103.274 46.7146 101.006C46.7146 98.738 48.2986 97.064 50.3866 97.064C51.7186 97.064 52.7986 97.838 53.3026 98.81L55.4986 97.73C54.6526 96.236 53.1226 94.796 50.3866 94.796C46.8766 94.796 44.0866 97.316 44.0866 101.006C44.0866 104.696 46.8766 107.216 50.3866 107.216ZM64.472 107V101.384C64.472 98.882 62.654 98.09 60.674 98.09C59.306 98.09 57.938 98.522 56.876 99.458L57.74 100.988C58.478 100.304 59.342 99.962 60.278 99.962C61.43 99.962 62.186 100.538 62.186 101.42V102.626C61.61 101.924 60.584 101.564 59.432 101.564C58.046 101.564 56.408 102.302 56.408 104.336C56.408 106.28 58.046 107.216 59.432 107.216C60.566 107.216 61.592 106.802 62.186 106.1V107H64.472ZM62.186 104.912C61.808 105.416 61.088 105.668 60.35 105.668C59.45 105.668 58.712 105.2 58.712 104.39C58.712 103.562 59.45 103.076 60.35 103.076C61.088 103.076 61.808 103.328 62.186 103.832V104.912ZM67.8735 97.028C68.6295 97.028 69.2415 96.416 69.2415 95.66C69.2415 94.904 68.6295 94.292 67.8735 94.292C67.1355 94.292 66.5055 94.904 66.5055 95.66C66.5055 96.416 67.1355 97.028 67.8735 97.028ZM66.7395 98.306V107.234C66.7395 108.206 66.2535 108.62 65.5875 108.62C65.4435 108.62 65.2275 108.602 65.0835 108.566L64.9395 110.438C65.2095 110.492 65.5155 110.528 65.9295 110.528C68.0175 110.528 69.0255 109.214 69.0255 107.234V98.306H66.7395ZM78.7982 107V101.384C78.7982 98.882 76.9802 98.09 75.0002 98.09C73.6322 98.09 72.2642 98.522 71.2022 99.458L72.0662 100.988C72.8042 100.304 73.6682 99.962 74.6042 99.962C75.7562 99.962 76.5122 100.538 76.5122 101.42V102.626C75.9362 101.924 74.9102 101.564 73.7582 101.564C72.3722 101.564 70.7342 102.302 70.7342 104.336C70.7342 106.28 72.3722 107.216 73.7582 107.216C74.8922 107.216 75.9182 106.802 76.5122 106.1V107H78.7982ZM76.5122 104.912C76.1342 105.416 75.4142 105.668 74.6762 105.668C73.7762 105.668 73.0382 105.2 73.0382 104.39C73.0382 103.562 73.7762 103.076 74.6762 103.076C75.4142 103.076 76.1342 103.328 76.5122 103.832V104.912Z" fill="white"></path><g clip-path="url(#clip2_1_4685)"><path d="M182.667 184H176V174H166V184H159.333L171 195.667L182.667 184ZM159.333 199V202.333H182.667V199H159.333Z" fill="#48785D"></path></g></g><defs><clipPath id="clip0_1_4685"><rect width="208" height="222" rx="8" fill="white"></rect></clipPath><clipPath id="clip1_1_4685"><rect width="40" height="40" fill="white" transform="translate(16 14)"></rect></clipPath><clipPath id="clip2_1_4685"><rect width="40" height="40" fill="white" transform="translate(151 169)"></rect></clipPath></defs></svg>