<svg xmlns="http://www.w3.org/2000/svg" width="671" height="80" viewBox="0 0 671 80" fill="none"><g clip-path="url(#clip0_8_4306)"><rect width="671" height="80" rx="8" fill="#48785D"></rect><path d="M897.99 -160.193L1225.95 39.962L897.959 240.168L570 40.0132L897.99 -160.193Z" fill="#E6B12E"></path><g clip-path="url(#clip1_8_4306)"><path d="M56.5 29.8333L54 27.3333L51.5 29.8333L49 27.3333L46.5 29.8333L44 27.3333L41.5 29.8333L39 27.3333L36.5 29.8333L34 27.3333V50.6666H29V55.6666C29 58.4333 31.2333 60.6666 34 60.6666H54C56.7667 60.6666 59 58.4333 59 55.6666V27.3333L56.5 29.8333ZM49 57.3333H34C33.0833 57.3333 32.3333 56.5833 32.3333 55.6666V54H49V57.3333ZM55.6667 55.6666C55.6667 56.5833 54.9167 57.3333 54 57.3333C53.0833 57.3333 52.3333 56.5833 52.3333 55.6666V50.6666H37.3333V32.3333H55.6667V55.6666Z" fill="#E6B12E"></path><path d="M49 35.6666H39V39H49V35.6666Z" fill="#E6B12E"></path><path d="M54.0001 35.6666H50.6667V39H54.0001V35.6666Z" fill="#E6B12E"></path><path d="M49 40.6666H39V44H49V40.6666Z" fill="#E6B12E"></path><path d="M54.0001 40.6666H50.6667V44H54.0001V40.6666Z" fill="#E6B12E"></path></g><path d="M87.384 38L82.758 25.994H79.554L74.91 38H77.718L78.474 35.93H83.838L84.594 38H87.384ZM83.136 33.716H79.158L81.156 28.208L83.136 33.716ZM87.8807 33.644C87.8807 36.326 89.8067 38.216 92.4887 38.216C94.2707 38.216 95.3507 37.442 95.9267 36.632L94.4327 35.246C94.0187 35.822 93.3887 36.182 92.5967 36.182C91.2107 36.182 90.2387 35.156 90.2387 33.644C90.2387 32.132 91.2107 31.124 92.5967 31.124C93.3887 31.124 94.0187 31.466 94.4327 32.06L95.9267 30.674C95.3507 29.864 94.2707 29.09 92.4887 29.09C89.8067 29.09 87.8807 30.98 87.8807 33.644ZM96.8631 33.644C96.8631 36.326 98.7891 38.216 101.471 38.216C103.253 38.216 104.333 37.442 104.909 36.632L103.415 35.246C103.001 35.822 102.371 36.182 101.579 36.182C100.193 36.182 99.2211 35.156 99.2211 33.644C99.2211 32.132 100.193 31.124 101.579 31.124C102.371 31.124 103.001 31.466 103.415 32.06L104.909 30.674C104.333 29.864 103.253 29.09 101.471 29.09C98.7891 29.09 96.8631 30.98 96.8631 33.644ZM105.846 33.644C105.846 36.434 107.844 38.216 110.49 38.216C111.84 38.216 113.19 37.82 114.072 37.01L113.064 35.534C112.506 36.074 111.552 36.398 110.742 36.398C109.266 36.398 108.384 35.48 108.24 34.382H114.702V33.878C114.702 31.034 112.938 29.09 110.346 29.09C107.7 29.09 105.846 31.124 105.846 33.644ZM110.346 30.908C111.858 30.908 112.434 32.006 112.488 32.834H108.204C108.312 31.97 108.924 30.908 110.346 30.908ZM124.633 38V25.994H122.329V30.422C121.645 29.54 120.673 29.09 119.647 29.09C117.433 29.09 115.795 30.818 115.795 33.662C115.795 36.56 117.451 38.216 119.647 38.216C120.691 38.216 121.645 37.748 122.329 36.902V38H124.633ZM122.329 35.192C121.933 35.768 121.123 36.182 120.349 36.182C119.053 36.182 118.153 35.156 118.153 33.662C118.153 32.15 119.053 31.124 120.349 31.124C121.123 31.124 121.933 31.538 122.329 32.114V35.192ZM134.406 38V32.384C134.406 29.882 132.588 29.09 130.608 29.09C129.24 29.09 127.872 29.522 126.81 30.458L127.674 31.988C128.412 31.304 129.276 30.962 130.212 30.962C131.364 30.962 132.12 31.538 132.12 32.42V33.626C131.544 32.924 130.518 32.564 129.366 32.564C127.98 32.564 126.342 33.302 126.342 35.336C126.342 37.28 127.98 38.216 129.366 38.216C130.5 38.216 131.526 37.802 132.12 37.1V38H134.406ZM132.12 35.912C131.742 36.416 131.022 36.668 130.284 36.668C129.384 36.668 128.646 36.2 128.646 35.39C128.646 34.562 129.384 34.076 130.284 34.076C131.022 34.076 131.742 34.328 132.12 34.832V35.912ZM148.785 38V32.384C148.785 29.882 146.967 29.09 144.987 29.09C143.619 29.09 142.251 29.522 141.189 30.458L142.053 31.988C142.791 31.304 143.655 30.962 144.591 30.962C145.743 30.962 146.499 31.538 146.499 32.42V33.626C145.923 32.924 144.897 32.564 143.745 32.564C142.359 32.564 140.721 33.302 140.721 35.336C140.721 37.28 142.359 38.216 143.745 38.216C144.879 38.216 145.905 37.802 146.499 37.1V38H148.785ZM146.499 35.912C146.121 36.416 145.401 36.668 144.663 36.668C143.763 36.668 143.025 36.2 143.025 35.39C143.025 34.562 143.763 34.076 144.663 34.076C145.401 34.076 146.121 34.328 146.499 34.832V35.912ZM166.457 38V25.994H163.901V33.77L158.339 25.994H155.711V38H158.267V29.936L163.991 38H166.457ZM176.925 38V29.306H174.639V35.192C174.243 35.696 173.541 36.182 172.659 36.182C171.687 36.182 171.057 35.786 171.057 34.58V29.306H168.771V35.48C168.771 37.172 169.671 38.216 171.579 38.216C173.001 38.216 174.045 37.568 174.639 36.902V38H176.925ZM178.637 33.644C178.637 36.434 180.635 38.216 183.281 38.216C184.631 38.216 185.981 37.82 186.863 37.01L185.855 35.534C185.297 36.074 184.343 36.398 183.533 36.398C182.057 36.398 181.175 35.48 181.031 34.382H187.493V33.878C187.493 31.034 185.729 29.09 183.137 29.09C180.491 29.09 178.637 31.124 178.637 33.644ZM183.137 30.908C184.649 30.908 185.225 32.006 185.279 32.834H180.995C181.103 31.97 181.715 30.908 183.137 30.908ZM188.388 36.866C189.306 37.712 190.764 38.216 192.276 38.216C194.688 38.216 196.038 37.028 196.038 35.426C196.038 33.266 194.04 32.87 192.546 32.582C191.574 32.384 190.89 32.186 190.89 31.646C190.89 31.142 191.43 30.836 192.258 30.836C193.32 30.836 194.31 31.286 194.832 31.844L195.732 30.278C194.886 29.594 193.716 29.09 192.24 29.09C189.954 29.09 188.676 30.368 188.676 31.826C188.676 33.896 190.602 34.256 192.096 34.544C193.086 34.742 193.842 34.958 193.842 35.57C193.842 36.11 193.374 36.452 192.384 36.452C191.304 36.452 190.008 35.858 189.378 35.264L188.388 36.866ZM200.638 38.216C201.592 38.216 202.204 37.964 202.546 37.658L202.06 35.93C201.934 36.056 201.61 36.182 201.268 36.182C200.764 36.182 200.476 35.768 200.476 35.228V31.304H202.24V29.306H200.476V26.93H198.172V29.306H196.732V31.304H198.172V35.84C198.172 37.388 199.036 38.216 200.638 38.216ZM206.09 38V32.258C206.468 31.7 207.476 31.286 208.232 31.286C208.484 31.286 208.7 31.304 208.862 31.34V29.108C207.782 29.108 206.702 29.72 206.09 30.494V29.306H203.804V38H206.09ZM214.322 38.216C217.202 38.216 218.93 36.128 218.93 33.644C218.93 31.178 217.202 29.09 214.322 29.09C211.46 29.09 209.732 31.178 209.732 33.644C209.732 36.128 211.46 38.216 214.322 38.216ZM214.322 36.182C212.9 36.182 212.108 35.012 212.108 33.644C212.108 32.294 212.9 31.124 214.322 31.124C215.744 31.124 216.554 32.294 216.554 33.644C216.554 35.012 215.744 36.182 214.322 36.182ZM219.87 36.866C220.788 37.712 222.246 38.216 223.758 38.216C226.17 38.216 227.52 37.028 227.52 35.426C227.52 33.266 225.522 32.87 224.028 32.582C223.056 32.384 222.372 32.186 222.372 31.646C222.372 31.142 222.912 30.836 223.74 30.836C224.802 30.836 225.792 31.286 226.314 31.844L227.214 30.278C226.368 29.594 225.198 29.09 223.722 29.09C221.436 29.09 220.158 30.368 220.158 31.826C220.158 33.896 222.084 34.256 223.578 34.544C224.568 34.742 225.324 34.958 225.324 35.57C225.324 36.11 224.856 36.452 223.866 36.452C222.786 36.452 221.49 35.858 220.86 35.264L219.87 36.866ZM236.42 38V25.994H233.864V38H236.42ZM246.903 38V31.862C246.903 30.17 245.985 29.09 244.077 29.09C242.655 29.09 241.593 29.774 241.035 30.44V29.306H238.749V38H241.035V32.15C241.413 31.628 242.115 31.124 243.015 31.124C243.987 31.124 244.617 31.538 244.617 32.744V38H246.903ZM253.745 31.304V29.306H251.981V28.874C251.981 28.046 252.413 27.614 253.061 27.614C253.331 27.614 253.601 27.668 253.799 27.794L254.267 26.174C253.853 25.958 253.259 25.814 252.611 25.814C250.901 25.814 249.677 26.948 249.677 28.838V29.306H248.237V31.304H249.677V38H251.981V31.304H253.745ZM259.094 38.216C261.974 38.216 263.702 36.128 263.702 33.644C263.702 31.178 261.974 29.09 259.094 29.09C256.232 29.09 254.504 31.178 254.504 33.644C254.504 36.128 256.232 38.216 259.094 38.216ZM259.094 36.182C257.672 36.182 256.88 35.012 256.88 33.644C256.88 32.294 257.672 31.124 259.094 31.124C260.516 31.124 261.326 32.294 261.326 33.644C261.326 35.012 260.516 36.182 259.094 36.182ZM267.684 38V32.258C268.062 31.7 269.07 31.286 269.826 31.286C270.078 31.286 270.294 31.304 270.456 31.34V29.108C269.376 29.108 268.296 29.72 267.684 30.494V29.306H265.398V38H267.684ZM284.97 38V31.718C284.97 29.936 284.016 29.09 282.414 29.09C281.082 29.09 279.93 29.882 279.426 30.674C279.102 29.684 278.292 29.09 277.014 29.09C275.682 29.09 274.53 29.918 274.17 30.44V29.306H271.884V38H274.17V32.15C274.512 31.664 275.178 31.124 275.97 31.124C276.906 31.124 277.266 31.7 277.266 32.51V38H279.57V32.132C279.894 31.664 280.56 31.124 281.37 31.124C282.306 31.124 282.666 31.7 282.666 32.51V38H284.97ZM286.654 33.644C286.654 36.434 288.652 38.216 291.298 38.216C292.648 38.216 293.998 37.82 294.88 37.01L293.872 35.534C293.314 36.074 292.36 36.398 291.55 36.398C290.074 36.398 289.192 35.48 289.048 34.382H295.51V33.878C295.51 31.034 293.746 29.09 291.154 29.09C288.508 29.09 286.654 31.124 286.654 33.644ZM291.154 30.908C292.666 30.908 293.242 32.006 293.296 32.834H289.012C289.12 31.97 289.732 30.908 291.154 30.908ZM296.405 36.866C297.323 37.712 298.781 38.216 300.293 38.216C302.705 38.216 304.055 37.028 304.055 35.426C304.055 33.266 302.057 32.87 300.563 32.582C299.591 32.384 298.907 32.186 298.907 31.646C298.907 31.142 299.447 30.836 300.275 30.836C301.337 30.836 302.327 31.286 302.849 31.844L303.749 30.278C302.903 29.594 301.733 29.09 300.257 29.09C297.971 29.09 296.693 30.368 296.693 31.826C296.693 33.896 298.619 34.256 300.113 34.544C301.103 34.742 301.859 34.958 301.859 35.57C301.859 36.11 301.391 36.452 300.401 36.452C299.321 36.452 298.025 35.858 297.395 35.264L296.405 36.866ZM87.384 62L82.758 49.994H79.554L74.91 62H77.718L78.474 59.93H83.838L84.594 62H87.384ZM83.136 57.716H79.158L81.156 52.208L83.136 57.716ZM96.5927 62V55.862C96.5927 54.17 95.6747 53.09 93.7667 53.09C92.3447 53.09 91.2827 53.774 90.7247 54.44V53.306H88.4387V62H90.7247V56.15C91.1027 55.628 91.8047 55.124 92.7047 55.124C93.6767 55.124 94.3067 55.538 94.3067 56.744V62H96.5927ZM107.017 62V53.306H104.731V59.192C104.335 59.696 103.633 60.182 102.751 60.182C101.779 60.182 101.149 59.786 101.149 58.58V53.306H98.8625V59.48C98.8625 61.172 99.7625 62.216 101.671 62.216C103.093 62.216 104.137 61.568 104.731 60.902V62H107.017ZM116.792 62V56.384C116.792 53.882 114.974 53.09 112.994 53.09C111.626 53.09 110.258 53.522 109.196 54.458L110.06 55.988C110.798 55.304 111.662 54.962 112.598 54.962C113.75 54.962 114.506 55.538 114.506 56.42V57.626C113.93 56.924 112.904 56.564 111.752 56.564C110.366 56.564 108.728 57.302 108.728 59.336C108.728 61.28 110.366 62.216 111.752 62.216C112.886 62.216 113.912 61.802 114.506 61.1V62H116.792ZM114.506 59.912C114.128 60.416 113.408 60.668 112.67 60.668C111.77 60.668 111.032 60.2 111.032 59.39C111.032 58.562 111.77 58.076 112.67 58.076C113.408 58.076 114.128 58.328 114.506 58.832V59.912ZM121.346 62V49.994H119.06V62H121.346ZM123.055 57.644C123.055 60.434 125.053 62.216 127.699 62.216C129.049 62.216 130.399 61.82 131.281 61.01L130.273 59.534C129.715 60.074 128.761 60.398 127.951 60.398C126.475 60.398 125.593 59.48 125.449 58.382H131.911V57.878C131.911 55.034 130.147 53.09 127.555 53.09C124.909 53.09 123.055 55.124 123.055 57.644ZM127.555 54.908C129.067 54.908 129.643 56.006 129.697 56.834H125.413C125.521 55.97 126.133 54.908 127.555 54.908ZM132.806 60.866C133.724 61.712 135.182 62.216 136.694 62.216C139.106 62.216 140.456 61.028 140.456 59.426C140.456 57.266 138.458 56.87 136.964 56.582C135.992 56.384 135.308 56.186 135.308 55.646C135.308 55.142 135.848 54.836 136.676 54.836C137.738 54.836 138.728 55.286 139.25 55.844L140.15 54.278C139.304 53.594 138.134 53.09 136.658 53.09C134.372 53.09 133.094 54.368 133.094 55.826C133.094 57.896 135.02 58.256 136.514 58.544C137.504 58.742 138.26 58.958 138.26 59.57C138.26 60.11 137.792 60.452 136.802 60.452C135.722 60.452 134.426 59.858 133.796 59.264L132.806 60.866Z" fill="white"></path><g clip-path="url(#clip2_8_4306)"><path d="M638 32.3333L635.65 34.6833L643.283 42.3333H616.333V45.6666H643.283L635.633 53.3166L638 55.6666L649.667 44L638 32.3333Z" fill="#48785D"></path></g></g><defs><clipPath id="clip0_8_4306"><rect width="671" height="80" rx="8" fill="white"></rect></clipPath><clipPath id="clip1_8_4306"><rect width="40" height="40" fill="white" transform="translate(24 24)"></rect></clipPath><clipPath id="clip2_8_4306"><rect width="40" height="40" fill="white" transform="translate(613 24)"></rect></clipPath></defs></svg>