<svg xmlns="http://www.w3.org/2000/svg" width="343" height="80" viewBox="0 0 343 80" fill="none"><g clip-path="url(#clip0_4_4146)"><rect width="343" height="80" rx="8" fill="#48785D"></rect><path d="M569.99 -160.193L897.949 39.962L569.959 240.168L242 40.0132L569.99 -160.193Z" fill="#E6B12E"></path><g clip-path="url(#clip1_4_4146)"><path d="M56.5 25.8465L54 23.3465L51.5 25.8465L49 23.3465L46.5 25.8465L44 23.3465L41.5 25.8465L39 23.3465L36.5 25.8465L34 23.3465V46.6799H29V51.6799C29 54.4465 31.2333 56.6799 34 56.6799H54C56.7667 56.6799 59 54.4465 59 51.6799V23.3465L56.5 25.8465ZM49 53.3465H34C33.0833 53.3465 32.3333 52.5965 32.3333 51.6799V50.0132H49V53.3465ZM55.6667 51.6799C55.6667 52.5965 54.9167 53.3465 54 53.3465C53.0833 53.3465 52.3333 52.5965 52.3333 51.6799V46.6799H37.3333V28.3465H55.6667V51.6799Z" fill="#E6B12E"></path><path d="M49 31.6799H39V35.0132H49V31.6799Z" fill="#E6B12E"></path><path d="M54.0001 31.6799H50.6667V35.0132H54.0001V31.6799Z" fill="#E6B12E"></path><path d="M49 36.6799H39V40.0132H49V36.6799Z" fill="#E6B12E"></path><path d="M54.0001 36.6799H50.6667V40.0132H54.0001V36.6799Z" fill="#E6B12E"></path></g><path d="M87.384 34.0132L82.758 22.0072H79.554L74.91 34.0132H77.718L78.474 31.9432H83.838L84.594 34.0132H87.384ZM83.136 29.7292H79.158L81.156 24.2212L83.136 29.7292ZM87.8807 29.6572C87.8807 32.3392 89.8067 34.2292 92.4887 34.2292C94.2707 34.2292 95.3507 33.4552 95.9267 32.6452L94.4327 31.2592C94.0187 31.8352 93.3887 32.1952 92.5967 32.1952C91.2107 32.1952 90.2387 31.1692 90.2387 29.6572C90.2387 28.1452 91.2107 27.1372 92.5967 27.1372C93.3887 27.1372 94.0187 27.4792 94.4327 28.0732L95.9267 26.6872C95.3507 25.8772 94.2707 25.1032 92.4887 25.1032C89.8067 25.1032 87.8807 26.9932 87.8807 29.6572ZM96.8631 29.6572C96.8631 32.3392 98.7891 34.2292 101.471 34.2292C103.253 34.2292 104.333 33.4552 104.909 32.6452L103.415 31.2592C103.001 31.8352 102.371 32.1952 101.579 32.1952C100.193 32.1952 99.2211 31.1692 99.2211 29.6572C99.2211 28.1452 100.193 27.1372 101.579 27.1372C102.371 27.1372 103.001 27.4792 103.415 28.0732L104.909 26.6872C104.333 25.8772 103.253 25.1032 101.471 25.1032C98.7891 25.1032 96.8631 26.9932 96.8631 29.6572ZM105.846 29.6572C105.846 32.4472 107.844 34.2292 110.49 34.2292C111.84 34.2292 113.19 33.8332 114.072 33.0232L113.064 31.5472C112.506 32.0872 111.552 32.4112 110.742 32.4112C109.266 32.4112 108.384 31.4932 108.24 30.3952H114.702V29.8912C114.702 27.0472 112.938 25.1032 110.346 25.1032C107.7 25.1032 105.846 27.1372 105.846 29.6572ZM110.346 26.9212C111.858 26.9212 112.434 28.0192 112.488 28.8472H108.204C108.312 27.9832 108.924 26.9212 110.346 26.9212ZM115.597 32.8792C116.515 33.7252 117.973 34.2292 119.485 34.2292C121.897 34.2292 123.247 33.0412 123.247 31.4392C123.247 29.2792 121.249 28.8832 119.755 28.5952C118.783 28.3972 118.099 28.1992 118.099 27.6592C118.099 27.1552 118.639 26.8492 119.467 26.8492C120.529 26.8492 121.519 27.2992 122.041 27.8572L122.941 26.2912C122.095 25.6072 120.925 25.1032 119.449 25.1032C117.163 25.1032 115.885 26.3812 115.885 27.8392C115.885 29.9092 117.811 30.2692 119.305 30.5572C120.295 30.7552 121.051 30.9712 121.051 31.5832C121.051 32.1232 120.583 32.4652 119.593 32.4652C118.513 32.4652 117.217 31.8712 116.587 31.2772L115.597 32.8792ZM124.175 32.8792C125.093 33.7252 126.551 34.2292 128.063 34.2292C130.475 34.2292 131.825 33.0412 131.825 31.4392C131.825 29.2792 129.827 28.8832 128.333 28.5952C127.361 28.3972 126.677 28.1992 126.677 27.6592C126.677 27.1552 127.217 26.8492 128.045 26.8492C129.107 26.8492 130.097 27.2992 130.619 27.8572L131.519 26.2912C130.673 25.6072 129.503 25.1032 128.027 25.1032C125.741 25.1032 124.463 26.3812 124.463 27.8392C124.463 29.9092 126.389 30.2692 127.883 30.5572C128.873 30.7552 129.629 30.9712 129.629 31.5832C129.629 32.1232 129.161 32.4652 128.171 32.4652C127.091 32.4652 125.795 31.8712 125.165 31.2772L124.175 32.8792ZM142.146 34.2292C145.026 34.2292 146.754 32.1412 146.754 29.6572C146.754 27.1912 145.026 25.1032 142.146 25.1032C139.284 25.1032 137.556 27.1912 137.556 29.6572C137.556 32.1412 139.284 34.2292 142.146 34.2292ZM142.146 32.1952C140.724 32.1952 139.932 31.0252 139.932 29.6572C139.932 28.3072 140.724 27.1372 142.146 27.1372C143.568 27.1372 144.378 28.3072 144.378 29.6572C144.378 31.0252 143.568 32.1952 142.146 32.1952ZM156.604 34.0132V25.3192H154.318V31.2052C153.922 31.7092 153.22 32.1952 152.338 32.1952C151.366 32.1952 150.736 31.7992 150.736 30.5932V25.3192H148.45V31.4932C148.45 33.1852 149.35 34.2292 151.258 34.2292C152.68 34.2292 153.724 33.5812 154.318 32.9152V34.0132H156.604ZM161.16 34.0132V28.2712C161.538 27.7132 162.546 27.2992 163.302 27.2992C163.554 27.2992 163.77 27.3172 163.932 27.3532V25.1212C162.852 25.1212 161.772 25.7332 161.16 26.5072V25.3192H158.874V34.0132H161.16ZM181.216 34.0132L176.59 22.0072H173.386L168.742 34.0132H171.55L172.306 31.9432H177.67L178.426 34.0132H181.216ZM176.968 29.7292H172.99L174.988 24.2212L176.968 29.7292ZM190.425 34.0132V27.8752C190.425 26.1832 189.507 25.1032 187.599 25.1032C186.177 25.1032 185.115 25.7872 184.557 26.4532V25.3192H182.271V34.0132H184.557V28.1632C184.935 27.6412 185.637 27.1372 186.537 27.1372C187.509 27.1372 188.139 27.5512 188.139 28.7572V34.0132H190.425ZM200.849 34.0132V25.3192H198.563V31.2052C198.167 31.7092 197.465 32.1952 196.583 32.1952C195.611 32.1952 194.981 31.7992 194.981 30.5932V25.3192H192.695V31.4932C192.695 33.1852 193.595 34.2292 195.503 34.2292C196.925 34.2292 197.969 33.5812 198.563 32.9152V34.0132H200.849ZM210.624 34.0132V28.3972C210.624 25.8952 208.806 25.1032 206.826 25.1032C205.458 25.1032 204.09 25.5352 203.028 26.4712L203.892 28.0012C204.63 27.3172 205.494 26.9752 206.43 26.9752C207.582 26.9752 208.338 27.5512 208.338 28.4332V29.6392C207.762 28.9372 206.736 28.5772 205.584 28.5772C204.198 28.5772 202.56 29.3152 202.56 31.3492C202.56 33.2932 204.198 34.2292 205.584 34.2292C206.718 34.2292 207.744 33.8152 208.338 33.1132V34.0132H210.624ZM208.338 31.9252C207.96 32.4292 207.24 32.6812 206.502 32.6812C205.602 32.6812 204.864 32.2132 204.864 31.4032C204.864 30.5752 205.602 30.0892 206.502 30.0892C207.24 30.0892 207.96 30.3412 208.338 30.8452V31.9252ZM215.178 34.0132V22.0072H212.892V34.0132H215.178ZM85.908 58.0132L83.208 53.4412C84.504 53.1352 85.836 52.0012 85.836 49.8772C85.836 47.6452 84.306 46.0072 81.804 46.0072H76.188V58.0132H78.744V53.7112H80.616L82.974 58.0132H85.908ZM83.226 49.8592C83.226 50.8672 82.452 51.5152 81.426 51.5152H78.744V48.2032H81.426C82.452 48.2032 83.226 48.8512 83.226 49.8592ZM86.5975 53.6572C86.5975 56.4472 88.5955 58.2292 91.2415 58.2292C92.5915 58.2292 93.9415 57.8332 94.8235 57.0232L93.8155 55.5472C93.2575 56.0872 92.3035 56.4112 91.4935 56.4112C90.0175 56.4112 89.1355 55.4932 88.9915 54.3952H95.4535V53.8912C95.4535 51.0472 93.6895 49.1032 91.0975 49.1032C88.4515 49.1032 86.5975 51.1372 86.5975 53.6572ZM91.0975 50.9212C92.6095 50.9212 93.1855 52.0192 93.2395 52.8472H88.9555C89.0635 51.9832 89.6755 50.9212 91.0975 50.9212ZM99.3907 56.8972C100.093 57.7972 101.047 58.2292 102.073 58.2292C104.305 58.2292 105.925 56.5552 105.925 53.6572C105.925 50.7592 104.305 49.1032 102.073 49.1032C101.011 49.1032 100.057 49.5712 99.3907 50.4172V49.3192H97.1047V61.3252H99.3907V56.8972ZM103.549 53.6572C103.549 55.1692 102.667 56.1952 101.353 56.1952C100.615 56.1952 99.7687 55.7452 99.3907 55.2052V52.1272C99.7687 51.5692 100.615 51.1372 101.353 51.1372C102.667 51.1372 103.549 52.1632 103.549 53.6572ZM111.666 58.2292C114.546 58.2292 116.274 56.1412 116.274 53.6572C116.274 51.1912 114.546 49.1032 111.666 49.1032C108.804 49.1032 107.076 51.1912 107.076 53.6572C107.076 56.1412 108.804 58.2292 111.666 58.2292ZM111.666 56.1952C110.244 56.1952 109.452 55.0252 109.452 53.6572C109.452 52.3072 110.244 51.1372 111.666 51.1372C113.088 51.1372 113.898 52.3072 113.898 53.6572C113.898 55.0252 113.088 56.1952 111.666 56.1952ZM120.256 58.0132V52.2712C120.634 51.7132 121.642 51.2992 122.398 51.2992C122.65 51.2992 122.866 51.3172 123.028 51.3532V49.1212C121.948 49.1212 120.868 49.7332 120.256 50.5072V49.3192H117.97V58.0132H120.256ZM127.372 58.2292C128.326 58.2292 128.938 57.9772 129.28 57.6712L128.794 55.9432C128.668 56.0692 128.344 56.1952 128.002 56.1952C127.498 56.1952 127.21 55.7812 127.21 55.2412V51.3172H128.974V49.3192H127.21V46.9432H124.906V49.3192H123.466V51.3172H124.906V55.8532C124.906 57.4012 125.77 58.2292 127.372 58.2292ZM129.782 56.8792C130.7 57.7252 132.158 58.2292 133.67 58.2292C136.082 58.2292 137.432 57.0412 137.432 55.4392C137.432 53.2792 135.434 52.8832 133.94 52.5952C132.968 52.3972 132.284 52.1992 132.284 51.6592C132.284 51.1552 132.824 50.8492 133.652 50.8492C134.714 50.8492 135.704 51.2992 136.226 51.8572L137.126 50.2912C136.28 49.6072 135.11 49.1032 133.634 49.1032C131.348 49.1032 130.07 50.3812 130.07 51.8392C130.07 53.9092 131.996 54.2692 133.49 54.5572C134.48 54.7552 135.236 54.9712 135.236 55.5832C135.236 56.1232 134.768 56.4652 133.778 56.4652C132.698 56.4652 131.402 55.8712 130.772 55.2772L129.782 56.8792Z" fill="white"></path><g clip-path="url(#clip2_4_4146)"><path d="M316 28.3465L313.65 30.6965L321.283 38.3465H294.333V41.6799H321.283L313.633 49.3299L316 51.6799L327.667 40.0132L316 28.3465Z" fill="#48785D"></path></g></g><defs><clipPath id="clip0_4_4146"><rect width="343" height="80" rx="8" fill="white"></rect></clipPath><clipPath id="clip1_4_4146"><rect width="40" height="40" fill="white" transform="translate(24 20.0132)"></rect></clipPath><clipPath id="clip2_4_4146"><rect width="40" height="40" fill="white" transform="translate(291 20.0132)"></rect></clipPath></defs></svg>