<svg xmlns="http://www.w3.org/2000/svg" width="208" height="222" viewBox="0 0 208 222" fill="none"><g clip-path="url(#clip0_1_4090)"><rect width="208" height="222" rx="8" fill="#48785D"></rect><path d="M147.992 117.638L413.958 279.958L147.967 442.321L-118 280L147.992 117.638Z" fill="#E6B12E"></path><g clip-path="url(#clip1_1_4090)"><path d="M48.5 19.8333L46 17.3333L43.5 19.8333L41 17.3333L38.5 19.8333L36 17.3333L33.5 19.8333L31 17.3333L28.5 19.8333L26 17.3333V40.6667H21V45.6667C21 48.4333 23.2333 50.6667 26 50.6667H46C48.7667 50.6667 51 48.4333 51 45.6667V17.3333L48.5 19.8333ZM41 47.3333H26C25.0833 47.3333 24.3333 46.5833 24.3333 45.6667V44H41V47.3333ZM47.6667 45.6667C47.6667 46.5833 46.9167 47.3333 46 47.3333C45.0833 47.3333 44.3333 46.5833 44.3333 45.6667V40.6667H29.3333V22.3333H47.6667V45.6667Z" fill="#E6B12E"></path><path d="M41 25.6667H31V29H41V25.6667Z" fill="#E6B12E"></path><path d="M46 25.6667H42.6667V29H46V25.6667Z" fill="#E6B12E"></path><path d="M41 30.6667H31V34H41V30.6667Z" fill="#E6B12E"></path><path d="M46 30.6667H42.6667V34H46V30.6667Z" fill="#E6B12E"></path></g><path d="M16.36 81.308C17.494 82.442 19.15 83.216 21.454 83.216C24.694 83.216 26.26 81.56 26.26 79.364C26.26 76.7 23.74 76.106 21.76 75.656C20.374 75.332 19.366 75.08 19.366 74.27C19.366 73.55 19.978 73.046 21.13 73.046C22.3 73.046 23.596 73.46 24.568 74.36L25.99 72.488C24.802 71.39 23.218 70.814 21.31 70.814C18.484 70.814 16.756 72.434 16.756 74.432C16.756 77.114 19.276 77.654 21.238 78.104C22.624 78.428 23.668 78.734 23.668 79.634C23.668 80.318 22.984 80.984 21.58 80.984C19.924 80.984 18.61 80.246 17.764 79.364L16.36 81.308ZM36.099 83V76.826C36.099 75.134 35.181 74.09 33.273 74.09C31.851 74.09 30.771 74.774 30.213 75.44V70.994H27.927V83H30.213V77.15C30.609 76.628 31.311 76.124 32.193 76.124C33.183 76.124 33.813 76.502 33.813 77.708V83H36.099ZM45.8744 83V77.384C45.8744 74.882 44.0564 74.09 42.0764 74.09C40.7084 74.09 39.3404 74.522 38.2784 75.458L39.1424 76.988C39.8804 76.304 40.7444 75.962 41.6804 75.962C42.8324 75.962 43.5884 76.538 43.5884 77.42V78.626C43.0124 77.924 41.9864 77.564 40.8344 77.564C39.4484 77.564 37.8104 78.302 37.8104 80.336C37.8104 82.28 39.4484 83.216 40.8344 83.216C41.9684 83.216 42.9944 82.802 43.5884 82.1V83H45.8744ZM43.5884 80.912C43.2104 81.416 42.4904 81.668 41.7524 81.668C40.8524 81.668 40.1144 81.2 40.1144 80.39C40.1144 79.562 40.8524 79.076 41.7524 79.076C42.4904 79.076 43.2104 79.328 43.5884 79.832V80.912ZM50.4278 83V77.258C50.8058 76.7 51.8138 76.286 52.5698 76.286C52.8218 76.286 53.0378 76.304 53.1998 76.34V74.108C52.1198 74.108 51.0398 74.72 50.4278 75.494V74.306H48.1418V83H50.4278ZM54.0701 78.644C54.0701 81.434 56.0681 83.216 58.7141 83.216C60.0641 83.216 61.4141 82.82 62.2961 82.01L61.2881 80.534C60.7301 81.074 59.7761 81.398 58.9661 81.398C57.4901 81.398 56.6081 80.48 56.4641 79.382H62.9261V78.878C62.9261 76.034 61.1621 74.09 58.5701 74.09C55.9241 74.09 54.0701 76.124 54.0701 78.644ZM58.5701 75.908C60.0821 75.908 60.6581 77.006 60.7121 77.834H56.4281C56.5361 76.97 57.1481 75.908 58.5701 75.908ZM72.7494 83V76.826C72.7494 75.134 71.8314 74.09 69.9234 74.09C68.5014 74.09 67.4214 74.774 66.8634 75.44V70.994H64.5774V83H66.8634V77.15C67.2594 76.628 67.9614 76.124 68.8434 76.124C69.8334 76.124 70.4634 76.502 70.4634 77.708V83H72.7494ZM79.0508 83.216C81.9308 83.216 83.6588 81.128 83.6588 78.644C83.6588 76.178 81.9308 74.09 79.0508 74.09C76.1888 74.09 74.4608 76.178 74.4608 78.644C74.4608 81.128 76.1888 83.216 79.0508 83.216ZM79.0508 81.182C77.6288 81.182 76.8368 80.012 76.8368 78.644C76.8368 77.294 77.6288 76.124 79.0508 76.124C80.4728 76.124 81.2828 77.294 81.2828 78.644C81.2828 80.012 80.4728 81.182 79.0508 81.182ZM87.6407 83V70.994H85.3547V83H87.6407ZM98.1874 83V70.994H95.8834V75.422C95.1994 74.54 94.2274 74.09 93.2014 74.09C90.9874 74.09 89.3494 75.818 89.3494 78.662C89.3494 81.56 91.0054 83.216 93.2014 83.216C94.2454 83.216 95.1994 82.748 95.8834 81.902V83H98.1874ZM95.8834 80.192C95.4874 80.768 94.6774 81.182 93.9034 81.182C92.6074 81.182 91.7074 80.156 91.7074 78.662C91.7074 77.15 92.6074 76.124 93.9034 76.124C94.6774 76.124 95.4874 76.538 95.8834 77.114V80.192ZM99.8963 78.644C99.8963 81.434 101.894 83.216 104.54 83.216C105.89 83.216 107.24 82.82 108.122 82.01L107.114 80.534C106.556 81.074 105.602 81.398 104.792 81.398C103.316 81.398 102.434 80.48 102.29 79.382H108.752V78.878C108.752 76.034 106.988 74.09 104.396 74.09C101.75 74.09 99.8963 76.124 99.8963 78.644ZM104.396 75.908C105.908 75.908 106.484 77.006 106.538 77.834H102.254C102.362 76.97 102.974 75.908 104.396 75.908ZM112.69 83V77.258C113.068 76.7 114.076 76.286 114.832 76.286C115.084 76.286 115.3 76.304 115.462 76.34V74.108C114.382 74.108 113.302 74.72 112.69 75.494V74.306H110.404V83H112.69ZM116.134 81.866C117.052 82.712 118.51 83.216 120.022 83.216C122.434 83.216 123.784 82.028 123.784 80.426C123.784 78.266 121.786 77.87 120.292 77.582C119.32 77.384 118.636 77.186 118.636 76.646C118.636 76.142 119.176 75.836 120.004 75.836C121.066 75.836 122.056 76.286 122.578 76.844L123.478 75.278C122.632 74.594 121.462 74.09 119.986 74.09C117.7 74.09 116.422 75.368 116.422 76.826C116.422 78.896 118.348 79.256 119.842 79.544C120.832 79.742 121.588 79.958 121.588 80.57C121.588 81.11 121.12 81.452 120.13 81.452C119.05 81.452 117.754 80.858 117.124 80.264L116.134 81.866ZM126.104 75.998C127.202 75.206 127.958 74 127.958 72.65C127.958 71.48 127.184 70.814 126.338 70.814C125.582 70.814 124.934 71.462 124.934 72.254C124.934 73.01 125.474 73.55 126.158 73.55C126.284 73.55 126.446 73.514 126.5 73.478C126.356 74.126 125.69 74.882 125.114 75.188L126.104 75.998ZM25.684 107V104.786H19.744V101.996H25.558V99.8H19.744V97.19H25.684V94.994H17.188V107H25.684ZM35.8901 98.306H33.5861V99.404C32.9381 98.558 31.9661 98.09 30.9041 98.09C28.6901 98.09 27.0701 99.746 27.0701 102.644C27.0701 105.542 28.6901 107.216 30.9041 107.216C31.9481 107.216 32.8841 106.784 33.5861 105.884V110.312H35.8901V98.306ZM33.5861 104.192C33.2081 104.732 32.3801 105.182 31.6241 105.182C30.3281 105.182 29.4281 104.156 29.4281 102.644C29.4281 101.15 30.3281 100.124 31.6241 100.124C32.3801 100.124 33.2081 100.556 33.5861 101.114V104.192ZM46.3114 107V98.306H44.0254V104.192C43.6294 104.696 42.9274 105.182 42.0454 105.182C41.0734 105.182 40.4434 104.786 40.4434 103.58V98.306H38.1574V104.48C38.1574 106.172 39.0574 107.216 40.9654 107.216C42.3874 107.216 43.4314 106.568 44.0254 105.902V107H46.3114ZM49.7153 97.028C50.4713 97.028 51.0833 96.416 51.0833 95.66C51.0833 94.904 50.4713 94.292 49.7153 94.292C48.9773 94.292 48.3473 94.904 48.3473 95.66C48.3473 96.416 48.9773 97.028 49.7153 97.028ZM50.8673 107V98.306H48.5813V107H50.8673ZM56.05 107.216C57.004 107.216 57.616 106.964 57.958 106.658L57.472 104.93C57.346 105.056 57.022 105.182 56.68 105.182C56.176 105.182 55.888 104.768 55.888 104.228V100.304H57.652V98.306H55.888V95.93H53.584V98.306H52.144V100.304H53.584V104.84C53.584 106.388 54.448 107.216 56.05 107.216ZM58.91 110.402C59.198 110.474 59.774 110.528 60.044 110.528C61.538 110.492 62.69 110.06 63.338 108.422L67.424 98.306H64.958L62.69 104.354L60.422 98.306H57.974L61.502 107.126L61.178 107.864C60.962 108.332 60.566 108.494 59.972 108.494C59.756 108.494 59.45 108.44 59.252 108.35L58.91 110.402Z" fill="white"></path><g clip-path="url(#clip2_1_4090)"><path d="M182.667 184H176V174H166V184H159.333L171 195.667L182.667 184ZM159.333 199V202.333H182.667V199H159.333Z" fill="#48785D"></path></g></g><defs><clipPath id="clip0_1_4090"><rect width="208" height="222" rx="8" fill="white"></rect></clipPath><clipPath id="clip1_1_4090"><rect width="40" height="40" fill="white" transform="translate(16 14)"></rect></clipPath><clipPath id="clip2_1_4090"><rect width="40" height="40" fill="white" transform="translate(151 169)"></rect></clipPath></defs></svg>