<svg xmlns="http://www.w3.org/2000/svg" width="210" height="222" viewBox="0 0 210 222" fill="none"><g clip-path="url(#clip0_1_4105)"><rect width="210" height="222" rx="8" fill="#48785D"></rect><path d="M147.992 117.638L413.958 279.958L147.967 442.321L-118 280L147.992 117.638Z" fill="#E6B12E"></path><g clip-path="url(#clip1_1_4105)"><path d="M48.5 19.8333L46 17.3333L43.5 19.8333L41 17.3333L38.5 19.8333L36 17.3333L33.5 19.8333L31 17.3333L28.5 19.8333L26 17.3333V40.6667H21V45.6667C21 48.4333 23.2333 50.6667 26 50.6667H46C48.7667 50.6667 51 48.4333 51 45.6667V17.3333L48.5 19.8333ZM41 47.3333H26C25.0833 47.3333 24.3333 46.5833 24.3333 45.6667V44H41V47.3333ZM47.6667 45.6667C47.6667 46.5833 46.9167 47.3333 46 47.3333C45.0833 47.3333 44.3333 46.5833 44.3333 45.6667V40.6667H29.3333V22.3333H47.6667V45.6667Z" fill="#E6B12E"></path><path d="M41 25.6667H31V29H41V25.6667Z" fill="#E6B12E"></path><path d="M46 25.6667H42.6667V29H46V25.6667Z" fill="#E6B12E"></path><path d="M41 30.6667H31V34H41V30.6667Z" fill="#E6B12E"></path><path d="M46 30.6667H42.6667V34H46V30.6667Z" fill="#E6B12E"></path></g><path d="M25.684 83V80.786H19.744V77.996H25.558V75.8H19.744V73.19H25.684V70.994H17.188V83H25.684ZM35.5661 83L32.4521 78.536L35.3681 74.306H32.8121L31.0301 76.988L29.2301 74.306H26.6741L29.5721 78.536L26.4941 83H29.0321L31.0301 80.066L33.0101 83H35.5661ZM38.9845 81.884C39.6865 82.784 40.6405 83.216 41.6665 83.216C43.8985 83.216 45.5185 81.542 45.5185 78.644C45.5185 75.746 43.8985 74.09 41.6665 74.09C40.6045 74.09 39.6505 74.558 38.9845 75.404V74.306H36.6985V86.312H38.9845V81.884ZM43.1425 78.644C43.1425 80.156 42.2605 81.182 40.9465 81.182C40.2085 81.182 39.3625 80.732 38.9845 80.192V77.114C39.3625 76.556 40.2085 76.124 40.9465 76.124C42.2605 76.124 43.1425 77.15 43.1425 78.644ZM49.5138 83V70.994H47.2278V83H49.5138ZM59.2865 83V77.384C59.2865 74.882 57.4685 74.09 55.4885 74.09C54.1205 74.09 52.7525 74.522 51.6905 75.458L52.5545 76.988C53.2925 76.304 54.1565 75.962 55.0925 75.962C56.2445 75.962 57.0005 76.538 57.0005 77.42V78.626C56.4245 77.924 55.3985 77.564 54.2465 77.564C52.8605 77.564 51.2225 78.302 51.2225 80.336C51.2225 82.28 52.8605 83.216 54.2465 83.216C55.3805 83.216 56.4065 82.802 57.0005 82.1V83H59.2865ZM57.0005 80.912C56.6225 81.416 55.9025 81.668 55.1645 81.668C54.2645 81.668 53.5265 81.2 53.5265 80.39C53.5265 79.562 54.2645 79.076 55.1645 79.076C55.9025 79.076 56.6225 79.328 57.0005 79.832V80.912ZM69.7079 83V76.862C69.7079 75.17 68.7899 74.09 66.8819 74.09C65.4599 74.09 64.3979 74.774 63.8399 75.44V74.306H61.5539V83H63.8399V77.15C64.2179 76.628 64.9199 76.124 65.8199 76.124C66.7919 76.124 67.4219 76.538 67.4219 77.744V83H69.7079ZM79.4838 83V77.384C79.4838 74.882 77.6658 74.09 75.6858 74.09C74.3178 74.09 72.9498 74.522 71.8878 75.458L72.7518 76.988C73.4897 76.304 74.3538 75.962 75.2898 75.962C76.4418 75.962 77.1978 76.538 77.1978 77.42V78.626C76.6218 77.924 75.5957 77.564 74.4438 77.564C73.0578 77.564 71.4198 78.302 71.4198 80.336C71.4198 82.28 73.0578 83.216 74.4438 83.216C75.5778 83.216 76.6038 82.802 77.1978 82.1V83H79.4838ZM77.1978 80.912C76.8198 81.416 76.0998 81.668 75.3618 81.668C74.4618 81.668 73.7238 81.2 73.7238 80.39C73.7238 79.562 74.4618 79.076 75.3618 79.076C76.0998 79.076 76.8198 79.328 77.1978 79.832V80.912ZM84.6672 83.216C85.6212 83.216 86.2332 82.964 86.5752 82.658L86.0892 80.93C85.9632 81.056 85.6392 81.182 85.2972 81.182C84.7932 81.182 84.5052 80.768 84.5052 80.228V76.304H86.2692V74.306H84.5052V71.93H82.2012V74.306H80.7612V76.304H82.2012V80.84C82.2012 82.388 83.0652 83.216 84.6672 83.216ZM91.8652 83.216C94.7452 83.216 96.4732 81.128 96.4732 78.644C96.4732 76.178 94.7452 74.09 91.8652 74.09C89.0032 74.09 87.2752 76.178 87.2752 78.644C87.2752 81.128 89.0032 83.216 91.8652 83.216ZM91.8652 81.182C90.4432 81.182 89.6512 80.012 89.6512 78.644C89.6512 77.294 90.4432 76.124 91.8652 76.124C93.2872 76.124 94.0972 77.294 94.0972 78.644C94.0972 80.012 93.2872 81.182 91.8652 81.182ZM100.455 83V77.258C100.833 76.7 101.841 76.286 102.597 76.286C102.849 76.286 103.065 76.304 103.227 76.34V74.108C102.147 74.108 101.067 74.72 100.455 75.494V74.306H98.1692V83H100.455ZM104.349 86.402C104.637 86.474 105.213 86.528 105.483 86.528C106.977 86.492 108.129 86.06 108.777 84.422L112.863 74.306H110.397L108.129 80.354L105.861 74.306H103.413L106.941 83.126L106.617 83.864C106.401 84.332 106.005 84.494 105.411 84.494C105.195 84.494 104.889 84.44 104.691 84.35L104.349 86.402ZM27.934 107V94.994H25.378V102.77L19.816 94.994H17.188V107H19.744V98.936L25.468 107H27.934ZM34.2793 107.216C37.1593 107.216 38.8873 105.128 38.8873 102.644C38.8873 100.178 37.1593 98.09 34.2793 98.09C31.4173 98.09 29.6893 100.178 29.6893 102.644C29.6893 105.128 31.4173 107.216 34.2793 107.216ZM34.2793 105.182C32.8573 105.182 32.0653 104.012 32.0653 102.644C32.0653 101.294 32.8573 100.124 34.2793 100.124C35.7013 100.124 36.5113 101.294 36.5113 102.644C36.5113 104.012 35.7013 105.182 34.2793 105.182ZM43.4992 107.216C44.4532 107.216 45.0652 106.964 45.4072 106.658L44.9212 104.93C44.7952 105.056 44.4712 105.182 44.1292 105.182C43.6252 105.182 43.3372 104.768 43.3372 104.228V100.304H45.1012V98.306H43.3372V95.93H41.0332V98.306H39.5932V100.304H41.0332V104.84C41.0332 106.388 41.8972 107.216 43.4992 107.216ZM46.1073 102.644C46.1073 105.434 48.1053 107.216 50.7513 107.216C52.1013 107.216 53.4513 106.82 54.3333 106.01L53.3253 104.534C52.7673 105.074 51.8133 105.398 51.0033 105.398C49.5273 105.398 48.6453 104.48 48.5013 103.382H54.9633V102.878C54.9633 100.034 53.1993 98.09 50.6073 98.09C47.9613 98.09 46.1073 100.124 46.1073 102.644ZM50.6073 99.908C52.1193 99.908 52.6953 101.006 52.7493 101.834H48.4653C48.5733 100.97 49.1853 99.908 50.6073 99.908ZM55.8585 105.866C56.7765 106.712 58.2345 107.216 59.7465 107.216C62.1585 107.216 63.5085 106.028 63.5085 104.426C63.5085 102.266 61.5105 101.87 60.0165 101.582C59.0445 101.384 58.3605 101.186 58.3605 100.646C58.3605 100.142 58.9005 99.836 59.7285 99.836C60.7905 99.836 61.7805 100.286 62.3025 100.844L63.2025 99.278C62.3565 98.594 61.1865 98.09 59.7105 98.09C57.4245 98.09 56.1465 99.368 56.1465 100.826C56.1465 102.896 58.0725 103.256 59.5665 103.544C60.5565 103.742 61.3125 103.958 61.3125 104.57C61.3125 105.11 60.8445 105.452 59.8545 105.452C58.7745 105.452 57.4785 104.858 56.8485 104.264L55.8585 105.866Z" fill="white"></path><g clip-path="url(#clip2_1_4105)"><path d="M185.667 184H179V174H169V184H162.333L174 195.667L185.667 184ZM162.333 199V202.333H185.667V199H162.333Z" fill="#48785D"></path></g></g><defs><clipPath id="clip0_1_4105"><rect width="210" height="222" rx="8" fill="white"></rect></clipPath><clipPath id="clip1_1_4105"><rect width="40" height="40" fill="white" transform="translate(16 14)"></rect></clipPath><clipPath id="clip2_1_4105"><rect width="40" height="40" fill="white" transform="translate(154 169)"></rect></clipPath></defs></svg>