<svg xmlns="http://www.w3.org/2000/svg" width="210" height="222" viewBox="0 0 210 222" fill="none"><g clip-path="url(#clip0_1_4615)"><rect width="210" height="222" rx="8" fill="#48785D"></rect><path d="M147.992 117.638L413.958 279.958L147.967 442.321L-118 280L147.992 117.638Z" fill="#E6B12E"></path><g clip-path="url(#clip1_1_4615)"><path d="M48.5 19.8333L46 17.3333L43.5 19.8333L41 17.3333L38.5 19.8333L36 17.3333L33.5 19.8333L31 17.3333L28.5 19.8333L26 17.3333V40.6667H21V45.6667C21 48.4333 23.2333 50.6667 26 50.6667H46C48.7667 50.6667 51 48.4333 51 45.6667V17.3333L48.5 19.8333ZM41 47.3333H26C25.0833 47.3333 24.3333 46.5833 24.3333 45.6667V44H41V47.3333ZM47.6667 45.6667C47.6667 46.5833 46.9167 47.3333 46 47.3333C45.0833 47.3333 44.3333 46.5833 44.3333 45.6667V40.6667H29.3333V22.3333H47.6667V45.6667Z" fill="#E6B12E"></path><path d="M41 25.6667H31V29H41V25.6667Z" fill="#E6B12E"></path><path d="M46 25.6667H42.6667V29H46V25.6667Z" fill="#E6B12E"></path><path d="M41 30.6667H31V34H41V30.6667Z" fill="#E6B12E"></path><path d="M46 30.6667H42.6667V34H46V30.6667Z" fill="#E6B12E"></path></g><path d="M27.934 83V70.994H25.378V78.77L19.816 70.994H17.188V83H19.744V74.936L25.468 83H27.934ZM34.2793 83.216C37.1593 83.216 38.8873 81.128 38.8873 78.644C38.8873 76.178 37.1593 74.09 34.2793 74.09C31.4173 74.09 29.6893 76.178 29.6893 78.644C29.6893 81.128 31.4173 83.216 34.2793 83.216ZM34.2793 81.182C32.8573 81.182 32.0653 80.012 32.0653 78.644C32.0653 77.294 32.8573 76.124 34.2793 76.124C35.7013 76.124 36.5113 77.294 36.5113 78.644C36.5113 80.012 35.7013 81.182 34.2793 81.182ZM43.4992 83.216C44.4532 83.216 45.0652 82.964 45.4072 82.658L44.9212 80.93C44.7952 81.056 44.4712 81.182 44.1292 81.182C43.6252 81.182 43.3372 80.768 43.3372 80.228V76.304H45.1012V74.306H43.3372V71.93H41.0332V74.306H39.5932V76.304H41.0332V80.84C41.0332 82.388 41.8972 83.216 43.4992 83.216ZM46.1073 78.644C46.1073 81.434 48.1053 83.216 50.7513 83.216C52.1013 83.216 53.4513 82.82 54.3333 82.01L53.3253 80.534C52.7673 81.074 51.8133 81.398 51.0033 81.398C49.5273 81.398 48.6453 80.48 48.5013 79.382H54.9633V78.878C54.9633 76.034 53.1993 74.09 50.6073 74.09C47.9613 74.09 46.1073 76.124 46.1073 78.644ZM50.6073 75.908C52.1193 75.908 52.6953 77.006 52.7493 77.834H48.4653C48.5733 76.97 49.1853 75.908 50.6073 75.908ZM55.8585 81.866C56.7765 82.712 58.2345 83.216 59.7465 83.216C62.1585 83.216 63.5085 82.028 63.5085 80.426C63.5085 78.266 61.5105 77.87 60.0165 77.582C59.0445 77.384 58.3605 77.186 58.3605 76.646C58.3605 76.142 58.9005 75.836 59.7285 75.836C60.7905 75.836 61.7805 76.286 62.3025 76.844L63.2025 75.278C62.3565 74.594 61.1865 74.09 59.7105 74.09C57.4245 74.09 56.1465 75.368 56.1465 76.826C56.1465 78.896 58.0725 79.256 59.5665 79.544C60.5565 79.742 61.3125 79.958 61.3125 80.57C61.3125 81.11 60.8445 81.452 59.8545 81.452C58.7745 81.452 57.4785 80.858 56.8485 80.264L55.8585 81.866ZM25.684 107V104.786H19.744V101.996H25.558V99.8H19.744V97.19H25.684V94.994H17.188V107H25.684ZM35.5661 107L32.4521 102.536L35.3681 98.306H32.8121L31.0301 100.988L29.2301 98.306H26.6741L29.5721 102.536L26.4941 107H29.0321L31.0301 104.066L33.0101 107H35.5661ZM38.9845 105.884C39.6865 106.784 40.6405 107.216 41.6665 107.216C43.8985 107.216 45.5185 105.542 45.5185 102.644C45.5185 99.746 43.8985 98.09 41.6665 98.09C40.6045 98.09 39.6505 98.558 38.9845 99.404V98.306H36.6985V110.312H38.9845V105.884ZM43.1425 102.644C43.1425 104.156 42.2605 105.182 40.9465 105.182C40.2085 105.182 39.3625 104.732 38.9845 104.192V101.114C39.3625 100.556 40.2085 100.124 40.9465 100.124C42.2605 100.124 43.1425 101.15 43.1425 102.644ZM49.5138 107V94.994H47.2278V107H49.5138ZM52.9145 97.028C53.6705 97.028 54.2825 96.416 54.2825 95.66C54.2825 94.904 53.6705 94.292 52.9145 94.292C52.1765 94.292 51.5465 94.904 51.5465 95.66C51.5465 96.416 52.1765 97.028 52.9145 97.028ZM54.0665 107V98.306H51.7805V107H54.0665ZM55.7752 102.644C55.7752 105.326 57.7012 107.216 60.3832 107.216C62.1652 107.216 63.2452 106.442 63.8212 105.632L62.3272 104.246C61.9132 104.822 61.2832 105.182 60.4912 105.182C59.1052 105.182 58.1332 104.156 58.1332 102.644C58.1332 101.132 59.1052 100.124 60.4912 100.124C61.2832 100.124 61.9132 100.466 62.3272 101.06L63.8212 99.674C63.2452 98.864 62.1652 98.09 60.3832 98.09C57.7012 98.09 55.7752 99.98 55.7752 102.644ZM72.8216 107V101.384C72.8216 98.882 71.0036 98.09 69.0236 98.09C67.6556 98.09 66.2876 98.522 65.2256 99.458L66.0896 100.988C66.8276 100.304 67.6916 99.962 68.6276 99.962C69.7796 99.962 70.5356 100.538 70.5356 101.42V102.626C69.9596 101.924 68.9336 101.564 67.7816 101.564C66.3956 101.564 64.7576 102.302 64.7576 104.336C64.7576 106.28 66.3956 107.216 67.7816 107.216C68.9156 107.216 69.9416 106.802 70.5356 106.1V107H72.8216ZM70.5356 104.912C70.1576 105.416 69.4376 105.668 68.6996 105.668C67.7996 105.668 67.0616 105.2 67.0616 104.39C67.0616 103.562 67.7996 103.076 68.6996 103.076C69.4376 103.076 70.1576 103.328 70.5356 103.832V104.912ZM78.0051 107.216C78.9591 107.216 79.5711 106.964 79.9131 106.658L79.4271 104.93C79.3011 105.056 78.9771 105.182 78.6351 105.182C78.1311 105.182 77.8431 104.768 77.8431 104.228V100.304H79.6071V98.306H77.8431V95.93H75.5391V98.306H74.0991V100.304H75.5391V104.84C75.5391 106.388 76.4031 107.216 78.0051 107.216ZM82.3051 97.028C83.0611 97.028 83.6731 96.416 83.6731 95.66C83.6731 94.904 83.0611 94.292 82.3051 94.292C81.5671 94.292 80.9371 94.904 80.9371 95.66C80.9371 96.416 81.5671 97.028 82.3051 97.028ZM83.4571 107V98.306H81.1711V107H83.4571ZM90.4398 107L93.9318 98.306H91.4658L89.1978 104.354L86.9298 98.306H84.4818L87.9738 107H90.4398ZM94.3944 102.644C94.3944 105.434 96.3924 107.216 99.0384 107.216C100.388 107.216 101.738 106.82 102.62 106.01L101.612 104.534C101.054 105.074 100.1 105.398 99.2904 105.398C97.8144 105.398 96.9324 104.48 96.7884 103.382H103.25V102.878C103.25 100.034 101.486 98.09 98.8944 98.09C96.2484 98.09 94.3944 100.124 94.3944 102.644ZM98.8944 99.908C100.406 99.908 100.982 101.006 101.036 101.834H96.7524C96.8604 100.97 97.4724 99.908 98.8944 99.908ZM104.146 105.866C105.064 106.712 106.522 107.216 108.034 107.216C110.446 107.216 111.796 106.028 111.796 104.426C111.796 102.266 109.798 101.87 108.304 101.582C107.332 101.384 106.648 101.186 106.648 100.646C106.648 100.142 107.188 99.836 108.016 99.836C109.078 99.836 110.068 100.286 110.59 100.844L111.49 99.278C110.644 98.594 109.474 98.09 107.998 98.09C105.712 98.09 104.434 99.368 104.434 100.826C104.434 102.896 106.36 103.256 107.854 103.544C108.844 103.742 109.6 103.958 109.6 104.57C109.6 105.11 109.132 105.452 108.142 105.452C107.062 105.452 105.766 104.858 105.136 104.264L104.146 105.866Z" fill="white"></path><g clip-path="url(#clip2_1_4615)"><path d="M185.667 184H179V174H169V184H162.333L174 195.667L185.667 184ZM162.333 199V202.333H185.667V199H162.333Z" fill="#48785D"></path></g></g><defs><clipPath id="clip0_1_4615"><rect width="210" height="222" rx="8" fill="white"></rect></clipPath><clipPath id="clip1_1_4615"><rect width="40" height="40" fill="white" transform="translate(16 14)"></rect></clipPath><clipPath id="clip2_1_4615"><rect width="40" height="40" fill="white" transform="translate(154 169)"></rect></clipPath></defs></svg>