<svg xmlns="http://www.w3.org/2000/svg" width="210" height="222" viewBox="0 0 210 222" fill="none"><g clip-path="url(#clip0_1_4700)"><rect width="210" height="222" rx="8" fill="#48785D"></rect><path d="M147.992 117.638L413.958 279.958L147.967 442.321L-118 280L147.992 117.638Z" fill="#E6B12E"></path><g clip-path="url(#clip1_1_4700)"><path d="M48.5 19.8333L46 17.3333L43.5 19.8333L41 17.3333L38.5 19.8333L36 17.3333L33.5 19.8333L31 17.3333L28.5 19.8333L26 17.3333V40.6666H21V45.6666C21 48.4333 23.2333 50.6666 26 50.6666H46C48.7667 50.6666 51 48.4333 51 45.6666V17.3333L48.5 19.8333ZM41 47.3333H26C25.0833 47.3333 24.3333 46.5833 24.3333 45.6666V44H41V47.3333ZM47.6667 45.6666C47.6667 46.5833 46.9167 47.3333 46 47.3333C45.0833 47.3333 44.3333 46.5833 44.3333 45.6666V40.6666H29.3333V22.3333H47.6667V45.6666Z" fill="#E6B12E"></path><path d="M41 25.6666H31V29H41V25.6666Z" fill="#E6B12E"></path><path d="M46 25.6666H42.6667V29H46V25.6666Z" fill="#E6B12E"></path><path d="M41 30.6666H31V34H41V30.6666Z" fill="#E6B12E"></path><path d="M46 30.6666H42.6667V34H46V30.6666Z" fill="#E6B12E"></path></g><path d="M27.934 83V70.994H25.378V78.77L19.816 70.994H17.188V83H19.744V74.936L25.468 83H27.934ZM34.2793 83.216C37.1593 83.216 38.8873 81.128 38.8873 78.644C38.8873 76.178 37.1593 74.09 34.2793 74.09C31.4173 74.09 29.6893 76.178 29.6893 78.644C29.6893 81.128 31.4173 83.216 34.2793 83.216ZM34.2793 81.182C32.8573 81.182 32.0653 80.012 32.0653 78.644C32.0653 77.294 32.8573 76.124 34.2793 76.124C35.7013 76.124 36.5113 77.294 36.5113 78.644C36.5113 80.012 35.7013 81.182 34.2793 81.182ZM43.4992 83.216C44.4532 83.216 45.0652 82.964 45.4072 82.658L44.9212 80.93C44.7952 81.056 44.4712 81.182 44.1292 81.182C43.6252 81.182 43.3372 80.768 43.3372 80.228V76.304H45.1012V74.306H43.3372V71.93H41.0332V74.306H39.5932V76.304H41.0332V80.84C41.0332 82.388 41.8972 83.216 43.4992 83.216ZM54.1713 83V77.384C54.1713 74.882 52.3533 74.09 50.3733 74.09C49.0053 74.09 47.6373 74.522 46.5753 75.458L47.4393 76.988C48.1772 76.304 49.0413 75.962 49.9773 75.962C51.1293 75.962 51.8853 76.538 51.8853 77.42V78.626C51.3093 77.924 50.2832 77.564 49.1313 77.564C47.7453 77.564 46.1073 78.302 46.1073 80.336C46.1073 82.28 47.7453 83.216 49.1313 83.216C50.2653 83.216 51.2913 82.802 51.8853 82.1V83H54.1713ZM51.8853 80.912C51.5073 81.416 50.7873 81.668 50.0493 81.668C49.1493 81.668 48.4113 81.2 48.4113 80.39C48.4113 79.562 49.1493 79.076 50.0493 79.076C50.7873 79.076 51.5073 79.328 51.8853 79.832V80.912ZM55.6827 81.866C56.6007 82.712 58.0587 83.216 59.5707 83.216C61.9827 83.216 63.3327 82.028 63.3327 80.426C63.3327 78.266 61.3347 77.87 59.8407 77.582C58.8687 77.384 58.1847 77.186 58.1847 76.646C58.1847 76.142 58.7247 75.836 59.5527 75.836C60.6147 75.836 61.6047 76.286 62.1267 76.844L63.0267 75.278C62.1807 74.594 61.0107 74.09 59.5347 74.09C57.2487 74.09 55.9707 75.368 55.9707 76.826C55.9707 78.896 57.8967 79.256 59.3907 79.544C60.3807 79.742 61.1367 79.958 61.1367 80.57C61.1367 81.11 60.6687 81.452 59.6787 81.452C58.5987 81.452 57.3027 80.858 56.6727 80.264L55.6827 81.866ZM25.684 107V104.786H19.744V101.996H25.558V99.8H19.744V97.19H25.684V94.994H17.188V107H25.684ZM35.5661 107L32.4521 102.536L35.3681 98.306H32.8121L31.0301 100.988L29.2301 98.306H26.6741L29.5721 102.536L26.4941 107H29.0321L31.0301 104.066L33.0101 107H35.5661ZM38.9845 105.884C39.6865 106.784 40.6405 107.216 41.6665 107.216C43.8985 107.216 45.5185 105.542 45.5185 102.644C45.5185 99.746 43.8985 98.09 41.6665 98.09C40.6045 98.09 39.6505 98.558 38.9845 99.404V98.306H36.6985V110.312H38.9845V105.884ZM43.1425 102.644C43.1425 104.156 42.2605 105.182 40.9465 105.182C40.2085 105.182 39.3625 104.732 38.9845 104.192V101.114C39.3625 100.556 40.2085 100.124 40.9465 100.124C42.2605 100.124 43.1425 101.15 43.1425 102.644ZM49.5138 107V94.994H47.2278V107H49.5138ZM52.9145 97.028C53.6705 97.028 54.2825 96.416 54.2825 95.66C54.2825 94.904 53.6705 94.292 52.9145 94.292C52.1765 94.292 51.5465 94.904 51.5465 95.66C51.5465 96.416 52.1765 97.028 52.9145 97.028ZM54.0665 107V98.306H51.7805V107H54.0665ZM55.7752 102.644C55.7752 105.326 57.7012 107.216 60.3832 107.216C62.1652 107.216 63.2452 106.442 63.8212 105.632L62.3272 104.246C61.9132 104.822 61.2832 105.182 60.4912 105.182C59.1052 105.182 58.1332 104.156 58.1332 102.644C58.1332 101.132 59.1052 100.124 60.4912 100.124C61.2832 100.124 61.9132 100.466 62.3272 101.06L63.8212 99.674C63.2452 98.864 62.1652 98.09 60.3832 98.09C57.7012 98.09 55.7752 99.98 55.7752 102.644ZM72.8216 107V101.384C72.8216 98.882 71.0036 98.09 69.0236 98.09C67.6556 98.09 66.2876 98.522 65.2256 99.458L66.0896 100.988C66.8276 100.304 67.6916 99.962 68.6276 99.962C69.7796 99.962 70.5356 100.538 70.5356 101.42V102.626C69.9596 101.924 68.9336 101.564 67.7816 101.564C66.3956 101.564 64.7576 102.302 64.7576 104.336C64.7576 106.28 66.3956 107.216 67.7816 107.216C68.9156 107.216 69.9416 106.802 70.5356 106.1V107H72.8216ZM70.5356 104.912C70.1576 105.416 69.4376 105.668 68.6996 105.668C67.7996 105.668 67.0616 105.2 67.0616 104.39C67.0616 103.562 67.7996 103.076 68.6996 103.076C69.4376 103.076 70.1576 103.328 70.5356 103.832V104.912ZM78.0051 107.216C78.9591 107.216 79.5711 106.964 79.9131 106.658L79.4271 104.93C79.3011 105.056 78.9771 105.182 78.6351 105.182C78.1311 105.182 77.8431 104.768 77.8431 104.228V100.304H79.6071V98.306H77.8431V95.93H75.5391V98.306H74.0991V100.304H75.5391V104.84C75.5391 106.388 76.4031 107.216 78.0051 107.216ZM82.3051 97.028C83.0611 97.028 83.6731 96.416 83.6731 95.66C83.6731 94.904 83.0611 94.292 82.3051 94.292C81.5671 94.292 80.9371 94.904 80.9371 95.66C80.9371 96.416 81.5671 97.028 82.3051 97.028ZM83.4571 107V98.306H81.1711V107H83.4571ZM90.4398 107L93.9318 98.306H91.4658L89.1978 104.354L86.9298 98.306H84.4818L87.9738 107H90.4398ZM102.458 107V101.384C102.458 98.882 100.64 98.09 98.6604 98.09C97.2924 98.09 95.9244 98.522 94.8624 99.458L95.7264 100.988C96.4644 100.304 97.3284 99.962 98.2644 99.962C99.4164 99.962 100.172 100.538 100.172 101.42V102.626C99.5964 101.924 98.5704 101.564 97.4184 101.564C96.0324 101.564 94.3944 102.302 94.3944 104.336C94.3944 106.28 96.0324 107.216 97.4184 107.216C98.5524 107.216 99.5784 106.802 100.172 106.1V107H102.458ZM100.172 104.912C99.7944 105.416 99.0744 105.668 98.3364 105.668C97.4364 105.668 96.6984 105.2 96.6984 104.39C96.6984 103.562 97.4364 103.076 98.3364 103.076C99.0744 103.076 99.7944 103.328 100.172 103.832V104.912ZM103.97 105.866C104.888 106.712 106.346 107.216 107.858 107.216C110.27 107.216 111.62 106.028 111.62 104.426C111.62 102.266 109.622 101.87 108.128 101.582C107.156 101.384 106.472 101.186 106.472 100.646C106.472 100.142 107.012 99.836 107.84 99.836C108.902 99.836 109.892 100.286 110.414 100.844L111.314 99.278C110.468 98.594 109.298 98.09 107.822 98.09C105.536 98.09 104.258 99.368 104.258 100.826C104.258 102.896 106.184 103.256 107.678 103.544C108.668 103.742 109.424 103.958 109.424 104.57C109.424 105.11 108.956 105.452 107.966 105.452C106.886 105.452 105.59 104.858 104.96 104.264L103.97 105.866Z" fill="white"></path><g clip-path="url(#clip2_1_4700)"><path d="M185.667 184H179V174H169V184H162.333L174 195.667L185.667 184ZM162.333 199V202.333H185.667V199H162.333Z" fill="#48785D"></path></g></g><defs><clipPath id="clip0_1_4700"><rect width="210" height="222" rx="8" fill="white"></rect></clipPath><clipPath id="clip1_1_4700"><rect width="40" height="40" fill="white" transform="translate(16 14)"></rect></clipPath><clipPath id="clip2_1_4700"><rect width="40" height="40" fill="white" transform="translate(154 169)"></rect></clipPath></defs></svg>