<svg xmlns="http://www.w3.org/2000/svg" width="207" height="222" viewBox="0 0 207 222" fill="none"><g clip-path="url(#clip0_1_4570)"><rect width="207" height="222" rx="8" fill="#48785D"></rect><path d="M147.992 117.638L413.958 279.958L147.967 442.321L-118 280L147.992 117.638Z" fill="#E6B12E"></path><g clip-path="url(#clip1_1_4570)"><path d="M48.5 19.8333L46 17.3333L43.5 19.8333L41 17.3333L38.5 19.8333L36 17.3333L33.5 19.8333L31 17.3333L28.5 19.8333L26 17.3333V40.6667H21V45.6667C21 48.4333 23.2333 50.6667 26 50.6667H46C48.7667 50.6667 51 48.4333 51 45.6667V17.3333L48.5 19.8333ZM41 47.3333H26C25.0833 47.3333 24.3333 46.5833 24.3333 45.6667V44H41V47.3333ZM47.6667 45.6667C47.6667 46.5833 46.9167 47.3333 46 47.3333C45.0833 47.3333 44.3333 46.5833 44.3333 45.6667V40.6667H29.3333V22.3333H47.6667V45.6667Z" fill="#E6B12E"></path><path d="M41 25.6667H31V29H41V25.6667Z" fill="#E6B12E"></path><path d="M46 25.6667H42.6667V29H46V25.6667Z" fill="#E6B12E"></path><path d="M41 30.6667H31V34H41V30.6667Z" fill="#E6B12E"></path><path d="M46 30.6667H42.6667V34H46V30.6667Z" fill="#E6B12E"></path></g><path d="M22.912 83.216C25.648 83.216 27.16 81.758 28.024 80.264L25.828 79.202C25.324 80.192 24.244 80.948 22.912 80.948C20.824 80.948 19.24 79.274 19.24 77.006C19.24 74.738 20.824 73.064 22.912 73.064C24.244 73.064 25.324 73.838 25.828 74.81L28.024 73.73C27.178 72.236 25.648 70.796 22.912 70.796C19.402 70.796 16.612 73.316 16.612 77.006C16.612 80.696 19.402 83.216 22.912 83.216ZM33.5234 83.216C36.4034 83.216 38.1314 81.128 38.1314 78.644C38.1314 76.178 36.4034 74.09 33.5234 74.09C30.6614 74.09 28.9334 76.178 28.9334 78.644C28.9334 81.128 30.6614 83.216 33.5234 83.216ZM33.5234 81.182C32.1014 81.182 31.3094 80.012 31.3094 78.644C31.3094 77.294 32.1014 76.124 33.5234 76.124C34.9454 76.124 35.7554 77.294 35.7554 78.644C35.7554 80.012 34.9454 81.182 33.5234 81.182ZM52.9134 83V76.718C52.9134 74.936 51.9594 74.09 50.3574 74.09C49.0254 74.09 47.8734 74.882 47.3694 75.674C47.0454 74.684 46.2354 74.09 44.9574 74.09C43.6254 74.09 42.4734 74.918 42.1134 75.44V74.306H39.8274V83H42.1134V77.15C42.4554 76.664 43.1214 76.124 43.9134 76.124C44.8494 76.124 45.2094 76.7 45.2094 77.51V83H47.5134V77.132C47.8374 76.664 48.5034 76.124 49.3134 76.124C50.2494 76.124 50.6094 76.7 50.6094 77.51V83H52.9134ZM57.4415 81.884C58.1435 82.784 59.0975 83.216 60.1235 83.216C62.3555 83.216 63.9755 81.542 63.9755 78.644C63.9755 75.746 62.3555 74.09 60.1235 74.09C59.0615 74.09 58.1075 74.558 57.4415 75.404V74.306H55.1555V86.312H57.4415V81.884ZM61.5995 78.644C61.5995 80.156 60.7175 81.182 59.4035 81.182C58.6655 81.182 57.8195 80.732 57.4415 80.192V77.114C57.8195 76.556 58.6655 76.124 59.4035 76.124C60.7175 76.124 61.5995 77.15 61.5995 78.644ZM68.6008 83.216C69.5548 83.216 70.1668 82.964 70.5088 82.658L70.0228 80.93C69.8968 81.056 69.5728 81.182 69.2308 81.182C68.7268 81.182 68.4388 80.768 68.4388 80.228V76.304H70.2028V74.306H68.4388V71.93H66.1348V74.306H64.6948V76.304H66.1348V80.84C66.1348 82.388 66.9988 83.216 68.6008 83.216ZM71.2088 78.644C71.2088 81.434 73.2068 83.216 75.8528 83.216C77.2028 83.216 78.5528 82.82 79.4348 82.01L78.4268 80.534C77.8688 81.074 76.9148 81.398 76.1048 81.398C74.6288 81.398 73.7468 80.48 73.6028 79.382H80.0648V78.878C80.0648 76.034 78.3008 74.09 75.7088 74.09C73.0628 74.09 71.2088 76.124 71.2088 78.644ZM75.7088 75.908C77.2208 75.908 77.7968 77.006 77.8508 77.834H73.5668C73.6748 76.97 74.2868 75.908 75.7088 75.908ZM91.1095 83C94.8715 83 97.4815 80.624 97.4815 77.006C97.4815 73.388 94.8715 70.994 91.1095 70.994H86.3755V83H91.1095ZM88.9315 73.244H91.1095C93.5755 73.244 94.8715 74.882 94.8715 77.006C94.8715 79.04 93.4855 80.75 91.1095 80.75H88.9315V73.244ZM98.6834 78.644C98.6834 81.434 100.681 83.216 103.327 83.216C104.677 83.216 106.027 82.82 106.909 82.01L105.901 80.534C105.343 81.074 104.389 81.398 103.579 81.398C102.103 81.398 101.221 80.48 101.077 79.382H107.539V78.878C107.539 76.034 105.775 74.09 103.183 74.09C100.537 74.09 98.6834 76.124 98.6834 78.644ZM103.183 75.908C104.695 75.908 105.271 77.006 105.325 77.834H101.041C101.149 76.97 101.761 75.908 103.183 75.908ZM26.908 107L24.208 102.428C25.504 102.122 26.836 100.988 26.836 98.864C26.836 96.632 25.306 94.994 22.804 94.994H17.188V107H19.744V102.698H21.616L23.974 107H26.908ZM24.226 98.846C24.226 99.854 23.452 100.502 22.426 100.502H19.744V97.19H22.426C23.452 97.19 24.226 97.838 24.226 98.846ZM35.7515 94.4H33.6455L31.2335 96.992H32.8355L35.7515 94.4ZM27.5975 102.644C27.5975 105.434 29.5955 107.216 32.2415 107.216C33.5915 107.216 34.9415 106.82 35.8235 106.01L34.8155 104.534C34.2575 105.074 33.3035 105.398 32.4935 105.398C31.0175 105.398 30.1355 104.48 29.9915 103.382H36.4535V102.878C36.4535 100.034 34.6895 98.09 32.0975 98.09C29.4515 98.09 27.5975 100.124 27.5975 102.644ZM32.0975 99.908C33.6095 99.908 34.1855 101.006 34.2395 101.834H29.9555C30.0635 100.97 30.6755 99.908 32.0975 99.908ZM37.3487 105.866C38.2667 106.712 39.7247 107.216 41.2367 107.216C43.6487 107.216 44.9987 106.028 44.9987 104.426C44.9987 102.266 43.0007 101.87 41.5067 101.582C40.5347 101.384 39.8507 101.186 39.8507 100.646C39.8507 100.142 40.3907 99.836 41.2187 99.836C42.2807 99.836 43.2707 100.286 43.7927 100.844L44.6927 99.278C43.8467 98.594 42.6767 98.09 41.2007 98.09C38.9147 98.09 37.6367 99.368 37.6367 100.826C37.6367 102.896 39.5627 103.256 41.0567 103.544C42.0467 103.742 42.8027 103.958 42.8027 104.57C42.8027 105.11 42.3347 105.452 41.3447 105.452C40.2647 105.452 38.9687 104.858 38.3387 104.264L37.3487 105.866ZM54.8368 107V98.306H52.5508V104.192C52.1548 104.696 51.4528 105.182 50.5708 105.182C49.5988 105.182 48.9688 104.786 48.9688 103.58V98.306H46.6828V104.48C46.6828 106.172 47.5828 107.216 49.4908 107.216C50.9128 107.216 51.9568 106.568 52.5508 105.902V107H54.8368ZM59.3927 107V94.994H57.1067V107H59.3927ZM64.5754 107.216C65.5294 107.216 66.1414 106.964 66.4834 106.658L65.9974 104.93C65.8714 105.056 65.5474 105.182 65.2054 105.182C64.7014 105.182 64.4134 104.768 64.4134 104.228V100.304H66.1774V98.306H64.4134V95.93H62.1094V98.306H60.6694V100.304H62.1094V104.84C62.1094 106.388 62.9734 107.216 64.5754 107.216ZM75.2474 107V101.384C75.2474 98.882 73.4294 98.09 71.4494 98.09C70.0814 98.09 68.7134 98.522 67.6514 99.458L68.5154 100.988C69.2534 100.304 70.1174 99.962 71.0534 99.962C72.2054 99.962 72.9614 100.538 72.9614 101.42V102.626C72.3854 101.924 71.3594 101.564 70.2074 101.564C68.8214 101.564 67.1834 102.302 67.1834 104.336C67.1834 106.28 68.8214 107.216 70.2074 107.216C71.3414 107.216 72.3674 106.802 72.9614 106.1V107H75.2474ZM72.9614 104.912C72.5834 105.416 71.8634 105.668 71.1254 105.668C70.2254 105.668 69.4874 105.2 69.4874 104.39C69.4874 103.562 70.2254 103.076 71.1254 103.076C71.8634 103.076 72.5834 103.328 72.9614 103.832V104.912ZM80.4309 107.216C81.3849 107.216 81.9969 106.964 82.3389 106.658L81.8529 104.93C81.7269 105.056 81.4029 105.182 81.0609 105.182C80.5569 105.182 80.2689 104.768 80.2689 104.228V100.304H82.0329V98.306H80.2689V95.93H77.9649V98.306H76.5249V100.304H77.9649V104.84C77.9649 106.388 78.8289 107.216 80.4309 107.216Z" fill="white"></path><g clip-path="url(#clip2_1_4570)"><path d="M181.667 184H175V174H165V184H158.333L170 195.667L181.667 184ZM158.333 199V202.333H181.667V199H158.333Z" fill="#48785D"></path></g></g><defs><clipPath id="clip0_1_4570"><rect width="207" height="222" rx="8" fill="white"></rect></clipPath><clipPath id="clip1_1_4570"><rect width="40" height="40" fill="white" transform="translate(16 14)"></rect></clipPath><clipPath id="clip2_1_4570"><rect width="40" height="40" fill="white" transform="translate(150 169)"></rect></clipPath></defs></svg>