<svg xmlns="http://www.w3.org/2000/svg" width="209" height="222" viewBox="0 0 209 222" fill="none"><g clip-path="url(#clip0_1593_4290)"><rect width="209" height="222" rx="8" fill="#48785D"></rect><path d="M147.992 117.638L413.958 279.958L147.967 442.321L-118 280L147.992 117.638Z" fill="#E6B12E"></path><g clip-path="url(#clip1_1593_4290)"><path d="M48.5 19.8333L46 17.3333L43.5 19.8333L41 17.3333L38.5 19.8333L36 17.3333L33.5 19.8333L31 17.3333L28.5 19.8333L26 17.3333V40.6667H21V45.6667C21 48.4333 23.2333 50.6667 26 50.6667H46C48.7667 50.6667 51 48.4333 51 45.6667V17.3333L48.5 19.8333ZM41 47.3333H26C25.0833 47.3333 24.3333 46.5833 24.3333 45.6667V44H41V47.3333ZM47.6667 45.6667C47.6667 46.5833 46.9167 47.3333 46 47.3333C45.0833 47.3333 44.3333 46.5833 44.3333 45.6667V40.6667H29.3333V22.3333H47.6667V45.6667Z" fill="#E6B12E"></path><path d="M41 25.6667H31V29H41V25.6667Z" fill="#E6B12E"></path><path d="M46.0013 25.6667H42.668V29H46.0013V25.6667Z" fill="#E6B12E"></path><path d="M41 30.6667H31V34H41V30.6667Z" fill="#E6B12E"></path><path d="M46.0013 30.6667H42.668V34H46.0013V30.6667Z" fill="#E6B12E"></path></g><path d="M21.922 83C25.684 83 28.294 80.624 28.294 77.006C28.294 73.388 25.684 70.994 21.922 70.994H17.188V83H21.922ZM21.922 80.75H19.744V73.244H21.922C24.388 73.244 25.684 74.882 25.684 77.006C25.684 79.04 24.298 80.75 21.922 80.75ZM34.1399 83.216C35.4899 83.216 36.8579 82.802 37.7219 82.01L36.7139 80.534C36.1559 81.074 35.1299 81.398 34.3919 81.398C32.9159 81.398 32.0339 80.48 31.8899 79.382H38.3519V78.878C38.3519 76.034 36.5879 74.09 33.9959 74.09C31.3499 74.09 29.4959 76.124 29.4959 78.644C29.4959 81.434 31.4939 83.216 34.1399 83.216ZM36.1379 77.834H31.8539C31.9619 76.97 32.5739 75.908 33.9959 75.908C35.5079 75.908 36.0839 77.006 36.1379 77.834ZM53.0891 83V76.718C53.0891 74.936 52.1351 74.09 50.5331 74.09C49.2011 74.09 48.0491 74.882 47.5451 75.674C47.2211 74.684 46.4111 74.09 45.1331 74.09C43.8011 74.09 42.6491 74.918 42.2891 75.44V74.306H40.0031V83H42.2891V77.15C42.6311 76.664 43.2971 76.124 44.0891 76.124C45.0251 76.124 45.3851 76.7 45.3851 77.51V83H47.6891V77.132C48.0131 76.664 48.6791 76.124 49.4891 76.124C50.4251 76.124 50.7851 76.7 50.7851 77.51V83H53.0891ZM59.3633 83.216C62.2433 83.216 63.9713 81.128 63.9713 78.644C63.9713 76.178 62.2433 74.09 59.3633 74.09C56.5013 74.09 54.7733 76.178 54.7733 78.644C54.7733 81.128 56.5013 83.216 59.3633 83.216ZM59.3633 81.182C57.9413 81.182 57.1493 80.012 57.1493 78.644C57.1493 77.294 57.9413 76.124 59.3633 76.124C60.7853 76.124 61.5953 77.294 61.5953 78.644C61.5953 80.012 60.7853 81.182 59.3633 81.182ZM68.7992 83.216C71.2112 83.216 72.5612 82.01 72.5612 80.426C72.5612 76.916 67.4132 77.996 67.4132 76.7C67.4132 76.214 67.9532 75.836 68.7812 75.836C69.8432 75.836 70.8332 76.286 71.3552 76.844L72.2732 75.278C71.4092 74.594 70.2392 74.09 68.7632 74.09C66.4772 74.09 65.1992 75.368 65.1992 76.826C65.1992 80.246 70.3652 79.076 70.3652 80.516C70.3652 81.056 69.8972 81.452 68.9072 81.452C67.8272 81.452 66.5312 80.858 65.9012 80.264L64.9112 81.866C65.8292 82.712 67.2872 83.216 68.7992 83.216ZM77.1613 83.216C78.1153 83.216 78.7273 82.964 79.0693 82.658L78.5833 80.93C78.4573 81.056 78.1333 81.182 77.7913 81.182C77.2873 81.182 76.9993 80.768 76.9993 80.228V76.304H78.7633V74.306H76.9993V71.93H74.6953V74.306H73.2553V76.304H74.6953V80.84C74.6953 82.388 75.5593 83.216 77.1613 83.216ZM82.6134 83V77.258C82.9914 76.7 83.9994 76.268 84.7554 76.268C85.0074 76.268 85.2234 76.286 85.3854 76.322V74.09C84.3054 74.09 83.2254 74.72 82.6134 75.494V74.306H80.3274V83H82.6134ZM94.3197 83V77.384C94.3197 74.882 92.5017 74.09 90.5217 74.09C89.1537 74.09 87.7857 74.522 86.7237 75.458L87.5877 76.988C88.3257 76.304 89.1897 75.962 90.1257 75.962C91.2777 75.962 92.0337 76.538 92.0337 77.42V78.59C91.4577 77.906 90.4317 77.528 89.2797 77.528C87.8937 77.528 86.2557 78.302 86.2557 80.336C86.2557 82.28 87.8937 83.216 89.2797 83.216C90.4137 83.216 91.4397 82.802 92.0337 82.1V83H94.3197ZM90.1977 81.668C89.2977 81.668 88.5597 81.2 88.5597 80.39C88.5597 79.544 89.2977 79.076 90.1977 79.076C90.9357 79.076 91.6557 79.328 92.0337 79.832V80.912C91.6557 81.416 90.9357 81.668 90.1977 81.668ZM100.637 83.216C102.419 83.216 103.499 82.442 104.075 81.632L102.581 80.246C102.167 80.822 101.537 81.182 100.745 81.182C99.3591 81.182 98.3871 80.156 98.3871 78.644C98.3871 77.132 99.3591 76.124 100.745 76.124C101.537 76.124 102.167 76.448 102.581 77.06L104.075 75.656C103.499 74.864 102.419 74.09 100.637 74.09C97.9551 74.09 96.0291 75.98 96.0291 78.644C96.0291 81.326 97.9551 83.216 100.637 83.216ZM106.704 73.37C107.46 73.37 108.072 72.758 108.072 72.002C108.072 71.246 107.46 70.652 106.704 70.652C105.966 70.652 105.336 71.246 105.336 72.002C105.336 72.758 105.966 73.37 106.704 73.37ZM107.856 83V74.306H105.57V83H107.856ZM117.538 70.4H115.432L113.02 72.992H114.622L117.538 70.4ZM114.154 83.216C117.034 83.216 118.762 81.128 118.762 78.644C118.762 76.178 117.034 74.09 114.154 74.09C111.292 74.09 109.564 76.178 109.564 78.644C109.564 81.128 111.292 83.216 114.154 83.216ZM114.154 81.182C112.732 81.182 111.94 80.012 111.94 78.644C111.94 77.294 112.732 76.124 114.154 76.124C115.576 76.124 116.386 77.294 116.386 78.644C116.386 80.012 115.576 81.182 114.154 81.182ZM128.612 83V76.862C128.612 75.17 127.694 74.09 125.786 74.09C124.364 74.09 123.302 74.774 122.744 75.44V74.306H120.458V83H122.744V77.15C123.122 76.628 123.824 76.124 124.724 76.124C125.696 76.124 126.326 76.538 126.326 77.744V83H128.612ZM143.768 83V70.994H141.464V75.422C140.78 74.54 139.808 74.09 138.782 74.09C136.568 74.09 134.93 75.818 134.93 78.662C134.93 81.56 136.586 83.216 138.782 83.216C139.826 83.216 140.78 82.748 141.464 81.884V83H143.768ZM139.484 81.182C138.188 81.182 137.288 80.156 137.288 78.662C137.288 77.15 138.188 76.124 139.484 76.124C140.258 76.124 141.086 76.538 141.464 77.114V80.192C141.086 80.768 140.258 81.182 139.484 81.182ZM150.12 83.216C151.47 83.216 152.838 82.802 153.702 82.01L152.694 80.534C152.136 81.074 151.11 81.398 150.372 81.398C148.896 81.398 148.014 80.48 147.87 79.382H154.332V78.878C154.332 76.034 152.568 74.09 149.976 74.09C147.33 74.09 145.476 76.124 145.476 78.644C145.476 81.434 147.474 83.216 150.12 83.216ZM152.118 77.834H147.834C147.942 76.97 148.554 75.908 149.976 75.908C151.488 75.908 152.064 77.006 152.118 77.834ZM162.875 83V70.994H160.589V83H162.875ZM169.174 83.216C172.054 83.216 173.782 81.128 173.782 78.644C173.782 76.178 172.054 74.09 169.174 74.09C166.312 74.09 164.584 76.178 164.584 78.644C164.584 81.128 166.312 83.216 169.174 83.216ZM169.174 81.182C167.752 81.182 166.96 80.012 166.96 78.644C166.96 77.294 167.752 76.124 169.174 76.124C170.596 76.124 171.406 77.294 171.406 78.644C171.406 80.012 170.596 81.182 169.174 81.182ZM178.61 83.216C181.022 83.216 182.372 82.01 182.372 80.426C182.372 76.916 177.224 77.996 177.224 76.7C177.224 76.214 177.764 75.836 178.592 75.836C179.654 75.836 180.644 76.286 181.166 76.844L182.084 75.278C181.22 74.594 180.05 74.09 178.574 74.09C176.288 74.09 175.01 75.368 175.01 76.826C175.01 80.246 180.176 79.076 180.176 80.516C180.176 81.056 179.708 81.452 178.718 81.452C177.638 81.452 176.342 80.858 175.712 80.264L174.722 81.866C175.64 82.712 177.098 83.216 178.61 83.216ZM23.002 107.216C25.648 107.216 27.16 105.758 28.024 104.264L25.828 103.202C25.324 104.192 24.244 104.948 23.002 104.948C20.824 104.948 19.24 103.274 19.24 101.006C19.24 98.738 20.824 97.064 23.002 97.064C24.244 97.064 25.324 97.838 25.828 98.81L28.024 97.73C27.178 96.236 25.648 94.796 23.002 94.796C19.402 94.796 16.612 97.316 16.612 101.006C16.612 104.696 19.402 107.216 23.002 107.216ZM36.9974 107V101.384C36.9974 98.882 35.1794 98.09 33.1994 98.09C31.8314 98.09 30.4634 98.522 29.4014 99.458L30.2654 100.988C31.0034 100.304 31.8674 99.962 32.8034 99.962C33.9554 99.962 34.7114 100.538 34.7114 101.42V102.59C34.1354 101.906 33.1094 101.528 31.9574 101.528C30.5714 101.528 28.9334 102.302 28.9334 104.336C28.9334 106.28 30.5714 107.216 31.9574 107.216C33.0914 107.216 34.1174 106.802 34.7114 106.1V107H36.9974ZM32.8754 105.668C31.9754 105.668 31.2374 105.2 31.2374 104.39C31.2374 103.544 31.9754 103.076 32.8754 103.076C33.6134 103.076 34.3334 103.328 34.7114 103.832V104.912C34.3334 105.416 33.6134 105.668 32.8754 105.668ZM52.3509 107V100.718C52.3509 98.936 51.3969 98.09 49.7949 98.09C48.4629 98.09 47.3109 98.882 46.8069 99.674C46.4829 98.684 45.6729 98.09 44.3949 98.09C43.0629 98.09 41.9109 98.918 41.5509 99.44V98.306H39.2649V107H41.5509V101.15C41.8929 100.664 42.5589 100.124 43.3509 100.124C44.2869 100.124 44.6469 100.7 44.6469 101.51V107H46.9509V101.132C47.2749 100.664 47.9409 100.124 48.7509 100.124C49.6869 100.124 50.0469 100.7 50.0469 101.51V107H52.3509ZM56.879 104.21V101.132C57.257 100.556 58.103 100.124 58.841 100.124C60.173 100.124 61.055 101.15 61.055 102.662C61.055 104.174 60.173 105.182 58.841 105.182C58.103 105.182 57.257 104.768 56.879 104.21ZM56.879 107V105.884C57.563 106.748 58.517 107.216 59.561 107.216C61.757 107.216 63.413 105.56 63.413 102.662C63.413 99.818 61.775 98.09 59.561 98.09C58.535 98.09 57.563 98.54 56.879 99.422V94.994H54.593V107H56.879ZM66.2739 97.37C67.0299 97.37 67.6419 96.758 67.6419 96.002C67.6419 95.246 67.0299 94.652 66.2739 94.652C65.5359 94.652 64.9059 95.246 64.9059 96.002C64.9059 96.758 65.5359 97.37 66.2739 97.37ZM67.4259 107V98.306H65.1399V107H67.4259ZM73.7246 107.216C76.6046 107.216 78.3326 105.128 78.3326 102.644C78.3326 100.178 76.6046 98.09 73.7246 98.09C70.8626 98.09 69.1346 100.178 69.1346 102.644C69.1346 105.128 70.8626 107.216 73.7246 107.216ZM73.7246 105.182C72.3026 105.182 71.5106 104.012 71.5106 102.644C71.5106 101.294 72.3026 100.124 73.7246 100.124C75.1466 100.124 75.9566 101.294 75.9566 102.644C75.9566 104.012 75.1466 105.182 73.7246 105.182ZM83.1605 107.216C85.5725 107.216 86.9225 106.01 86.9225 104.426C86.9225 100.916 81.7745 101.996 81.7745 100.7C81.7745 100.214 82.3145 99.836 83.1425 99.836C84.2045 99.836 85.1945 100.286 85.7165 100.844L86.6345 99.278C85.7705 98.594 84.6005 98.09 83.1245 98.09C80.8385 98.09 79.5605 99.368 79.5605 100.826C79.5605 104.246 84.7265 103.076 84.7265 104.516C84.7265 105.056 84.2585 105.452 83.2685 105.452C82.1885 105.452 80.8925 104.858 80.2625 104.264L79.2725 105.866C80.1905 106.712 81.6485 107.216 83.1605 107.216ZM97.2981 107.216C98.6481 107.216 100.016 106.802 100.88 106.01L99.8721 104.534C99.3141 105.074 98.2881 105.398 97.5501 105.398C96.0741 105.398 95.1921 104.48 95.0481 103.382H101.51V102.878C101.51 100.034 99.7461 98.09 97.1541 98.09C94.5081 98.09 92.6541 100.124 92.6541 102.644C92.6541 105.434 94.6521 107.216 97.2981 107.216ZM99.2961 101.834H95.0121C95.1201 100.97 95.7321 99.908 97.1541 99.908C98.6661 99.908 99.2421 101.006 99.2961 101.834ZM111.315 107V100.862C111.315 99.17 110.397 98.09 108.489 98.09C107.067 98.09 106.005 98.774 105.447 99.44V98.306H103.161V107H105.447V101.15C105.825 100.628 106.527 100.124 107.427 100.124C108.399 100.124 109.029 100.538 109.029 101.744V107H111.315ZM122.277 107.216C123.627 107.216 124.995 106.802 125.859 106.01L124.851 104.534C124.293 105.074 123.267 105.398 122.529 105.398C121.053 105.398 120.171 104.48 120.027 103.382H126.489V102.878C126.489 100.034 124.725 98.09 122.133 98.09C119.487 98.09 117.633 100.124 117.633 102.644C117.633 105.434 119.631 107.216 122.277 107.216ZM124.275 101.834H119.991C120.099 100.97 120.711 99.908 122.133 99.908C123.645 99.908 124.221 101.006 124.275 101.834ZM130.426 107V94.994H128.14V107H130.426ZM19.744 131V126.734H22.804C25.396 126.734 26.836 124.952 26.836 122.864C26.836 120.758 25.414 118.994 22.804 118.994H17.188V131H19.744ZM22.462 124.484H19.744V121.244H22.462C23.47 121.244 24.226 121.856 24.226 122.864C24.226 123.854 23.47 124.484 22.462 124.484ZM35.5209 131V125.384C35.5209 122.882 33.7029 122.09 31.7229 122.09C30.3549 122.09 28.9869 122.522 27.9249 123.458L28.7889 124.988C29.5269 124.304 30.3909 123.962 31.3269 123.962C32.4789 123.962 33.2349 124.538 33.2349 125.42V126.59C32.6589 125.906 31.6329 125.528 30.4809 125.528C29.0949 125.528 27.4569 126.302 27.4569 128.336C27.4569 130.28 29.0949 131.216 30.4809 131.216C31.6149 131.216 32.6409 130.802 33.2349 130.1V131H35.5209ZM31.3989 129.668C30.4989 129.668 29.7609 129.2 29.7609 128.39C29.7609 127.544 30.4989 127.076 31.3989 127.076C32.1369 127.076 32.8569 127.328 33.2349 127.832V128.912C32.8569 129.416 32.1369 129.668 31.3989 129.668ZM40.7043 131.216C41.6583 131.216 42.2703 130.964 42.6123 130.658L42.1263 128.93C42.0003 129.056 41.6763 129.182 41.3343 129.182C40.8303 129.182 40.5423 128.768 40.5423 128.228V124.304H42.3063V122.306H40.5423V119.93H38.2383V122.306H36.7983V124.304H38.2383V128.84C38.2383 130.388 39.1023 131.216 40.7043 131.216ZM46.1563 131V125.258C46.5343 124.7 47.5423 124.268 48.2983 124.268C48.5503 124.268 48.7663 124.286 48.9283 124.322V122.09C47.8483 122.09 46.7683 122.72 46.1563 123.494V122.306H43.8703V131H46.1563ZM51.4907 121.37C52.2467 121.37 52.8587 120.758 52.8587 120.002C52.8587 119.246 52.2467 118.652 51.4907 118.652C50.7527 118.652 50.1227 119.246 50.1227 120.002C50.1227 120.758 50.7527 121.37 51.4907 121.37ZM52.6427 131V122.306H50.3567V131H52.6427ZM67.9954 131V124.718C67.9954 122.936 67.0414 122.09 65.4394 122.09C64.1074 122.09 62.9554 122.882 62.4514 123.674C62.1274 122.684 61.3174 122.09 60.0394 122.09C58.7074 122.09 57.5554 122.918 57.1954 123.44V122.306H54.9094V131H57.1954V125.15C57.5374 124.664 58.2034 124.124 58.9954 124.124C59.9314 124.124 60.2914 124.7 60.2914 125.51V131H62.5954V125.132C62.9194 124.664 63.5854 124.124 64.3954 124.124C65.3314 124.124 65.6914 124.7 65.6914 125.51V131H67.9954ZM74.2695 131.216C77.1495 131.216 78.8775 129.128 78.8775 126.644C78.8775 124.178 77.1495 122.09 74.2695 122.09C71.4075 122.09 69.6795 124.178 69.6795 126.644C69.6795 129.128 71.4075 131.216 74.2695 131.216ZM74.2695 129.182C72.8475 129.182 72.0555 128.012 72.0555 126.644C72.0555 125.294 72.8475 124.124 74.2695 124.124C75.6915 124.124 76.5015 125.294 76.5015 126.644C76.5015 128.012 75.6915 129.182 74.2695 129.182ZM88.7275 131V124.862C88.7275 123.17 87.8095 122.09 85.9015 122.09C84.4795 122.09 83.4175 122.774 82.8595 123.44V122.306H80.5735V131H82.8595V125.15C83.2375 124.628 83.9395 124.124 84.8395 124.124C85.8115 124.124 86.4415 124.538 86.4415 125.744V131H88.7275ZM92.1313 121.37C92.8873 121.37 93.4993 120.758 93.4993 120.002C93.4993 119.246 92.8873 118.652 92.1313 118.652C91.3933 118.652 90.7633 119.246 90.7633 120.002C90.7633 120.758 91.3933 121.37 92.1313 121.37ZM93.2833 131V122.306H90.9973V131H93.2833ZM99.582 131.216C102.462 131.216 104.19 129.128 104.19 126.644C104.19 124.178 102.462 122.09 99.582 122.09C96.72 122.09 94.992 124.178 94.992 126.644C94.992 129.128 96.72 131.216 99.582 131.216ZM99.582 129.182C98.16 129.182 97.368 128.012 97.368 126.644C97.368 125.294 98.16 124.124 99.582 124.124C101.004 124.124 101.814 125.294 101.814 126.644C101.814 128.012 101.004 129.182 99.582 129.182ZM21.454 155.216C24.694 155.216 26.26 153.56 26.26 151.364C26.26 146.882 19.366 148.16 19.366 146.252C19.366 145.532 19.978 145.046 21.076 145.046C22.3 145.046 23.596 145.46 24.568 146.36L25.99 144.488C24.802 143.39 23.218 142.814 21.31 142.814C18.484 142.814 16.756 144.47 16.756 146.468C16.756 150.986 23.668 149.528 23.668 151.652C23.668 152.336 22.984 152.984 21.58 152.984C19.924 152.984 18.61 152.246 17.764 151.364L16.378 153.308C17.494 154.442 19.15 155.216 21.454 155.216ZM31.959 155.216C34.839 155.216 36.567 153.128 36.567 150.644C36.567 148.178 34.839 146.09 31.959 146.09C29.097 146.09 27.369 148.178 27.369 150.644C27.369 153.128 29.097 155.216 31.959 155.216ZM31.959 153.182C30.537 153.182 29.745 152.012 29.745 150.644C29.745 149.294 30.537 148.124 31.959 148.124C33.381 148.124 34.191 149.294 34.191 150.644C34.191 152.012 33.381 153.182 31.959 153.182ZM42.3129 155.216C44.0949 155.216 45.1749 154.442 45.7509 153.632L44.2569 152.246C43.8429 152.822 43.2129 153.182 42.4209 153.182C41.0349 153.182 40.0629 152.156 40.0629 150.644C40.0629 149.132 41.0349 148.124 42.4209 148.124C43.2129 148.124 43.8429 148.448 44.2569 149.06L45.7509 147.656C45.1749 146.864 44.0949 146.09 42.3129 146.09C39.6309 146.09 37.7049 147.98 37.7049 150.644C37.7049 153.326 39.6309 155.216 42.3129 155.216ZM48.3793 145.37C49.1353 145.37 49.7473 144.758 49.7473 144.002C49.7473 143.246 49.1353 142.652 48.3793 142.652C47.6413 142.652 47.0113 143.246 47.0113 144.002C47.0113 144.758 47.6413 145.37 48.3793 145.37ZM49.5313 155V146.306H47.2453V155H49.5313ZM59.3041 155V149.384C59.3041 146.882 57.4861 146.09 55.5061 146.09C54.1381 146.09 52.7701 146.522 51.7081 147.458L52.5721 148.988C53.3101 148.304 54.1741 147.962 55.1101 147.962C56.2621 147.962 57.0181 148.538 57.0181 149.42V150.59C56.4421 149.906 55.4161 149.528 54.2641 149.528C52.8781 149.528 51.2401 150.302 51.2401 152.336C51.2401 154.28 52.8781 155.216 54.2641 155.216C55.3981 155.216 56.4241 154.802 57.0181 154.1V155H59.3041ZM55.1821 153.668C54.2821 153.668 53.5441 153.2 53.5441 152.39C53.5441 151.544 54.2821 151.076 55.1821 151.076C55.9201 151.076 56.6401 151.328 57.0181 151.832V152.912C56.6401 153.416 55.9201 153.668 55.1821 153.668ZM63.8575 155V142.994H61.5715V155H63.8575Z" fill="white"></path><g clip-path="url(#clip2_1593_4290)"><path d="M184.665 184H177.999V174H167.999V184H161.332L172.999 195.667L184.665 184ZM161.332 199V202.333H184.665V199H161.332Z" fill="#48785D"></path></g></g><defs><clipPath id="clip0_1593_4290"><rect width="209" height="222" rx="8" fill="white"></rect></clipPath><clipPath id="clip1_1593_4290"><rect width="40" height="40" fill="white" transform="translate(16 14)"></rect></clipPath><clipPath id="clip2_1593_4290"><rect width="40" height="40" fill="white" transform="translate(153 169)"></rect></clipPath></defs></svg>