<svg xmlns="http://www.w3.org/2000/svg" width="207" height="222" viewBox="0 0 207 222" fill="none"><g clip-path="url(#clip0_1_4060)"><rect width="207" height="222" rx="8" fill="#48785D"></rect><path d="M147.992 117.638L413.958 279.958L147.967 442.321L-118 280L147.992 117.638Z" fill="#E6B12E"></path><g clip-path="url(#clip1_1_4060)"><path d="M48.5 19.8333L46 17.3333L43.5 19.8333L41 17.3333L38.5 19.8333L36 17.3333L33.5 19.8333L31 17.3333L28.5 19.8333L26 17.3333V40.6667H21V45.6667C21 48.4333 23.2333 50.6667 26 50.6667H46C48.7667 50.6667 51 48.4333 51 45.6667V17.3333L48.5 19.8333ZM41 47.3333H26C25.0833 47.3333 24.3333 46.5833 24.3333 45.6667V44H41V47.3333ZM47.6667 45.6667C47.6667 46.5833 46.9167 47.3333 46 47.3333C45.0833 47.3333 44.3333 46.5833 44.3333 45.6667V40.6667H29.3333V22.3333H47.6667V45.6667Z" fill="#E6B12E"></path><path d="M41 25.6667H31V29H41V25.6667Z" fill="#E6B12E"></path><path d="M46 25.6667H42.6667V29H46V25.6667Z" fill="#E6B12E"></path><path d="M41 30.6667H31V34H41V30.6667Z" fill="#E6B12E"></path><path d="M46 30.6667H42.6667V34H46V30.6667Z" fill="#E6B12E"></path></g><path d="M26.908 83L24.208 78.428C25.504 78.122 26.836 76.988 26.836 74.864C26.836 72.632 25.306 70.994 22.804 70.994H17.188V83H19.744V78.734H21.616L23.974 83H26.908ZM22.426 76.484H19.744V73.244H22.426C23.452 73.244 24.226 73.856 24.226 74.864C24.226 75.872 23.452 76.484 22.426 76.484ZM32.2415 83.216C33.5915 83.216 34.9595 82.802 35.8235 82.01L34.8155 80.534C34.2575 81.074 33.2315 81.398 32.4935 81.398C31.0175 81.398 30.1355 80.48 29.9915 79.382H36.4535V78.878C36.4535 76.034 34.6895 74.09 32.0975 74.09C29.4515 74.09 27.5975 76.124 27.5975 78.644C27.5975 81.434 29.5955 83.216 32.2415 83.216ZM34.2395 77.834H29.9555C30.0635 76.97 30.6755 75.908 32.0975 75.908C33.6095 75.908 34.1855 77.006 34.2395 77.834ZM41.2367 83.216C43.6487 83.216 44.9987 82.01 44.9987 80.426C44.9987 76.916 39.8507 77.996 39.8507 76.7C39.8507 76.214 40.3907 75.836 41.2187 75.836C42.2807 75.836 43.2707 76.286 43.7927 76.844L44.7107 75.278C43.8467 74.594 42.6767 74.09 41.2007 74.09C38.9147 74.09 37.6367 75.368 37.6367 76.826C37.6367 80.246 42.8027 79.076 42.8027 80.516C42.8027 81.056 42.3347 81.452 41.3447 81.452C40.2647 81.452 38.9687 80.858 38.3387 80.264L37.3487 81.866C38.2667 82.712 39.7247 83.216 41.2367 83.216ZM54.8368 83V74.306H52.5508V80.192C52.1548 80.696 51.4528 81.182 50.5708 81.182C49.5988 81.182 48.9688 80.786 48.9688 79.58V74.306H46.6828V80.48C46.6828 82.172 47.5828 83.216 49.4908 83.216C50.9128 83.216 51.9568 82.568 52.5508 81.902V83H54.8368ZM59.3927 83V70.994H57.1067V83H59.3927ZM64.5754 83.216C65.5294 83.216 66.1414 82.964 66.4834 82.658L65.9974 80.93C65.8714 81.056 65.5474 81.182 65.2054 81.182C64.7014 81.182 64.4134 80.768 64.4134 80.228V76.304H66.1774V74.306H64.4134V71.93H62.1094V74.306H60.6694V76.304H62.1094V80.84C62.1094 82.388 62.9734 83.216 64.5754 83.216ZM70.8734 83.216C73.2854 83.216 74.6354 82.01 74.6354 80.426C74.6354 76.916 69.4874 77.996 69.4874 76.7C69.4874 76.214 70.0274 75.836 70.8554 75.836C71.9174 75.836 72.9074 76.286 73.4294 76.844L74.3474 75.278C73.4834 74.594 72.3134 74.09 70.8374 74.09C68.5514 74.09 67.2734 75.368 67.2734 76.826C67.2734 80.246 72.4394 79.076 72.4394 80.516C72.4394 81.056 71.9714 81.452 70.9814 81.452C69.9014 81.452 68.6054 80.858 67.9754 80.264L66.9854 81.866C67.9034 82.712 69.3614 83.216 70.8734 83.216ZM21.922 107C25.684 107 28.294 104.624 28.294 101.006C28.294 97.388 25.684 94.994 21.922 94.994H17.188V107H21.922ZM21.922 104.75H19.744V97.244H21.922C24.388 97.244 25.684 98.882 25.684 101.006C25.684 103.04 24.298 104.75 21.922 104.75ZM34.1399 107.216C35.4899 107.216 36.8579 106.802 37.7219 106.01L36.7139 104.534C36.1559 105.074 35.1299 105.398 34.3919 105.398C32.9159 105.398 32.0339 104.48 31.8899 103.382H38.3519V102.878C38.3519 100.034 36.5879 98.09 33.9959 98.09C31.3499 98.09 29.4959 100.124 29.4959 102.644C29.4959 105.434 31.4939 107.216 34.1399 107.216ZM36.1379 101.834H31.8539C31.9619 100.97 32.5739 99.908 33.9959 99.908C35.5079 99.908 36.0839 101.006 36.1379 101.834ZM53.0891 107V100.718C53.0891 98.936 52.1351 98.09 50.5331 98.09C49.2011 98.09 48.0491 98.882 47.5451 99.674C47.2211 98.684 46.4111 98.09 45.1331 98.09C43.8011 98.09 42.6491 98.918 42.2891 99.44V98.306H40.0031V107H42.2891V101.15C42.6311 100.664 43.2971 100.124 44.0891 100.124C45.0251 100.124 45.3851 100.7 45.3851 101.51V107H47.6891V101.132C48.0131 100.664 48.6791 100.124 49.4891 100.124C50.4251 100.124 50.7851 100.7 50.7851 101.51V107H53.0891ZM59.3633 107.216C62.2433 107.216 63.9713 105.128 63.9713 102.644C63.9713 100.178 62.2433 98.09 59.3633 98.09C56.5013 98.09 54.7733 100.178 54.7733 102.644C54.7733 105.128 56.5013 107.216 59.3633 107.216ZM59.3633 105.182C57.9413 105.182 57.1493 104.012 57.1493 102.644C57.1493 101.294 57.9413 100.124 59.3633 100.124C60.7853 100.124 61.5953 101.294 61.5953 102.644C61.5953 104.012 60.7853 105.182 59.3633 105.182ZM73.8212 107V100.862C73.8212 99.17 72.9032 98.09 70.9952 98.09C69.5732 98.09 68.5112 98.774 67.9532 99.44V98.306H65.6672V107H67.9532V101.15C68.3312 100.628 69.0332 100.124 69.9332 100.124C70.9052 100.124 71.5352 100.538 71.5352 101.744V107H73.8212ZM79.223 107.216C81.635 107.216 82.985 106.01 82.985 104.426C82.985 100.916 77.837 101.996 77.837 100.7C77.837 100.214 78.377 99.836 79.205 99.836C80.267 99.836 81.257 100.286 81.779 100.844L82.697 99.278C81.833 98.594 80.663 98.09 79.187 98.09C76.901 98.09 75.623 99.368 75.623 100.826C75.623 104.246 80.789 103.076 80.789 104.516C80.789 105.056 80.321 105.452 79.331 105.452C78.251 105.452 76.955 104.858 76.325 104.264L75.335 105.866C76.253 106.712 77.711 107.216 79.223 107.216ZM87.5852 107.216C88.5392 107.216 89.1512 106.964 89.4932 106.658L89.0072 104.93C88.8812 105.056 88.5572 105.182 88.2152 105.182C87.7112 105.182 87.4232 104.768 87.4232 104.228V100.304H89.1872V98.306H87.4232V95.93H85.1192V98.306H83.6792V100.304H85.1192V104.84C85.1192 106.388 85.9832 107.216 87.5852 107.216ZM93.0372 107V101.258C93.4152 100.7 94.4232 100.268 95.1792 100.268C95.4312 100.268 95.6472 100.286 95.8092 100.322V98.09C94.7292 98.09 93.6492 98.72 93.0372 99.494V98.306H90.7512V107H93.0372ZM104.744 107V101.384C104.744 98.882 102.926 98.09 100.946 98.09C99.5775 98.09 98.2095 98.522 97.1475 99.458L98.0115 100.988C98.7495 100.304 99.6135 99.962 100.55 99.962C101.702 99.962 102.458 100.538 102.458 101.42V102.59C101.882 101.906 100.856 101.528 99.7035 101.528C98.3175 101.528 96.6795 102.302 96.6795 104.336C96.6795 106.28 98.3175 107.216 99.7035 107.216C100.838 107.216 101.864 106.802 102.458 106.1V107H104.744ZM100.622 105.668C99.7215 105.668 98.9835 105.2 98.9835 104.39C98.9835 103.544 99.7215 103.076 100.622 103.076C101.36 103.076 102.08 103.328 102.458 103.832V104.912C102.08 105.416 101.36 105.668 100.622 105.668ZM109.927 107.216C110.881 107.216 111.493 106.964 111.835 106.658L111.349 104.93C111.223 105.056 110.899 105.182 110.557 105.182C110.053 105.182 109.765 104.768 109.765 104.228V100.304H111.529V98.306H109.765V95.93H107.461V98.306H106.021V100.304H107.461V104.84C107.461 106.388 108.325 107.216 109.927 107.216ZM114.227 97.37C114.983 97.37 115.595 96.758 115.595 96.002C115.595 95.246 114.983 94.652 114.227 94.652C113.489 94.652 112.859 95.246 112.859 96.002C112.859 96.758 113.489 97.37 114.227 97.37ZM115.379 107V98.306H113.093V107H115.379ZM121.678 107.216C124.558 107.216 126.286 105.128 126.286 102.644C126.286 100.178 124.558 98.09 121.678 98.09C118.816 98.09 117.088 100.178 117.088 102.644C117.088 105.128 118.816 107.216 121.678 107.216ZM121.678 105.182C120.256 105.182 119.464 104.012 119.464 102.644C119.464 101.294 120.256 100.124 121.678 100.124C123.1 100.124 123.91 101.294 123.91 102.644C123.91 104.012 123.1 105.182 121.678 105.182ZM136.136 107V100.862C136.136 99.17 135.218 98.09 133.31 98.09C131.888 98.09 130.826 98.774 130.268 99.44V98.306H127.982V107H130.268V101.15C130.646 100.628 131.348 100.124 132.248 100.124C133.22 100.124 133.85 100.538 133.85 101.744V107H136.136Z" fill="white"></path><g clip-path="url(#clip2_1_4060)"><path d="M181.667 184H175V174H165V184H158.333L170 195.667L181.667 184ZM158.333 199V202.333H181.667V199H158.333Z" fill="#48785D"></path></g></g><defs><clipPath id="clip0_1_4060"><rect width="207" height="222" rx="8" fill="white"></rect></clipPath><clipPath id="clip1_1_4060"><rect width="40" height="40" fill="white" transform="translate(16 14)"></rect></clipPath><clipPath id="clip2_1_4060"><rect width="40" height="40" fill="white" transform="translate(150 169)"></rect></clipPath></defs></svg>